<svg width="24" height="24" viewBox="0 0 24 24" fill="none" xmlns="http://www.w3.org/2000/svg">
<path d="M6 16.5L3 2C3 2 8.25 3 8.25 5C8.25 6.25 6.25 7 7 7.75C7.75 8.5 10.5 9.25 10.5 11.25C10.5 12.5 9.6797 13.4297 10.5 14.25C11.25 15 12 14.6071 13.25 14.25C14.65 13.85 17.5 13.5 18.5 13.75C19.5 14 20.5 14.5 20.5 16C20.5 16.8246 20 17.75 18.75 18C17.5 18.25 16 17 14 17C12 17 9.5 18.5 8 18.5C6.5 18.5 6 16.5 6 16.5Z" stroke="#053C5A" stroke-width="1.5" stroke-linejoin="round"/>
<path d="M18.5 18L20 22H3.5L6.5 18" stroke="#053C5A" stroke-width="1.5" stroke-linejoin="round"/>
</svg>
