<svg width="24" height="24" viewBox="0 0 24 24" fill="none" xmlns="http://www.w3.org/2000/svg">
<path d="M4 12.745L4.30897 16.2209C4.41695 17.4356 5.50011 18.37 6.80033 18.37H17.1997C18.4999 18.37 19.5831 17.4356 19.691 16.2209L20 12.745M4 12.745H20M4 12.745C3.44772 12.745 3 12.3253 3 11.8075V11.5731C3 10.9259 3.55964 10.4012 4.25 10.4012H19.75C20.4404 10.4012 21 10.9259 21 11.5731V11.8075C21 12.3253 20.5523 12.745 20 12.745M14 5.245H13.9048C12.8528 5.245 12 6.04449 12 7.03071C12 7.08002 12.0427 7.12 12.0953 7.12H15.9048C15.9574 7.12 16 7.08002 16 7.03071C16 6.04449 15.1473 5.245 14.0953 5.245H14ZM14 5.245C14 4.20946 14.8955 3.37 16 3.37C17.1046 3.37 18 4.20946 18 5.245V10.4012M7 20.62H8.99997M15 20.62H17" stroke="#053C5A" stroke-width="1.5" stroke-linecap="round"/>
</svg>
