<svg width="30" height="30" viewBox="0 0 30 30" fill="none" xmlns="http://www.w3.org/2000/svg">
<path d="M6.25 22.5H3.75C3.08696 22.5 2.45107 22.2366 1.98223 21.7678C1.51339 21.2989 1.25 20.663 1.25 20V10C1.25 9.33696 1.51339 8.70107 1.98223 8.23223C2.45107 7.76339 3.08696 7.5 3.75 7.5H7.7375M18.75 7.5H21.25C21.913 7.5 22.5489 7.76339 23.0178 8.23223C23.4866 8.70107 23.75 9.33696 23.75 10V20C23.75 20.663 23.4866 21.2989 23.0178 21.7678C22.5489 22.2366 21.913 22.5 21.25 22.5H17.2625" stroke="#3CCDAA" stroke-width="1.5" stroke-linecap="round" stroke-linejoin="round"/>
<path d="M28.75 16.25V13.75" stroke="#212529" stroke-width="1.5" stroke-linecap="round" stroke-linejoin="round"/>
<path d="M13.75 7.5L8.75 15H16.25L11.25 22.5" stroke="#212529" stroke-width="1.5" stroke-linecap="round" stroke-linejoin="round"/>
</svg>
