<svg width="20" height="20" viewBox="0 0 20 20" fill="none" xmlns="http://www.w3.org/2000/svg">
<path d="M3.77778 15.1935L4.13806 16.6579C4.18752 16.859 4.36529 17 4.56923 17H5.20854C5.41248 17 5.59026 16.859 5.63972 16.6579L6 15.1935M14 15.1935L14.3603 16.6579C14.4097 16.859 14.5875 17 14.7915 17H15.4308C15.6347 17 15.8125 16.859 15.8619 16.6579L16.2222 15.1935M3.77778 9.32258V3.90323M3.77778 3.90323V3M3.77778 3.90323H16.2222M16.2222 3.90323V3M16.2222 3.90323V9.32258M2 13.1613V13.8387C2 14.587 2.59695 15.1935 3.33333 15.1935H16.6667C17.403 15.1935 18 14.587 18 13.8387V13.1613M2 13.1613V11.5806C2 10.3335 2.99492 9.32258 4.22222 9.32258H15.7778C17.0051 9.32258 18 10.3336 18 11.5806V13.1613M2 13.1613H18M6.94444 7.06452H7.53947C8.30653 7.06452 8.92836 7.69637 8.92836 8.47581C8.92836 8.94347 8.55527 9.32258 8.09503 9.32258H6.38889C5.92865 9.32258 5.55556 8.94347 5.55556 8.47581C5.55556 7.69637 6.17738 7.06452 6.94444 7.06452ZM12.4644 7.06452H13.0595C13.8265 7.06452 14.4484 7.69637 14.4484 8.47581C14.4484 8.94347 14.0753 9.32258 13.615 9.32258H11.9089C11.4487 9.32258 11.0756 8.94347 11.0756 8.47581C11.0756 7.69637 11.6974 7.06452 12.4644 7.06452Z" stroke="#282930" stroke-width="1.5" stroke-linecap="round"/>
</svg>
