<svg width="30" height="30" viewBox="0 0 30 30" fill="none" xmlns="http://www.w3.org/2000/svg">
<path d="M10.7373 19.45L19.0123 11.8625C19.3623 11.55 19.3498 11.05 18.9873 10.75L16.4123 8.60002C15.7373 8.03752 15.1998 8.30001 15.1998 9.17501V20.8375C15.1998 21.7125 15.7498 21.9625 16.4123 21.4125L18.9873 19.2625C19.3498 18.9625 19.3623 18.4625 19.0123 18.15L10.7373 10.5625" stroke="#212529" stroke-width="1.5" stroke-miterlimit="10" stroke-linecap="round" stroke-linejoin="round"/>
<path d="M15 27.5C21.9036 27.5 27.5 21.9036 27.5 15C27.5 8.09644 21.9036 2.5 15 2.5C8.09644 2.5 2.5 8.09644 2.5 15C2.5 21.9036 8.09644 27.5 15 27.5Z" stroke="#3CCDAA" stroke-width="1.5" stroke-miterlimit="10" stroke-linecap="round" stroke-linejoin="round"/>
</svg>
