<svg width="30" height="30" viewBox="0 0 30 30" fill="none" xmlns="http://www.w3.org/2000/svg">
<path d="M15.6244 27.5004H5.09941C3.64941 27.5004 2.46191 26.3379 2.46191 24.9129V6.36294C2.46191 3.08794 4.89941 1.60044 7.88691 3.06294L13.4369 5.78794C14.6369 6.37544 15.6244 7.93794 15.6244 9.26294V27.5004Z" stroke="#212529" stroke-width="1.5" stroke-linecap="round" stroke-linejoin="round"/>
<path d="M27.4625 18.8254V23.5504C27.4625 26.2504 26.2125 27.5004 23.5125 27.5004H15.625V13.0254L16.2125 13.1504L21.8375 14.4129L24.375 14.9754C26.025 15.3379 27.375 16.1879 27.45 18.5879C27.4625 18.6629 27.4625 18.7379 27.4625 18.8254Z" stroke="#212529" stroke-width="1.5" stroke-linecap="round" stroke-linejoin="round"/>
<path opacity="0.4" d="M6.875 11.2505H11.2125" stroke="#3CCDAA" stroke-width="1.5" stroke-linecap="round" stroke-linejoin="round"/>
<path opacity="0.4" d="M6.875 16.2505H11.2125" stroke="#3CCDAA" stroke-width="1.5" stroke-linecap="round" stroke-linejoin="round"/>
<path d="M21.8369 14.4129V18.4379C21.8369 19.9879 20.5744 21.2504 19.0244 21.2504C17.4744 21.2504 16.2119 19.9879 16.2119 18.4379V13.1504L21.8369 14.4129Z" stroke="#212529" stroke-width="1.5" stroke-linecap="round" stroke-linejoin="round"/>
<path d="M27.4494 18.588C27.3744 20.063 26.1494 21.2505 24.6494 21.2505C23.0994 21.2505 21.8369 19.988 21.8369 18.438V14.413L24.3744 14.9755C26.0244 15.338 27.3744 16.188 27.4494 18.588Z" stroke="#212529" stroke-width="1.5" stroke-linecap="round" stroke-linejoin="round"/>
</svg>
