<svg width="30" height="30" viewBox="0 0 30 30" fill="none" xmlns="http://www.w3.org/2000/svg">
<path d="M15 22.8125C18.4518 22.8125 21.25 20.0143 21.25 16.5625C21.25 13.1107 18.4518 10.3125 15 10.3125C11.5482 10.3125 8.75 13.1107 8.75 16.5625C8.75 20.0143 11.5482 22.8125 15 22.8125Z" stroke="#3CCDAA" stroke-width="1.5" stroke-linecap="round" stroke-linejoin="round"/>
<path d="M2.50001 12.5C2.49808 11.4144 2.84953 10.3576 3.50125 9.48944C4.15297 8.62123 5.06955 7.98878 6.11251 7.68753C7.14482 7.38551 8.05223 6.75859 8.70002 5.89996L9.75001 4.49997C10.2157 3.87899 10.8197 3.37494 11.5139 3.0278C12.2082 2.68066 12.9738 2.5 13.75 2.5H16.25C17.0262 2.5 17.7918 2.68066 18.4861 3.0278C19.1804 3.37494 19.7843 3.87899 20.25 4.49997L21.3125 5.89996C21.9552 6.76391 22.8645 7.39218 23.9 7.68753C24.9407 7.99104 25.8545 8.62449 26.5038 9.49249C27.1531 10.3605 27.5027 11.416 27.5 12.5L26.6625 22.5C26.5282 23.8513 25.9032 25.1064 24.9057 26.0278C23.9083 26.9493 22.6077 27.473 21.25 27.5H8.75001C7.39237 27.473 6.09173 26.9493 5.09429 26.0278C4.09684 25.1064 3.47182 23.8513 3.33752 22.5L2.50001 12.5Z" stroke="#212529" stroke-width="1.5" stroke-linecap="round" stroke-linejoin="round"/>
</svg>
