<svg width="354" height="127" viewBox="0 0 354 127" fill="none" xmlns="http://www.w3.org/2000/svg">
<path d="M1.30513 79.6749C1.30513 82.953 2.00273 86.1834 3.37209 89.2223L4.87064 92.5244C6.96343 97.1665 11.1232 100.756 16.2647 102.359L38.407 109.418H325.017L343.438 104.178C348.399 102.766 351.939 98.7219 352.404 93.9362L353.179 85.7288C353.282 84.4605 353.024 83.1684 352.43 82.0199C351.68 80.6081 351.422 79.0049 351.68 77.4256L349.562 64.1692C349.898 62.1114 348.735 60.1014 346.694 59.2161L346.255 59.1203C323.131 48.9029 298.405 43.4951 272.981 40.6237L262.31 39.4273L250.141 33.3734C182.526 -5.07959 85.3012 -9.05171 13.216 16.4321L2.70033 37.513L4.87064 55.1243L2.05441 68.596C1.53767 71.0128 1.2793 73.4774 1.2793 75.942V79.6749H1.30513Z" fill="white"/>
<path d="M242.598 45.7238L88.1192 40.6749C74.4772 40.2442 60.6286 39.287 46.9092 37.8752C45.204 37.7077 43.9121 36.3199 43.9121 34.6689V19.7614C43.9121 16.9379 45.8757 14.4972 48.6919 13.8272C81.5566 6.00261 115.946 4.18404 148.164 8.58687C184.052 13.4922 215.935 25.6718 242.934 44.7906C243.141 44.9341 243.219 45.1734 243.115 45.3888C243.063 45.5802 242.831 45.7238 242.598 45.7238Z" fill="#3CCDAA"/>
<path d="M242.598 45.8185L88.1192 40.7696C74.4772 40.3389 60.6286 39.3817 46.9092 37.97C45.204 37.8025 43.9121 36.4146 43.9121 34.7636V19.8562C43.9121 17.0326 45.8757 14.5919 48.6919 13.9219C81.5566 6.09733 115.946 4.27877 148.164 8.6816C184.052 13.5869 215.935 25.7665 242.934 44.8853C243.141 45.0289 243.219 45.2681 243.115 45.4835C243.064 45.6749 242.831 45.8185 242.598 45.8185ZM112.535 7.38947C91.6072 7.38947 70.2141 9.8541 49.002 14.9269C46.7025 15.4773 45.0748 17.4873 45.0748 19.8322V34.7396C45.0748 35.8643 45.9274 36.7975 47.0384 36.9171C60.7061 38.3289 74.5548 39.2621 88.145 39.7168L240.816 44.7178C205.522 20.239 160.204 7.38947 112.535 7.38947Z" fill="#053C5A"/>
<path d="M3.37405 35.2653C11.8744 33.6381 20.2198 35.9831 24.9479 41.4627C28.4359 45.5306 28.9268 50.1248 28.9785 52.2545C28.9785 52.2545 27.9967 57.1598 4.43336 55.2934L2.18555 37.1317C2.90898 36.7249 3.29654 36.031 3.37405 35.2653Z" fill="#3CCDAA"/>
<path d="M14.0941 56.2768C11.3812 56.2768 8.17743 56.1572 4.40523 55.8461C4.14686 55.8222 3.91433 55.6307 3.88849 55.3914L1.64068 37.2298C1.61484 37.0383 1.71819 36.8469 1.87321 36.7273C2.38995 36.3923 2.69999 35.8419 2.80334 35.1959C2.82918 34.9805 3.01004 34.7891 3.24257 34.7412C12.053 33.0662 20.5275 35.5069 25.3849 41.1301C28.6662 44.9587 29.4671 49.2897 29.5446 52.2568C29.5446 52.3047 29.5446 52.3286 29.5446 52.3765C29.4671 52.8311 28.3044 56.2768 14.0941 56.2768ZM4.97365 54.8411C25.9533 56.4443 28.2528 52.6157 28.4336 52.209C28.3303 49.4093 27.581 45.3654 24.5064 41.8001C19.9849 36.5598 12.1047 34.2627 3.86266 35.7223C3.70763 36.3923 3.32008 36.9905 2.80334 37.3973L4.97365 54.8411Z" fill="#053C5A"/>
<path d="M316.957 58.5944C316.621 58.3791 316.75 57.9005 317.164 57.8527C319.282 57.5894 321.427 57.1348 326.853 57.5655C332.433 58.0201 340.805 60.5805 344.318 62.3033C345.249 62.758 345.274 63.739 345.274 64.7201C345.274 65.1508 345.171 66.0601 345.042 66.4908C344.732 67.6154 343.44 68.2615 342.2 68.2615H334.681C330.573 68.2615 323.907 67.0651 320.6 64.8158L316.957 58.5944Z" fill="white"/>
<path d="M342.225 68.8105H332.02C327.782 68.8105 323.726 67.5901 320.29 65.2691C320.212 65.2212 320.16 65.1734 320.135 65.1016L316.517 58.9759C316.259 58.7366 316.156 58.4016 316.233 58.0666C316.337 57.6838 316.672 57.4205 317.112 57.3488C317.396 57.3248 317.68 57.277 317.964 57.2291C319.928 56.9659 322.176 56.6788 326.93 57.0616C332.717 57.5163 341.088 60.1484 344.551 61.8234L344.628 61.8473C345.894 62.4695 346.049 63.4745 345.894 64.7905L345.661 66.5852C345.532 68.0209 343.801 68.8105 342.225 68.8105ZM321.065 64.4794C324.268 66.633 328.067 67.7576 332.02 67.7576H342.225C343.284 67.7576 344.447 67.2791 344.499 66.4894L344.731 64.6709C344.886 63.4266 344.654 63.0677 344.085 62.7805L344.008 62.7566C340.649 61.1295 332.485 58.5691 326.826 58.1145C322.202 57.7316 320.031 58.0188 318.119 58.282C317.887 58.3059 317.68 58.3298 317.473 58.3777L321.065 64.4794Z" fill="#053C5A"/>
<path d="M173.949 51.3214L153.073 50.8429C151.962 50.8189 150.8 50.7232 149.611 50.5318C149.327 50.4839 149.12 50.2686 149.12 50.0054V47.1818C149.12 47.0382 149.172 46.8947 149.301 46.799C149.404 46.7032 149.559 46.6554 149.714 46.6554L173.975 47.1818C174.285 47.1818 174.544 47.4211 174.544 47.7083V50.7471C174.544 50.8907 174.492 51.0343 174.363 51.13C174.234 51.2736 174.104 51.3214 173.949 51.3214ZM150.257 49.5747C151.213 49.6943 152.169 49.7661 153.099 49.79L173.381 50.2447V48.2586L150.257 47.7561V49.5747Z" fill="#053C5A"/>
<path d="M340.235 95.1097C339.279 95.1097 338.401 94.5833 338.013 93.7458C337.083 91.688 335.481 87.6441 335.068 83.5523C335.016 82.9302 335.248 82.2841 335.714 81.8295C336.204 81.3509 336.876 81.1116 337.574 81.1355C340.648 81.2791 344.679 81.5663 346.462 82.2602C348.038 82.8584 349.02 84.3898 348.839 85.9452C347.986 93.2912 342.767 94.7987 340.545 95.0858C340.468 95.0858 340.364 95.1097 340.235 95.1097ZM336.23 83.4566C336.618 87.4048 338.168 91.353 339.072 93.339C339.305 93.8415 339.847 94.1287 340.416 94.0569C342.845 93.7219 347.004 92.2144 347.728 85.8495C347.857 84.7488 347.159 83.6959 346.048 83.2652C344.782 82.7866 341.759 82.4038 337.548 82.2123C337.16 82.1884 336.825 82.332 336.566 82.5712C336.308 82.7866 336.179 83.1216 336.23 83.4566Z" fill="#053C5A"/>
<path d="M243.036 94.7523C243.036 74.8199 260.476 58.6682 281.998 58.6682C303.521 58.6682 320.96 74.8199 320.96 94.7523C320.96 99.9448 319.772 104.898 317.627 109.373L317.007 109.54H246.447C244.25 105.018 243.036 100.017 243.036 94.7523Z" fill="white"/>
<path d="M317.008 110.067H246.448C246.215 110.067 246.008 109.948 245.931 109.756C243.631 105.018 242.469 99.9696 242.469 94.7532C242.469 74.5576 260.219 58.1427 281.999 58.1427C303.806 58.1427 321.53 74.5815 321.53 94.7532C321.53 99.9217 320.393 104.899 318.145 109.589C318.068 109.732 317.939 109.828 317.784 109.876L317.163 110.043C317.138 110.067 317.086 110.067 317.008 110.067ZM246.809 109.015H316.931L317.241 108.919C319.36 104.444 320.419 99.6585 320.419 94.7293C320.419 75.108 303.186 59.1716 282.025 59.1716C260.839 59.1716 243.631 75.1319 243.631 94.7293C243.606 99.7064 244.691 104.516 246.809 109.015Z" fill="#053C5A"/>
<path d="M31.3808 103.457H20.7618C20.0126 100.657 19.625 97.7378 19.625 94.7468C19.625 74.8144 37.0908 58.6388 58.613 58.6388C80.1352 58.6388 97.601 74.8144 97.601 94.7468C97.601 100.011 96.3866 105.036 94.1905 109.535H31.4067V103.457H31.3808Z" fill="white"/>
<path d="M94.1652 110.065H31.3813C31.0713 110.065 30.8129 109.826 30.8129 109.539V103.988H20.7365C20.4781 103.988 20.2456 103.82 20.1939 103.581C19.4188 100.709 19.0312 97.7183 19.0312 94.7273C19.0312 74.5317 36.7813 58.0929 58.5877 58.0929C80.3941 58.0929 98.1441 74.5317 98.1441 94.7273C98.1441 99.9437 96.9814 105.017 94.6819 109.73C94.6044 109.946 94.3977 110.065 94.1652 110.065ZM31.9497 109.013H93.7776C95.9221 104.514 96.9814 99.7044 96.9814 94.7512C96.9814 75.1299 79.7482 59.1697 58.5618 59.1697C37.3755 59.1697 20.1422 75.1299 20.1422 94.7512C20.1422 97.503 20.4781 100.279 21.1757 102.935H31.3555C31.6655 102.935 31.9239 103.174 31.9239 103.461V109.013H31.9497Z" fill="#053C5A"/>
<path d="M238.619 41.4834L232.676 34.8553C231.85 33.922 230.609 33.3956 229.292 33.3956H224.021C221.773 33.3956 219.887 34.951 219.655 37.0088L219.267 40.3109C219.164 41.1963 219.37 42.1056 219.887 42.8713C220.662 44.0677 222.057 44.8095 223.582 44.8095C229.24 44.8813 242.83 45.0009 242.546 44.5941C242.262 44.1874 240.195 42.6799 239.317 42.0577C239.032 41.9142 238.826 41.7227 238.619 41.4834Z" fill="white"/>
<path d="M219.241 40.3336L219.629 37.0315C219.887 34.9736 221.747 33.4183 223.995 33.4183H229.266C230.584 33.4183 231.824 33.9687 232.651 34.8779L238.593 41.5061C238.619 41.4822 227.509 40.19 219.241 40.3336Z" fill="white"/>
<path d="M238.619 41.4834L232.676 34.8553C231.85 33.922 230.609 33.3956 229.292 33.3956H224.021C221.773 33.3956 219.887 34.951 219.655 37.0088L219.267 40.3109C219.164 41.1963 219.37 42.1056 219.887 42.8713C220.662 44.0677 222.057 44.8095 223.582 44.8095C229.24 44.8813 242.83 45.0009 242.546 44.5941C242.262 44.1874 240.195 42.6799 239.317 42.0577C239.032 41.9142 238.826 41.7227 238.619 41.4834Z" fill="white"/>
<path d="M234.46 45.4566C231.773 45.4566 228.233 45.4326 223.557 45.3609C221.852 45.3369 220.276 44.5234 219.397 43.1595C218.829 42.298 218.57 41.2691 218.7 40.2641L219.087 36.962C219.371 34.617 221.49 32.8702 224.022 32.8702H229.293C230.766 32.8702 232.161 33.4685 233.117 34.5213L239.059 41.1495C239.24 41.3409 239.447 41.5323 239.653 41.6759C241.617 43.0877 242.754 43.997 242.986 44.332C243.116 44.4995 243.116 44.7387 243.012 44.9062C242.857 45.2173 242.702 45.4566 234.46 45.4566ZM224.022 33.9231C222.058 33.9231 220.431 35.287 220.224 37.0816L219.836 40.3838C219.733 41.1495 219.94 41.963 220.379 42.6091C221.077 43.6619 222.265 44.2841 223.583 44.308C233.866 44.4276 239.266 44.3798 241.333 44.2841C240.816 43.8773 240.041 43.2791 238.956 42.5134C238.672 42.298 238.413 42.0827 238.181 41.8195L232.238 35.1913C231.515 34.3777 230.43 33.9231 229.293 33.9231H224.022Z" fill="#053C5A"/>
<path d="M319.773 110.066H30.8123C29.3654 110.066 28.6678 110.018 28.5128 109.468C28.3578 108.965 28.8745 108.678 29.3913 108.391C29.6496 108.247 30.2439 107.912 30.3214 107.745C30.3214 107.745 30.1147 107.506 29.1071 107.195L15.6202 102.983C10.3236 101.332 6.03464 97.6232 3.89017 92.8375L2.39162 89.5354C0.996427 86.4247 0.298828 83.1465 0.298828 79.7965V76.0637C0.298828 73.5751 0.557198 71.0626 1.07394 68.598L3.86433 55.222L1.79737 38.5439C1.56484 36.7254 10.8145 16.5537 12.9073 15.788C13.1398 15.7162 32.9051 9.78196 39.6744 8.48982C122.043 -7.39865 182.94 -0.29191 249.858 33.0404L261.924 39.0464L272.491 40.2428C298.742 43.2099 319.566 47.0385 342.174 57.0406L347.703 59.1224C349.873 60.0795 351.294 73.4555 351.682 77.5233C351.682 77.5712 351.682 77.5951 351.682 77.643C351.449 79.1026 351.682 80.5862 352.379 81.9261C353.025 83.1704 353.309 84.5343 353.18 85.9222L352.405 94.1296C351.94 99.1546 348.271 103.366 343.052 104.826L329.178 108.774C326.181 109.611 323.003 110.066 319.773 110.066ZM30.4764 109.013C30.5798 109.013 30.6831 109.013 30.8123 109.013H319.773C322.873 109.013 325.948 108.582 328.919 107.745L342.794 103.797C347.548 102.433 350.907 98.6043 351.346 94.01L352.121 85.8025C352.224 84.6301 351.966 83.4336 351.423 82.3568C350.622 80.8493 350.338 79.1744 350.597 77.5233C349.847 69.5791 348.375 60.6777 347.289 60.0556L341.76 57.9738C319.256 48.0435 298.535 44.215 272.388 41.2718L261.717 40.0753C261.64 40.0753 261.588 40.0514 261.511 40.0275L249.341 33.9736C182.708 0.73702 122.017 -6.34579 39.9327 9.49482C33.3702 10.763 14.38 16.4341 13.3465 16.7451C11.8221 17.7262 2.80501 36.4382 2.9342 38.4003L5.00116 55.1502C5.00116 55.1981 5.00116 55.2459 5.00116 55.3177L2.18493 68.7894C1.69402 71.1823 1.43565 73.623 1.43565 76.0398V79.7726C1.43565 83.0029 2.10742 86.1376 3.45094 89.1047L4.94948 92.4068C6.96477 96.9053 10.9953 100.399 16.0077 101.954L29.4946 106.166C30.3731 106.429 31.3807 106.86 31.4841 107.625C31.5357 108.247 31.019 108.678 30.4764 109.013Z" fill="#053C5A"/>
<path d="M58.5881 126.96C77.7947 126.96 93.3647 112.54 93.3647 94.7519C93.3647 76.9641 77.7947 62.5443 58.5881 62.5443C39.3815 62.5443 23.8115 76.9641 23.8115 94.7519C23.8115 112.54 39.3815 126.96 58.5881 126.96Z" fill="#053C5A"/>
<path d="M58.5875 116.405C71.5013 116.405 81.97 106.71 81.97 94.7502C81.97 82.7903 71.5013 73.095 58.5875 73.095C45.6738 73.095 35.2051 82.7903 35.2051 94.7502C35.2051 106.71 45.6738 116.405 58.5875 116.405Z" fill="white"/>
<path d="M58.5876 116.932C45.3849 116.932 34.6367 106.978 34.6367 94.7502C34.6367 82.5228 45.3849 72.5686 58.5876 72.5686C71.7903 72.5686 82.5385 82.5228 82.5385 94.7502C82.5643 106.978 71.8161 116.932 58.5876 116.932ZM58.5876 73.5975C46.005 73.5975 35.7735 83.0732 35.7735 94.7263C35.7735 106.379 46.005 115.855 58.5876 115.855C71.1702 115.855 81.4016 106.379 81.4016 94.7263C81.4016 83.0732 71.1702 73.5975 58.5876 73.5975Z" fill="#053C5A"/>
<path d="M58.5862 112.146C68.96 112.146 77.3697 104.357 77.3697 94.7496C77.3697 85.1421 68.96 77.3537 58.5862 77.3537C48.2124 77.3537 39.8027 85.1421 39.8027 94.7496C39.8027 104.357 48.2124 112.146 58.5862 112.146Z" fill="white"/>
<path d="M58.5882 112.649C47.9176 112.649 39.2363 104.609 39.2363 94.7262C39.2363 84.8438 47.9176 76.8038 58.5882 76.8038C69.2589 76.8038 77.9401 84.8438 77.9401 94.7262C77.9401 104.609 69.2589 112.649 58.5882 112.649ZM58.5882 77.8806C48.5635 77.8806 40.399 85.442 40.399 94.7262C40.399 104.01 48.5635 111.572 58.5882 111.572C68.613 111.572 76.7775 104.01 76.7775 94.7262C76.7775 85.442 68.6388 77.8806 58.5882 77.8806Z" fill="#053C5A"/>
<path d="M282.001 126.959C301.208 126.959 316.778 112.54 316.778 94.7518C316.778 76.964 301.208 62.5441 282.001 62.5441C262.795 62.5441 247.225 76.964 247.225 94.7518C247.225 112.54 262.795 126.959 282.001 126.959Z" fill="#053C5A"/>
<path d="M282.002 116.406C294.915 116.406 305.384 106.711 305.384 94.7509C305.384 82.7911 294.915 73.0957 282.002 73.0957C269.088 73.0957 258.619 82.7911 258.619 94.7509C258.619 106.711 269.088 116.406 282.002 116.406Z" fill="white"/>
<path d="M282 116.934C268.797 116.934 258.049 106.979 258.049 94.752C258.049 82.5246 268.797 72.5704 282 72.5704C295.202 72.5704 305.951 82.5246 305.951 94.752C305.976 106.979 295.228 116.934 282 116.934ZM282 73.5993C269.417 73.5993 259.186 83.0749 259.186 94.7281C259.186 106.381 269.417 115.857 282 115.857C294.582 115.857 304.814 106.381 304.814 94.7281C304.814 83.0749 294.582 73.5993 282 73.5993Z" fill="#053C5A"/>
<path d="M281.999 112.147C292.373 112.147 300.783 104.358 300.783 94.7506C300.783 85.143 292.373 77.3546 281.999 77.3546C271.625 77.3546 263.216 85.143 263.216 94.7506C263.216 104.358 271.625 112.147 281.999 112.147Z" fill="white"/>
<path d="M282 112.649C271.33 112.649 262.648 104.609 262.648 94.7262C262.648 84.8437 271.33 76.8038 282 76.8038C292.671 76.8038 301.352 84.8437 301.352 94.7262C301.352 104.609 292.671 112.649 282 112.649ZM282 77.8806C271.976 77.8806 263.811 85.4419 263.811 94.7262C263.811 104.01 271.976 111.572 282 111.572C292.025 111.572 300.19 104.01 300.19 94.7262C300.19 85.4419 292.051 77.8806 282 77.8806Z" fill="#053C5A"/>
</svg>
