<svg width="20" height="20" viewBox="0 0 20 20" fill="none" xmlns="http://www.w3.org/2000/svg">
<path d="M4.99998 13.7501L2.49998 1.66675C2.49998 1.66675 6.87498 2.50008 6.87498 4.16675C6.87498 5.20841 5.20831 5.83341 5.83331 6.45841C6.45831 7.08341 8.74998 7.70841 8.74998 9.37508C8.74998 10.4167 8.0664 11.1915 8.74998 11.8751C9.37498 12.5001 9.99998 12.1727 11.0416 11.8751C12.2083 11.5417 14.5833 11.2501 15.4166 11.4584C16.25 11.6667 17.0833 12.0834 17.0833 13.3334C17.0833 14.0206 16.6666 14.7917 15.625 15.0001C14.5833 15.2084 13.3333 14.1667 11.6666 14.1667C9.99998 14.1667 7.91665 15.4167 6.66665 15.4167C5.41665 15.4167 4.99998 13.7501 4.99998 13.7501Z" stroke="#212529" stroke-width="1.5" stroke-linejoin="round"/>
<path d="M15.4167 15L16.6667 18.3333H2.91669L5.41669 15" stroke="#212529" stroke-width="1.5" stroke-linejoin="round"/>
</svg>
