<svg width="30" height="30" viewBox="0 0 30 30" fill="none" xmlns="http://www.w3.org/2000/svg">
<path d="M3.75 13.75H5.05685M5.05685 13.75H24.9431M5.05685 13.75C5.07076 13.6857 5.08721 13.6219 5.1062 13.5589C5.15152 13.4085 5.21553 13.2639 5.34424 12.9743L7.27706 8.62549C7.65921 7.76567 7.8506 7.3355 8.15262 7.02026C8.41959 6.74161 8.74705 6.52876 9.11011 6.39796C9.52084 6.25 9.9917 6.25 10.9326 6.25H19.067C20.0079 6.25 20.4792 6.25 20.8899 6.39796C21.253 6.52876 21.58 6.74161 21.8469 7.02026C22.1487 7.33529 22.3398 7.7651 22.7214 8.62376L24.662 12.9902C24.7861 13.2693 24.8492 13.4113 24.8937 13.5589C24.9127 13.6219 24.9292 13.6857 24.9431 13.75M5.05685 13.75C5.04127 13.822 5.02887 13.8948 5.01965 13.9679C5 14.1237 5 14.2821 5 14.599V21.25M24.9431 13.75H26.25M24.9431 13.75C24.9588 13.822 24.9712 13.8948 24.9805 13.9679C25 14.1228 25 14.2802 25 14.5933V21.2501M25 21.2501L20 21.2501M25 21.2501V22.4999C25 23.8806 23.8807 25 22.5 25C21.1193 25 20 23.8807 20 22.5V21.2501M20 21.2501L10 21.25M10 21.25H5M10 21.25V22.5C10 23.8807 8.88071 25 7.5 25C6.11929 25 5 23.8807 5 22.5V21.25" stroke="#212529" stroke-width="1.5" stroke-linecap="round" stroke-linejoin="round"/>
<path d="M3.75 13.75H5.05685M5.05685 13.75H24.9431M5.05685 13.75C5.07076 13.6857 5.08721 13.6219 5.1062 13.5589C5.15152 13.4085 5.21553 13.2639 5.34424 12.9743L7.27706 8.62549C7.65921 7.76567 7.8506 7.3355 8.15262 7.02026C8.41959 6.74161 8.74705 6.52876 9.11011 6.39796C9.52084 6.25 9.9917 6.25 10.9326 6.25H19.067C20.0079 6.25 20.4792 6.25 20.8899 6.39796C21.253 6.52876 21.58 6.74161 21.8469 7.02026C22.1487 7.33529 22.3398 7.7651 22.7214 8.62376L24.662 12.9902C24.7861 13.2693 24.8492 13.4113 24.8937 13.5589C24.9127 13.6219 24.9292 13.6857 24.9431 13.75M24.9431 13.75H26.25" stroke="#3CCDAA" stroke-width="1.5" stroke-linecap="round" stroke-linejoin="round"/>
</svg>
