<svg width="31" height="30" viewBox="0 0 31 30" fill="none" xmlns="http://www.w3.org/2000/svg">
<path d="M18 19.9992C18 22.2117 17.0375 24.2117 15.5 25.5742C14.175 26.7742 12.425 27.4992 10.5 27.4992C6.3625 27.4992 3 24.1367 3 19.9992C3 16.5492 5.35 13.6242 8.525 12.7617C9.3875 14.9367 11.2375 16.6117 13.525 17.2367C14.15 17.4117 14.8125 17.4992 15.5 17.4992C16.1875 17.4992 16.85 17.4117 17.475 17.2367C17.8125 18.0867 18 19.0242 18 19.9992Z" stroke="#212529" stroke-width="1.5" stroke-linecap="round" stroke-linejoin="round"/>
<path d="M23 10C23 10.975 22.8125 11.9125 22.475 12.7625C21.6125 14.9375 19.7625 16.6125 17.475 17.2375C16.85 17.4125 16.1875 17.5 15.5 17.5C14.8125 17.5 14.15 17.4125 13.525 17.2375C11.2375 16.6125 9.3875 14.9375 8.525 12.7625C8.1875 11.9125 8 10.975 8 10C8 5.8625 11.3625 2.5 15.5 2.5C19.6375 2.5 23 5.8625 23 10Z" stroke="#3CCDAA" stroke-width="1.5" stroke-linecap="round" stroke-linejoin="round"/>
<path d="M28 19.9992C28 24.1367 24.6375 27.4992 20.5 27.4992C18.575 27.4992 16.825 26.7742 15.5 25.5742C17.0375 24.2117 18 22.2117 18 19.9992C18 19.0242 17.8125 18.0867 17.475 17.2367C19.7625 16.6117 21.6125 14.9367 22.475 12.7617C25.65 13.6242 28 16.5492 28 19.9992Z" stroke="#212529" stroke-width="1.5" stroke-linecap="round" stroke-linejoin="round"/>
</svg>
