<svg width="168" height="502" viewBox="0 0 168 502" fill="none" xmlns="http://www.w3.org/2000/svg">
<g opacity="0.1" clip-path="url(#clip0_2370_2765)">
<mask id="mask0_2370_2765" style="mask-type:luminance" maskUnits="userSpaceOnUse" x="0" y="0" width="168" height="168">
<path d="M167.333 0H0V167.333H167.333V0Z" fill="white"/>
</mask>
<g mask="url(#mask0_2370_2765)">
<path fill-rule="evenodd" clip-rule="evenodd" d="M0 0C0 46.2078 37.4588 83.6667 83.6667 83.6667C37.4588 83.6667 0 121.126 0 167.333H10.04C10.04 126.67 43.0037 93.7067 83.6667 93.7067C124.329 93.7067 157.293 126.67 157.293 167.333H167.333C167.333 121.126 129.874 83.6667 83.6667 83.6667C129.874 83.6667 167.333 46.2078 167.333 0H157.293C157.293 40.6629 124.329 73.6267 83.6667 73.6267C43.0037 73.6267 10.04 40.6629 10.04 0H0ZM20.08 0C20.08 35.1179 48.5488 63.5867 83.6667 63.5867C118.785 63.5867 147.253 35.1179 147.253 0H137.213C137.213 29.573 113.239 53.5467 83.6667 53.5467C54.0937 53.5467 30.12 29.573 30.12 0H20.08ZM40.16 0C40.16 24.0281 59.6386 43.5067 83.6667 43.5067C107.695 43.5067 127.173 24.0281 127.173 0H117.133C117.133 18.4831 102.149 33.4667 83.6667 33.4667C65.1835 33.4667 50.2 18.4831 50.2 0H40.16ZM83.6667 103.747C118.785 103.747 147.253 132.215 147.253 167.333H137.213C137.213 137.761 113.239 113.787 83.6667 113.787C54.0937 113.787 30.12 137.761 30.12 167.333H20.08C20.08 132.215 48.5488 103.747 83.6667 103.747ZM83.6667 123.827C107.695 123.827 127.173 143.305 127.173 167.333H117.133C117.133 148.851 102.149 133.867 83.6667 133.867C65.1835 133.867 50.2 148.851 50.2 167.333H40.16C40.16 143.305 59.6386 123.827 83.6667 123.827Z" fill="url(#paint0_linear_2370_2765)"/>
</g>
</g>
<g opacity="0.1" clip-path="url(#clip1_2370_2765)">
<mask id="mask1_2370_2765" style="mask-type:luminance" maskUnits="userSpaceOnUse" x="0" y="334" width="168" height="168">
<path d="M167.333 502H0V334.667H167.333V502Z" fill="white"/>
</mask>
<g mask="url(#mask1_2370_2765)">
<path fill-rule="evenodd" clip-rule="evenodd" d="M0 502C0 455.792 37.4588 418.333 83.6667 418.333C37.4588 418.333 0 380.874 0 334.667H10.04C10.04 375.33 43.0037 408.293 83.6667 408.293C124.329 408.293 157.293 375.33 157.293 334.667H167.333C167.333 380.874 129.874 418.333 83.6667 418.333C129.874 418.333 167.333 455.792 167.333 502H157.293C157.293 461.337 124.329 428.373 83.6667 428.373C43.0037 428.373 10.04 461.337 10.04 502H0ZM20.08 502C20.08 466.882 48.5488 438.413 83.6667 438.413C118.785 438.413 147.253 466.882 147.253 502H137.213C137.213 472.427 113.239 448.453 83.6667 448.453C54.0937 448.453 30.12 472.427 30.12 502H20.08ZM40.16 502C40.16 477.972 59.6386 458.493 83.6667 458.493C107.695 458.493 127.173 477.972 127.173 502H117.133C117.133 483.517 102.149 468.533 83.6667 468.533C65.1835 468.533 50.2 483.517 50.2 502H40.16ZM83.6667 398.253C118.785 398.253 147.253 369.785 147.253 334.667H137.213C137.213 364.239 113.239 388.213 83.6667 388.213C54.0937 388.213 30.12 364.239 30.12 334.667H20.08C20.08 369.785 48.5488 398.253 83.6667 398.253ZM83.6667 378.173C107.695 378.173 127.173 358.695 127.173 334.667H117.133C117.133 353.149 102.149 368.133 83.6667 368.133C65.1835 368.133 50.2 353.149 50.2 334.667H40.16C40.16 358.695 59.6386 378.173 83.6667 378.173Z" fill="url(#paint1_linear_2370_2765)"/>
</g>
</g>
<defs>
<linearGradient id="paint0_linear_2370_2765" x1="83.6667" y1="0" x2="83.6667" y2="167.333" gradientUnits="userSpaceOnUse">
<stop stop-color="white"/>
<stop offset="1" stop-color="white" stop-opacity="0"/>
</linearGradient>
<linearGradient id="paint1_linear_2370_2765" x1="83.6667" y1="502" x2="83.6667" y2="334.667" gradientUnits="userSpaceOnUse">
<stop stop-color="white"/>
<stop offset="1" stop-color="white" stop-opacity="0"/>
</linearGradient>
<clipPath id="clip0_2370_2765">
<rect width="167.333" height="167.333" fill="white"/>
</clipPath>
<clipPath id="clip1_2370_2765">
<rect width="167.333" height="167.333" fill="white" transform="matrix(1 0 0 -1 0 502)"/>
</clipPath>
</defs>
</svg>
