<svg width="20" height="20" viewBox="0 0 20 20" fill="none" xmlns="http://www.w3.org/2000/svg">
<g clip-path="url(#clip0_2494_14674)">
<path d="M18.7868 0.626953C18.4632 0.626953 18.2009 0.889297 18.2009 1.21289V3.0957C18.2009 3.4193 18.4632 3.68164 18.7868 3.68164C19.1104 3.68164 19.3728 3.4193 19.3728 3.0957V1.21289C19.3728 0.889297 19.1104 0.626953 18.7868 0.626953ZM16.2764 0.626953C15.9528 0.626953 15.6904 0.889297 15.6904 1.21289V3.0957C15.6904 3.4193 15.9528 3.68164 16.2764 3.68164C16.6 3.68164 16.8623 3.4193 16.8623 3.0957V1.21289C16.8623 0.889297 16.6 0.626953 16.2764 0.626953Z" fill="#8DB9C4"/>
<path d="M19.4145 2.50977H15.6488C15.3252 2.50977 15.0629 2.77211 15.0629 3.0957V4.97852C15.0629 6.13789 15.8664 7.11262 16.9457 7.37641V15.6478C16.9457 16.0168 16.6455 16.3171 16.2764 16.3171C15.9074 16.3171 15.6071 16.0168 15.6071 15.6478V9.99934C15.6071 8.29199 14.218 6.90297 12.5107 6.90297C12.1871 6.90297 11.9248 7.16531 11.9248 7.48891C11.9248 7.8125 12.1871 8.07484 12.5107 8.07484C13.5719 8.07484 14.4353 8.93816 14.4353 9.99934V15.6478C14.4353 16.663 15.2612 17.4889 16.2764 17.4889C17.2916 17.4889 18.1176 16.663 18.1176 15.6478V7.37641C19.1969 7.11262 20.0004 6.13785 20.0004 4.97852V3.0957C20.0004 2.77207 19.7381 2.50977 19.4145 2.50977Z" fill="#00884A"/>
<path d="M10.9418 0H2.78285C1.59461 0 0.62793 0.96668 0.62793 2.15492V19.4141C0.62793 19.7377 0.890273 20 1.21387 20H12.5107C12.8343 20 13.0966 19.7377 13.0966 19.4141V2.15492C13.0967 0.96668 12.13 0 10.9418 0Z" fill="#54E360"/>
<path d="M10.9418 0H6.8623V20H12.5108C12.8344 20 13.0968 19.7377 13.0968 19.4141V2.15492C13.0968 0.96668 12.1301 0 10.9418 0Z" fill="#00B44B"/>
<path d="M9.99965 2.50977H3.72363C3.40004 2.50977 3.1377 2.77211 3.1377 3.0957V8.11652C3.1377 8.44012 3.40004 8.70246 3.72363 8.70246H9.99965C10.3232 8.70246 10.5856 8.44012 10.5856 8.11652V3.0957C10.5856 2.77207 10.3232 2.50977 9.99965 2.50977Z" fill="#A8EBFA"/>
<path d="M6.86146 17.0184C6.77342 17.0184 6.684 16.9985 6.5999 16.9564C6.31045 16.8117 6.19314 16.4598 6.33787 16.1703L7.24756 14.351H5.5283C5.42843 14.351 5.33021 14.3255 5.24298 14.2768C5.15575 14.2282 5.0824 14.1581 5.02989 14.0731C4.97738 13.9881 4.94746 13.8912 4.94298 13.7914C4.93849 13.6916 4.95957 13.5924 5.00424 13.503L6.33787 10.8357C6.4826 10.5464 6.83463 10.429 7.12396 10.5737C7.41342 10.7184 7.53072 11.0703 7.386 11.3598L6.47639 13.1791H8.19564C8.29552 13.1791 8.39373 13.2046 8.48097 13.2533C8.5682 13.3019 8.64155 13.372 8.69406 13.457C8.74656 13.5419 8.77648 13.6389 8.78097 13.7387C8.78546 13.8385 8.76437 13.9377 8.71971 14.0271L7.386 16.6944C7.28334 16.8997 7.07639 17.0184 6.86146 17.0184Z" fill="#FEDB41"/>
<path d="M13.138 20H0.585938C0.262344 20 0 19.7377 0 19.4141C0 19.0905 0.262344 18.8281 0.585938 18.8281H13.138C13.4616 18.8281 13.724 19.0905 13.724 19.4141C13.724 19.7377 13.4616 20 13.138 20Z" fill="#00AB5E"/>
<path d="M13.1385 18.8281H6.8623V20H13.1385C13.4621 20 13.7244 19.7377 13.7244 19.4141C13.7244 19.0905 13.4621 18.8281 13.1385 18.8281Z" fill="#00884A"/>
<path d="M10.0004 2.50977H6.8623V8.70246H10.0004C10.324 8.70246 10.5864 8.44012 10.5864 8.11652V3.0957C10.5864 2.77207 10.324 2.50977 10.0004 2.50977Z" fill="#76E2F8"/>
<path d="M8.6936 13.4576C8.64109 13.3726 8.56773 13.3025 8.48049 13.2539C8.39326 13.2052 8.29504 13.1797 8.19516 13.1797H6.86137V14.3516H7.24707L6.33738 16.1709C6.19266 16.4603 6.30996 16.8123 6.59942 16.957C6.68059 16.9977 6.77015 17.019 6.86098 17.019C7.0759 17.019 7.28285 16.9003 7.38551 16.695L8.71922 14.0277C8.76391 13.9383 8.78502 13.8391 8.78053 13.7393C8.77605 13.6395 8.74612 13.5425 8.6936 13.4576Z" fill="#FFB64C"/>
</g>
<defs>
<clipPath id="clip0_2494_14674">
<rect width="20" height="20" fill="white"/>
</clipPath>
</defs>
</svg>
