<svg width="20" height="20" viewBox="0 0 20 20" fill="none" xmlns="http://www.w3.org/2000/svg">
<path d="M15.3405 7.00005H10.7738L15.0071 0.333374H9.67383L4.67383 10.3334H8.60715L4.67383 19.6667L15.3405 7.00005Z" fill="#FFDD09"/>
<path d="M11.0071 0.333374H9.67383L4.67383 10.3334H6.00715L11.0071 0.333374Z" fill="white"/>
<path d="M13.6737 7L5.67365 16.5L4.34033 19.6667L15.007 7H13.6737Z" fill="#FD9808"/>
<path d="M4.67374 20C4.60706 20 4.54042 20 4.50706 19.9667C4.37374 19.8667 4.30706 19.7 4.37374 19.5667L8.10706 10.6667H4.67374C4.57374 10.6667 4.44042 10.6 4.37374 10.5C4.30706 10.4 4.30706 10.2667 4.37374 10.1667L9.37374 0.16668C9.44042 0.0666797 9.54042 0 9.67374 0H15.0071C15.1404 0 15.2404 0.0666797 15.3071 0.16668C15.3737 0.26668 15.3737 0.4 15.3071 0.5L11.4071 6.66668H15.3404C15.4737 6.66668 15.5737 6.73336 15.6404 6.86668C15.7071 7 15.6737 7.13336 15.6071 7.23336L4.94038 19.9C4.87374 19.9667 4.77374 20 4.67374 20ZM5.20706 10H8.60706C8.70706 10 8.80706 10.0667 8.87374 10.1333C8.94042 10.2333 8.94042 10.3333 8.90706 10.4333L5.84038 17.7666L14.6404 7.33332H10.7737C10.6404 7.33332 10.5404 7.26664 10.4737 7.16664C10.407 7.06664 10.407 6.93332 10.4737 6.83332L14.4071 0.66668H9.87374L5.20706 10Z" fill="black"/>
</svg>
