<svg width="30" height="30" viewBox="0 0 30 30" fill="none" xmlns="http://www.w3.org/2000/svg">
<path d="M0.114787 12.32C0.0719402 12.2696 0.0396888 12.2111 0.0199604 12.148C0.000232125 12.0849 -0.00656819 12.0184 -3.3939e-05 11.9526C0.00650031 11.8868 0.026235 11.823 0.0579906 11.765C0.0897461 11.707 0.132871 11.656 0.184787 11.615L13.7948 0.43C14.1386 0.160352 14.5629 0.0138044 14.9998 0.0138044C15.4367 0.0138044 15.861 0.160352 16.2048 0.43L29.8148 11.615C29.8667 11.656 29.9098 11.707 29.9416 11.765C29.9733 11.823 29.9931 11.8868 29.9996 11.9526C30.0061 12.0184 29.9993 12.0849 29.9796 12.148C29.9599 12.2111 29.9276 12.2696 29.8848 12.32L28.8278 13.5765C28.7431 13.6773 28.6222 13.7406 28.4911 13.7528C28.3601 13.765 28.2295 13.725 28.1278 13.6415L15.3148 3.115C15.227 3.03999 15.1153 2.99878 14.9998 2.99878C14.8843 2.99878 14.7726 3.03999 14.6848 3.115L1.86729 13.641C1.76554 13.7245 1.63498 13.7645 1.50393 13.7523C1.37289 13.7401 1.25193 13.6768 1.16729 13.576L0.114787 12.32ZM29.4998 28H0.499787C0.367179 28 0.240002 28.0527 0.146234 28.1464C0.0524656 28.2402 -0.000212753 28.3674 -0.000212753 28.5V29.5C-0.000212753 29.6326 0.0524656 29.7598 0.146234 29.8536C0.240002 29.9473 0.367179 30 0.499787 30H29.4998C29.6324 30 29.7596 29.9473 29.8533 29.8536C29.9471 29.7598 29.9998 29.6326 29.9998 29.5V28.5C29.9998 28.3674 29.9471 28.2402 29.8533 28.1464C29.7596 28.0527 29.6324 28 29.4998 28ZM12.9998 27V16H6.99979V27H12.9998ZM19.4998 16H16.9998V18H19.4998V16ZM19.4998 19H16.9998V21H19.4998V19ZM22.9998 16H20.4998V18H22.9998V16ZM22.9998 19H20.4998V21H22.9998V19ZM13.9998 27V15.5C13.9994 15.3675 13.9466 15.2406 13.8529 15.1469C13.7592 15.0532 13.6323 15.0004 13.4998 15H6.49979C6.3673 15.0004 6.24035 15.0532 6.14667 15.1469C6.05299 15.2406 6.00018 15.3675 5.99979 15.5V27H2.99979V14.005L14.9998 4.145L26.9998 14.005V24.55C26.9871 24.5443 26.9736 24.541 26.9598 24.54C26.7355 24.0784 26.3859 23.6892 25.9509 23.4169C25.5158 23.1446 25.013 23.0003 24.4998 23.0003C23.9866 23.0003 23.4837 23.1446 23.0487 23.4169C22.6137 23.6892 22.2641 24.0784 22.0398 24.54C21.5578 24.634 21.1152 24.8709 20.7698 25.22C20.5303 25.4512 20.3389 25.7275 20.2067 26.033C20.0746 26.3385 20.0042 26.6672 19.9998 27H13.9998ZM15.9998 21.5C16.0002 21.6325 16.053 21.7594 16.1467 21.8531C16.2404 21.9468 16.3673 21.9996 16.4998 22H23.4998C23.6323 21.9996 23.7592 21.9468 23.8529 21.8531C23.9466 21.7594 23.9994 21.6325 23.9998 21.5V15.5C23.9994 15.3675 23.9466 15.2406 23.8529 15.1469C23.7592 15.0532 23.6323 15.0004 23.4998 15H16.4998C16.3673 15.0004 16.2404 15.0532 16.1467 15.1469C16.053 15.2406 16.0002 15.3675 15.9998 15.5V21.5ZM26.9998 1C26.999 0.735027 26.8934 0.481133 26.706 0.293767C26.5187 0.106402 26.2648 0.000791363 25.9998 0H21.9998C21.7348 0.000791363 21.4809 0.106402 21.2936 0.293767C21.1062 0.481133 21.0006 0.735027 20.9998 1V3.08L26.9998 8.01V1ZM27.5268 25.9325C27.2902 25.6829 26.9672 25.533 26.6238 25.5135C26.5184 25.5164 26.4149 25.4853 26.3284 25.4249C26.242 25.3645 26.1773 25.278 26.1438 25.178C26.0271 24.8345 25.8058 24.5361 25.5109 24.3249C25.216 24.1136 24.8623 24 24.4995 24C24.1368 24 23.7831 24.1136 23.4882 24.3249C23.1933 24.5361 22.972 24.8345 22.8553 25.178C22.8207 25.2771 22.7557 25.3628 22.6696 25.4229C22.5836 25.4831 22.4808 25.5146 22.3758 25.513C22.0314 25.5291 21.7072 25.6798 21.4728 25.9325C21.3276 26.0706 21.2111 26.236 21.13 26.4191C21.0488 26.6023 21.0046 26.7997 20.9998 27H27.9998C27.995 26.7997 27.9508 26.6023 27.8696 26.4191C27.7884 26.236 27.6719 26.0706 27.5268 25.9325Z" fill="#E8E8E8"/>
</svg>
