<svg width="256" height="764" viewBox="0 0 256 764" fill="none" xmlns="http://www.w3.org/2000/svg">
<g opacity="0.1" clip-path="url(#clip0_2254_7387)">
<mask id="mask0_2254_7387" style="mask-type:luminance" maskUnits="userSpaceOnUse" x="0" y="0" width="256" height="255">
<path d="M255.167 0H0.5V254.667H255.167V0Z" fill="white"/>
</mask>
<g mask="url(#mask0_2254_7387)">
<path fill-rule="evenodd" clip-rule="evenodd" d="M0.5 0C0.5 70.3243 57.509 127.333 127.833 127.333C57.509 127.333 0.5 184.343 0.5 254.667H15.78C15.78 192.781 65.9479 142.613 127.833 142.613C189.719 142.613 239.887 192.781 239.887 254.667H255.167C255.167 184.343 198.157 127.333 127.833 127.333C198.157 127.333 255.167 70.3243 255.167 0H239.887C239.887 61.8854 189.719 112.053 127.833 112.053C65.9479 112.053 15.78 61.8854 15.78 0H0.5ZM31.06 0C31.06 53.4464 74.3869 96.7733 127.833 96.7733C181.28 96.7733 224.607 53.4464 224.607 0H209.327C209.327 45.0075 172.841 81.4933 127.833 81.4933C82.8258 81.4933 46.34 45.0075 46.34 0H31.06ZM61.62 0C61.62 36.5686 91.2647 66.2133 127.833 66.2133C164.402 66.2133 194.047 36.5686 194.047 0H178.767C178.767 28.1297 155.963 50.9333 127.833 50.9333C99.7036 50.9333 76.9 28.1297 76.9 0H61.62ZM127.833 157.893C181.28 157.893 224.607 201.22 224.607 254.667H209.327C209.327 209.659 172.841 173.173 127.833 173.173C82.8258 173.173 46.34 209.659 46.34 254.667H31.06C31.06 201.22 74.3869 157.893 127.833 157.893ZM127.833 188.453C164.402 188.453 194.047 218.098 194.047 254.667H178.767C178.767 226.537 155.963 203.733 127.833 203.733C99.7036 203.733 76.9 226.537 76.9 254.667H61.62C61.62 218.098 91.2647 188.453 127.833 188.453Z" fill="url(#paint0_linear_2254_7387)"/>
</g>
</g>
<g opacity="0.1" clip-path="url(#clip1_2254_7387)">
<mask id="mask1_2254_7387" style="mask-type:luminance" maskUnits="userSpaceOnUse" x="0" y="509" width="256" height="255">
<path d="M255.167 764H0.5V509.333H255.167V764Z" fill="white"/>
</mask>
<g mask="url(#mask1_2254_7387)">
<path fill-rule="evenodd" clip-rule="evenodd" d="M0.5 764C0.5 693.676 57.509 636.667 127.833 636.667C57.509 636.667 0.5 579.657 0.5 509.333H15.78C15.78 571.219 65.9479 621.387 127.833 621.387C189.719 621.387 239.887 571.219 239.887 509.333H255.167C255.167 579.657 198.157 636.667 127.833 636.667C198.157 636.667 255.167 693.676 255.167 764H239.887C239.887 702.115 189.719 651.947 127.833 651.947C65.9479 651.947 15.78 702.115 15.78 764H0.5ZM31.06 764C31.06 710.554 74.3869 667.227 127.833 667.227C181.28 667.227 224.607 710.554 224.607 764H209.327C209.327 718.993 172.841 682.507 127.833 682.507C82.8258 682.507 46.34 718.993 46.34 764H31.06ZM61.62 764C61.62 727.431 91.2647 697.787 127.833 697.787C164.402 697.787 194.047 727.431 194.047 764H178.767C178.767 735.87 155.963 713.067 127.833 713.067C99.7036 713.067 76.9 735.87 76.9 764H61.62ZM127.833 606.107C181.28 606.107 224.607 562.78 224.607 509.333H209.327C209.327 554.341 172.841 590.827 127.833 590.827C82.8258 590.827 46.34 554.341 46.34 509.333H31.06C31.06 562.78 74.3869 606.107 127.833 606.107ZM127.833 575.547C164.402 575.547 194.047 545.902 194.047 509.333H178.767C178.767 537.463 155.963 560.267 127.833 560.267C99.7036 560.267 76.9 537.463 76.9 509.333H61.62C61.62 545.902 91.2647 575.547 127.833 575.547Z" fill="url(#paint1_linear_2254_7387)"/>
</g>
</g>
<defs>
<linearGradient id="paint0_linear_2254_7387" x1="127.833" y1="0" x2="127.833" y2="254.667" gradientUnits="userSpaceOnUse">
<stop stop-color="white"/>
<stop offset="1" stop-color="white" stop-opacity="0"/>
</linearGradient>
<linearGradient id="paint1_linear_2254_7387" x1="127.833" y1="764" x2="127.833" y2="509.333" gradientUnits="userSpaceOnUse">
<stop stop-color="white"/>
<stop offset="1" stop-color="white" stop-opacity="0"/>
</linearGradient>
<clipPath id="clip0_2254_7387">
<rect width="254.667" height="254.667" fill="white" transform="translate(0.5)"/>
</clipPath>
<clipPath id="clip1_2254_7387">
<rect width="254.667" height="254.667" fill="white" transform="matrix(1 0 0 -1 0.5 764)"/>
</clipPath>
</defs>
</svg>
