<svg width="24" height="24" viewBox="0 0 24 24" fill="none" xmlns="http://www.w3.org/2000/svg">
<path d="M16.2847 2.25H9C8.80109 2.25 8.61032 2.32902 8.46967 2.46967C8.32902 2.61032 8.25 2.80109 8.25 3C8.25 3.19891 8.32902 3.38968 8.46967 3.53033C8.61032 3.67098 8.80109 3.75 9 3.75H16.2847C16.555 3.74995 16.8203 3.82292 17.0525 3.96121C17.2847 4.0995 17.4753 4.29797 17.604 4.53562L21.2408 11.25H19.125C18.9261 11.25 18.7353 11.329 18.5947 11.4697C18.454 11.6103 18.375 11.8011 18.375 12C18.375 12.1989 18.454 12.3897 18.5947 12.5303C18.7353 12.671 18.9261 12.75 19.125 12.75H21.75V18.75C21.75 19.1478 21.592 19.5294 21.3107 19.8107C21.0294 20.092 20.6478 20.25 20.25 20.25H3.75C3.35217 20.25 2.97064 20.092 2.68934 19.8107C2.40804 19.5294 2.25 19.1478 2.25 18.75V12.75H15.375C15.5739 12.75 15.7647 12.671 15.9053 12.5303C16.046 12.3897 16.125 12.1989 16.125 12C16.125 11.8011 16.046 11.6103 15.9053 11.4697C15.7647 11.329 15.5739 11.25 15.375 11.25H2.25V5.25C2.25 4.85218 2.40804 4.47064 2.68934 4.18934C2.97064 3.90804 3.35217 3.75 3.75 3.75H5.25C5.44891 3.75 5.63968 3.67098 5.78033 3.53033C5.92098 3.38968 6 3.19891 6 3C6 2.80109 5.92098 2.61032 5.78033 2.46967C5.63968 2.32902 5.44891 2.25 5.25 2.25H3.75C2.95435 2.25 2.19129 2.56607 1.62868 3.12868C1.06607 3.69129 0.75 4.45435 0.75 5.25V18.75C0.75 19.5456 1.06607 20.3087 1.62868 20.8713C2.19129 21.4339 2.95435 21.75 3.75 21.75H20.25C21.0456 21.75 21.8087 21.4339 22.3713 20.8713C22.9339 20.3087 23.25 19.5456 23.25 18.75V12.57C23.2499 12.071 23.1254 11.58 22.8877 11.1412L18.9229 3.82125C18.6655 3.34599 18.2844 2.9491 17.8201 2.67252C17.3557 2.39595 16.8252 2.24996 16.2847 2.25Z" fill="#053C5A"/>
<path d="M4.125 15C4.125 15.1989 4.20402 15.3897 4.34467 15.5303C4.48532 15.671 4.67609 15.75 4.875 15.75H7.875C8.07391 15.75 8.26468 15.671 8.40533 15.5303C8.54598 15.3897 8.625 15.1989 8.625 15C8.625 14.8011 8.54598 14.6103 8.40533 14.4697C8.26468 14.329 8.07391 14.25 7.875 14.25H4.875C4.67609 14.25 4.48532 14.329 4.34467 14.4697C4.20402 14.6103 4.125 14.8011 4.125 15Z" fill="#053C5A"/>
</svg>
