<svg width="20" height="20" viewBox="0 0 20 20" fill="none" xmlns="http://www.w3.org/2000/svg">
<g clip-path="url(#clip0_2339_2916)">
<path d="M16.6756 11.2344L14.5936 8.41406C14.4608 8.22266 14.1483 8.37891 14.2147 8.60156L14.871 10.832L13.7967 11.3633C13.742 11.3906 13.6991 11.4453 13.6874 11.5039C13.6717 11.5664 13.6835 11.6328 13.7225 11.6797L15.8085 14.5039C15.9413 14.6914 16.2577 14.5352 16.1835 14.3164L15.5311 12.0898L16.6014 11.5586C16.7186 11.4961 16.7577 11.3359 16.6756 11.2344ZM15.1756 11.7812C15.0819 11.8242 15.035 11.9336 15.0663 12.0352L15.4295 13.2812L14.2147 11.6367L15.2186 11.1367C15.3124 11.0898 15.3592 10.9844 15.328 10.8828L14.9647 9.63672L16.1795 11.2812L15.1756 11.7812Z" fill="black"/>
<path d="M19.7461 5H17.5781V3.8125C17.5781 3.67188 17.6914 3.55859 17.832 3.55859C18.082 3.55469 18.6875 3.55859 18.9297 3.58203C19.0156 3.58203 19.0977 3.52734 19.1289 3.44922L19.8477 1.60547C19.9062 1.46875 19.7969 1.30859 19.6484 1.31641H17.1211C16.1328 1.31641 15.3281 2.12109 15.3281 3.10938V5H7.33203V4.63281H8.34375C8.46094 4.63281 8.55859 4.53516 8.55859 4.41797V2.44922C8.55859 2.33203 8.46094 2.23438 8.34375 2.23438H4.78125V1.15234C4.78125 1.03125 4.68359 0.9375 4.56641 0.9375H2.22266C2.10547 0.9375 2.00781 1.03125 2.00781 1.15234V2.23828H1.5C1.38281 2.23828 1.28516 2.33594 1.28516 2.45312V4.42578C1.28516 4.54297 1.38281 4.64062 1.5 4.64062H2.50781V5.00781H0.253906C0.132812 5.00781 0.0390625 5.10156 0.0390625 5.22266V17.6484C0.0390625 17.7656 0.132812 17.8633 0.253906 17.8633H1.21094V18.8594C1.21094 18.9766 1.30859 19.0742 1.42578 19.0742H18.5781C18.6953 19.0742 18.793 18.9766 18.793 18.8594V17.8516H19.75C19.8672 17.8516 19.9648 17.7539 19.9648 17.6367V5.21484C19.9609 5.09375 19.8633 5 19.7461 5ZM18.7656 1.74219H19.3398L18.7891 3.14844L18.7656 3.14453V1.74219ZM15.7578 3.10547C15.7578 2.35156 16.3711 1.74219 17.125 1.74219H18.3398V3.13281H17.832C17.457 3.13281 17.1523 3.4375 17.1523 3.8125V5H15.7578V3.10547ZM2.4375 1.36328H4.35156V2.23438H2.4375V1.36328ZM1.71484 4.20703V2.66406H8.12891V4.20703H1.71484ZM6.90234 4.63281V5H6.09766V4.63281H6.90234ZM5.66797 4.63281V5H4.17188V4.63281H5.66797ZM3.74609 4.63281V5H2.9375V4.63281H3.74609ZM18.3633 18.6367H1.63672V17.8555H18.3633V18.6367ZM19.5352 17.4258H0.464844V5.42578H19.5312V17.4258H19.5352Z" fill="black"/>
<path d="M1.63672 17.8516H18.3633V18.6328H1.63672V17.8516ZM19.3398 1.74219L18.7891 3.14844L18.7656 3.14453V1.74219H19.3398ZM6.09766 4.63281H6.90234V5H6.09766V4.63281ZM2.9375 4.63281H3.74219V5H2.9375V4.63281Z" fill="#554E56"/>
<path d="M2.4375 1.36328H4.35156V2.23438H2.4375V1.36328ZM18.3398 1.74219V3.13281H17.832C17.457 3.13281 17.1523 3.4375 17.1523 3.8125V5H15.7578V3.10547C15.7578 2.35156 16.3711 1.74219 17.125 1.74219H18.3398Z" fill="#E2DEE2"/>
<path d="M1.71484 2.66406H8.12891V4.20703H1.71484V2.66406Z" fill="#FD4755"/>
<path d="M17.3789 5.42581C16.6641 5.42972 1.58594 5.4219 0.46875 5.42581V17.4219H19.5352V5.42581H17.3789ZM10.4258 15.6367C10.4258 15.7539 10.3281 15.8516 10.2109 15.8516H1.32031C1.19922 15.8516 1.10547 15.7539 1.10547 15.6367V11.9532C1.10547 11.836 1.19922 11.7383 1.32031 11.7383H10.2109C10.3281 11.7383 10.4258 11.836 10.4258 11.9532V15.6367ZM10.4258 10.8985C10.4258 11.0196 10.3281 11.1133 10.2109 11.1133H1.32031C1.19922 11.1133 1.10547 11.0196 1.10547 10.8985V7.21487C1.10547 7.09769 1.19922 7.00003 1.32031 7.00003H10.2109C10.3281 7.00003 10.4258 7.09769 10.4258 7.21487V10.8985ZM18.8906 16.5703C18.8906 16.6875 18.7969 16.7852 18.6758 16.7852H11.7188C11.6016 16.7852 11.5039 16.6875 11.5039 16.5703V15C10.4375 15.1172 10.4375 13.6836 11.5039 13.8008V9.05081H11.3047C10.9727 9.05081 10.7031 8.78128 10.7031 8.44925C10.7031 8.11722 10.9727 7.85159 11.3047 7.85159H11.5039V6.28128C11.5039 6.16019 11.6016 6.06644 11.7188 6.06644H18.6797C18.8008 6.06644 18.8945 6.16019 18.8945 6.28128V16.5703H18.8906Z" fill="#0182FC"/>
<path d="M10.2109 7H1.32031C1.19922 7 1.10547 7.09766 1.10547 7.21484V10.8984C1.10547 11.0195 1.19922 11.1133 1.32031 11.1133H10.2109C10.3281 11.1133 10.4258 11.0195 10.4258 10.8984V7.21484C10.4258 7.09766 10.332 7 10.2109 7ZM10 10.6836H1.53516V7.42969H10V10.6836Z" fill="black"/>
<path d="M1.53516 7.42969V10.6836H10V7.42969H1.53516ZM4.17188 8.93359C4.17188 9.05078 4.07422 9.14844 3.95703 9.14844H2.31641C2.19922 9.14844 2.10156 9.05078 2.10156 8.93359V8.16016C2.10156 8.03906 2.19922 7.94531 2.31641 7.94531H3.95703C4.07422 7.94531 4.17188 8.03906 4.17188 8.16016V8.93359Z" fill="#E2DEE2"/>
<path d="M10.2109 11.7383H1.32031C1.19922 11.7383 1.10547 11.8359 1.10547 11.9531V15.6367C1.10547 15.7539 1.19922 15.8516 1.32031 15.8516H10.2109C10.3281 15.8516 10.4258 15.7539 10.4258 15.6367V11.9531C10.4258 11.8359 10.332 11.7383 10.2109 11.7383ZM10 15.4219H1.53516V12.168H10V15.4219Z" fill="black"/>
<path d="M1.53516 12.168V15.4219H10V12.168H1.53516ZM9.28906 13.6719C9.28906 13.7891 9.19141 13.8867 9.07422 13.8867H2.31641C2.19922 13.8867 2.10156 13.7891 2.10156 13.6719V12.8984C2.10156 12.7773 2.19922 12.6836 2.31641 12.6836H9.07422C9.19141 12.6836 9.28906 12.7773 9.28906 12.8984V13.6719Z" fill="#E2DEE2"/>
<path d="M18.6797 6.07031H11.7187C11.6016 6.07031 11.5039 6.16406 11.5039 6.28516V7.85156H11.3047C10.9727 7.85156 10.7031 8.11719 10.7031 8.44922C10.7031 8.78125 10.9727 9.05078 11.3047 9.05078H11.5039V13.8008C10.4375 13.6836 10.4375 15.1172 11.5039 15V16.5703C11.5039 16.6875 11.6016 16.7852 11.7187 16.7852H18.6797C18.8008 16.7852 18.8945 16.6875 18.8945 16.5703V6.28125C18.8906 6.16406 18.7969 6.07031 18.6797 6.07031ZM11.3047 8.625C11.0781 8.62109 11.0781 8.28125 11.3047 8.28125H12.1328C12.2266 8.28125 12.3047 8.35547 12.3047 8.45312C12.3047 8.54688 12.2266 8.625 12.1328 8.625H11.3047ZM11.3047 14.5742C11.0781 14.5742 11.0781 14.2305 11.3047 14.2305H12.1328C12.3555 14.2305 12.3594 14.5742 12.1328 14.5742H11.3047ZM18.4648 16.3555H11.9336V15H12.1328C12.4648 15 12.7305 14.7305 12.7305 14.4023C12.7305 14.0703 12.4648 13.8008 12.1328 13.8008H11.9336V9.05078H12.1328C12.4648 9.05078 12.7305 8.78125 12.7305 8.44922C12.7305 8.11719 12.4648 7.85156 12.1328 7.85156H11.9336V6.49609H18.4648V16.3555Z" fill="black"/>
<path d="M11.9336 6.49609V7.85156H12.1328C12.4648 7.85156 12.7305 8.11719 12.7305 8.44922C12.7305 8.78125 12.4648 9.05078 12.1328 9.05078H11.9336V13.8008H12.1328C12.4648 13.8008 12.7305 14.0703 12.7305 14.4023C12.7305 14.7305 12.4648 15 12.1328 15H11.9336V16.3555H18.4648V6.49609H11.9336ZM16.7148 11.4102C16.6992 11.4727 16.6602 11.5234 16.6016 11.5508L15.5313 12.082L16.1836 14.3086C16.2578 14.5273 15.9414 14.6875 15.8086 14.4961L13.7227 11.6719C13.6875 11.6211 13.6719 11.5547 13.6875 11.4961C13.6992 11.4375 13.7422 11.3828 13.7969 11.3555L14.8711 10.8242L14.2148 8.59375C14.1875 8.49609 14.2344 8.38672 14.3242 8.34375C14.418 8.29688 14.5312 8.32422 14.5898 8.40625L16.6719 11.2266C16.7148 11.2852 16.7266 11.3477 16.7148 11.4102Z" fill="#FD4755"/>
<path d="M15.0703 12.0312L15.4336 13.2773L14.2188 11.6328L15.2227 11.1328C15.3164 11.0859 15.3633 10.9805 15.332 10.8789L14.9688 9.63281L16.1836 11.2773L15.1797 11.7773C15.0859 11.8242 15.0391 11.9336 15.0703 12.0312Z" fill="#FFD15B"/>
<path d="M12.3047 8.44922C12.3047 8.54297 12.2266 8.62109 12.1328 8.62109H11.3047C11.2109 8.62109 11.1328 8.54297 11.1328 8.44922C11.1328 8.35156 11.2109 8.27734 11.3047 8.27734H12.1328C12.2266 8.28125 12.3047 8.35547 12.3047 8.44922ZM12.3047 14.4023C12.3047 14.4961 12.2266 14.5742 12.1328 14.5742H11.3047C11.2109 14.5742 11.1328 14.4961 11.1328 14.4023C11.1328 14.3047 11.2109 14.2305 11.3047 14.2305H12.1328C12.2266 14.2266 12.3047 14.3047 12.3047 14.4023Z" fill="#8DCCFF"/>
<path d="M3.95703 7.94531H2.31641C2.19922 7.94531 2.10156 8.03906 2.10156 8.16016V8.93359C2.10156 9.05078 2.19922 9.14844 2.31641 9.14844H3.95703C4.07422 9.14844 4.17188 9.05078 4.17188 8.93359V8.16016C4.17188 8.03906 4.07422 7.94531 3.95703 7.94531ZM3.74609 8.71875H2.53516V8.37109H3.74609V8.71875Z" fill="black"/>
<path d="M2.53125 8.37109H3.74219V8.71875H2.53125V8.37109Z" fill="#8DCCFF"/>
<path d="M9.07422 12.6836H2.31641C2.19922 12.6836 2.10156 12.7773 2.10156 12.8984V13.6719C2.10156 13.7891 2.19922 13.8867 2.31641 13.8867H9.07422C9.19141 13.8867 9.28906 13.7891 9.28906 13.6719V12.8984C9.28906 12.7773 9.19141 12.6836 9.07422 12.6836ZM8.86328 13.457H2.53516V13.1094H8.86328V13.457Z" fill="black"/>
<path d="M2.53125 13.1133H8.85938V13.4609H2.53125V13.1133Z" fill="#8DCCFF"/>
</g>
<defs>
<clipPath id="clip0_2339_2916">
<rect width="20" height="20" fill="white"/>
</clipPath>
</defs>
</svg>
