<svg width="50" height="23" viewBox="0 0 50 23" fill="none" xmlns="http://www.w3.org/2000/svg">
<g clip-path="url(#clip0_2494_13458)">
<path d="M7.994 11.7891C7.4753 11.789 6.96166 11.8911 6.48242 12.0896C6.00318 12.288 5.56772 12.5789 5.20092 12.9457C4.83412 13.3124 4.54315 13.7479 4.34464 14.2271C4.14612 14.7063 4.04395 15.2199 4.04395 15.7386C4.04395 15.9077 4.05761 16.0726 4.07887 16.2356C4.32331 18.1825 5.98127 19.6892 7.994 19.6892C10.0624 19.6892 11.7563 18.099 11.9279 16.0752C11.937 15.9633 11.9451 15.8525 11.9451 15.7376C11.9456 13.5568 10.1768 11.7891 7.994 11.7891ZM6.01568 14.2502L6.82189 15.0564C6.75803 15.165 6.70982 15.282 6.67867 15.4041H5.54249C5.59891 14.9853 5.76184 14.588 6.01568 14.2502ZM5.53894 16.0873H6.68272C6.71511 16.2083 6.76268 16.3247 6.82543 16.4299L6.01771 17.2372C5.76259 16.901 5.59776 16.5052 5.53894 16.0873ZM7.6529 18.1932C7.23654 18.1356 6.84198 17.972 6.5071 17.7179L7.31027 16.9148C7.41554 16.9765 7.53194 17.0216 7.6529 17.0529V18.1932ZM7.6529 14.4248C7.53006 14.4562 7.41243 14.5053 7.30369 14.5706L6.499 13.7654C6.83611 13.5095 7.23358 13.3452 7.6529 13.2881V14.4248ZM8.33714 13.2881C8.75658 13.345 9.15414 13.5096 9.49103 13.7659L8.68634 14.5706C8.5776 14.5053 8.45997 14.4562 8.33714 14.4248V13.2881ZM8.33714 18.1927V17.0529C8.4586 17.0211 8.57399 16.976 8.67976 16.9138L9.48344 17.7179C9.14777 17.9708 8.7533 18.1342 8.33714 18.1927ZM9.97384 17.2402L9.16359 16.4289C9.22634 16.3232 9.27847 16.2093 9.31086 16.0868H10.446C10.3893 16.5052 10.2268 16.9022 9.97384 17.2402ZM9.31086 15.4031C9.27931 15.2812 9.23111 15.1642 9.16763 15.0554L9.97384 14.2492C10.2233 14.5797 10.3878 14.9724 10.447 15.4021L9.31086 15.4031ZM41.2489 11.7891C40.7302 11.789 40.2165 11.8911 39.7373 12.0896C39.2581 12.288 38.8226 12.5789 38.4558 12.9457C38.089 13.3124 37.798 13.7479 37.5995 14.2271C37.401 14.7063 37.2988 15.2199 37.2988 15.7386C37.2988 15.9077 37.3125 16.0726 37.3338 16.2356C37.5777 18.1825 39.2362 19.6892 41.2484 19.6892C43.3168 19.6892 45.0112 18.099 45.1822 16.0752C45.1914 15.9633 45.1995 15.8525 45.1995 15.7376C45.2005 13.5568 43.4317 11.7891 41.2489 11.7891ZM39.2701 14.2502L40.0768 15.0564C40.0127 15.1649 39.9645 15.282 39.9336 15.4041H38.7974C38.8536 14.9854 39.0164 14.5881 39.2701 14.2502ZM38.7938 16.0873H39.9376C39.97 16.2083 40.0176 16.3247 40.0803 16.4299L39.2726 17.2367C39.0176 16.9006 38.8528 16.505 38.7938 16.0873ZM40.9078 18.1932C40.4914 18.1356 40.0969 17.972 39.762 17.7179L40.5652 16.9148C40.6704 16.9765 40.7868 17.0216 40.9078 17.0529V18.1932ZM40.9078 14.4248C40.7851 14.4561 40.6676 14.5052 40.5591 14.5706L39.7539 13.7654C40.091 13.5096 40.4885 13.3452 40.9078 13.2881V14.4248ZM41.5915 13.2881C42.0108 13.3449 42.4082 13.5095 42.7449 13.7659L41.9402 14.5706C41.8316 14.5054 41.7142 14.4563 41.5915 14.4248V13.2881ZM41.5915 18.1927V17.0529C41.7125 17.0211 41.8284 16.976 41.9341 16.9138L42.7378 17.7179C42.4022 17.971 42.0077 18.1344 41.5915 18.1927ZM43.2282 17.2402L42.418 16.4289C42.4807 16.3232 42.5329 16.2093 42.5652 16.0868H43.7004C43.6442 16.5053 43.4816 16.9024 43.2282 17.2402ZM42.5663 15.4031C42.5347 15.2812 42.4865 15.1642 42.423 15.0554L43.2292 14.2492C43.4787 14.5797 43.6432 14.9724 43.7029 15.4021L42.5663 15.4031Z" fill="#0CBC7E"/>
<path d="M49.6602 10.5333L48.9011 9.80805L48.9026 7.52C48.9033 6.91967 48.6809 6.34048 48.2786 5.89494L45.4723 2.78702V2.7855C45.4658 2.47256 45.3517 2.17141 45.1492 1.93276C44.9467 1.6941 44.6681 1.53252 44.3604 1.47522C41.0237 0.848174 30.6711 -0.772845 22.4769 1.42866C17.4145 2.78853 12.2675 5.52599 12.2675 5.52599C12.2675 5.52599 3.3299 6.66471 1.18811 9.45632C0.442132 10.428 0.129366 11.7044 0.0160009 12.8542C-0.0619265 13.6292 0.146587 14.4058 0.602166 15.0375C1.05775 15.6693 1.72886 16.1123 2.48877 16.283L3.31522 16.4693C3.30814 16.4242 3.29751 16.3802 3.29194 16.3336C3.26543 16.1362 3.25173 15.9372 3.25095 15.7379C3.25095 13.122 5.37958 10.9938 7.99558 10.9938C10.6121 10.9938 12.7407 13.122 12.7407 15.7379C12.7407 15.8751 12.7316 16.0077 12.7205 16.1418C12.7067 16.3016 12.6846 16.4606 12.6542 16.618L36.604 16.6666C36.5823 16.5563 36.5605 16.4465 36.5463 16.3336C36.5198 16.1362 36.5061 15.9372 36.5053 15.7379C36.5053 13.122 38.634 10.9938 41.25 10.9938C43.8665 10.9938 45.9951 13.122 45.9951 15.7379C45.9923 16.0563 45.958 16.3737 45.8929 16.6854L46.2198 16.6859L47.5822 15.9394C48.2808 15.5569 48.8683 14.9998 49.2872 14.3225C49.7062 13.6451 49.9423 12.8707 49.9725 12.0748L49.9998 11.3668C50.0052 11.2118 49.9778 11.0574 49.9192 10.9137C49.8607 10.77 49.7724 10.6404 49.6602 10.5333ZM16.9757 5.84787L17.3421 4.38374C17.3421 4.38374 22.8894 1.4818 32.1737 1.7976V6.1242L17.3042 7.29732C17.3042 7.29732 17.3841 6.36915 16.9757 5.84787ZM40.8016 5.44401L33.8099 5.99565V1.8887C36.1091 2.05571 38.6076 2.41858 41.2894 3.06638C41.5607 3.13167 41.7783 3.33309 41.8649 3.59829C41.9519 3.86348 41.8952 4.15499 41.7146 4.36755L40.8016 5.44401Z" fill="#0CBC7E"/>
</g>
<defs>
<clipPath id="clip0_2494_13458">
<rect width="50" height="23" fill="white"/>
</clipPath>
</defs>
</svg>
