<svg width="240" height="242" viewBox="0 0 240 242" fill="none" xmlns="http://www.w3.org/2000/svg">
<path d="M234.783 101.111H114.526V237.102H234.783V101.111Z" fill="white"/>
<path d="M234.8 237.514H114.544C114.319 237.514 114.132 237.328 114.132 237.104V101.113C114.132 100.889 114.319 100.703 114.544 100.703H234.8C235.025 100.703 235.212 100.889 235.212 101.113V237.104C235.212 237.328 235.025 237.514 234.8 237.514ZM114.956 236.694H234.388V101.523H114.956V236.694Z" fill="#053C5A"/>
<path d="M226.689 73.2211H61.1402L43.083 104.597L239.951 105.1L226.689 73.2211Z" fill="#053C5A"/>
<path d="M136.966 60.0878H7.88672V237.106H136.966V60.0878Z" fill="white"/>
<path d="M136.966 237.515H104.223C103.998 237.515 103.811 237.329 103.811 237.105C103.811 236.882 103.998 236.695 104.223 236.695H136.553V60.4975H8.2988V131.577C8.2988 131.8 8.11148 131.987 7.8867 131.987C7.66192 131.987 7.47461 131.8 7.47461 131.577V60.0876C7.47461 59.8641 7.66192 59.6777 7.8867 59.6777H136.966C137.19 59.6777 137.378 59.8641 137.378 60.0876V237.105C137.378 237.329 137.19 237.515 136.966 237.515Z" fill="#053C5A"/>
<path d="M7.57536 221.996C7.24502 221.996 6.96973 221.602 6.96973 221.129L7.30007 125.741C7.30007 125.268 7.57537 124.874 7.90571 124.874C8.23606 124.874 8.51135 125.268 8.51135 125.741L8.181 221.129C8.181 221.622 7.90571 221.996 7.57536 221.996Z" fill="#053C5A"/>
<path d="M136.534 67.9687H8.31641L72.4156 9.27954L136.534 67.9687Z" fill="white"/>
<path d="M72.416 9.2786L134.717 66.3096H144.851L72.416 0.00012207L0 66.3096H10.1337L72.416 9.2786Z" fill="#053C5A"/>
<path d="M76.2568 43.7258H68.5769C51.5125 43.7258 37.6699 57.4945 37.6699 74.4678V80.6907H107.164V74.4678C107.164 57.4945 93.34 43.7258 76.2568 43.7258Z" fill="white"/>
<path d="M107.163 81.1188H37.6689C37.4442 81.1188 37.2568 80.9325 37.2568 80.7089V74.486C37.2568 57.3078 51.3055 43.3342 68.5759 43.3342H76.2558C93.5263 43.3342 107.575 57.3078 107.575 74.486V80.7089C107.575 80.9325 107.406 81.1188 107.163 81.1188ZM38.0998 80.299H106.751V74.486C106.751 57.7549 93.0767 44.154 76.2558 44.154H68.5759C51.755 44.154 38.081 57.7549 38.081 74.486V80.299H38.0998Z" fill="#053C5A"/>
<path d="M30.6156 151.081H19.3018V220.986H30.6156V151.081Z" fill="white"/>
<path d="M117.868 151.081H106.554V220.986H117.868V151.081Z" fill="white"/>
<path d="M107.108 86.3931H37.6514V114.825H107.108V86.3931Z" fill="white"/>
<path d="M107.109 115.234H37.6523C37.4276 115.234 37.2402 115.047 37.2402 114.824V86.3922C37.2402 86.1686 37.4276 85.9823 37.6523 85.9823H107.109C107.334 85.9823 107.521 86.1686 107.521 86.3922V114.824C107.54 115.047 107.352 115.234 107.109 115.234ZM38.0644 114.414H106.697V86.8021H38.0644V114.414Z" fill="#053C5A"/>
<path d="M144.601 222.077V241.662H0.25V222.077H144.601Z" fill="white" stroke="#053C5A" stroke-width="0.5"/>
<path d="M118.814 221.79C118.589 221.79 118.402 221.586 118.402 221.343V152.425H20.3633V220.747C20.3633 220.989 20.1759 221.194 19.9512 221.194C19.7264 221.194 19.5391 220.989 19.5391 220.747V151.978C19.5391 151.736 19.7264 151.531 19.9512 151.531H118.814C119.039 151.531 119.226 151.736 119.226 151.978V221.343C119.226 221.586 119.057 221.79 118.814 221.79Z" fill="#053C5A"/>
<path d="M119.328 125.903H20.1816V159.179H119.328V125.903Z" fill="white"/>
<path d="M119.094 159.246H19.9482C19.7235 159.246 19.5361 159.06 19.5361 158.836V125.56C19.5361 125.337 19.7235 125.151 19.9482 125.151H119.094C119.319 125.151 119.506 125.337 119.506 125.56V158.836C119.506 159.06 119.319 159.246 119.094 159.246ZM20.3603 158.426H118.663V125.97H20.3603V158.426Z" fill="#053C5A"/>
<path d="M218.444 115.517H167.532V158.276H218.444V115.517Z" fill="#3CCDAA"/>
<path d="M218.445 158.667H167.533C167.308 158.667 167.121 158.481 167.121 158.257V115.517C167.121 115.293 167.308 115.107 167.533 115.107H218.445C218.67 115.107 218.858 115.293 218.858 115.517V158.276C218.858 158.5 218.67 158.667 218.445 158.667ZM167.945 157.848H218.033V115.927H167.945V157.848Z" fill="#053C5A"/>
<path d="M192.99 153.525C192.765 153.525 192.578 153.339 192.578 153.115V119.765C192.578 119.541 192.765 119.355 192.99 119.355C193.215 119.355 193.402 119.541 193.402 119.765V153.115C193.402 153.339 193.234 153.525 192.99 153.525Z" fill="#053C5A"/>
<path d="M218.444 178.581H167.532V221.34H218.444V178.581Z" fill="#3CCDAA"/>
<path d="M218.445 221.75H167.533C167.308 221.75 167.121 221.564 167.121 221.34V178.581C167.121 178.357 167.308 178.171 167.533 178.171H218.445C218.67 178.171 218.858 178.357 218.858 178.581V221.34C218.858 221.564 218.67 221.75 218.445 221.75ZM167.945 220.93H218.033V178.991H167.945V220.93Z" fill="#053C5A"/>
<path d="M192.99 216.588C192.765 216.588 192.578 216.402 192.578 216.178V182.828C192.578 182.604 192.765 182.418 192.99 182.418C193.215 182.418 193.402 182.604 193.402 182.828V216.178C193.402 216.402 193.234 216.588 192.99 216.588Z" fill="#053C5A"/>
</svg>
