<svg width="20" height="20" viewBox="0 0 20 20" fill="none" xmlns="http://www.w3.org/2000/svg">
<g clip-path="url(#clip0_2494_14610)">
<path d="M11.0462 5.97461H8.01843C7.97699 5.97461 7.93725 5.99107 7.90795 6.02037C7.87864 6.04968 7.86218 6.08942 7.86218 6.13086C7.86218 6.1723 7.87864 6.21204 7.90795 6.24134C7.93725 6.27065 7.97699 6.28711 8.01843 6.28711H9.37601V9.98414H9.68851V6.28711H11.0462C11.0876 6.28711 11.1273 6.27065 11.1567 6.24134C11.186 6.21204 11.2024 6.1723 11.2024 6.13086C11.2024 6.08942 11.186 6.04968 11.1567 6.02037C11.1273 5.99107 11.0876 5.97461 11.0462 5.97461Z" fill="#58595B"/>
<path d="M18.9327 18.1264H2.79993C2.36844 18.1264 2.01868 17.7766 2.01868 17.3452V14.0469C2.01868 13.6154 2.36844 13.2656 2.79993 13.2656H3.82102L5.73188 10.4915C5.83961 10.3351 5.98373 10.2072 6.15185 10.1189C6.31997 10.0305 6.50704 9.98437 6.69696 9.98438H11.687C12.0763 9.98438 12.4516 10.1298 12.7394 10.392L15.8639 13.2393C15.8781 13.2563 15.8977 13.268 15.9194 13.2725L18.7764 13.8555C19.0411 13.9096 19.279 14.0533 19.4498 14.2626C19.6207 14.4718 19.714 14.7336 19.714 15.0037V17.3452C19.714 17.7766 19.3642 18.1264 18.9327 18.1264Z" fill="#76A34F"/>
<path d="M2.48718 17.0434C2.44574 17.0434 2.406 17.0269 2.3767 16.9976C2.34739 16.9683 2.33093 16.9285 2.33093 16.8871V15.7934C2.33093 15.7519 2.34739 15.7122 2.3767 15.6829C2.406 15.6536 2.44574 15.6371 2.48718 15.6371C2.52862 15.6371 2.56837 15.6536 2.59767 15.6829C2.62697 15.7122 2.64343 15.7519 2.64343 15.7934V16.8871C2.64343 16.9285 2.62697 16.9683 2.59767 16.9976C2.56837 17.0269 2.52862 17.0434 2.48718 17.0434ZM2.48718 15.3246C2.44574 15.3246 2.406 15.3081 2.3767 15.2788C2.34739 15.2495 2.33093 15.2098 2.33093 15.1684V15.1562C2.33093 15.1148 2.34739 15.0751 2.3767 15.0458C2.406 15.0165 2.44574 15 2.48718 15C2.52862 15 2.56837 15.0165 2.59767 15.0458C2.62697 15.0751 2.64343 15.1148 2.64343 15.1562V15.1684C2.64343 15.2098 2.62697 15.2495 2.59767 15.2788C2.56837 15.3081 2.52862 15.3246 2.48718 15.3246Z" fill="#91B56B"/>
<path d="M18.8811 13.8828C18.914 13.9911 18.9325 14.1052 18.9325 14.2231V16.5645C18.9325 16.996 18.5827 17.3458 18.1512 17.3458H2.01843C2.01843 17.7773 2.3682 18.127 2.79968 18.127H18.9325C19.364 18.127 19.7137 17.7773 19.7137 17.3458V15.0044C19.7137 14.7528 19.6327 14.508 19.4828 14.306C19.3328 14.104 19.1219 13.9556 18.8811 13.8828Z" fill="#648940"/>
<path d="M19.1499 14.002C19.2629 14.1857 19.3228 14.3973 19.3229 14.613V16.9545C19.3229 17.3859 18.9732 17.7357 18.5417 17.7357H2.40886C2.2981 17.7357 2.18863 17.712 2.08777 17.6662C2.21035 17.9373 2.48253 18.1263 2.79949 18.1263H18.9323C19.3638 18.1263 19.7136 17.7766 19.7136 17.3451V15.0037C19.7135 14.8023 19.6617 14.6044 19.563 14.429C19.4642 14.2535 19.322 14.1064 19.1499 14.002Z" fill="#5A7A39"/>
<path d="M5.74695 19.6229C6.79476 19.6229 7.64726 18.7705 7.64726 17.7226C7.64726 16.6747 6.79484 15.8223 5.74695 15.8223C4.69906 15.8223 3.84656 16.6747 3.84656 17.7226C3.84656 18.7705 4.69906 19.6229 5.74695 19.6229Z" fill="#414042"/>
<path d="M5.74718 18.5591C6.20828 18.5591 6.58328 18.184 6.58328 17.7229C6.58328 17.2618 6.2082 16.8867 5.74718 16.8867C5.28609 16.8867 4.91101 17.2618 4.91101 17.7229C4.91101 18.184 5.28609 18.5591 5.74718 18.5591Z" fill="#D1D3D4"/>
<path d="M5.74699 18.1798C5.99847 18.1798 6.20308 17.9752 6.20308 17.7237C6.20308 17.4722 5.99847 17.2676 5.74699 17.2676C5.4955 17.2676 5.29089 17.4722 5.29089 17.7237C5.29089 17.9752 5.4955 18.1798 5.74699 18.1798Z" fill="#F1F2F2"/>
<path d="M16.2938 19.6229C17.3416 19.6229 18.1941 18.7705 18.1941 17.7226C18.1941 16.6747 17.3417 15.8223 16.2938 15.8223C15.2459 15.8223 14.3934 16.6747 14.3934 17.7226C14.3934 18.7705 15.2459 19.6229 16.2938 19.6229Z" fill="#414042"/>
<path d="M16.2941 18.5591C16.7552 18.5591 17.1302 18.184 17.1302 17.7229C17.1302 17.2618 16.7551 16.8867 16.2941 16.8867C15.833 16.8867 15.4579 17.2618 15.4579 17.7229C15.4579 18.184 15.833 18.5591 16.2941 18.5591Z" fill="#D1D3D4"/>
<path d="M16.2939 18.1798C16.5453 18.1798 16.75 17.9752 16.75 17.7237C16.75 17.4722 16.5453 17.2676 16.2939 17.2676C16.0424 17.2676 15.8378 17.4722 15.8378 17.7237C15.8378 17.9752 16.0424 18.1798 16.2939 18.1798Z" fill="#F1F2F2"/>
<path d="M10.6573 14.1758H10.0467C10.0052 14.1758 9.96549 14.1593 9.93619 14.13C9.90689 14.1007 9.89042 14.061 9.89042 14.0195C9.89042 13.9781 9.90689 13.9383 9.93619 13.909C9.96549 13.8797 10.0052 13.8633 10.0467 13.8633H10.6573C10.6987 13.8633 10.7385 13.8797 10.7678 13.909C10.7971 13.9383 10.8135 13.9781 10.8135 14.0195C10.8135 14.061 10.7971 14.1007 10.7678 14.13C10.7385 14.1593 10.6987 14.1758 10.6573 14.1758ZM6.3605 14.1758H5.74988C5.70844 14.1758 5.66869 14.1593 5.63939 14.13C5.61009 14.1007 5.59363 14.061 5.59363 14.0195C5.59363 13.9781 5.61009 13.9383 5.63939 13.909C5.66869 13.8797 5.70844 13.8633 5.74988 13.8633H6.3605C6.40194 13.8633 6.44169 13.8797 6.47099 13.909C6.50029 13.9383 6.51675 13.9781 6.51675 14.0195C6.51675 14.061 6.50029 14.1007 6.47099 14.13C6.44169 14.1593 6.40194 14.1758 6.3605 14.1758Z" fill="#414042"/>
<path d="M3.34899 14.0645C3.48657 13.984 3.42946 13.7734 3.27008 13.7734H2.06883C2.03584 13.8608 2.01885 13.9535 2.01868 14.0469V14.8432L3.34899 14.0645Z" fill="#D10028"/>
<path d="M3.27008 13.7734H3.03571C3.19508 13.7734 3.25219 13.9841 3.11461 14.0645L2.01868 14.706V14.8432L3.34899 14.0645C3.48657 13.9841 3.42946 13.7734 3.27008 13.7734Z" fill="#B7022D"/>
<path d="M19.7143 16.0739V15.1094H19.0316C18.9962 15.1094 18.9612 15.1163 18.9286 15.1298C18.896 15.1433 18.8663 15.1632 18.8413 15.1881C18.8164 15.2131 18.7965 15.2428 18.783 15.2754C18.7695 15.3081 18.7626 15.343 18.7626 15.3784V15.8049C18.7626 15.8402 18.7695 15.8752 18.783 15.9079C18.7965 15.9405 18.8164 15.9702 18.8413 15.9951C18.8663 16.0201 18.896 16.0399 18.9286 16.0535C18.9612 16.067 18.9962 16.0739 19.0316 16.0739H19.7143Z" fill="#FFA91A"/>
<path d="M19.1532 15.8049V15.3784C19.1532 15.343 19.1602 15.3081 19.1737 15.2754C19.1872 15.2428 19.207 15.2131 19.232 15.1882C19.257 15.1632 19.2866 15.1434 19.3192 15.1299C19.3519 15.1163 19.3869 15.1094 19.4222 15.1094H19.0316C18.9962 15.1094 18.9612 15.1163 18.9286 15.1298C18.896 15.1433 18.8663 15.1632 18.8413 15.1881C18.8164 15.2131 18.7965 15.2428 18.783 15.2754C18.7695 15.3081 18.7626 15.343 18.7626 15.3784V15.8049C18.7626 15.8763 18.7909 15.9447 18.8414 15.9951C18.8918 16.0456 18.9602 16.0739 19.0316 16.0739H19.4222C19.3508 16.0739 19.2824 16.0456 19.232 15.9951C19.1815 15.9447 19.1532 15.8763 19.1532 15.8049Z" fill="#F79219"/>
<path d="M14.5423 12.9733L12.1625 10.8271C12.0907 10.7624 11.9975 10.7266 11.9009 10.7266H6.66849C6.60518 10.7266 6.54282 10.7419 6.48678 10.7714C6.43073 10.8009 6.38269 10.8435 6.34678 10.8956L4.90623 12.987C4.89815 12.9987 4.89344 13.0124 4.89259 13.0266C4.89175 13.0408 4.89481 13.055 4.90143 13.0676C4.90806 13.0802 4.91801 13.0908 4.9302 13.0981C4.94239 13.1055 4.95636 13.1094 4.9706 13.1094H14.4901C14.5616 13.1094 14.5955 13.0212 14.5423 12.9733Z" fill="#F1F2F2"/>
<path d="M14.5423 12.9738L14.1772 12.6445C14.1752 12.6831 14.1451 12.7193 14.0994 12.7193H5.09099L4.90623 12.9875C4.89815 12.9992 4.89344 13.0129 4.89259 13.0272C4.89175 13.0414 4.89481 13.0556 4.90143 13.0682C4.90806 13.0808 4.91801 13.0913 4.9302 13.0987C4.94239 13.106 4.95636 13.1099 4.9706 13.1099H14.4901C14.5616 13.1099 14.5955 13.0217 14.5423 12.9738Z" fill="#E6E7E8"/>
<path d="M11.9 10.7266C11.9967 10.7266 12.0899 10.7623 12.1617 10.8271L14.5415 12.9732C14.5946 13.0212 14.5607 13.1094 14.4892 13.1094H4.96979C4.95555 13.1094 4.94157 13.1055 4.92938 13.0981C4.91719 13.0908 4.90725 13.0802 4.90062 13.0676C4.89399 13.055 4.89093 13.0408 4.89178 13.0266C4.89262 13.0124 4.89734 12.9987 4.90541 12.987L6.34596 10.8956C6.38188 10.8435 6.42993 10.8009 6.48597 10.7714C6.54201 10.742 6.60437 10.7266 6.66768 10.7266H11.9ZM11.9 10.4141H6.66768C6.55373 10.4141 6.44149 10.4418 6.34062 10.4947C6.23975 10.5477 6.15327 10.6245 6.08862 10.7183L4.64807 12.8097C4.56549 12.9296 4.55627 13.0841 4.62401 13.213C4.69174 13.3418 4.82424 13.4219 4.96979 13.4219H14.4892C14.5683 13.4223 14.6456 13.3985 14.7107 13.3537C14.7759 13.3089 14.8258 13.2453 14.8538 13.1714C14.8826 13.0977 14.8881 13.0171 14.8697 12.9402C14.8513 12.8633 14.8098 12.7939 14.7509 12.7412L12.371 10.5951C12.2418 10.4785 12.074 10.414 11.9 10.4141Z" fill="#58595B"/>
<path d="M13.7645 12.8281C13.7645 12.7535 13.7942 12.682 13.8469 12.6293C13.8996 12.5765 13.9712 12.5469 14.0458 12.5469H14.6737C14.7483 12.5469 14.8199 12.5765 14.8726 12.6293C14.9254 12.682 14.955 12.7535 14.955 12.8281C14.955 12.9027 14.9254 12.9743 14.8726 13.027C14.8199 13.0797 14.7483 13.1094 14.6737 13.1094H14.0458C13.9712 13.1094 13.8996 13.0797 13.8469 13.027C13.7942 12.9743 13.7645 12.9027 13.7645 12.8281Z" fill="#414042"/>
<path d="M9.35843 10.7272H9.7057V13.11H9.35843V10.7272ZM1.45695 16.1674H0.676636C0.375073 16.1674 0.129761 15.9221 0.129761 15.6205V2.30078C0.129761 1.78383 0.550308 1.36328 1.06726 1.36328H7.61898V1.67578H1.06726C0.722651 1.67578 0.442261 1.95617 0.442261 2.30078V15.6205C0.442261 15.7498 0.547417 15.8549 0.676636 15.8549H1.45695V16.1674Z" fill="#58595B"/>
<path d="M7.61987 1.18055V1.85766C7.61987 1.95094 7.6955 2.02656 7.78878 2.02656H8.3955V1.01172H7.78878C7.744 1.01172 7.70105 1.0295 7.66937 1.06116C7.6377 1.09282 7.61989 1.13576 7.61987 1.18055Z" fill="#808285"/>
<path d="M10.7714 1.88375H10.0487V2.3525H10.7714C10.8335 2.3525 10.8931 2.32781 10.9371 2.28385C10.981 2.2399 11.0057 2.18029 11.0057 2.11812C11.0057 2.05596 10.981 1.99635 10.9371 1.9524C10.8931 1.90844 10.8335 1.88375 10.7714 1.88375ZM10.7714 0.6875H10.0487V1.15625H10.7714C10.8335 1.15625 10.8931 1.13156 10.9371 1.0876C10.981 1.04365 11.0057 0.984035 11.0057 0.921875C11.0057 0.859715 10.981 0.800101 10.9371 0.756147C10.8931 0.712193 10.8335 0.6875 10.7714 0.6875Z" fill="#D1D3D4"/>
<path d="M10.0489 0.533203V2.50508C10.0489 2.54652 10.0324 2.58626 10.0031 2.61556C9.9738 2.64487 9.93406 2.66133 9.89262 2.66133H8.68223C8.64457 2.66133 8.60729 2.65391 8.5725 2.6395C8.53772 2.62509 8.50611 2.60397 8.47949 2.57735C8.45286 2.55073 8.43174 2.51912 8.41733 2.48433C8.40292 2.44955 8.39551 2.41226 8.39551 2.37461V0.663672C8.39551 0.626019 8.40292 0.588736 8.41733 0.553949C8.43174 0.519163 8.45286 0.487555 8.47949 0.460931C8.50611 0.434307 8.53772 0.413187 8.5725 0.398778C8.60729 0.384369 8.64457 0.376953 8.68223 0.376953H9.89262C9.93406 0.376953 9.9738 0.393415 10.0031 0.422718C10.0324 0.45202 10.0489 0.491763 10.0489 0.533203Z" fill="#58595B"/>
<path d="M2.01777 16.738H1.61316C1.57172 16.738 1.53198 16.7216 1.50267 16.6923C1.47337 16.663 1.45691 16.6232 1.45691 16.5818V15.4395C1.45691 15.398 1.47337 15.3583 1.50267 15.329C1.53198 15.2997 1.57172 15.2832 1.61316 15.2832H2.01777V16.738Z" fill="#808285"/>
<path d="M5.45461 8.94023C7.00597 8.94023 8.2636 7.68261 8.2636 6.13125C8.2636 4.57989 7.00597 3.32227 5.45461 3.32227C3.90326 3.32227 2.64563 4.57989 2.64563 6.13125C2.64563 7.68261 3.90326 8.94023 5.45461 8.94023Z" fill="#377DE2"/>
<path d="M7.23621 3.95898C7.649 4.46073 7.87426 5.09051 7.87332 5.74023C7.87332 7.29156 6.61566 8.54922 5.06433 8.54922C4.41461 8.55016 3.78482 8.3249 3.28308 7.91211C3.79824 8.53953 4.5798 8.93984 5.45496 8.93984C7.00628 8.93984 8.26394 7.68219 8.26394 6.13086C8.26394 5.25578 7.86363 4.47414 7.23621 3.95898Z" fill="#2266D3"/>
<path d="M13.6094 8.94023C15.1608 8.94023 16.4184 7.68261 16.4184 6.13125C16.4184 4.57989 15.1608 3.32227 13.6094 3.32227C12.058 3.32227 10.8004 4.57989 10.8004 6.13125C10.8004 7.68261 12.058 8.94023 13.6094 8.94023Z" fill="#FFC91D"/>
<path d="M15.3905 3.95898C15.8033 4.46073 16.0286 5.09051 16.0276 5.74023C16.0276 7.29156 14.77 8.54922 13.2186 8.54922C12.5689 8.55016 11.9391 8.3249 11.4374 7.91211C11.9525 8.53953 12.7341 8.93984 13.6093 8.93984C15.1607 8.93984 16.4182 7.68219 16.4182 6.13086C16.4182 5.25578 16.0179 4.47422 15.3905 3.95898Z" fill="#FFA91A"/>
<path d="M6.09614 4.06641H5.38443C5.33427 4.06641 5.2888 4.09594 5.26833 4.14172L4.29411 6.32477C4.28548 6.34412 4.28182 6.36533 4.28347 6.38646C4.28512 6.40759 4.29203 6.42797 4.30356 6.44575C4.3151 6.46353 4.3309 6.47815 4.34953 6.48826C4.36815 6.49838 4.38901 6.50367 4.41021 6.50367H5.45911L4.88536 8.12758C4.86614 8.18195 4.93802 8.22125 4.97341 8.1757L6.59958 6.08594C6.66458 6.00242 6.60505 5.88078 6.49927 5.88078H5.45732L6.21161 4.2468C6.22054 4.22742 6.22444 4.20612 6.22297 4.18484C6.22151 4.16356 6.21471 4.14299 6.20321 4.12502C6.19171 4.10706 6.17588 4.09228 6.15717 4.08203C6.13846 4.07179 6.11747 4.06642 6.09614 4.06641Z" fill="#FFC91D"/>
<path d="M5.82055 4.2468L5.11742 5.76992C5.11193 5.78183 5.10952 5.79492 5.11042 5.808C5.11132 5.82108 5.11549 5.83372 5.12255 5.84476C5.12962 5.85581 5.13935 5.86489 5.15085 5.87119C5.16235 5.87748 5.17525 5.88078 5.18836 5.88078H5.45688L6.21117 4.2468C6.22012 4.22743 6.22404 4.20613 6.22258 4.18484C6.22113 4.16356 6.21434 4.14299 6.20285 4.12502C6.19135 4.10705 6.17552 4.09227 6.15681 4.08202C6.1381 4.07178 6.11711 4.06641 6.09578 4.06641H5.70516C5.72649 4.06641 5.74748 4.07178 5.76619 4.08202C5.7849 4.09227 5.80073 4.10705 5.81222 4.12502C5.82372 4.14299 5.8305 4.16356 5.83196 4.18484C5.83341 4.20613 5.82949 4.22743 5.82055 4.2468ZM6.49891 5.88078H6.10828C6.21407 5.88078 6.2736 6.0025 6.2086 6.08594L5.10539 7.50367L4.88492 8.12758C4.86571 8.18195 4.93758 8.22125 4.97297 8.17578L6.59914 6.08602C6.66414 6.0025 6.60469 5.88078 6.49891 5.88078Z" fill="#FFA91A"/>
<path d="M12.7884 4.47609L12.5591 4.23453C12.5294 4.20328 12.4882 4.18555 12.4451 4.18555H12.1417C12.1334 4.18555 12.1254 4.18886 12.1195 4.19477C12.1135 4.20067 12.1102 4.20868 12.1102 4.21703V4.4357C12.1102 4.45305 12.1243 4.46719 12.1417 4.46719H12.3467C12.3553 4.46719 12.3636 4.4707 12.3695 4.47695L12.4891 4.60289L12.7884 4.47609Z" fill="#D1D3D4"/>
<path d="M13.2 4.63541L12.8715 4.47119C12.8613 4.46611 12.8501 4.4633 12.8388 4.46293C12.8274 4.46257 12.8161 4.46466 12.8056 4.46908L12.4785 4.6076C12.4643 4.61363 12.4522 4.62372 12.4436 4.63659C12.4351 4.64947 12.4306 4.66457 12.4305 4.68002V4.92767L13.2 4.63541Z" fill="#939598"/>
<path d="M14.4662 4.98656V5.11641H14.8437V4.93984C14.8437 4.88665 14.8332 4.83397 14.8128 4.78483C14.7924 4.73569 14.7626 4.69105 14.7249 4.65347C14.6873 4.61588 14.6426 4.58608 14.5934 4.56578C14.5442 4.54548 14.4916 4.53507 14.4384 4.53516L13.4677 4.53672V4.85164H14.3313C14.4059 4.85164 14.4662 4.91203 14.4662 4.98656Z" fill="#58595B"/>
<path d="M14.889 5.11508H13.6247C13.583 5.11508 13.543 5.09851 13.5135 5.06902C13.484 5.03952 13.4674 4.99952 13.4674 4.95781V4.5332L12.3124 4.97195C12.2868 4.98168 12.2648 4.99895 12.2493 5.02147C12.2338 5.04398 12.2255 5.07069 12.2255 5.09805V7.59719C12.2255 7.70079 12.2666 7.80014 12.3399 7.8734C12.4131 7.94666 12.5125 7.98781 12.6161 7.98781H14.6333C14.7369 7.98781 14.8362 7.94666 14.9095 7.8734C14.9827 7.80014 15.0239 7.70079 15.0239 7.59719V5.25C15.0239 5.17547 14.9635 5.11508 14.889 5.11508Z" fill="#5E9CF7"/>
<path d="M14.889 5.11523H14.6333V7.20672C14.6333 7.31032 14.5921 7.40968 14.5189 7.48293C14.4456 7.55619 14.3463 7.59734 14.2427 7.59734H12.2255C12.2255 7.70094 12.2666 7.8003 12.3399 7.87356C12.4131 7.94681 12.5125 7.98797 12.6161 7.98797H14.6333C14.7369 7.98797 14.8362 7.94681 14.9095 7.87356C14.9827 7.8003 15.0239 7.70094 15.0239 7.59734V5.25016C15.0239 5.17562 14.9635 5.11523 14.889 5.11523Z" fill="#478CF7"/>
<path d="M12.7479 7.60162C12.7171 7.60163 12.687 7.59255 12.6614 7.57551C12.6358 7.55847 12.6157 7.53423 12.6038 7.50583C12.5919 7.47744 12.5887 7.44616 12.5945 7.41593C12.6003 7.3857 12.6149 7.35786 12.6365 7.33591L14.3901 5.55068C14.4505 5.48904 14.5495 5.48826 14.6111 5.54873C14.6726 5.6092 14.6736 5.70818 14.613 5.76966L12.8594 7.5549C12.8288 7.58607 12.7883 7.60162 12.7479 7.60162Z" fill="#2266D3"/>
<path d="M14.5022 7.60132C14.4618 7.60132 14.4214 7.58569 14.3907 7.55452L12.6371 5.76936C12.6224 5.7548 12.6107 5.73746 12.6027 5.71834C12.5948 5.69922 12.5907 5.67871 12.5907 5.65799C12.5907 5.63727 12.5949 5.61677 12.6029 5.59767C12.6109 5.57858 12.6227 5.56126 12.6374 5.54674C12.6522 5.53223 12.6697 5.52079 12.689 5.51311C12.7082 5.50542 12.7288 5.50164 12.7495 5.50197C12.7702 5.50231 12.7907 5.50677 12.8096 5.51508C12.8286 5.52338 12.8457 5.53539 12.86 5.55038L14.6136 7.33561C14.6352 7.35757 14.6498 7.38541 14.6556 7.41563C14.6614 7.44585 14.6581 7.47711 14.6462 7.50548C14.6343 7.53386 14.6143 7.55809 14.5887 7.57514C14.5631 7.59219 14.533 7.6013 14.5022 7.60132Z" fill="#2266D3"/>
</g>
<defs>
<clipPath id="clip0_2494_14610">
<rect width="20" height="20" fill="white"/>
</clipPath>
</defs>
</svg>
