<svg width="280" height="840" viewBox="0 0 280 840" fill="none" xmlns="http://www.w3.org/2000/svg">
<g opacity="0.04" clip-path="url(#clip0_2416_9650)">
<mask id="mask0_2416_9650" style="mask-type:luminance" maskUnits="userSpaceOnUse" x="0" y="0" width="280" height="280">
<path d="M280 0H0V280H280V0Z" fill="white"/>
</mask>
<g mask="url(#mask0_2416_9650)">
<path fill-rule="evenodd" clip-rule="evenodd" d="M0 0C0 77.3199 62.6801 140 140 140C62.6801 140 0 202.681 0 280H16.8C16.8 211.959 71.9585 156.8 140 156.8C208.041 156.8 263.2 211.959 263.2 280H280C280 202.681 217.319 140 140 140C217.319 140 280 77.3199 280 0H263.2C263.2 68.0415 208.041 123.2 140 123.2C71.9585 123.2 16.8 68.0415 16.8 0H0ZM33.6 0C33.6 58.763 81.237 106.4 140 106.4C198.764 106.4 246.4 58.763 246.4 0H229.6C229.6 49.4847 189.484 89.6 140 89.6C90.5153 89.6 50.4 49.4847 50.4 0H33.6ZM67.2 0C67.2 40.2063 99.7937 72.8 140 72.8C180.207 72.8 212.8 40.2063 212.8 0H196C196 30.928 170.927 56 140 56C109.072 56 84 30.928 84 0H67.2ZM140 173.6C198.764 173.6 246.4 221.236 246.4 280H229.6C229.6 230.516 189.484 190.4 140 190.4C90.5153 190.4 50.4 230.516 50.4 280H33.6C33.6 221.236 81.237 173.6 140 173.6ZM140 207.2C180.207 207.2 212.8 239.793 212.8 280H196C196 249.073 170.927 224 140 224C109.072 224 84 249.073 84 280H67.2C67.2 239.793 99.7937 207.2 140 207.2Z" fill="url(#paint0_linear_2416_9650)"/>
</g>
</g>
<g opacity="0.04" clip-path="url(#clip1_2416_9650)">
<mask id="mask1_2416_9650" style="mask-type:luminance" maskUnits="userSpaceOnUse" x="0" y="560" width="280" height="280">
<path d="M280 840H0V560H280V840Z" fill="white"/>
</mask>
<g mask="url(#mask1_2416_9650)">
<path fill-rule="evenodd" clip-rule="evenodd" d="M0 840C0 762.68 62.6801 700 140 700C62.6801 700 0 637.319 0 560H16.8C16.8 628.041 71.9585 683.2 140 683.2C208.041 683.2 263.2 628.041 263.2 560H280C280 637.319 217.319 700 140 700C217.319 700 280 762.68 280 840H263.2C263.2 771.958 208.041 716.8 140 716.8C71.9585 716.8 16.8 771.958 16.8 840H0ZM33.6 840C33.6 781.237 81.237 733.6 140 733.6C198.764 733.6 246.4 781.237 246.4 840H229.6C229.6 790.515 189.484 750.4 140 750.4C90.5153 750.4 50.4 790.515 50.4 840H33.6ZM67.2 840C67.2 799.794 99.7937 767.2 140 767.2C180.207 767.2 212.8 799.794 212.8 840H196C196 809.072 170.927 784 140 784C109.072 784 84 809.072 84 840H67.2ZM140 666.4C198.764 666.4 246.4 618.764 246.4 560H229.6C229.6 609.484 189.484 649.6 140 649.6C90.5153 649.6 50.4 609.484 50.4 560H33.6C33.6 618.764 81.237 666.4 140 666.4ZM140 632.8C180.207 632.8 212.8 600.207 212.8 560H196C196 590.927 170.927 616 140 616C109.072 616 84 590.927 84 560H67.2C67.2 600.207 99.7937 632.8 140 632.8Z" fill="url(#paint1_linear_2416_9650)"/>
</g>
</g>
<defs>
<linearGradient id="paint0_linear_2416_9650" x1="140" y1="0" x2="140" y2="280" gradientUnits="userSpaceOnUse">
<stop stop-color="#053C5A"/>
<stop offset="1" stop-color="#3CCDAA"/>
</linearGradient>
<linearGradient id="paint1_linear_2416_9650" x1="140" y1="840" x2="140" y2="560" gradientUnits="userSpaceOnUse">
<stop stop-color="#053C5A"/>
<stop offset="1" stop-color="#3CCDAA"/>
</linearGradient>
<clipPath id="clip0_2416_9650">
<rect width="280" height="280" fill="white"/>
</clipPath>
<clipPath id="clip1_2416_9650">
<rect width="280" height="280" fill="white" transform="matrix(1 0 0 -1 0 840)"/>
</clipPath>
</defs>
</svg>
