<svg width="308" height="922" viewBox="0 0 308 922" fill="none" xmlns="http://www.w3.org/2000/svg">
<g opacity="0.1" clip-path="url(#clip0_2372_2869)">
<mask id="mask0_2372_2869" style="mask-type:luminance" maskUnits="userSpaceOnUse" x="0" y="0" width="308" height="308">
<path d="M307.5 0H0.166748V307.333H307.5V0Z" fill="white"/>
</mask>
<g mask="url(#mask0_2372_2869)">
<path fill-rule="evenodd" clip-rule="evenodd" d="M0.166748 0C0.166748 84.8678 68.9656 153.667 153.833 153.667C68.9656 153.667 0.166748 222.466 0.166748 307.333H18.6067C18.6067 232.65 79.1497 172.107 153.833 172.107C228.517 172.107 289.06 232.65 289.06 307.333H307.5C307.5 222.466 238.7 153.667 153.833 153.667C238.7 153.667 307.5 84.8678 307.5 0H289.06C289.06 74.6837 228.517 135.227 153.833 135.227C79.1497 135.227 18.6067 74.6837 18.6067 0H0.166748ZM37.0467 0C37.0467 64.4994 89.334 116.787 153.833 116.787C218.333 116.787 270.62 64.4994 270.62 0H252.18C252.18 54.3153 208.148 98.3467 153.833 98.3467C99.5181 98.3467 55.4867 54.3153 55.4867 0H37.0467ZM73.9267 0C73.9267 44.1312 109.702 79.9067 153.833 79.9067C197.965 79.9067 233.74 44.1312 233.74 0H215.3C215.3 33.9471 187.78 61.4667 153.833 61.4667C119.886 61.4667 92.3667 33.9471 92.3667 0H73.9267ZM153.833 190.547C218.333 190.547 270.62 242.833 270.62 307.333H252.18C252.18 253.018 208.148 208.987 153.833 208.987C99.5181 208.987 55.4867 253.018 55.4867 307.333H37.0467C37.0467 242.833 89.334 190.547 153.833 190.547ZM153.833 227.427C197.965 227.427 233.74 263.202 233.74 307.333H215.3C215.3 273.387 187.78 245.867 153.833 245.867C119.886 245.867 92.3667 273.387 92.3667 307.333H73.9267C73.9267 263.202 109.702 227.427 153.833 227.427Z" fill="url(#paint0_linear_2372_2869)"/>
</g>
</g>
<g opacity="0.1" clip-path="url(#clip1_2372_2869)">
<mask id="mask1_2372_2869" style="mask-type:luminance" maskUnits="userSpaceOnUse" x="0" y="614" width="308" height="308">
<path d="M307.5 922H0.166748V614.667H307.5V922Z" fill="white"/>
</mask>
<g mask="url(#mask1_2372_2869)">
<path fill-rule="evenodd" clip-rule="evenodd" d="M0.166748 922C0.166748 837.132 68.9656 768.333 153.833 768.333C68.9656 768.333 0.166748 699.534 0.166748 614.667H18.6067C18.6067 689.35 79.1497 749.893 153.833 749.893C228.517 749.893 289.06 689.35 289.06 614.667H307.5C307.5 699.534 238.7 768.333 153.833 768.333C238.7 768.333 307.5 837.132 307.5 922H289.06C289.06 847.316 228.517 786.773 153.833 786.773C79.1497 786.773 18.6067 847.316 18.6067 922H0.166748ZM37.0467 922C37.0467 857.501 89.334 805.213 153.833 805.213C218.333 805.213 270.62 857.501 270.62 922H252.18C252.18 867.685 208.148 823.653 153.833 823.653C99.5181 823.653 55.4867 867.685 55.4867 922H37.0467ZM73.9267 922C73.9267 877.869 109.702 842.093 153.833 842.093C197.965 842.093 233.74 877.869 233.74 922H215.3C215.3 888.053 187.78 860.533 153.833 860.533C119.886 860.533 92.3667 888.053 92.3667 922H73.9267ZM153.833 731.453C218.333 731.453 270.62 679.167 270.62 614.667H252.18C252.18 668.982 208.148 713.013 153.833 713.013C99.5181 713.013 55.4867 668.982 55.4867 614.667H37.0467C37.0467 679.167 89.334 731.453 153.833 731.453ZM153.833 694.573C197.965 694.573 233.74 658.798 233.74 614.667H215.3C215.3 648.613 187.78 676.133 153.833 676.133C119.886 676.133 92.3667 648.613 92.3667 614.667H73.9267C73.9267 658.798 109.702 694.573 153.833 694.573Z" fill="url(#paint1_linear_2372_2869)"/>
</g>
</g>
<defs>
<linearGradient id="paint0_linear_2372_2869" x1="153.833" y1="0" x2="153.833" y2="307.333" gradientUnits="userSpaceOnUse">
<stop stop-color="white"/>
<stop offset="1" stop-color="white" stop-opacity="0"/>
</linearGradient>
<linearGradient id="paint1_linear_2372_2869" x1="153.833" y1="922" x2="153.833" y2="614.667" gradientUnits="userSpaceOnUse">
<stop stop-color="white"/>
<stop offset="1" stop-color="white" stop-opacity="0"/>
</linearGradient>
<clipPath id="clip0_2372_2869">
<rect width="307.333" height="307.333" fill="white" transform="translate(0.166748)"/>
</clipPath>
<clipPath id="clip1_2372_2869">
<rect width="307.333" height="307.333" fill="white" transform="matrix(1 0 0 -1 0.166748 922)"/>
</clipPath>
</defs>
</svg>
