<svg width="30" height="30" viewBox="0 0 30 30" fill="none" xmlns="http://www.w3.org/2000/svg">
<path d="M11.25 27.5H18.75C25 27.5 27.5 25 27.5 18.75V11.25C27.5 5 25 2.5 18.75 2.5H11.25C5 2.5 2.5 5 2.5 11.25V18.75C2.5 25 5 27.5 11.25 27.5Z" stroke="#292D32" stroke-width="1.5" stroke-linecap="round" stroke-linejoin="round"/>
<path d="M20.3485 17.0121C18.936 18.4246 16.911 18.8621 15.1235 18.2996L11.886 21.5246C11.661 21.7621 11.1985 21.9121 10.861 21.8621L9.36104 21.6621C8.86104 21.5996 8.41104 21.1246 8.33604 20.6371L8.13604 19.1371C8.08604 18.8121 8.24854 18.3496 8.47354 18.1121L11.6985 14.8871C11.1485 13.0996 11.5735 11.0746 12.986 9.66206C15.011 7.63706 18.311 7.63706 20.3485 9.66206C22.3735 11.6746 22.3735 14.9746 20.3485 17.0121Z" stroke="#3CCDAA" stroke-width="1.5" stroke-miterlimit="10" stroke-linecap="round" stroke-linejoin="round"/>
<path d="M13.0615 20.3499L11.999 19.2749" stroke="#3CCDAA" stroke-width="1.5" stroke-miterlimit="10" stroke-linecap="round" stroke-linejoin="round"/>
<path d="M16.7431 13.3752H16.7544" stroke="#3CCDAA" stroke-width="2" stroke-linecap="round" stroke-linejoin="round"/>
</svg>
