<svg width="223" height="301" viewBox="0 0 223 301" fill="none" xmlns="http://www.w3.org/2000/svg">
<path d="M46.938 147.537C42.7646 140.67 22.9747 140.805 21.2246 143.901C21.2246 143.901 31.0522 175.679 41.9569 172.313C52.9961 168.946 46.938 147.537 46.938 147.537Z" fill="#053C5A"/>
<mask id="mask0_2416_3453" style="mask-type:luminance" maskUnits="userSpaceOnUse" x="21" y="141" width="28" height="32">
<path d="M46.938 147.537C42.7646 140.67 22.9747 140.805 21.2246 143.902C21.2246 143.902 31.0522 175.679 41.9569 172.313C52.9961 168.947 46.938 147.537 46.938 147.537Z" fill="white"/>
</mask>
<g mask="url(#mask0_2416_3453)">
<path opacity="0.3" d="M46.938 147.537C42.7646 140.67 22.9747 140.805 21.2246 143.902C21.2246 143.902 31.0522 175.679 41.9569 172.313C52.9961 168.946 46.938 147.537 46.938 147.537Z" fill="black" fill-opacity="0.7"/>
</g>
<path d="M46.938 147.537C42.7646 140.67 22.9747 140.805 21.2246 143.901C21.2246 143.901 31.0522 175.679 41.9569 172.313C52.9961 168.946 46.938 147.537 46.938 147.537Z" stroke="#263238" stroke-width="0.90438" stroke-miterlimit="10" stroke-linecap="round" stroke-linejoin="round"/>
<path d="M23.3792 163.695C23.3792 163.695 21.2252 166.118 21.2252 169.619C21.2252 172.582 26.8794 231.693 44.2461 252.294C47.8809 256.603 52.0543 259.296 56.7662 259.296C71.5749 259.431 78.7101 247.716 87.9992 220.652C89.2108 217.285 90.4224 213.65 91.634 209.745C100.789 181.738 111.962 123.3 111.962 123.3C111.962 123.3 92.0379 127.878 80.1909 139.592C75.0752 144.709 69.6902 159.251 66.1899 169.889C64.4398 175.14 63.2282 179.449 62.8243 181.199C62.6897 181.738 62.555 182.142 62.555 182.142C62.1512 180.391 61.3434 178.641 60.4011 176.89C60.4011 176.89 60.4011 176.756 60.2664 176.756C56.7662 169.889 50.8427 163.829 50.8427 163.829L46.5347 147.537C46.5347 147.537 45.0538 150.499 38.1879 151.576C31.3221 152.653 20.8213 143.901 20.8213 143.901L23.3792 163.695Z" fill="#053C5A"/>
<mask id="mask1_2416_3453" style="mask-type:luminance" maskUnits="userSpaceOnUse" x="20" y="123" width="92" height="137">
<path d="M23.3792 163.695C23.3792 163.695 21.2252 166.118 21.2252 169.619C21.2252 172.582 26.8794 231.693 44.2461 252.294C47.8809 256.603 52.0543 259.296 56.7662 259.296C71.5749 259.431 78.7101 247.716 87.9992 220.652C89.2108 217.285 90.4224 213.65 91.634 209.745C100.789 181.738 111.962 123.3 111.962 123.3C111.962 123.3 92.0379 127.878 80.1909 139.592C75.0752 144.709 69.6902 159.251 66.1899 169.889C64.4398 175.14 63.2282 179.449 62.8243 181.199C62.6897 181.738 62.555 182.142 62.555 182.142C62.1512 180.391 61.3434 178.641 60.4011 176.89C60.4011 176.89 60.4011 176.756 60.2664 176.756C56.7662 169.889 50.8427 163.829 50.8427 163.829L46.5347 147.537C46.5347 147.537 45.0538 150.499 38.1879 151.576C31.3221 152.653 20.8213 143.901 20.8213 143.901L23.3792 163.695Z" fill="white"/>
</mask>
<g mask="url(#mask1_2416_3453)">
<path opacity="0.3" d="M44.3809 252.428C48.0157 256.737 52.1891 259.43 56.901 259.43C71.7098 259.565 78.8449 247.85 88.134 220.786L87.8648 157.635C87.8648 157.635 76.8255 159.789 66.3248 170.023C64.5746 175.274 63.363 179.583 62.9591 181.333C67.1325 189.951 74.4022 209.879 66.0555 231.019C60.8051 244.753 51.9199 250.274 44.3809 252.428Z" fill="black" fill-opacity="0.7"/>
</g>
<path d="M23.3792 163.695C23.3792 163.695 21.2252 166.118 21.2252 169.619C21.2252 172.582 26.8794 231.693 44.2461 252.294C47.8809 256.603 52.0543 259.296 56.7662 259.296C71.5749 259.431 78.7101 247.716 87.9992 220.652C89.2108 217.285 90.4224 213.65 91.634 209.745C100.789 181.738 111.962 123.3 111.962 123.3C111.962 123.3 92.0379 127.878 80.1909 139.592C75.0752 144.709 69.6902 159.251 66.1899 169.889C64.4398 175.14 63.2282 179.449 62.8243 181.199C62.6897 181.738 62.555 182.142 62.555 182.142C62.1512 180.391 61.3434 178.641 60.4011 176.89C60.4011 176.89 60.4011 176.756 60.2664 176.756C56.7662 169.889 50.8427 163.829 50.8427 163.829L46.5347 147.537C46.5347 147.537 45.0538 150.499 38.1879 151.576C31.3221 152.653 20.8213 143.901 20.8213 143.901L23.3792 163.695Z" stroke="#263238" stroke-width="0.90438" stroke-miterlimit="10" stroke-linecap="round" stroke-linejoin="round"/>
<path d="M70.2289 201.396C71.3059 206.917 71.3059 212.976 68.748 218.093" stroke="#263238" stroke-width="0.90438" stroke-miterlimit="10" stroke-linecap="round" stroke-linejoin="round"/>
<path d="M62.8252 182.142C65.7869 187.124 68.0756 192.51 69.4218 198.03" stroke="#263238" stroke-width="0.90438" stroke-miterlimit="10" stroke-linecap="round" stroke-linejoin="round"/>
<path d="M72.2479 189.143C72.2479 189.143 70.2285 183.488 64.5742 182.142" stroke="#263238" stroke-width="0.90438" stroke-miterlimit="10" stroke-linecap="round" stroke-linejoin="round"/>
<path d="M43.5732 168.272C44.9195 167.599 46.1311 166.656 47.3427 165.579" stroke="#263238" stroke-width="0.90438" stroke-miterlimit="10" stroke-linecap="round" stroke-linejoin="round"/>
<path d="M23.3799 163.694C27.8225 168.407 34.6884 171.504 41.0157 169.484" stroke="#263238" stroke-width="0.90438" stroke-miterlimit="10" stroke-linecap="round" stroke-linejoin="round"/>
<path d="M190.718 297.267C190.718 297.267 193.275 277.474 194.756 271.01C201.622 241.926 225.989 174.332 221.951 154.404C217.912 133.937 193.275 115.894 153.561 113.874C116.674 111.989 86.3832 125.05 79.1134 140.265C72.2475 154.808 72.5168 254.718 74.2669 299.825C74.2669 299.825 150.195 299.825 175.505 299.825C183.448 299.96 190.718 297.267 190.718 297.267Z" fill="#053C5A"/>
<mask id="mask2_2416_3453" style="mask-type:luminance" maskUnits="userSpaceOnUse" x="73" y="113" width="150" height="187">
<path d="M190.718 297.267C190.718 297.267 193.275 277.474 194.756 271.01C201.622 241.926 225.989 174.332 221.951 154.404C217.912 133.937 193.275 115.894 153.561 113.874C116.674 111.989 86.3832 125.05 79.1134 140.265C72.2475 154.808 72.5168 254.718 74.2669 299.825C74.2669 299.825 150.195 299.825 175.505 299.825C183.448 299.96 190.718 297.267 190.718 297.267Z" fill="white"/>
</mask>
<g mask="url(#mask2_2416_3453)">
<path opacity="0.3" d="M182.776 176.891C163.659 203.013 142.927 242.196 142.927 242.196L86.1152 171.37C86.1152 171.37 99.1739 261.316 106.174 271.011C113.31 280.706 112.906 285.284 112.906 285.284C112.906 285.284 130.945 304.673 144.408 302.115C155.851 299.826 197.046 253.91 209.97 200.589L182.776 176.891Z" fill="black" fill-opacity="0.7"/>
</g>
<path d="M190.718 297.267C190.718 297.267 193.275 277.474 194.756 271.01C201.622 241.926 225.989 174.332 221.951 154.404C217.912 133.937 193.275 115.894 153.561 113.874C116.674 111.989 86.3832 125.05 79.1134 140.265C72.2475 154.808 72.5168 254.718 74.2669 299.825C74.2669 299.825 150.195 299.825 175.505 299.825C183.448 299.96 190.718 297.267 190.718 297.267Z" stroke="#263238" stroke-width="0.90438" stroke-miterlimit="10" stroke-linecap="round" stroke-linejoin="round"/>
<path d="M169.719 117.914C169.719 117.914 149.929 126.397 128.523 119.395C128.523 119.395 131.351 112.663 131.351 107.142C131.351 104.315 130.677 101.891 128.523 100.679C128.523 100.679 129.466 99.6019 131.081 97.9861C139.159 89.7724 163.795 66.478 171.873 80.3469C171.873 80.3469 163.391 81.1548 169.719 117.914Z" fill="white" stroke="#263238" stroke-width="0.90438" stroke-miterlimit="10" stroke-linecap="round" stroke-linejoin="round"/>
<path d="M147.234 92.3301C147.234 92.3301 144.003 104.314 131.214 107.142C131.214 104.314 130.541 101.89 128.387 100.678C128.387 100.678 129.329 99.6012 130.945 97.9854C138.887 94.8884 147.234 92.3301 147.234 92.3301Z" fill="#263238"/>
<path d="M177.39 60.8228C185.872 26.891 167.563 15.3112 155.985 10.8677C137.541 3.73129 114.117 11.8103 108.732 30.6612C103.212 49.5122 108.193 53.821 107.924 61.496C107.789 66.882 104.154 69.575 108.058 83.1747C110.616 92.0615 115.463 102.43 121.117 102.699C136.33 103.641 150.869 94.8892 150.061 90.8497" fill="white"/>
<path d="M177.39 60.8228C185.872 26.891 167.563 15.3112 155.985 10.8677C137.541 3.73129 114.117 11.8103 108.732 30.6612C103.212 49.5122 108.193 53.821 107.924 61.496C107.789 66.882 104.154 69.575 108.058 83.1747C110.616 92.0615 115.463 102.43 121.117 102.699C136.33 103.641 150.869 94.8892 150.061 90.8497" stroke="#263238" stroke-width="0.90438" stroke-miterlimit="10" stroke-linecap="round" stroke-linejoin="round"/>
<path d="M129.464 44.2608C129.464 44.2608 136.33 41.8371 139.965 49.3775" stroke="#263238" stroke-width="0.90438" stroke-miterlimit="10" stroke-linecap="round" stroke-linejoin="round"/>
<path d="M106.176 43.048C106.176 43.048 111.291 38.7392 116.407 44.7985" stroke="#263238" stroke-width="0.90438" stroke-miterlimit="10" stroke-linecap="round" stroke-linejoin="round"/>
<path d="M132.427 61.3604C133.393 61.3604 134.177 60.0944 134.177 58.5327C134.177 56.9711 133.393 55.7051 132.427 55.7051C131.46 55.7051 130.677 56.9711 130.677 58.5327C130.677 60.0944 131.46 61.3604 132.427 61.3604Z" fill="#263238"/>
<path d="M111.292 57.0518C111.292 58.6676 112.1 59.8794 113.042 59.8794C113.984 59.8794 114.792 58.6676 114.792 57.0518C114.792 55.436 113.984 54.2241 113.042 54.2241C111.965 54.0895 111.292 55.436 111.292 57.0518Z" fill="#263238"/>
<path d="M116.405 50.4551C116.405 50.4551 117.483 58.2648 116.944 59.8806C116.406 61.4964 111.155 66.2092 111.02 68.3636C110.886 70.518 115.463 72.6723 115.463 72.6723" fill="white"/>
<path d="M116.405 50.4551C116.405 50.4551 117.483 58.2648 116.944 59.8806C116.406 61.4964 111.155 66.2092 111.02 68.3636C110.886 70.518 115.463 72.6724 115.463 72.6724" stroke="#263238" stroke-width="0.90438" stroke-miterlimit="10" stroke-linecap="round" stroke-linejoin="round"/>
<path d="M112.906 77.1152C112.906 77.1152 123.542 79.8082 132.427 77.1152C132.427 77.1152 128.253 90.3109 119.907 88.9644C114.387 88.0218 115.868 79.4043 115.868 79.4043L112.906 77.1152Z" fill="#263238"/>
<path d="M142.254 25.1404C142.254 25.1404 137.812 22.1781 131.753 23.5246C125.695 25.0058 124.753 37.7975 124.753 37.7975C124.753 37.7975 121.522 34.9699 120.983 31.3343L119.099 36.855L113.983 32.0076L112.233 37.7975L110.213 33.6234L106.309 41.2984C106.309 41.2984 100.386 33.758 101.328 27.8334C103.751 11.8101 116.541 -1.25092 143.062 0.0955823C156.39 0.768831 161.371 9.92501 161.371 9.92501C161.371 9.92501 174.43 8.17457 180.218 14.9071C199.874 37.9322 187.623 62.977 168.91 86.81L162.448 64.1889L156.255 63.5156C156.255 63.5156 156.524 60.1494 156.255 56.5138C156.121 53.0129 153.967 47.7616 153.967 47.7616L151.678 48.8388L152.62 44.53L147.37 47.223C147.37 47.223 149.659 29.4492 147.37 26.3523C144.947 23.39 142.254 25.1404 142.254 25.1404Z" fill="#263238"/>
<path d="M158.409 66.7467C158.409 66.7467 164.602 55.1668 171.064 57.9945C177.526 60.8221 173.083 74.691 167.429 79.1345C161.775 83.7126 158.409 79.1345 158.409 79.1345" fill="white"/>
<path d="M158.409 66.7467C158.409 66.7467 164.602 55.1668 171.064 57.9945C177.526 60.8221 173.083 74.691 167.429 79.1345C161.775 83.7126 158.409 79.1345 158.409 79.1345" stroke="#263238" stroke-width="0.90438" stroke-miterlimit="10" stroke-linecap="round" stroke-linejoin="round"/>
<g opacity="0.2">
<path d="M147.775 20.427C147.775 20.427 145.486 13.9638 137.812 13.4252C130.273 12.8866 124.754 21.2349 124.619 26.8902" stroke="white" stroke-width="0.90438" stroke-miterlimit="10" stroke-linecap="round" stroke-linejoin="round"/>
<path d="M153.024 20.1577C153.024 20.1577 158.275 16.1182 161.237 20.1577C166.352 26.8902 162.179 43.1828 162.179 43.1828" stroke="white" stroke-width="0.90438" stroke-miterlimit="10" stroke-linecap="round" stroke-linejoin="round"/>
<path d="M160.023 15.4446C160.023 15.4446 165.408 12.0784 170.12 18.5416C174.832 25.0048 174.294 40.6241 174.294 40.6241" stroke="white" stroke-width="0.90438" stroke-miterlimit="10" stroke-linecap="round" stroke-linejoin="round"/>
<path d="M175.372 14.5039C175.372 14.5039 184.796 18.4087 185.334 37.3944" stroke="white" stroke-width="0.90438" stroke-miterlimit="10" stroke-linecap="round" stroke-linejoin="round"/>
<path d="M153.563 15.4459C153.563 15.4459 148.313 6.42439 132.696 9.52133C117.079 12.4836 114.656 28.5069 114.656 28.5069" stroke="white" stroke-width="0.90438" stroke-miterlimit="10" stroke-linecap="round" stroke-linejoin="round"/>
<path d="M157.467 12.7518C157.467 12.7518 151.139 3.99957 132.022 5.75002C112.906 7.50047 105.232 24.197 107.117 32.276" stroke="white" stroke-width="0.90438" stroke-miterlimit="10" stroke-linecap="round" stroke-linejoin="round"/>
</g>
<path d="M0.626953 124.781C0.626953 124.781 23.3786 107.277 33.3408 105.527C43.3031 103.776 77.3632 111.182 77.3632 111.182V151.577C77.3632 151.577 55.9578 153.866 46.3994 161.002C36.8411 168.004 3.85795 169.081 3.85795 169.081L0.626953 124.781Z" fill="#757575" stroke="#263238" stroke-width="0.90438" stroke-miterlimit="10" stroke-linecap="round" stroke-linejoin="round"/>
<path d="M22.0332 112.258C22.0332 112.258 22.5717 107.141 23.3795 104.314C24.1872 101.486 29.7068 101.755 30.9184 102.832C32.1301 103.775 33.3417 105.525 33.3417 105.525C33.3417 105.525 31.4569 106.064 30.9184 106.199C30.3799 106.333 29.8415 116.701 22.0332 112.258Z" fill="white" stroke="#263238" stroke-width="0.90438" stroke-miterlimit="10" stroke-linecap="round" stroke-linejoin="round"/>
<path d="M51.0456 50.4869L28.3486 116.293L60.9274 127.534L83.6244 61.7277L51.0456 50.4869Z" fill="#3CCDAA"/>
<mask id="mask3_2416_3453" style="mask-type:luminance" maskUnits="userSpaceOnUse" x="28" y="50" width="56" height="78">
<path d="M51.0456 50.485L28.3486 116.291L60.9274 127.532L83.6244 61.7258L51.0456 50.485Z" fill="white"/>
</mask>
<g mask="url(#mask3_2416_3453)">
<path opacity="0.5" d="M28.3604 116.298L60.9396 127.474L83.5566 61.7648L50.9774 50.5889L28.3604 116.298ZM80.191 63.3806L59.3241 124.108L31.8606 114.682L52.7275 53.9551L80.191 63.3806Z" fill="black" fill-opacity="0.7"/>
</g>
<mask id="mask4_2416_3453" style="mask-type:luminance" maskUnits="userSpaceOnUse" x="28" y="50" width="56" height="78">
<path d="M51.0456 50.485L28.3486 116.291L60.9274 127.532L83.6244 61.7258L51.0456 50.485Z" fill="white"/>
</mask>
<g mask="url(#mask4_2416_3453)">
<path opacity="0.5" d="M55.9593 59.0712L53.1322 67.1502C52.863 68.0928 51.786 68.4967 50.9782 68.2274C50.0359 67.9581 49.632 66.8809 49.9012 66.073L52.7284 57.994C52.9976 57.0515 54.0746 56.6476 54.8824 56.9169C55.8247 57.1862 56.2286 58.1287 55.9593 59.0712Z" fill="black" fill-opacity="0.7"/>
</g>
<mask id="mask5_2416_3453" style="mask-type:luminance" maskUnits="userSpaceOnUse" x="28" y="50" width="56" height="78">
<path d="M51.0456 50.485L28.3486 116.291L60.9274 127.532L83.6244 61.7258L51.0456 50.485Z" fill="white"/>
</mask>
<g mask="url(#mask5_2416_3453)">
<path opacity="0.5" d="M62.2855 111.989L59.4584 120.068C59.1891 121.011 58.1121 121.415 57.3044 121.145C56.362 120.876 55.9581 119.799 56.2274 118.991L59.0545 110.912C59.3238 109.969 60.4007 109.566 61.2085 109.835C62.0162 110.104 62.5548 111.047 62.2855 111.989Z" fill="black" fill-opacity="0.7"/>
</g>
<mask id="mask6_2416_3453" style="mask-type:luminance" maskUnits="userSpaceOnUse" x="28" y="50" width="56" height="78">
<path d="M51.0456 50.485L28.3486 116.291L60.9274 127.532L83.6244 61.7258L51.0456 50.485Z" fill="white"/>
</mask>
<g mask="url(#mask6_2416_3453)">
<path opacity="0.5" d="M45.8626 85.4631C43.9778 91.1183 46.9396 97.1776 52.5938 99.1973C58.2481 101.082 64.3062 98.1201 66.3256 92.4648C68.2103 86.8096 65.2486 80.7503 59.5943 78.7306C53.9401 76.7108 47.7473 79.8078 45.8626 85.4631Z" fill="black" fill-opacity="0.7"/>
<path fill-rule="evenodd" clip-rule="evenodd" d="M52.5481 92.9936C51.5449 92.236 50.7905 91.1962 50.3816 90.0074C49.9727 88.8186 49.9278 87.5348 50.2527 86.3203C50.5998 85.0249 51.3262 83.9324 52.2804 83.1297C52.441 82.9999 52.6461 82.9383 52.8516 82.9581C53.057 82.9778 53.2466 83.0773 53.3796 83.2352C53.5126 83.3931 53.5783 83.5968 53.5628 83.8027C53.5473 84.0085 53.4517 84.2001 53.2965 84.3362C52.7957 84.7588 52.3881 85.2807 52.0995 85.869C51.8109 86.4572 51.6476 87.099 51.6199 87.7536C51.5922 88.4083 51.7007 89.0615 51.9386 89.6721C52.1765 90.2826 52.5385 90.8371 53.0018 91.3004L54.0627 87.3412C54.1168 87.1391 54.2491 86.9668 54.4302 86.8622C54.6114 86.7575 54.8268 86.7292 55.0288 86.7833C55.2309 86.8375 55.4032 86.9697 55.5079 87.1509C55.6125 87.3321 55.6408 87.5474 55.5867 87.7495L54.3786 92.2582C54.8601 92.4787 55.3753 92.6168 55.9025 92.6665L57.1106 88.1579C57.1648 87.9558 57.297 87.7835 57.4782 87.6788C57.6594 87.5742 57.8747 87.5459 58.0768 87.6C58.2789 87.6542 58.4512 87.7864 58.5558 87.9676C58.6604 88.1488 58.6888 88.3641 58.6346 88.5662L57.5737 92.5255C58.2066 92.3559 58.7974 92.0567 59.3087 91.6469C59.82 91.2371 60.2406 90.7256 60.5439 90.1448C60.8472 89.564 61.0267 88.9266 61.0709 88.2728C61.115 87.6191 61.023 86.9633 60.8006 86.3469C60.7343 86.1514 60.7473 85.9377 60.8368 85.7517C60.9262 85.5657 61.0851 85.4221 61.2792 85.3519C61.4733 85.2816 61.6872 85.2902 61.875 85.3759C62.0629 85.4616 62.2096 85.6174 62.2838 85.8101C62.7242 87.0226 62.7803 88.3415 62.4446 89.5871C62.1187 90.8013 61.438 91.8907 60.4894 92.7158C59.5409 93.5409 58.3677 94.0641 57.1201 94.2186L56.5929 96.1861C56.5387 96.3882 56.4065 96.5605 56.2253 96.6651C56.0441 96.7697 55.8288 96.798 55.6267 96.7439C55.4246 96.6897 55.2523 96.5575 55.1477 96.3763C55.0431 96.1951 55.0147 95.9798 55.0689 95.7777L55.4899 94.2065C54.9669 94.1343 54.455 93.9971 53.9659 93.7982L53.5449 95.3694C53.4908 95.5715 53.3586 95.7438 53.1774 95.8484C52.9962 95.953 52.7809 95.9813 52.5788 95.9272C52.3767 95.873 52.2044 95.7408 52.0998 95.5596C51.9951 95.3784 51.9668 95.1631 52.0209 94.961L52.5481 92.9936Z" fill="#3CCDAA"/>
</g>
<path d="M51.0456 50.4869L28.3486 116.293L60.9274 127.534L83.6244 61.7277L51.0456 50.4869Z" stroke="#263238" stroke-width="0.90435" stroke-miterlimit="10" stroke-linecap="round" stroke-linejoin="round"/>
<path d="M0.626953 124.782C0.626953 124.782 33.6101 113.606 42.4953 111.99C51.3806 110.374 77.3632 111.047 77.3632 111.047V151.442C77.3632 151.442 50.3036 159.656 45.9956 163.022C41.6876 166.388 3.72333 168.947 3.72333 168.947L0.626953 124.782Z" fill="#999999" stroke="#263238" stroke-width="0.90438" stroke-miterlimit="10" stroke-linecap="round" stroke-linejoin="round"/>
<path d="M45.7273 129.627C43.9772 139.052 45.1888 151.575 38.9961 159.115" stroke="#263238" stroke-width="0.90438" stroke-miterlimit="10" stroke-linecap="round" stroke-linejoin="round"/>
<path d="M48.5547 115.355C47.8815 118.452 47.2084 121.415 46.6699 124.512" stroke="#263238" stroke-width="0.90438" stroke-miterlimit="10" stroke-linecap="round" stroke-linejoin="round"/>
<path d="M100.789 131.513C98.9043 128.147 93.5193 129.763 87.1919 139.592C80.8645 149.422 78.3067 161.001 79.9222 165.176C81.5377 169.35 101.731 174.466 101.731 174.466L105.905 163.829L100.789 131.513Z" fill="#053C5A"/>
<mask id="mask7_2416_3453" style="mask-type:luminance" maskUnits="userSpaceOnUse" x="79" y="129" width="27" height="46">
<path d="M100.789 131.513C98.9043 128.147 93.5193 129.763 87.1919 139.592C80.8645 149.422 78.3067 161.001 79.9222 165.176C81.5377 169.35 101.731 174.466 101.731 174.466L105.905 163.829L100.789 131.513Z" fill="white"/>
</mask>
<g mask="url(#mask7_2416_3453)">
<path opacity="0.5" d="M100.789 131.513C98.9043 128.147 93.5193 129.763 87.1919 139.592C80.8645 149.422 78.3067 161.001 79.9222 165.176C81.5377 169.35 101.731 174.466 101.731 174.466L105.905 163.829L100.789 131.513Z" fill="black" fill-opacity="0.7"/>
</g>
<path d="M100.789 131.513C98.9043 128.147 93.5193 129.763 87.1919 139.592C80.8645 149.422 78.3067 161.001 79.9222 165.176C81.5377 169.35 101.731 174.466 101.731 174.466L105.905 163.829L100.789 131.513Z" stroke="#263238" stroke-width="0.90438" stroke-miterlimit="10" stroke-linecap="round" stroke-linejoin="round"/>
<path d="M109.404 152.116L97.6912 126.667C97.6912 126.667 90.1522 115.761 88.5367 111.586C87.0559 107.412 70.3623 104.181 66.5928 104.181C62.8233 104.181 58.7846 110.913 58.7846 110.913H66.5928C66.5928 110.913 69.5546 114.01 69.8239 115.895C70.2277 117.78 59.4577 126.936 57.9768 127.744C56.496 128.552 52.4572 129.899 48.1492 133.13C43.8412 136.227 34.2828 138.786 32.5327 141.613C30.7826 144.441 31.9942 144.98 33.3405 145.653C34.6867 146.326 36.8407 146.461 36.8407 146.461C36.8407 146.461 36.033 149.692 36.8407 151.308C37.6485 153.059 42.0911 152.789 42.0911 152.789C42.0911 152.789 42.3603 155.078 44.5143 155.482C46.6683 155.886 48.4185 156.559 48.4185 156.559C48.4185 156.559 57.7076 158.175 61.7464 157.233C65.9197 156.29 78.4398 149.692 81.5362 149.962C84.6326 150.231 93.114 170.024 93.114 170.024C93.114 170.024 107.519 167.601 109.404 152.116Z" fill="white" stroke="#263238" stroke-width="0.90438" stroke-miterlimit="10" stroke-linecap="round" stroke-linejoin="round"/>
<path d="M36.8408 146.461C36.8408 146.461 48.957 143.902 49.7648 142.96C50.5725 142.017 59.054 139.459 59.054 139.459" stroke="#263238" stroke-width="0.90438" stroke-miterlimit="10" stroke-linecap="round" stroke-linejoin="round"/>
<path d="M41.958 152.923C41.958 152.923 48.6892 151.577 51.1125 151.173C53.5357 150.903 63.0942 146.46 63.0942 146.46" stroke="#263238" stroke-width="0.90438" stroke-miterlimit="10" stroke-linecap="round" stroke-linejoin="round"/>
<path d="M48.2842 156.693C48.2842 156.693 57.8425 155.885 59.8619 154.943C61.8813 154 67.6702 152.115 67.6702 152.115" stroke="#263238" stroke-width="0.90438" stroke-miterlimit="10" stroke-linecap="round" stroke-linejoin="round"/>
<path d="M189.237 140.939C175.102 150.23 166.486 172.851 166.486 172.851L144.407 213.919C144.407 213.919 125.829 168.138 120.579 167.6L100.789 131.514C100.789 131.514 103.077 152.654 94.8652 161.675C86.6531 170.697 79.9219 165.176 79.9219 165.176L86.1146 182.277L87.5955 190.356C87.5955 190.356 113.713 268.587 122.194 273.435C130.676 278.282 150.062 280.436 166.62 268.452C183.045 256.469 211.181 210.822 213.874 196.011" fill="#053C5A"/>
<path d="M189.237 140.939C175.102 150.23 166.486 172.851 166.486 172.851L144.407 213.919C144.407 213.919 125.829 168.138 120.579 167.6L100.789 131.514C100.789 131.514 103.077 152.654 94.8652 161.675C86.6531 170.697 79.9219 165.176 79.9219 165.176L86.1146 182.277L87.5955 190.356C87.5955 190.356 113.713 268.587 122.194 273.435C130.676 278.282 150.062 280.436 166.62 268.452C183.045 256.469 211.181 210.822 213.874 196.011" stroke="#263238" stroke-width="0.90438" stroke-miterlimit="10" stroke-linecap="round" stroke-linejoin="round"/>
<path d="M112.636 172.985C113.309 171.908 113.982 170.831 114.655 169.619" stroke="#263238" stroke-width="0.90438" stroke-miterlimit="10" stroke-linecap="round" stroke-linejoin="round"/>
<path d="M95.9443 183.622C101.599 183.083 106.849 179.987 110.618 175.678" stroke="#263238" stroke-width="0.90438" stroke-miterlimit="10" stroke-linecap="round" stroke-linejoin="round"/>
<path d="M86.1162 182.275C88.2702 183.218 90.6935 183.757 93.1167 183.757" stroke="#263238" stroke-width="0.90438" stroke-miterlimit="10" stroke-linecap="round" stroke-linejoin="round"/>
<path d="M150.33 232.098C150.464 233.983 150.33 235.868 149.926 237.753" stroke="#263238" stroke-width="0.90438" stroke-miterlimit="10" stroke-linecap="round" stroke-linejoin="round"/>
<path d="M144.408 213.92C146.966 218.498 148.985 223.48 149.793 228.731" stroke="#263238" stroke-width="0.90438" stroke-miterlimit="10" stroke-linecap="round" stroke-linejoin="round"/>
<path d="M156.658 221.326C156.658 221.326 152.619 216.344 148.042 213.92" stroke="#263238" stroke-width="0.90438" stroke-miterlimit="10" stroke-linecap="round" stroke-linejoin="round"/>
<path d="M191.661 161.54C191.661 161.54 179.276 159.924 169.313 171.235" stroke="#263238" stroke-width="0.90438" stroke-miterlimit="10" stroke-linecap="round" stroke-linejoin="round"/>
<path d="M204.855 196.415C202.432 196.819 200.008 196.415 197.854 195.338" stroke="#263238" stroke-width="0.90438" stroke-miterlimit="10" stroke-linecap="round" stroke-linejoin="round"/>
<path d="M219.796 179.718C217.777 189.143 212.526 193.991 207.949 195.606" stroke="#263238" stroke-width="0.90438" stroke-miterlimit="10" stroke-linecap="round" stroke-linejoin="round"/>
<path d="M161.1 125.994C161.1 125.994 140.503 130.841 128.925 123.166" stroke="#263238" stroke-width="0.90438" stroke-miterlimit="10" stroke-linecap="round" stroke-linejoin="round"/>
<path d="M87.0566 252.429C87.0566 252.429 98.3652 284.206 124.348 289.592" stroke="#263238" stroke-width="0.90438" stroke-miterlimit="10" stroke-linecap="round" stroke-linejoin="round"/>
<path d="M162.314 296.46C160.968 297.537 159.622 298.345 158.141 299.288" stroke="#263238" stroke-width="0.90438" stroke-miterlimit="10" stroke-linecap="round" stroke-linejoin="round"/>
</svg>
