<svg width="24" height="24" viewBox="0 0 24 24" fill="none" xmlns="http://www.w3.org/2000/svg">
<g clip-path="url(#clip0_2254_8791)">
<path d="M0 0H24V24H0V0Z" fill="white" fill-opacity="0.01"/>
<path d="M4 6V12H20" stroke="#053C5A" stroke-width="1.5" stroke-linecap="round" stroke-linejoin="round"/>
<path d="M12 6V12V18" stroke="#053C5A" stroke-width="1.5" stroke-linecap="round" stroke-linejoin="round"/>
<path d="M20 6V12V18" stroke="#053C5A" stroke-width="1.5" stroke-linecap="round" stroke-linejoin="round"/>
<path d="M2 4C2 5.10455 2.89545 6 4 6C5.10455 6 6 5.10455 6 4C6 2.89543 5.10455 2 4 2C2.89545 2 2 2.89543 2 4Z" stroke="#053C5A" stroke-width="1.5" stroke-linecap="round" stroke-linejoin="round"/>
<path d="M10 4C10 5.10455 10.8954 6 12 6C13.1046 6 14 5.10455 14 4C14 2.89543 13.1046 2 12 2C10.8954 2 10 2.89543 10 4Z" stroke="#053C5A" stroke-width="1.5" stroke-linecap="round" stroke-linejoin="round"/>
<path d="M18 4C18 5.10455 18.8954 6 20 6C21.1046 6 22 5.10455 22 4C22 2.89543 21.1046 2 20 2C18.8954 2 18 2.89543 18 4Z" stroke="#053C5A" stroke-width="1.5" stroke-linecap="round" stroke-linejoin="round"/>
<path d="M10 20C10 21.1046 10.8954 22 12 22C13.1046 22 14 21.1046 14 20C14 18.8954 13.1046 18 12 18C10.8954 18 10 18.8954 10 20Z" stroke="#053C5A" stroke-width="1.5" stroke-linecap="round" stroke-linejoin="round"/>
<path d="M18 20C18 21.1046 18.8954 22 20 22C21.1046 22 22 21.1046 22 20C22 18.8954 21.1046 18 20 18C18.8954 18 18 18.8954 18 20Z" stroke="#053C5A" stroke-width="1.5" stroke-linecap="round" stroke-linejoin="round"/>
<path d="M4 22C2.89543 22 2 21.1046 2 20C2 18.8954 2.89543 18 4 18C5.10457 18 6 18.8954 6 20C6 21.1046 5.10457 22 4 22Z" stroke="#053C5A" stroke-width="1.5" stroke-linecap="round" stroke-linejoin="round"/>
</g>
<defs>
<clipPath id="clip0_2254_8791">
<rect width="24" height="24" fill="white" transform="matrix(-1 0 0 1 24 0)"/>
</clipPath>
</defs>
</svg>
