<svg width="22" height="22" viewBox="0 0 22 22" fill="none" xmlns="http://www.w3.org/2000/svg">
<path d="M12.3282 12.7064C12.4066 12.9987 12.3863 13.3088 12.2705 13.5885C12.1547 13.8681 11.9498 14.1018 11.6877 14.2531C11.4255 14.4045 11.1208 14.4651 10.8207 14.4256C10.5206 14.3861 10.2419 14.2487 10.0279 14.0346C9.81382 13.8206 9.6764 13.5419 9.63689 13.2418C9.59739 12.9417 9.65802 12.6369 9.80938 12.3748C9.96074 12.1127 10.1944 11.9078 10.474 11.792C10.7537 11.6762 11.0638 11.6559 11.3561 11.7343L12.5764 10.5139C12.7061 10.3887 12.8798 10.3194 13.06 10.321C13.2403 10.3225 13.4127 10.3948 13.5402 10.5223C13.6677 10.6498 13.74 10.8222 13.7415 11.0025C13.7431 11.1827 13.6738 11.3564 13.5486 11.4861L12.3282 12.7064ZM11 6.1875C11.1823 6.1875 11.3572 6.25993 11.4861 6.38886C11.6151 6.5178 11.6875 6.69266 11.6875 6.875V7.5625C11.6875 7.74484 11.6151 7.9197 11.4861 8.04864C11.3572 8.17757 11.1823 8.25 11 8.25C10.8177 8.25 10.6428 8.17757 10.5139 8.04864C10.3849 7.9197 10.3125 7.74484 10.3125 7.5625V6.875C10.3125 6.69266 10.3849 6.5178 10.5139 6.38886C10.6428 6.25993 10.8177 6.1875 11 6.1875ZM17.1875 13.75C17.3698 13.75 17.5447 13.6776 17.6736 13.5486C17.8026 13.4197 17.875 13.2448 17.875 13.0625C17.875 12.8802 17.8026 12.7053 17.6736 12.5764C17.5447 12.4474 17.3698 12.375 17.1875 12.375H16.5C16.3177 12.375 16.1428 12.4474 16.0139 12.5764C15.8849 12.7053 15.8125 12.8802 15.8125 13.0625C15.8125 13.2448 15.8849 13.4197 16.0139 13.5486C16.1428 13.6776 16.3177 13.75 16.5 13.75H17.1875ZM4.125 13.0625C4.125 12.8802 4.19743 12.7053 4.32636 12.5764C4.4553 12.4474 4.63016 12.375 4.8125 12.375H5.5C5.68234 12.375 5.8572 12.4474 5.98614 12.5764C6.11507 12.7053 6.1875 12.8802 6.1875 13.0625C6.1875 13.2448 6.11507 13.4197 5.98614 13.5486C5.8572 13.6776 5.68234 13.75 5.5 13.75H4.8125C4.63016 13.75 4.4553 13.6776 4.32636 13.5486C4.19743 13.4197 4.125 13.2448 4.125 13.0625ZM15.2673 9.76731L15.7534 9.28125C15.8786 9.15159 15.9479 8.97792 15.9463 8.79766C15.9448 8.6174 15.8725 8.44497 15.745 8.3175C15.6175 8.19003 15.4451 8.11773 15.2648 8.11616C15.0846 8.11459 14.9109 8.18389 14.7812 8.30913L14.2952 8.79519C14.17 8.92485 14.1007 9.09852 14.1022 9.27878C14.1038 9.45904 14.1761 9.63147 14.3036 9.75894C14.431 9.88641 14.6035 9.95871 14.7837 9.96028C14.964 9.96184 15.1376 9.89255 15.2673 9.76731ZM7.50337 9.76731C7.63226 9.63839 7.70467 9.46355 7.70467 9.28125C7.70467 9.09895 7.63226 8.92411 7.50337 8.79519L7.01731 8.30913C6.88765 8.18389 6.71398 8.11459 6.53372 8.11616C6.35346 8.11773 6.18103 8.19003 6.05356 8.3175C5.92609 8.44497 5.85379 8.6174 5.85222 8.79766C5.85066 8.97792 5.91995 9.15159 6.04519 9.28125L6.53125 9.76731C6.66018 9.8962 6.83501 9.9686 7.01731 9.9686C7.19961 9.9686 7.37445 9.8962 7.50337 9.76731Z" fill="#053C5A"/>
<path fill-rule="evenodd" clip-rule="evenodd" d="M11 4.125C6.06375 4.125 2.0625 8.12625 2.0625 13.0625C2.0625 14.2209 2.28319 15.3299 2.68537 16.3474C2.78595 16.5971 2.95934 16.8107 3.18299 16.9606C3.40663 17.1104 3.67019 17.1895 3.93938 17.1875H18.062C18.5914 17.1875 19.1049 16.8788 19.3153 16.3474C19.7175 15.3299 19.9382 14.2209 19.9382 13.0625C19.9382 8.12625 15.9363 4.125 11 4.125ZM3.4375 13.0625C3.4375 8.88594 6.82344 5.5 11 5.5C15.1766 5.5 18.5625 8.88594 18.5625 13.0625C18.5625 14.0339 18.3796 14.9614 18.0469 15.8125H3.95313C3.61123 14.936 3.43635 14.0033 3.4375 13.0625Z" fill="#053C5A"/>
</svg>
