<svg width="30" height="30" viewBox="0 0 30 30" fill="none" xmlns="http://www.w3.org/2000/svg">
<g clip-path="url(#clip0_2339_2330)">
<path d="M21.8686 16.9922V7.44785C21.8686 6.34328 20.9731 5.44785 19.8686 5.44785H14.0625" stroke="#212529" stroke-width="1.5" stroke-miterlimit="22.926" stroke-linecap="round" stroke-linejoin="round"/>
<mask id="mask0_2339_2330" style="mask-type:luminance" maskUnits="userSpaceOnUse" x="0" y="0" width="30" height="30">
<path d="M29.5 29.5V0.5H0.5V29.5H29.5Z" fill="white" stroke="white"/>
</mask>
<g mask="url(#mask0_2339_2330)">
<path d="M10.4294 5.44792H4.47168C3.36711 5.44792 2.47168 6.34335 2.47168 7.44792V18.983" stroke="#212529" stroke-width="1.5" stroke-miterlimit="22.926" stroke-linecap="round" stroke-linejoin="round"/>
<path d="M18.5156 22.4995H4.14497C2.34609 22.4995 0.878906 20.9202 0.878906 18.9839H18.5156" stroke="#212529" stroke-width="1.5" stroke-miterlimit="22.926" stroke-linecap="round" stroke-linejoin="round"/>
<path d="M18.5742 17.2252H25.6054V24.5523C25.6054 25.5204 24.8158 26.3101 23.8476 26.3101H20.332C19.3639 26.3101 18.5742 25.5204 18.5742 24.5523V17.2252Z" stroke="#3CCDAA" stroke-width="1.5" stroke-miterlimit="22.926" stroke-linecap="round" stroke-linejoin="round"/>
<path d="M25.6055 19.1003H28.2422C28.7263 19.1003 29.1211 19.4951 29.1211 19.9792V20.8021C29.1211 22.4804 27.7523 23.8491 26.074 23.8491H25.6055V19.1003Z" stroke="#3CCDAA" stroke-width="1.5" stroke-miterlimit="22.926" stroke-linecap="round" stroke-linejoin="round"/>
<path d="M12.1699 7.20569C13.1381 7.20569 13.9277 6.41602 13.9277 5.44788C13.9277 4.47974 13.1381 3.69007 12.1699 3.69007C11.2018 3.69007 10.4121 4.47974 10.4121 5.44788C10.4121 6.41602 11.2018 7.20569 12.1699 7.20569Z" stroke="#212529" stroke-width="1.5" stroke-miterlimit="22.926" stroke-linecap="round" stroke-linejoin="round"/>
</g>
</g>
<defs>
<clipPath id="clip0_2339_2330">
<rect width="30" height="30" fill="white"/>
</clipPath>
</defs>
</svg>
