<svg width="24" height="24" viewBox="0 0 24 24" fill="none" xmlns="http://www.w3.org/2000/svg">
<path d="M9.5 13.3333H12.5C13.2956 13.3333 14.0587 13.0524 14.6213 12.5523C15.1839 12.0522 15.5 11.3739 15.5 10.6666C15.5 9.95939 15.1839 9.28112 14.6213 8.78102C14.0587 8.28092 13.2956 7.99997 12.5 7.99997H9.5V13.3333ZM9.5 13.3333V16M5.56642 20.6962C10.3059 21.1003 13.6523 21.1012 18.453 20.6942C19.6454 20.5931 20.5904 19.6431 20.6891 18.4502C21.0864 13.6487 21.1253 10.2867 20.704 5.52515C20.5996 4.34542 19.661 3.41158 18.4814 3.30944C13.6947 2.89501 10.3443 2.89622 5.51901 3.31201C4.34515 3.41315 3.40777 4.3377 3.29918 5.51122C2.8542 10.3199 2.94055 13.6903 3.32857 18.4432C3.42621 19.6391 4.37117 20.5943 5.56642 20.6962Z" stroke="#053C5A" stroke-width="1.5" stroke-linecap="round" stroke-linejoin="round"/>
</svg>
