<svg width="24" height="24" viewBox="0 0 24 24" fill="none" xmlns="http://www.w3.org/2000/svg">
<path d="M12.1596 10.8696C12.0596 10.8596 11.9396 10.8596 11.8296 10.8696C9.44957 10.7896 7.55957 8.83963 7.55957 6.43963C7.55957 3.98963 9.53957 1.99963 11.9996 1.99963C14.4496 1.99963 16.4396 3.98963 16.4396 6.43963C16.4296 8.83963 14.5396 10.7896 12.1596 10.8696Z" stroke="#053C5A" stroke-width="1.5" stroke-linecap="round" stroke-linejoin="round"/>
<path d="M7.1607 14.5604C4.7407 16.1804 4.7407 18.8204 7.1607 20.4304C9.9107 22.2704 14.4207 22.2704 17.1707 20.4304C19.5907 18.8104 19.5907 16.1704 17.1707 14.5604C14.4307 12.7304 9.9207 12.7304 7.1607 14.5604Z" stroke="#053C5A" stroke-width="1.5" stroke-linecap="round" stroke-linejoin="round"/>
</svg>
