<svg width="34" height="34" viewBox="0 0 34 34" fill="none" xmlns="http://www.w3.org/2000/svg">
<g clip-path="url(#clip0_2339_3011)">
<path fill-rule="evenodd" clip-rule="evenodd" d="M32.0742 34H1.66016C1.39453 34 1.19531 33.8008 1.19531 33.5352V16.2031C1.19531 15.9375 1.39453 15.7383 1.66016 15.7383H32.0742C32.3398 15.7383 32.5391 15.9375 32.5391 16.2031V33.5352C32.5391 33.8008 32.3398 34 32.0742 34ZM8.36719 20.918H25.3008V19.9883H8.36719V20.918ZM9.09766 30.6133C8.83203 30.6133 8.63281 30.4141 8.63281 30.1484V21.8477H7.90234C7.63672 21.8477 7.4375 21.6484 7.4375 21.3828V19.5234C7.4375 19.2578 7.63672 19.0586 7.90234 19.0586H25.7656C26.0312 19.0586 26.2305 19.2578 26.2305 19.5234V21.3828C26.2305 21.6484 25.9648 21.8477 25.7656 21.8477H25.0352V30.1484C25.0352 30.4141 24.8359 30.6133 24.5703 30.6133H9.09766ZM16.4023 29.6836V21.8477H9.5625V29.6836H16.4023ZM17.332 21.8477V29.6836H24.1055V21.8477H17.332Z" fill="#6A6D6F"/>
<path fill-rule="evenodd" clip-rule="evenodd" d="M32.0742 16.668H1.66016C1.39453 16.668 1.19531 16.4688 1.19531 16.2031V10.0938C1.19531 9.82812 1.39453 9.62891 1.66016 9.62891H32.0742C32.3398 9.62891 32.5391 9.82812 32.5391 10.0938V16.2031C32.5391 16.4688 32.3398 16.668 32.0742 16.668ZM2.125 15.7383H31.6094V10.5586H2.125V15.7383Z" fill="#6A6D6F"/>
<path fill-rule="evenodd" clip-rule="evenodd" d="M4.98047 16.668C4.71484 16.668 4.51562 16.4688 4.51562 16.2031V10.0938C4.51562 9.82812 4.71484 9.62891 4.98047 9.62891C5.24609 9.62891 5.44531 9.82812 5.44531 10.0938V16.2031C5.44531 16.4688 5.24609 16.668 4.98047 16.668ZM9.76172 16.668C9.49609 16.668 9.29688 16.4688 9.29688 16.2031V10.0938C9.29688 9.82812 9.49609 9.62891 9.76172 9.62891C10.0273 9.62891 10.2266 9.82812 10.2266 10.0938V16.2031C10.2266 16.4688 10.0273 16.668 9.76172 16.668ZM14.4766 16.668C14.2109 16.668 14.0117 16.4688 14.0117 16.2031V10.0938C14.0117 9.82812 14.2109 9.62891 14.4766 9.62891C14.7422 9.62891 14.9414 9.82812 14.9414 10.0938V16.2031C14.9414 16.4688 14.7422 16.668 14.4766 16.668ZM19.1914 16.668C18.9258 16.668 18.7266 16.4688 18.7266 16.2031V10.0938C18.7266 9.82812 18.9258 9.62891 19.1914 9.62891C19.457 9.62891 19.6562 9.82812 19.6562 10.0938V16.2031C19.6562 16.4688 19.457 16.668 19.1914 16.668ZM23.9727 16.668C23.707 16.668 23.5078 16.4688 23.5078 16.2031V10.0938C23.5078 9.82812 23.707 9.62891 23.9727 9.62891C24.2383 9.62891 24.4375 9.82812 24.4375 10.0938V16.2031C24.4375 16.4688 24.2383 16.668 23.9727 16.668ZM28.6875 16.668C28.4219 16.668 28.2227 16.4688 28.2227 16.2031V10.0938C28.2227 9.82812 28.4219 9.62891 28.6875 9.62891C28.9531 9.62891 29.1523 9.82812 29.1523 10.0938V16.2031C29.1523 16.4688 28.9531 16.668 28.6875 16.668ZM6.24219 14.8086V11.4883H8.36719V14.8086H6.24219ZM11.1562 11.4883H13.082V14.8086H11.1562V11.4883ZM15.8711 11.4883H17.332V14.8086H15.8711V11.4883ZM6.24219 8.69922V3.1875C6.24219 2.92188 6.44141 2.72266 6.70703 2.72266H16.8672C17.1328 2.72266 17.332 2.92188 17.332 3.1875V8.69922H9.76172H6.24219ZM20.5859 11.4883H21.3164L21.8477 14.8086H20.5859V11.4883ZM18.2617 8.69922V7.10547L20.2539 7.17188C20.5195 7.17188 20.6523 7.37109 20.7188 7.57031L20.918 8.69922H19.1914H18.2617ZM32.3398 6.24219H19.5234C19.3242 6.24219 19.125 6.10938 19.0586 5.91016C18.9922 5.77734 19.0586 5.57812 19.2578 5.44531L25.6328 0.132812C25.7656 -0.0664062 26.0312 -0.0664062 26.1641 0.132812L32.6055 5.44531C32.8047 5.57812 32.8711 5.77734 32.8047 5.91016C32.7383 6.10938 32.5391 6.24219 32.3398 6.24219Z" fill="#6A6D6F"/>
<path fill-rule="evenodd" clip-rule="evenodd" d="M25.4336 14.8086V11.4883H26.3633V14.8086H25.4336ZM25.4336 8.69922V5.77734C25.4336 5.51172 25.6328 5.3125 25.8984 5.3125C26.1641 5.3125 26.3633 5.51172 26.3633 5.77734V8.69922H25.4336Z" fill="#6A6D6F"/>
</g>
<defs>
<clipPath id="clip0_2339_3011">
<rect width="34" height="34" fill="white"/>
</clipPath>
</defs>
</svg>
