<svg width="28" height="28" viewBox="0 0 28 28" fill="none" xmlns="http://www.w3.org/2000/svg">
<path d="M27.1259 26.2497H26.0497V11.3749H1.95241V26.2497H0.876166C0.39492 26.2497 0.00117415 26.6435 0.00117415 27.1247C0.00117415 27.606 0.39492 27.9997 0.876166 27.9997H27.1259C27.6072 27.9997 28.0009 27.606 28.0009 27.1247C28.0009 26.6435 27.6072 26.2497 27.1259 26.2497ZM16.8273 14.8749C16.8273 14.3936 17.221 13.9999 17.7023 13.9999H20.7997C21.281 13.9999 21.6747 14.3936 21.6747 14.8749V18.8998C21.6747 19.3811 21.281 19.7748 20.7997 19.7748H17.7023C17.221 19.7748 16.8273 19.3811 16.8273 18.8998V14.8749ZM13.3273 26.2497H6.32736V20.5623C6.32736 18.6286 7.8936 17.0623 9.82733 17.0623C11.7611 17.0623 13.3273 18.6286 13.3273 20.5623V26.2497ZM21.6747 24.1498H16.8273C16.346 24.1498 15.9523 23.756 15.9523 23.2748C15.9523 22.7935 16.346 22.3998 16.8273 22.3998H21.6747C22.1647 22.3998 22.5497 22.7935 22.5497 23.2748C22.5497 23.756 22.1647 24.1498 21.6747 24.1498ZM0.876166 9.62491H27.1259C27.4322 9.62491 27.7209 9.46741 27.8784 9.20491C27.9563 9.07446 27.9988 8.92599 28.0019 8.77411C28.005 8.62222 27.9684 8.47215 27.8959 8.33867L23.5122 0.927491C23.3617 0.647613 23.1382 0.41365 22.8656 0.250374C22.593 0.0870986 22.2813 0.000587158 21.9635 0H6.03861C5.39112 0 4.79613 0.358746 4.48988 0.927491L0.106173 8.33867C0.0336398 8.47215 -0.00288988 8.62222 0.000178536 8.77411C0.00324695 8.92599 0.0458079 9.07446 0.123673 9.20491C0.281172 9.46741 0.569919 9.62491 0.876166 9.62491Z" fill="#6A6D6F"/>
</svg>
