<svg width="36" height="36" viewBox="0 0 36 36" fill="none" xmlns="http://www.w3.org/2000/svg">
<path fill-rule="evenodd" clip-rule="evenodd" d="M23.6888 6.21279L33.6338 13.9415V12.1345L23.43 4.21521L13.2256 12.1345V13.9415L23.1706 6.21279C23.2446 6.15495 23.3358 6.12353 23.4297 6.12353C23.5236 6.12353 23.6148 6.15495 23.6888 6.21279ZM10.7787 29.3133H5.0609V30.8939H10.7787V29.3133ZM10.7787 26.8889H5.0609V28.4695H10.7787V26.8889ZM10.7787 24.4652H5.0609V26.0451H10.7787V24.4652ZM14.4089 21.8854V30.8939H11.6225V24.0433C11.6225 23.8099 11.434 23.6215 11.2006 23.6215H4.63902C4.40629 23.6215 4.21715 23.8099 4.21715 24.0433V30.8939H1.43066V21.8854H14.4089ZM1.78012 21.0417H14.4089V17.8158H9.38934V16.477H10.5945C10.8272 16.477 11.0164 16.2879 11.0164 16.0551C11.0164 15.8217 10.8272 15.6333 10.5945 15.6333H5.94332C5.70988 15.6333 5.52145 15.8217 5.52145 16.0551C5.52145 16.2879 5.70988 16.477 5.94332 16.477H7.2216V17.8158H3.84871L1.78012 21.0417ZM21.5295 30.8939V23.4464H18.8998V30.8939H21.5295ZM27.9603 25.4236H25.3299V27.4528H27.9603V25.4236ZM27.9603 23.4464H25.3299V24.5798H27.9603V23.4464ZM27.9603 17.1429H25.3299V19.1728H27.9603V17.1429ZM25.3299 15.1664V16.2991H27.9603V15.1664H25.3299ZM21.5295 17.1429H18.8998V19.1728H21.5295V17.1429ZM21.5295 15.1664H18.8998V16.2991H21.5295V15.1664ZM31.6067 13.4346V30.8939H22.3732V23.0245C22.3732 22.7918 22.1848 22.6026 21.9514 22.6026H18.4779C18.2445 22.6026 18.0561 22.7918 18.0561 23.0245V30.8939H15.2527V13.4346L23.43 7.07974L31.6067 13.4346ZM22.3732 14.7445V19.5947C22.3732 19.8274 22.1848 20.0165 21.9514 20.0165H18.4779C18.2445 20.0165 18.0561 19.8274 18.0561 19.5947V14.7445C18.0561 14.5111 18.2445 14.3226 18.4779 14.3226H21.9514C22.1848 14.3226 22.3732 14.5111 22.3732 14.7445ZM24.908 14.3226H28.3821C28.6149 14.3226 28.804 14.5111 28.804 14.7445V19.5947C28.804 19.8274 28.6149 20.0165 28.3821 20.0165H24.908C24.6753 20.0165 24.4861 19.8274 24.4861 19.5947V14.7445C24.4861 14.5111 24.6753 14.3226 24.908 14.3226ZM24.908 22.6026H28.3821C28.6149 22.6026 28.804 22.7918 28.804 23.0245V27.8747C28.804 28.1081 28.6149 28.2965 28.3821 28.2965H24.908C24.6753 28.2965 24.4861 28.1081 24.4861 27.8747V23.0245C24.4861 22.7918 24.6753 22.6026 24.908 22.6026Z" fill="#6A6D6F"/>
</svg>
