<svg width="24" height="24" viewBox="0 0 24 24" fill="none" xmlns="http://www.w3.org/2000/svg">
<path d="M5.51901 3.31201C10.3443 2.89622 13.6947 2.89501 18.4814 3.30944C19.661 3.41158 20.5996 4.34542 20.704 5.52515C21.1253 10.2867 21.0864 13.6487 20.6891 18.4502M5.51901 3.31201C4.99787 3.35691 4.52334 3.5641 4.14725 3.88332C4.06294 3.95488 4.06356 4.08238 4.14189 4.16043L19.8567 19.8198C19.9356 19.8983 20.0642 19.8979 20.1351 19.812C20.4456 19.4361 20.6464 18.9658 20.6891 18.4502M5.51901 3.31201C4.34515 3.41315 3.40777 4.33779 3.29918 5.51131C3.25186 6.0227 3.21054 6.51782 3.17496 7.00006M20.6891 18.4502C20.5904 19.6431 19.6454 20.5932 18.453 20.6943L17 20.8091M7 20.8091C6.53502 20.7758 6.05822 20.7382 5.56642 20.6963C4.37117 20.5944 3.42621 19.6392 3.32857 18.4433C3.28816 17.9483 3.25102 17.4683 3.21741 17.0001M3.04781 14.0001C2.99625 12.6534 2.98478 11.3524 3.02129 10.0001M14.0543 20.9648C12.6814 21.0101 11.3643 21.011 10 20.9675" stroke="#053C5A" stroke-width="1.5" stroke-linecap="round"/>
</svg>
