<svg width="20" height="20" viewBox="0 0 20 20" fill="none" xmlns="http://www.w3.org/2000/svg">
<g clip-path="url(#clip0_2339_2892)">
<path d="M17.801 18.8565H16.7824C16.6555 18.8565 16.5518 18.7527 16.5518 18.6259V11.9182C16.5518 11.8375 16.594 11.7645 16.6632 11.726C16.7286 11.6799 16.817 11.676 16.8862 11.7145C16.9977 11.7683 17.1168 11.7952 17.2398 11.7952C17.3936 11.7952 17.5435 11.7529 17.6742 11.6684C17.7857 11.5992 17.9279 11.6338 17.9971 11.7452C18.0201 11.7798 18.0317 11.8221 18.0317 11.8644V18.6259C18.0317 18.7527 17.9279 18.8565 17.801 18.8565ZM17.013 18.3952H17.5704V12.2142C17.3897 12.2603 17.1975 12.268 17.013 12.2373V18.3952Z" fill="black"/>
<path d="M17.7974 19.6407H2.16797V19.3024C2.16797 18.9295 2.47164 18.6259 2.8445 18.6259H17.7974V19.6407Z" fill="#B6B9BA"/>
<path d="M17.7976 19.8713H2.16814C2.04129 19.8713 1.9375 19.7675 1.9375 19.6407V19.3024C1.9375 18.8027 2.34496 18.3953 2.84467 18.3953H17.7976C17.9244 18.3953 18.0282 18.499 18.0282 18.6259V19.6407C18.0282 19.7675 17.9244 19.8713 17.7976 19.8713ZM2.39877 19.4101H17.5669V18.8565H2.84467C2.59866 18.8565 2.39877 19.0564 2.39877 19.3024V19.4101Z" fill="black"/>
<path d="M16.1943 9.83482V10.9803C16.1943 11.3801 16.425 11.7414 16.7825 11.9182C17.1092 12.0797 17.4936 12.0605 17.8011 11.8644C18.1048 11.6722 18.2854 11.3378 18.2854 10.9803V5.75256L17.5974 7.0941L16.7825 8.68549L16.1943 9.83482Z" fill="#B6B9BA"/>
<path d="M17.2401 12.2565C17.0479 12.2565 16.8557 12.2142 16.6827 12.1258C16.2406 11.9144 15.9639 11.4685 15.9639 10.9803V9.83478C15.9639 9.80019 15.9754 9.76175 15.9908 9.731L18.0819 5.64489C18.1318 5.55264 18.2356 5.50267 18.3394 5.52573C18.4432 5.55264 18.5162 5.64489 18.5162 5.75252V10.9803C18.5162 11.4185 18.2933 11.8259 17.9243 12.0604C17.7205 12.1873 17.4822 12.2565 17.2401 12.2565ZM16.4251 9.8886V10.9803C16.4213 11.2916 16.602 11.5799 16.8864 11.7106C16.994 11.7683 17.117 11.7952 17.2401 11.7952C17.3938 11.7952 17.5437 11.7529 17.6744 11.6683C17.9127 11.5184 18.055 11.2609 18.055 10.9803V6.70582L16.4251 9.8886Z" fill="black"/>
<path d="M1.16455 16.9037L2.12553 17.8263H12.1005L16.1943 9.83473L18.2854 5.75247L19.7692 2.85414L19.7615 0.882202L17.3936 5.53337L16.1943 7.88585L11.6008 16.9037H1.16455Z" fill="#D1D3D4"/>
<path d="M12.1009 18.0569H2.12585C2.06819 18.0569 2.01053 18.0339 1.9644 17.9954L1.00342 17.0729C0.938072 17.0076 0.915009 16.9076 0.949604 16.8192C0.984199 16.7308 1.06877 16.6731 1.16486 16.6731H11.4628L19.5581 0.778455C19.6196 0.666981 19.758 0.624698 19.8695 0.682357C19.9425 0.720796 19.9886 0.797675 19.9925 0.882242L20.0002 2.85418C20.0002 2.89262 19.9925 2.92722 19.9771 2.96181L12.3084 17.9339C12.2662 18.0108 12.1893 18.0569 12.1009 18.0569ZM2.2181 17.5957H11.9586L19.5389 2.80037V1.83554L11.8126 17.0114C11.7703 17.0883 11.6934 17.1344 11.605 17.1344H1.73761L2.2181 17.5957Z" fill="black"/>
<path d="M1.16455 16.9037H11.6008L19.7615 0.882202H9.32523L1.16455 16.9037Z" fill="#3F8FD5"/>
<path d="M9.57914 16.6732H11.4627L13.5115 12.6447H11.6318L9.57914 16.6732ZM4.17841 16.6732H6.34639L8.39521 12.6447H6.23107L4.17841 16.6732ZM3.82861 12.1835H5.94662L7.59183 8.95455H5.47382L3.82861 12.1835ZM6.46555 12.1835H8.62969L10.2749 8.95455H8.11076L6.46555 12.1835ZM13.1425 4.34182H15.3412L16.9864 1.11292H14.7877L13.1425 4.34182ZM11.0283 8.49327H13.227L15.1067 4.80309H12.908L11.0283 8.49327ZM7.82246 4.34182H9.94047L11.5857 1.11292H9.46767L7.82246 4.34182Z" fill="#2D7CAD"/>
<path d="M9.20236 17.1344C9.16776 17.1344 9.12932 17.1267 9.09857 17.1113C8.9871 17.0575 8.94097 16.9191 8.99479 16.8076C8.99479 16.8038 8.99863 16.8038 8.99863 16.7999L17.1555 0.77841C17.217 0.666936 17.3515 0.620808 17.4668 0.678467C17.5821 0.736126 17.6244 0.874508 17.5668 0.989826L9.40609 17.0114C9.36765 17.0882 9.28693 17.1344 9.20236 17.1344ZM6.4847 17.1344C6.4501 17.1344 6.41166 17.1267 6.38091 17.1113C6.26944 17.0498 6.22331 16.9153 6.28097 16.7999L14.4416 0.77841C14.4993 0.663092 14.6377 0.620808 14.753 0.678467C14.8683 0.736126 14.9106 0.874508 14.8529 0.989826L6.69227 17.0114C6.64999 17.0882 6.56926 17.1344 6.4847 17.1344ZM3.80163 17.1344C3.76703 17.1344 3.72859 17.1267 3.69784 17.1113C3.58253 17.0536 3.54024 16.9153 3.5979 16.7999L11.7586 0.77841C11.8162 0.663092 11.9546 0.620808 12.0699 0.678467C12.1853 0.736126 12.2275 0.874508 12.1699 0.989826L4.0092 17.0114C3.96692 17.0882 3.8862 17.1344 3.80163 17.1344Z" fill="black"/>
<path d="M13.8189 12.6447H3.51335C3.3865 12.6447 3.28271 12.5409 3.28271 12.4141C3.28271 12.2872 3.3865 12.1834 3.51335 12.1834H13.8189C13.9458 12.1834 14.0496 12.2872 14.0496 12.4141C14.0496 12.5409 13.9458 12.6447 13.8189 12.6447ZM15.7678 8.95452H5.35844C5.23159 8.95452 5.1278 8.85073 5.1278 8.72388C5.1278 8.59703 5.23159 8.49325 5.35844 8.49325H15.7678C15.8947 8.49325 15.9985 8.59703 15.9985 8.72388C15.9985 8.85073 15.8947 8.95452 15.7678 8.95452ZM17.7974 4.80307H7.46107C7.33422 4.80307 7.23044 4.69928 7.23044 4.57243C7.23044 4.44558 7.33422 4.3418 7.46107 4.3418H17.7974C17.9243 4.3418 18.0281 4.44558 18.0281 4.57243C18.0281 4.69928 17.9243 4.80307 17.7974 4.80307Z" fill="black"/>
<path d="M11.6012 17.1344H1.16488C1.08416 17.1344 1.01112 17.0921 0.96884 17.0268C0.926556 16.9576 0.922712 16.873 0.961152 16.8L9.11798 0.778461C9.16027 0.701582 9.23715 0.651611 9.32556 0.651611H19.7618C19.8426 0.651611 19.9194 0.693895 19.9579 0.763085C20.0002 0.832276 20.004 0.916843 19.9694 0.989878L11.8087 17.0114C11.7665 17.0883 11.6896 17.1344 11.6012 17.1344ZM1.54159 16.6731H11.4628L19.3851 1.11288H9.46778L1.54159 16.6731Z" fill="black"/>
<path d="M3.48646 5.59487C4.48 5.59487 5.28542 4.78945 5.28542 3.79591C5.28542 2.80237 4.48 1.99695 3.48646 1.99695C2.49292 1.99695 1.6875 2.80237 1.6875 3.79591C1.6875 4.78945 2.49292 5.59487 3.48646 5.59487Z" fill="#E59B23"/>
<path d="M5.28554 3.79599C5.28554 4.78772 4.47831 5.59495 3.48657 5.59495C2.90614 5.59495 2.36415 5.31434 2.02588 4.84538C3.21366 4.62243 4.09392 3.79214 4.09392 2.80425C4.09392 2.53902 4.02857 2.28148 3.90941 2.047C4.71663 2.23919 5.28554 2.9657 5.28554 3.79599Z" fill="#E58423"/>
<path d="M3.48645 5.82554C2.36402 5.82554 1.45685 4.91837 1.45685 3.79594C1.45685 2.67351 2.36402 1.76635 3.48645 1.76635C4.60888 1.76635 5.51605 2.67351 5.51605 3.79594C5.5122 4.91453 4.60504 5.8217 3.48645 5.82554ZM3.48645 2.22762C2.62156 2.22762 1.91812 2.93106 1.91812 3.79594C1.91812 4.66083 2.62156 5.36427 3.48645 5.36427C4.35134 5.36427 5.05478 4.66083 5.05478 3.79594C5.05478 2.93106 4.35134 2.22762 3.48645 2.22762ZM6.11186 3.38464H6.96906V3.84591H6.11186V3.38464ZM0 3.38464H0.857198V3.84591H0V3.38464ZM3.22987 0.13421L3.69114 0.130981L3.69714 0.988179L3.23586 0.991408L3.22987 0.13421ZM3.27227 6.24626L3.73354 6.24303L3.73953 7.10023L3.27826 7.10346L3.27227 6.24626ZM5.17901 1.59837L5.78505 0.992292L6.11117 1.31841L5.50513 1.92445L5.17901 1.59837ZM0.856813 5.9148L1.46285 5.30876L1.78897 5.63488L1.18293 6.24092L0.856813 5.9148ZM0.843283 1.33852L1.1671 1.01009L1.77744 1.61182L1.45362 1.94025L0.843283 1.33852ZM5.19389 5.62919L5.5177 5.30077L6.128 5.90254L5.80419 6.23096L5.19389 5.62919Z" fill="black"/>
</g>
<defs>
<clipPath id="clip0_2339_2892">
<rect width="20" height="20" fill="white"/>
</clipPath>
</defs>
</svg>
