<svg width="30" height="30" viewBox="0 0 30 30" fill="none" xmlns="http://www.w3.org/2000/svg">
<g clip-path="url(#clip0_2339_2344)">
<mask id="mask0_2339_2344" style="mask-type:luminance" maskUnits="userSpaceOnUse" x="0" y="0" width="30" height="30">
<path d="M0 8.7738e-05H29.9999V30H0V8.7738e-05Z" fill="white"/>
</mask>
<g mask="url(#mask0_2339_2344)">
<path d="M13.2085 3.7157C12.5029 3.33842 11.7088 3.13088 10.8528 3.13088C8.07572 3.13088 5.8245 5.3821 5.8245 8.15915C5.8245 8.44004 5.84864 8.71514 5.89293 8.9835C4.38597 9.75067 3.35302 11.3153 3.35302 13.1222C3.35227 13.8074 3.50381 14.4842 3.79669 15.1037C2.18507 15.7613 1.04883 17.3432 1.04883 19.1914C1.04883 21.6292 3.02513 23.6055 5.46297 23.6055H12.0866" stroke="#3CCDAA" stroke-width="1.5" stroke-miterlimit="10"/>
<path d="M18.0693 9.10393V29.1207" stroke="#212529" stroke-width="1.5" stroke-miterlimit="10"/>
<path d="M10.8525 23.6055V29.1207" stroke="#3CCDAA" stroke-width="1.5" stroke-miterlimit="10"/>
<path d="M14.6465 10.9639L18.0522 14.3696" stroke="#212529" stroke-width="1.5" stroke-miterlimit="10"/>
<path d="M21.4585 10.9639L18.0527 14.3696" stroke="#212529" stroke-width="1.5" stroke-miterlimit="10"/>
<path d="M13.6768 15.8198L18.0522 20.1953" stroke="#212529" stroke-width="1.5" stroke-miterlimit="10"/>
<path d="M22.4282 15.8198L18.0527 20.1953" stroke="#212529" stroke-width="1.5" stroke-miterlimit="10"/>
<path d="M0 29.1207H29.9999" stroke="#3CCDAA" stroke-width="1.5" stroke-miterlimit="10"/>
<path d="M25.9015 14.1687C26.2168 13.5016 26.3939 12.7563 26.3939 11.9694C26.3939 9.96383 25.2474 8.22718 23.5747 7.37564C23.625 7.0732 23.6504 6.76716 23.6507 6.46058C23.6507 3.37821 21.1519 0.879423 18.0695 0.879423C14.9871 0.879423 12.4883 3.37821 12.4883 6.46058C12.4883 6.77236 12.5151 7.07775 12.5642 7.37564C10.8916 8.22718 9.74505 9.96383 9.74505 11.9694C9.74505 12.7563 9.92212 13.5016 10.2375 14.1687C8.44867 14.8987 7.1875 16.6546 7.1875 18.7059C7.1875 21.4118 9.38113 23.6055 12.087 23.6055H24.0519C26.7579 23.6055 28.9514 21.4118 28.9514 18.7059C28.9514 16.6546 27.6903 14.8987 25.9015 14.1687Z" stroke="#212529" stroke-width="1.5" stroke-miterlimit="10"/>
</g>
</g>
<defs>
<clipPath id="clip0_2339_2344">
<rect width="30" height="30" fill="white"/>
</clipPath>
</defs>
</svg>
