<svg width="30" height="30" viewBox="0 0 30 30" fill="none" xmlns="http://www.w3.org/2000/svg">
<path d="M8.88952 20.4565L8.87402 29.3153L12.3867 29.3207L13.5781 20.2783" stroke="#212529" stroke-width="1.28196" stroke-miterlimit="10" stroke-linejoin="round"/>
<path d="M12.6073 6.03601L20.6081 14.1354C21.1312 14.6648 21.1507 15.5097 20.6528 16.0627C20.1508 16.6203 19.2991 16.6861 18.7173 16.2121L11.9717 10.7159" stroke="#3CCDAA" stroke-width="1.28196" stroke-miterlimit="22.9256" stroke-linecap="round" stroke-linejoin="round"/>
<path d="M12.6073 6.03605C9.40611 5.90215 6.70234 8.38618 6.56832 11.5843L6.55078 20.3858H13.5785L14.536 13.0109" stroke="#3CCDAA" stroke-width="1.28196" stroke-miterlimit="22.9256" stroke-linecap="round" stroke-linejoin="round"/>
<path d="M23.4494 29.3589L22.6521 18.2495C22.5756 17.1838 21.6489 16.3819 20.5822 16.4583C19.5155 16.5347 18.7127 17.4605 18.7892 18.5262L18.8425 19.2683" stroke="#212529" stroke-width="1.28196" stroke-miterlimit="10" stroke-linecap="round" stroke-linejoin="round"/>
<path d="M13.1763 5.99794C14.657 5.99794 15.8574 4.79872 15.8574 3.31941C15.8574 1.84009 14.657 0.640869 13.1763 0.640869C11.6955 0.640869 10.4951 1.84009 10.4951 3.31941C10.4951 4.79872 11.6955 5.99794 13.1763 5.99794Z" stroke="#212529" stroke-width="1.28196" stroke-miterlimit="10" stroke-linecap="round" stroke-linejoin="round"/>
</svg>
