<svg width="30" height="30" viewBox="0 0 30 30" fill="none" xmlns="http://www.w3.org/2000/svg">
<g clip-path="url(#clip0_2339_2316)">
<mask id="mask0_2339_2316" style="mask-type:luminance" maskUnits="userSpaceOnUse" x="0" y="0" width="30" height="30">
<path d="M0 8.7738e-05H29.9999V30H0V8.7738e-05Z" fill="white"/>
</mask>
<g mask="url(#mask0_2339_2316)">
<path d="M5.85937 28.8281H24.1406C25.435 28.8281 26.4843 27.7788 26.4843 26.4844V3.5157C26.4843 2.22131 25.435 1.17196 24.1406 1.17196H5.85937C4.56498 1.17196 3.51562 2.22131 3.51562 3.5157V26.4844C3.51562 27.7788 4.56498 28.8281 5.85937 28.8281Z" stroke="#212529" stroke-width="1.5" stroke-miterlimit="10"/>
<path d="M26.4843 7.73438H3.51562" stroke="#212529" stroke-width="1.5" stroke-miterlimit="10"/>
<path d="M8.90625 18.2813C8.90625 14.8834 11.6607 12.1289 15.0586 12.1289C18.4564 12.1289 21.2109 14.8834 21.2109 18.2813C21.2109 21.6791 18.4564 24.4336 15.0586 24.4336C11.6607 24.4336 8.90625 21.6791 8.90625 18.2813Z" stroke="#3CCDAA" stroke-width="1.5" stroke-miterlimit="10"/>
<path d="M20.2295 18.043L19.4619 14.8027C17.9205 15.0773 16.75 16.4227 16.75 18.043C16.75 19.6633 17.9205 21.0097 19.4619 21.2842L20.2295 18.043Z" fill="#3CCDAA" stroke="#3CCDAA" stroke-width="1.5"/>
<path d="M7.61719 4.87512C7.8502 4.87512 8.03906 4.68626 8.03906 4.45325C8.03906 4.22024 7.8502 4.03137 7.61719 4.03137C7.38418 4.03137 7.19531 4.22024 7.19531 4.45325C7.19531 4.68626 7.38418 4.87512 7.61719 4.87512Z" fill="#212529" stroke="#212529" stroke-width="1.5"/>
<path d="M11.7773 4.87512C12.0104 4.87512 12.1992 4.68626 12.1992 4.45325C12.1992 4.22024 12.0104 4.03137 11.7773 4.03137C11.5443 4.03137 11.3555 4.22024 11.3555 4.45325C11.3555 4.68626 11.5443 4.87512 11.7773 4.87512Z" fill="#212529" stroke="#212529" stroke-width="1.5"/>
</g>
</g>
<defs>
<clipPath id="clip0_2339_2316">
<rect width="30" height="30" fill="white"/>
</clipPath>
</defs>
</svg>
