<svg width="50" height="23" viewBox="0 0 50 23" fill="none" xmlns="http://www.w3.org/2000/svg">
<g clip-path="url(#clip0_2494_13395)">
<path d="M7.994 11.7891C7.4753 11.789 6.96166 11.8911 6.48242 12.0896C6.00318 12.288 5.56772 12.5789 5.20092 12.9457C4.83412 13.3124 4.54315 13.7479 4.34464 14.2271C4.14612 14.7063 4.04395 15.2199 4.04395 15.7386C4.04395 15.9077 4.05761 16.0726 4.07887 16.2356C4.32331 18.1825 5.98127 19.6892 7.994 19.6892C10.0624 19.6892 11.7563 18.099 11.9279 16.0752C11.937 15.9633 11.9451 15.8525 11.9451 15.7376C11.9456 13.5568 10.1768 11.7891 7.994 11.7891ZM6.01568 14.2502L6.82189 15.0564C6.75803 15.165 6.70982 15.282 6.67867 15.4041H5.54249C5.59891 14.9853 5.76184 14.588 6.01568 14.2502ZM5.53894 16.0873H6.68272C6.71511 16.2083 6.76268 16.3247 6.82543 16.4299L6.01771 17.2372C5.76259 16.901 5.59776 16.5052 5.53894 16.0873ZM7.6529 18.1932C7.23654 18.1356 6.84198 17.972 6.5071 17.7179L7.31027 16.9148C7.41554 16.9765 7.53194 17.0216 7.6529 17.0529V18.1932ZM7.6529 14.4248C7.53006 14.4562 7.41243 14.5053 7.30369 14.5706L6.499 13.7654C6.83611 13.5095 7.23358 13.3452 7.6529 13.2881V14.4248ZM8.33714 13.2881C8.75658 13.345 9.15414 13.5096 9.49103 13.7659L8.68634 14.5706C8.5776 14.5053 8.45997 14.4562 8.33714 14.4248V13.2881ZM8.33714 18.1927V17.0529C8.4586 17.0211 8.57399 16.976 8.67976 16.9138L9.48344 17.7179C9.14777 17.9708 8.7533 18.1342 8.33714 18.1927ZM9.97384 17.2402L9.16359 16.4289C9.22634 16.3232 9.27847 16.2093 9.31086 16.0868H10.446C10.3893 16.5052 10.2268 16.9022 9.97384 17.2402ZM9.31086 15.4031C9.27931 15.2812 9.23111 15.1642 9.16763 15.0554L9.97384 14.2492C10.2233 14.5797 10.3878 14.9724 10.447 15.4021L9.31086 15.4031ZM41.2489 11.7891C40.7302 11.789 40.2165 11.8911 39.7373 12.0896C39.2581 12.288 38.8226 12.5789 38.4558 12.9457C38.089 13.3124 37.798 13.7479 37.5995 14.2271C37.401 14.7063 37.2988 15.2199 37.2988 15.7386C37.2988 15.9077 37.3125 16.0726 37.3338 16.2356C37.5777 18.1825 39.2362 19.6892 41.2484 19.6892C43.3168 19.6892 45.0112 18.099 45.1822 16.0752C45.1914 15.9633 45.1995 15.8525 45.1995 15.7376C45.2005 13.5568 43.4317 11.7891 41.2489 11.7891ZM39.2701 14.2502L40.0768 15.0564C40.0127 15.1649 39.9645 15.282 39.9336 15.4041H38.7974C38.8536 14.9854 39.0164 14.5881 39.2701 14.2502ZM38.7938 16.0873H39.9376C39.97 16.2083 40.0176 16.3247 40.0803 16.4299L39.2726 17.2367C39.0176 16.9006 38.8528 16.505 38.7938 16.0873ZM40.9078 18.1932C40.4914 18.1356 40.0969 17.972 39.762 17.7179L40.5652 16.9148C40.6704 16.9765 40.7868 17.0216 40.9078 17.0529V18.1932ZM40.9078 14.4248C40.7851 14.4561 40.6676 14.5052 40.5591 14.5706L39.7539 13.7654C40.091 13.5096 40.4885 13.3452 40.9078 13.2881V14.4248ZM41.5915 13.2881C42.0108 13.3449 42.4082 13.5095 42.7449 13.7659L41.9402 14.5706C41.8316 14.5054 41.7142 14.4563 41.5915 14.4248V13.2881ZM41.5915 18.1927V17.0529C41.7125 17.0211 41.8284 16.976 41.9341 16.9138L42.7378 17.7179C42.4022 17.971 42.0077 18.1344 41.5915 18.1927ZM43.2282 17.2402L42.418 16.4289C42.4807 16.3232 42.5329 16.2093 42.5652 16.0868H43.7004C43.6442 16.5053 43.4816 16.9024 43.2282 17.2402ZM42.5663 15.4031C42.5347 15.2812 42.4865 15.1642 42.423 15.0554L43.2292 14.2492C43.4787 14.5797 43.6432 14.9724 43.7029 15.4021L42.5663 15.4031Z" fill="#212529"/>
<path d="M22.6064 1.91113C30.6802 -0.258014 40.9318 1.33995 44.2676 1.9668H44.2686C44.4631 2.00302 44.6395 2.1051 44.7676 2.25586C44.8637 2.36917 44.929 2.50512 44.957 2.64941L44.9727 2.7959V2.97949L45.1016 3.12207L47.9072 6.23047C48.1865 6.53978 48.3568 6.92994 48.3945 7.3418L48.4023 7.51953L48.4014 9.80762V10.0215L48.5557 10.1699L49.3145 10.8945H49.3154C49.3766 10.9529 49.4242 11.0242 49.4561 11.1025C49.4877 11.1803 49.5027 11.2637 49.5 11.3477L49.4727 12.0557C49.4457 12.7651 49.2357 13.4558 48.8623 14.0596C48.4888 14.6634 47.9645 15.16 47.3418 15.501L46.4873 15.9688C46.4912 15.8934 46.4944 15.8177 46.4951 15.7422V15.7383C46.4951 12.8461 44.1425 10.4942 41.25 10.4941C38.3579 10.4941 36.0049 12.8461 36.0049 15.7383V15.7402C36.0054 15.8821 36.014 16.0238 36.0264 16.165L13.2227 16.1191C13.2319 15.9997 13.2402 15.8723 13.2402 15.7383C13.2402 12.846 10.8877 10.4941 7.99512 10.4941C5.10326 10.4944 2.75098 12.8462 2.75098 15.7383V15.7402C2.7511 15.7699 2.75327 15.7995 2.75391 15.8291L2.59863 15.7949C1.95795 15.651 1.39192 15.2777 1.00781 14.7451C0.623705 14.2125 0.447976 13.5577 0.513672 12.9043V12.9033C0.616281 11.8626 0.884997 10.7713 1.46484 9.92676L1.58496 9.76074C2.04119 9.16611 2.90443 8.61259 4.02344 8.12207C5.12738 7.63815 6.4161 7.24203 7.65332 6.92871C8.88833 6.61596 10.0599 6.38916 10.9229 6.24023C11.3538 6.16586 11.7072 6.11126 11.9521 6.0752C12.0746 6.05717 12.17 6.04396 12.2344 6.03516C12.2666 6.03075 12.2914 6.02753 12.3076 6.02539C12.3155 6.02435 12.3213 6.02296 12.3252 6.02246H12.3311L12.4219 6.01074L12.5029 5.9668L12.5049 5.96582C12.5071 5.96462 12.5109 5.96244 12.5156 5.95996C12.525 5.95499 12.5396 5.94743 12.5586 5.9375C12.5965 5.91764 12.6535 5.88869 12.7275 5.85059C12.8759 5.77423 13.0941 5.66295 13.3721 5.52539C13.9287 5.25 14.7244 4.86822 15.6768 4.44434C17.5848 3.59509 20.1108 2.58152 22.6064 1.91113ZM33.3096 6.53711L33.8496 6.49414L40.8408 5.94238L41.0479 5.92578L41.1826 5.76758L42.0957 4.69141C42.3528 4.38893 42.4547 3.98872 42.3818 3.60547L42.3398 3.44238C42.1994 3.01291 41.8464 2.68602 41.4062 2.58008H41.4072C38.6978 1.92559 36.1712 1.55857 33.8457 1.38965L33.3096 1.35059V6.53711ZM32.6738 1.31445L32.1904 1.29785C27.4928 1.13809 23.7353 1.79211 21.1465 2.48926C19.8522 2.8378 18.8499 3.19781 18.168 3.47168C17.8273 3.60851 17.566 3.72344 17.3887 3.80566C17.3 3.84678 17.232 3.88038 17.1855 3.90332C17.1624 3.91475 17.1443 3.92333 17.1318 3.92969C17.1256 3.93284 17.1207 3.93567 17.1172 3.9375C17.1154 3.93842 17.1134 3.93888 17.1123 3.93945L17.1113 3.94043H17.1104L16.9111 4.04492L16.8574 4.2627L16.4902 5.72656L16.4316 5.96387L16.582 6.15625C16.6981 6.30436 16.7678 6.5517 16.7959 6.82031C16.8089 6.94524 16.8115 7.05794 16.8105 7.13867C16.8101 7.17857 16.8087 7.2102 16.8076 7.23047C16.8071 7.24045 16.8069 7.24783 16.8066 7.25195C16.8065 7.25329 16.8057 7.25424 16.8057 7.25488L16.7549 7.8418L17.3438 7.7959L32.2129 6.62305L32.6738 6.58594V1.31445Z" fill="white" stroke="black"/>
</g>
<defs>
<clipPath id="clip0_2494_13395">
<rect width="50" height="23" fill="white"/>
</clipPath>
</defs>
</svg>
