<svg width="20" height="20" viewBox="0 0 20 20" fill="none" xmlns="http://www.w3.org/2000/svg">
<g clip-path="url(#clip0_2339_2943)">
<path d="M9.7141 19.8095H0.761719C0.761719 19.8095 3.80934 17.5238 6.09505 17.5238C6.76172 17.5238 7.31029 17.6324 7.75981 17.8038C8.1122 17.939 8.40362 18.1105 8.64553 18.299C9.50267 18.96 9.7141 19.8095 9.7141 19.8095Z" fill="#8CE624"/>
<path d="M3.756 18.0914L3.79524 18.1634C3.9442 18.4369 3.84743 18.7815 3.57562 18.9335C3.09416 19.2036 2.62553 19.4959 2.17124 19.8095H0.761719C0.761719 19.8095 2.15029 18.7676 3.756 18.0914ZM7.50648 17.72C7.41886 17.7162 7.32934 17.7143 7.23791 17.7143C6.43296 17.7143 5.53391 17.9975 4.70743 18.3644C4.43181 18.4867 4.10896 18.3806 3.96629 18.115L3.91791 18.0248C4.64362 17.7333 5.40362 17.5238 6.09505 17.5238C6.64172 17.5238 7.10839 17.5981 7.50648 17.72Z" fill="#067A00"/>
<path d="M8.78866 19.8095H4.84961C5.90485 18.7143 7.02675 18.1124 7.76009 17.8038C8.11247 17.9391 8.4039 18.1105 8.6458 18.2991L8.78866 19.8095Z" fill="#C6FF7D"/>
<path d="M9.71415 20H0.761765C0.721788 20 0.682823 19.9875 0.650392 19.9641C0.61796 19.9407 0.593706 19.9077 0.581064 19.8698C0.568422 19.8319 0.568033 19.7909 0.579953 19.7528C0.591873 19.7146 0.615497 19.6812 0.64748 19.6572C0.773956 19.5623 3.77262 17.3334 6.0951 17.3334C9.25491 17.3334 9.89281 19.7391 9.89891 19.7633C9.90594 19.7914 9.90648 19.8207 9.90049 19.849C9.89449 19.8773 9.88212 19.9039 9.86431 19.9267C9.84649 19.9496 9.82371 19.968 9.79769 19.9807C9.77167 19.9934 9.7431 20 9.71415 20ZM1.36862 19.6191H9.44577C9.21015 19.0593 8.40386 17.7143 6.0951 17.7143C4.43319 17.7143 2.31338 18.9898 1.36862 19.6191Z" fill="black"/>
<path d="M19.2378 19.8096H5.14258C5.14258 19.8096 9.7102 16.762 13.5235 16.762C14.9978 16.762 16.1597 17.1753 17.0416 17.6972C17.7731 18.1315 18.3102 18.6382 18.6702 19.0477C19.055 19.4858 19.2378 19.8096 19.2378 19.8096Z" fill="#8CE624"/>
<path d="M18.6702 19.0476C18.201 18.5153 17.6516 18.0597 17.0416 17.6971L16.8277 17.9648C16.7957 18.0045 16.772 18.0503 16.758 18.0994C16.7441 18.1485 16.7403 18.1999 16.7467 18.2506C16.7531 18.3012 16.7697 18.3501 16.7955 18.3941C16.8213 18.4382 16.8557 18.4766 16.8967 18.507C16.9751 18.5648 17.0632 18.6328 17.155 18.7091C17.2923 18.8234 17.2131 19.0476 17.0344 19.0476H15.2378C15.1368 19.0476 15.0399 19.0878 14.9684 19.1592C14.897 19.2306 14.8569 19.3275 14.8569 19.4286C14.8569 19.5296 14.897 19.6265 14.9684 19.6979C15.0399 19.7694 15.1368 19.8095 15.2378 19.8095H19.2378C19.2378 19.8095 19.055 19.4857 18.6702 19.0476ZM14.095 19.8095H13.5235C13.4225 19.8095 13.3256 19.7694 13.2542 19.6979C13.1827 19.6265 13.1426 19.5296 13.1426 19.4286C13.1426 19.3275 13.1827 19.2306 13.2542 19.1592C13.3256 19.0878 13.4225 19.0476 13.5235 19.0476H14.095C14.196 19.0476 14.2929 19.0878 14.3643 19.1592C14.4358 19.2306 14.4759 19.3275 14.4759 19.4286C14.4759 19.5296 14.4358 19.6265 14.3643 19.6979C14.2929 19.7694 14.196 19.8095 14.095 19.8095Z" fill="#C6FF7D"/>
<path d="M16.1426 17.2534C15.7445 17.1829 15.3159 17.1429 14.8569 17.1429C11.8873 17.1429 8.46067 18.9905 7.08925 19.8096H5.14258C5.14258 19.8096 9.7102 16.762 13.5235 16.762C14.5407 16.762 15.4111 16.9601 16.1426 17.2534Z" fill="#067A00"/>
<path d="M19.238 20H5.14278C5.10203 19.9997 5.06243 19.9864 5.02978 19.962C4.99713 19.9377 4.97314 19.9035 4.96132 19.8645C4.94951 19.8255 4.95049 19.7837 4.96412 19.7453C4.97774 19.7069 5.00331 19.6739 5.03707 19.651C5.04868 19.6434 6.20945 18.8726 7.82221 18.1133C9.31649 17.4099 11.5188 16.5714 13.5237 16.5714C14.4969 16.5714 15.4186 16.7487 16.2634 17.0983C16.287 17.1075 16.3085 17.1213 16.3267 17.139C16.3449 17.1566 16.3594 17.1777 16.3694 17.201C16.3793 17.2244 16.3845 17.2494 16.3846 17.2748C16.3848 17.3002 16.3798 17.3253 16.3701 17.3487C16.3604 17.3721 16.3461 17.3934 16.3281 17.4112C16.31 17.429 16.2886 17.4431 16.2651 17.4525C16.2416 17.462 16.2164 17.4666 16.191 17.4662C16.1657 17.4658 16.1407 17.4603 16.1174 17.4501C15.3194 17.1198 14.4468 16.9524 13.5237 16.9524C10.5849 16.9524 7.13878 18.8251 5.80983 19.619H18.883C18.5877 19.2114 17.9418 18.4436 16.9075 17.8407C16.8854 17.8284 16.866 17.8118 16.8504 17.7918C16.8348 17.7719 16.8234 17.749 16.8167 17.7246C16.81 17.7002 16.8083 17.6747 16.8116 17.6496C16.8149 17.6245 16.8232 17.6003 16.836 17.5785C16.8487 17.5566 16.8657 17.5375 16.8859 17.5223C16.9062 17.507 16.9292 17.496 16.9538 17.4898C16.9783 17.4836 17.0038 17.4823 17.0289 17.4861C17.0539 17.4899 17.0779 17.4986 17.0995 17.5118C18.6653 18.4244 19.3744 19.664 19.4041 19.7164C19.4204 19.7453 19.4289 19.7781 19.4286 19.8113C19.4283 19.8446 19.4193 19.8772 19.4025 19.9059C19.3857 19.9345 19.3617 19.9583 19.3328 19.9749C19.3039 19.9914 19.2713 20 19.238 20Z" fill="black"/>
<path d="M12.1901 19.8095H9.52344L10.4758 7.61902H11.2377L12.1901 19.8095Z" fill="#E1E0F0"/>
<path d="M11.6245 12.5714H11.474C11.3753 12.5714 11.2805 12.5331 11.2094 12.4646C11.1384 12.396 11.0968 12.3026 11.0932 12.204L10.9312 7.61902H11.2378L11.6245 12.5714ZM12.1902 19.8095H11.3616L11.126 13.1564C11.1242 13.1052 11.1327 13.0542 11.151 13.0065C11.1693 12.9587 11.1971 12.9151 11.2326 12.8783C11.2682 12.8414 11.3108 12.8122 11.3579 12.7922C11.405 12.7722 11.4556 12.7619 11.5068 12.7619H11.6397L12.1902 19.8095Z" fill="white"/>
<path d="M10.7672 7.61902L10.5272 19.8095H9.52344L10.4758 7.61902H10.7672Z" fill="#9597C8"/>
<path d="M12.1902 20H9.52352C9.49724 20.0001 9.47123 19.9947 9.44714 19.9842C9.42304 19.9737 9.40139 19.9583 9.38354 19.939C9.3657 19.9197 9.35205 19.8969 9.34345 19.8721C9.33486 19.8472 9.33151 19.8209 9.33362 19.7947L10.286 7.60421C10.2897 7.55641 10.3114 7.51177 10.3466 7.47922C10.3818 7.44667 10.428 7.42859 10.4759 7.42859H11.2378C11.2858 7.42859 11.3319 7.44667 11.3671 7.47922C11.4023 7.51177 11.424 7.55641 11.4277 7.60421L12.3801 19.7947C12.3821 19.8209 12.3788 19.8472 12.3701 19.872C12.3615 19.8968 12.3479 19.9196 12.33 19.9389C12.3122 19.9582 12.2906 19.9735 12.2665 19.9841C12.2424 19.9946 12.2165 20 12.1902 20ZM9.72943 19.6191H11.9843L11.0616 7.80954H10.6521L9.72943 19.6191Z" fill="black"/>
<path d="M11.8779 16.0019H10.8569C10.8059 16.0019 10.757 15.9816 10.7209 15.9456C10.6848 15.9095 10.6646 15.8605 10.6646 15.8095C10.6646 15.7585 10.6848 15.7096 10.7209 15.6735C10.757 15.6374 10.8059 15.6171 10.8569 15.6171H11.8779C11.9289 15.6171 11.9778 15.6374 12.0139 15.6735C12.05 15.7096 12.0703 15.7585 12.0703 15.8095C12.0703 15.8605 12.05 15.9095 12.0139 15.9456C11.9778 15.9816 11.9289 16.0019 11.8779 16.0019ZM11.8188 15.24H11.0474C10.9964 15.24 10.9475 15.2197 10.9114 15.1836C10.8753 15.1476 10.855 15.0986 10.855 15.0476C10.855 14.9966 10.8753 14.9477 10.9114 14.9116C10.9475 14.8755 10.9964 14.8552 11.0474 14.8552H11.8188C11.8699 14.8552 11.9188 14.8755 11.9549 14.9116C11.9909 14.9477 12.0112 14.9966 12.0112 15.0476C12.0112 15.0986 11.9909 15.1476 11.9549 15.1836C11.9188 15.2197 11.8699 15.24 11.8188 15.24ZM11.7579 14.4781H10.8569C10.8317 14.4781 10.8067 14.4731 10.7833 14.4634C10.76 14.4538 10.7388 14.4396 10.7209 14.4217C10.703 14.4039 10.6889 14.3827 10.6792 14.3593C10.6695 14.336 10.6646 14.311 10.6646 14.2857C10.6646 14.2604 10.6695 14.2354 10.6792 14.2121C10.6889 14.1887 10.703 14.1675 10.7209 14.1497C10.7388 14.1318 10.76 14.1176 10.7833 14.108C10.8067 14.0983 10.8317 14.0933 10.8569 14.0933H11.7579C11.7831 14.0933 11.8082 14.0983 11.8315 14.108C11.8548 14.1176 11.8761 14.1318 11.8939 14.1497C11.9118 14.1675 11.926 14.1887 11.9356 14.2121C11.9453 14.2354 11.9503 14.2604 11.9503 14.2857C11.9503 14.311 11.9453 14.336 11.9356 14.3593C11.926 14.3827 11.9118 14.4039 11.8939 14.4217C11.8761 14.4396 11.8548 14.4538 11.8315 14.4634C11.8082 14.4731 11.7831 14.4781 11.7579 14.4781ZM11.6988 13.7162H11.0474C10.9964 13.7162 10.9475 13.6959 10.9114 13.6598C10.8753 13.6238 10.855 13.5748 10.855 13.5238C10.855 13.4728 10.8753 13.4238 10.9114 13.3878C10.9475 13.3517 10.9964 13.3314 11.0474 13.3314H11.6988C11.7499 13.3314 11.7988 13.3517 11.8349 13.3878C11.8709 13.4238 11.8912 13.4728 11.8912 13.5238C11.8912 13.5748 11.8709 13.6238 11.8349 13.6598C11.7988 13.6959 11.7499 13.7162 11.6988 13.7162Z" fill="black"/>
<path d="M12.1901 19.8096H9.52344L9.64344 18.2858H12.072L12.1901 19.8096Z" fill="#7D8288"/>
<path d="M12.1905 19.8096H11.3619L11.3086 18.2858H12.0724L12.1905 19.8096Z" fill="#BEC6CC"/>
<path d="M10.5577 18.2858L10.5272 19.8096H9.52344L9.64344 18.2858H10.5577Z" fill="#3F4447"/>
<path d="M12.1902 20H9.52352C9.49724 20.0001 9.47123 19.9947 9.44714 19.9842C9.42304 19.9737 9.40139 19.9583 9.38354 19.939C9.3657 19.9197 9.35205 19.8969 9.34345 19.8721C9.33486 19.8472 9.33151 19.8209 9.33362 19.7947L9.45362 18.2709C9.45741 18.2231 9.47906 18.1785 9.51425 18.146C9.54945 18.1135 9.59561 18.0955 9.64352 18.0955H12.0721C12.1201 18.0955 12.1663 18.1136 12.2015 18.1462C12.2367 18.1788 12.2583 18.2234 12.262 18.2713L12.3801 19.7951C12.3821 19.8212 12.3787 19.8475 12.37 19.8723C12.3614 19.8971 12.3477 19.9198 12.3299 19.939C12.3121 19.9583 12.2904 19.9736 12.2664 19.9841C12.2424 19.9946 12.2164 20 12.1902 20ZM9.72962 19.6191H11.9845L11.8957 18.4762H9.81952L9.72962 19.6191Z" fill="black"/>
<path d="M10.8572 7.61909L10.1162 8.1048L9.57146 8.46099L6.00384 10.7943L4.69527 11.6515L4.69146 11.6458C4.6667 11.6077 4.64575 11.5696 4.62861 11.5296C4.48194 11.2134 4.53527 10.8362 4.76765 10.5696L7.95813 6.92957C8.06471 6.80788 8.20726 6.72328 8.36512 6.68801C8.52299 6.65274 8.68799 6.66863 8.83622 6.73337L10.8572 7.61909Z" fill="#03D5DC"/>
<path d="M10.8572 7.61909L10.1162 8.1048L9.05813 7.64157C8.91539 7.57907 8.75693 7.56185 8.6041 7.59223C8.45127 7.62262 8.31144 7.69913 8.20346 7.81147L4.62861 11.5296C4.48194 11.2134 4.53527 10.8362 4.76765 10.5696L7.95813 6.92957C8.06471 6.80788 8.20726 6.72328 8.36512 6.68801C8.52299 6.65274 8.68799 6.66863 8.83622 6.73337L10.8572 7.61909Z" fill="#0195B7"/>
<path d="M9.57153 8.46096L6.00391 10.7943L8.43019 8.50363C8.53042 8.409 8.65446 8.34334 8.78907 8.31365C8.92369 8.28396 9.06383 8.29136 9.19457 8.33506L9.57153 8.46096Z" fill="#80FFFF"/>
<path d="M4.69548 11.8423C4.63396 11.8423 4.57377 11.8125 4.53681 11.7579C4.26748 11.3457 4.30538 10.8085 4.62386 10.444L6.33262 8.49502C6.34914 8.47617 6.36922 8.46076 6.39169 8.44967C6.41417 8.43858 6.43861 8.43202 6.46362 8.43038C6.48863 8.42873 6.51372 8.43203 6.53745 8.44008C6.56119 8.44813 6.58311 8.46078 6.60196 8.4773C6.6208 8.49382 6.63621 8.5139 6.6473 8.53637C6.65839 8.55885 6.66495 8.58329 6.66659 8.6083C6.66824 8.63331 6.66494 8.6584 6.65689 8.68213C6.64884 8.70587 6.63619 8.72779 6.61967 8.74664L4.9111 10.6954C4.83153 10.7869 4.77687 10.8974 4.75238 11.0162C4.72789 11.135 4.73441 11.2581 4.77129 11.3737L10.4578 7.65235L8.75967 6.90816C8.64866 6.85903 8.52482 6.84681 8.40636 6.87332C8.28789 6.89982 8.18106 6.96365 8.10157 7.0554L7.15681 8.1333C7.14029 8.15215 7.12022 8.16756 7.09774 8.17865C7.07527 8.18974 7.05082 8.1963 7.02582 8.19794C7.00081 8.19958 6.97572 8.19629 6.95198 8.18824C6.92825 8.18019 6.90633 8.16754 6.88748 8.15102C6.86863 8.13449 6.85322 8.11442 6.84213 8.09195C6.83104 8.06947 6.82449 8.04503 6.82284 8.02002C6.8212 7.99501 6.82449 7.96992 6.83255 7.94618C6.8406 7.92245 6.85324 7.90053 6.86977 7.88168L7.81453 6.80359C7.94749 6.65078 8.12587 6.54454 8.32357 6.50043C8.52126 6.45632 8.72789 6.47665 8.91319 6.55844L10.9338 7.44397C10.9652 7.45783 10.9923 7.47991 11.0123 7.50789C11.0322 7.53587 11.0442 7.56871 11.0471 7.60294C11.0499 7.63718 11.0435 7.67155 11.0284 7.70244C11.0134 7.73332 10.9903 7.75958 10.9616 7.77845L4.79967 11.8108C4.7688 11.8314 4.73255 11.8423 4.69548 11.8423Z" fill="black"/>
<path d="M12.6855 6.39995L10.8569 7.619V0.19043C11.0509 0.190389 11.2396 0.254136 11.3938 0.371851C11.548 0.489565 11.6592 0.654715 11.7103 0.841858L12.9979 5.56567C13.0396 5.71993 13.032 5.8834 12.9759 6.03307C12.9199 6.18273 12.8183 6.31105 12.6855 6.39995Z" fill="#03D5DC"/>
<path d="M12.6855 6.39997L10.8569 7.61902V6.68378L11.7903 6.00512C11.9094 5.91852 12.0008 5.79926 12.0535 5.66178C12.1063 5.5243 12.118 5.37448 12.0874 5.23045L11.0188 0.205688C11.3465 0.266641 11.6207 0.51045 11.7103 0.841879L12.9979 5.56569C13.0396 5.71995 13.032 5.88342 12.9759 6.03309C12.9199 6.18275 12.8183 6.31107 12.6855 6.39997Z" fill="#0195B7"/>
<path d="M11.0703 5.69965L10.8569 5.84194V2.0686L11.4689 4.69108C11.5129 4.87979 11.4983 5.07742 11.4271 5.25762C11.3559 5.43782 11.2314 5.59202 11.0703 5.69965Z" fill="#80FFFF"/>
<path d="M10.857 7.80952C10.8065 7.80952 10.758 7.78946 10.7223 7.75374C10.6866 7.71801 10.6665 7.66957 10.6665 7.61905V0.190476C10.6665 0.139959 10.6866 0.0915104 10.7223 0.0557892C10.758 0.020068 10.8065 0 10.857 0C11.0927 0.000525701 11.3218 0.0782982 11.5091 0.221409C11.6964 0.36452 11.8317 0.56508 11.8941 0.792381L13.1819 5.51524C13.2347 5.70808 13.2254 5.91263 13.1553 6.09987C13.0852 6.2871 12.9579 6.4475 12.7915 6.55829L10.9625 7.77752C10.9313 7.79843 10.8946 7.80958 10.857 7.80952ZM11.0475 0.40781V7.26305L12.5802 6.24133C12.6801 6.1749 12.7565 6.07868 12.7985 5.96634C12.8405 5.85401 12.846 5.73128 12.8143 5.61562L11.5265 0.892762C11.4949 0.777656 11.4342 0.672604 11.3504 0.587683C11.2665 0.502763 11.1622 0.440824 11.0475 0.40781Z" fill="black"/>
<path d="M17.3522 11.3409C17.3236 11.3924 17.2893 11.44 17.2493 11.4838C17.1846 11.56 17.1065 11.6228 17.0226 11.6704H17.0207C16.8226 11.7847 16.5826 11.8209 16.3503 11.7581L11.4207 10.4362C11.2589 10.3928 11.1159 10.2972 11.014 10.1643C10.9121 10.0313 10.8568 9.86845 10.8569 9.70092V7.61902L11.495 7.98473L12.5712 8.60188L16.5941 10.9066L17.3522 11.3409Z" fill="#03D5DC"/>
<path d="M17.2493 11.4838C17.1846 11.56 17.1065 11.6228 17.0226 11.6704H17.0207C16.8226 11.7847 16.5826 11.8209 16.3503 11.7581L11.4207 10.4362C11.2589 10.3928 11.1159 10.2972 11.014 10.1643C10.9121 10.0313 10.8568 9.86845 10.8569 9.70092V7.61902L11.495 7.98473L11.591 9.32645C11.5992 9.44081 11.6416 9.55007 11.7127 9.64002C11.7838 9.72997 11.8803 9.79646 11.9897 9.83083L17.2493 11.4838Z" fill="#0195B7"/>
<path d="M16.5941 10.9067L13.0856 9.7006C12.9355 9.64901 12.8052 9.55185 12.713 9.42267C12.6208 9.29348 12.5713 9.13873 12.5713 8.98002V8.60193L16.5941 10.9067Z" fill="#80FFFF"/>
<path d="M16.5796 11.9807C16.4852 11.9807 16.3913 11.9683 16.3002 11.9438L11.3708 10.622C11.1681 10.5678 10.9889 10.4482 10.8612 10.2816C10.7334 10.1151 10.6643 9.91097 10.6646 9.70109V7.61899C10.6647 7.58534 10.6736 7.5523 10.6904 7.52317C10.7073 7.49404 10.7314 7.46982 10.7605 7.45293C10.7897 7.43603 10.8227 7.42705 10.8563 7.42688C10.89 7.42671 10.9231 7.43535 10.9524 7.45194L13.619 8.97956C13.641 8.99212 13.6602 9.00887 13.6756 9.02886C13.6911 9.04885 13.7025 9.07169 13.7091 9.09607C13.7157 9.12046 13.7175 9.1459 13.7142 9.17096C13.711 9.19603 13.7029 9.22021 13.6904 9.24213C13.6778 9.26406 13.6611 9.28329 13.6411 9.29874C13.6211 9.3142 13.5982 9.32556 13.5738 9.33218C13.5495 9.3388 13.524 9.34056 13.499 9.33735C13.4739 9.33414 13.4497 9.32602 13.4278 9.31347L11.0493 7.9508V9.7009C11.0491 9.82601 11.0902 9.9477 11.1662 10.047C11.2423 10.1464 11.349 10.2178 11.4699 10.2502L16.4002 11.5721C16.5167 11.6034 16.6393 11.6039 16.756 11.5734C16.8727 11.5429 16.9795 11.4826 17.0659 11.3984L14.131 9.71537C14.0867 9.69001 14.0544 9.6481 14.041 9.59886C14.0276 9.54962 14.0343 9.49708 14.0597 9.4528C14.0851 9.40852 14.127 9.37613 14.1762 9.36275C14.2254 9.34938 14.278 9.35611 14.3223 9.38147L17.4478 11.1738C17.4697 11.1864 17.489 11.2032 17.5045 11.2232C17.5199 11.2432 17.5313 11.2661 17.5379 11.2905C17.5445 11.3149 17.5462 11.3404 17.5429 11.3655C17.5397 11.3906 17.5315 11.4148 17.5188 11.4367C17.4238 11.6018 17.287 11.7391 17.1221 11.8345C16.9572 11.93 16.7701 11.9804 16.5796 11.9807Z" fill="black"/>
<path d="M12.1901 7.6191C12.1901 8.35624 11.5939 8.95243 10.8568 8.95243C10.1196 8.95243 9.52344 8.35624 9.52344 7.6191C9.52344 6.88196 10.1196 6.28577 10.8568 6.28577C10.8777 6.28577 10.9006 6.28577 10.9215 6.28958C11.4758 6.31434 11.9425 6.67815 12.1158 7.181C12.1634 7.31815 12.1901 7.46481 12.1901 7.6191Z" fill="#8CE624"/>
<path d="M11.9711 8.35238C11.8494 8.53676 11.684 8.68809 11.4895 8.7928C11.2951 8.89752 11.0776 8.95235 10.8568 8.95238C10.1196 8.95238 9.52344 8.35619 9.52344 7.61905C9.52344 7.15428 9.76153 6.74476 10.1234 6.50476C9.97955 6.72218 9.90333 6.97737 9.90439 7.23809C9.90439 7.97524 10.5006 8.57143 11.2377 8.57143C11.5101 8.57143 11.7615 8.49143 11.9711 8.35238Z" fill="#026000"/>
<path d="M12.116 7.18098C12.0552 7.31202 11.9581 7.42291 11.8363 7.50055C11.7144 7.57818 11.5729 7.61931 11.4284 7.61907C11.0075 7.61907 10.6665 7.27812 10.6665 6.85717C10.6665 6.6305 10.7656 6.42669 10.9217 6.28955C11.476 6.31431 11.9427 6.67812 12.116 7.18098Z" fill="#C6FF7D"/>
<path d="M8.38077 3.04767H1.90458C1.85406 3.04767 1.80561 3.0276 1.76989 2.99188C1.73417 2.95616 1.7141 2.90771 1.7141 2.85719C1.7141 2.80668 1.73417 2.75823 1.76989 2.72251C1.80561 2.68679 1.85406 2.66672 1.90458 2.66672H8.38077C8.69581 2.66672 8.9522 2.41034 8.9522 2.09529C8.9522 1.94386 8.89239 1.79986 8.78419 1.68996C8.56819 1.47719 8.19505 1.47529 7.97543 1.69186C7.91145 1.7562 7.86389 1.83499 7.83677 1.92158C7.82972 1.94592 7.81789 1.96862 7.80197 1.98833C7.78605 2.00805 7.76635 2.02439 7.74403 2.0364C7.72171 2.0484 7.69722 2.05583 7.67199 2.05826C7.64676 2.06068 7.62131 2.05804 7.59711 2.0505C7.57292 2.04296 7.55047 2.03066 7.53109 2.01434C7.5117 1.99801 7.49577 1.97798 7.48422 1.95542C7.47268 1.93286 7.46575 1.90822 7.46385 1.88295C7.46195 1.85768 7.46511 1.83228 7.47315 1.80824C7.51874 1.66245 7.59893 1.52986 7.70686 1.42177C7.88546 1.24335 8.12751 1.14304 8.37996 1.14282C8.6324 1.14261 8.87463 1.24251 9.05353 1.42062C9.23244 1.59959 9.333 1.84224 9.33315 2.09529C9.33315 2.62043 8.90591 3.04767 8.38077 3.04767ZM9.90458 4.19053H5.7141C5.66358 4.19053 5.61513 4.17046 5.57941 4.13474C5.54369 4.09902 5.52362 4.05057 5.52362 4.00005C5.52362 3.94953 5.54369 3.90109 5.57941 3.86536C5.61513 3.82964 5.66358 3.80958 5.7141 3.80958H9.90458C9.95509 3.80958 10.0035 3.82964 10.0393 3.86536C10.075 3.90109 10.0951 3.94953 10.0951 4.00005C10.0951 4.05057 10.075 4.09902 10.0393 4.13474C10.0035 4.17046 9.95509 4.19053 9.90458 4.19053ZM16.5712 4.19053H13.7617C13.7112 4.19053 13.6628 4.17046 13.627 4.13474C13.5913 4.09902 13.5712 4.05057 13.5712 4.00005C13.5712 3.94953 13.5913 3.90109 13.627 3.86536C13.6628 3.82964 13.7112 3.80958 13.7617 3.80958H16.5712C16.8863 3.80958 17.1427 3.55319 17.1427 3.23815C17.1427 3.08672 17.0829 2.94272 16.9747 2.83281C16.7585 2.62005 16.3857 2.61796 16.1659 2.83472C16.1025 2.89815 16.0543 2.97758 16.0274 3.06424C16.0124 3.11249 15.9789 3.15279 15.9342 3.1763C15.8894 3.1998 15.8372 3.20458 15.789 3.18958C15.7407 3.17457 15.7004 3.14102 15.6769 3.09629C15.6534 3.05157 15.6486 2.99934 15.6636 2.9511C15.7092 2.80524 15.7894 2.67257 15.8973 2.56443C16.0802 2.38443 16.3192 2.28577 16.5712 2.28577C16.8232 2.28577 17.0623 2.38443 17.244 2.56348C17.4229 2.74244 17.5235 2.9851 17.5236 3.23815C17.5236 3.76329 17.0964 4.19053 16.5712 4.19053ZM15.6189 7.23815C15.3667 7.23809 15.1249 7.13825 14.9461 6.96043C14.8376 6.85206 14.7571 6.71898 14.7114 6.57262C14.6964 6.52438 14.7012 6.47215 14.7247 6.42743C14.7482 6.38271 14.7885 6.34915 14.8368 6.33415C14.885 6.31914 14.9372 6.32392 14.982 6.34742C15.0267 6.37093 15.0602 6.41124 15.0752 6.45948C15.1021 6.54596 15.1503 6.62558 15.2147 6.68996C15.4326 6.90462 15.8046 6.90558 16.0244 6.689C16.1037 6.60882 16.1576 6.50696 16.1792 6.39624C16.2009 6.28553 16.1893 6.17088 16.146 6.06672C16.1026 5.96257 16.0295 5.87355 15.9357 5.81085C15.8419 5.74815 15.7317 5.71457 15.6189 5.71434H14.1427C14.0922 5.71434 14.0437 5.69427 14.008 5.65855C13.9723 5.62283 13.9522 5.57438 13.9522 5.52386C13.9522 5.47334 13.9723 5.4249 14.008 5.38917C14.0437 5.35345 14.0922 5.33339 14.1427 5.33339H15.6189C16.144 5.33339 16.5712 5.76062 16.5712 6.28577C16.5713 6.53792 16.4714 6.77982 16.2935 6.95853C16.1145 7.13736 15.8719 7.23792 15.6189 7.23815ZM7.80934 5.71434H2.85696C2.80644 5.71434 2.75799 5.69427 2.72227 5.65855C2.68655 5.62283 2.66648 5.57438 2.66648 5.52386C2.66648 5.47334 2.68655 5.4249 2.72227 5.38917C2.75799 5.35345 2.80644 5.33339 2.85696 5.33339H7.80934C7.85986 5.33339 7.9083 5.35345 7.94403 5.38917C7.97975 5.4249 7.99981 5.47334 7.99981 5.52386C7.99981 5.57438 7.97975 5.62283 7.94403 5.65855C7.9083 5.69427 7.85986 5.71434 7.80934 5.71434ZM4.76172 4.19053H0.952195C0.901678 4.19053 0.853229 4.17046 0.817508 4.13474C0.781787 4.09902 0.761719 4.05057 0.761719 4.00005C0.761719 3.94953 0.781787 3.90109 0.817508 3.86536C0.853229 3.82964 0.901678 3.80958 0.952195 3.80958H4.76172C4.81224 3.80958 4.86068 3.82964 4.89641 3.86536C4.93213 3.90109 4.9522 3.94953 4.9522 4.00005C4.9522 4.05057 4.93213 4.09902 4.89641 4.13474C4.86068 4.17046 4.81224 4.19053 4.76172 4.19053ZM9.90458 5.71434H8.76172C8.7112 5.71434 8.66275 5.69427 8.62703 5.65855C8.59131 5.62283 8.57124 5.57438 8.57124 5.52386C8.57124 5.47334 8.59131 5.4249 8.62703 5.38917C8.66275 5.35345 8.7112 5.33339 8.76172 5.33339H9.90458C9.95509 5.33339 10.0035 5.35345 10.0393 5.38917C10.075 5.4249 10.0951 5.47334 10.0951 5.52386C10.0951 5.57438 10.075 5.62283 10.0393 5.65855C10.0035 5.69427 9.95509 5.71434 9.90458 5.71434ZM10.857 9.14291C10.0168 9.14291 9.33315 8.45929 9.33315 7.6191C9.33315 6.77891 10.0168 6.09529 10.857 6.09529C11.6971 6.09529 12.3808 6.77891 12.3808 7.6191C12.3808 8.45929 11.6971 9.14291 10.857 9.14291ZM10.857 6.47624C10.2267 6.47624 9.7141 6.98881 9.7141 7.6191C9.7141 8.24938 10.2267 8.76196 10.857 8.76196C11.4872 8.76196 11.9998 8.24938 11.9998 7.6191C11.9998 6.98881 11.4872 6.47624 10.857 6.47624Z" fill="black"/>
<path d="M11.619 7.61902C11.619 8.03997 11.2781 8.38092 10.8571 8.38092C10.4362 8.38092 10.0952 8.03997 10.0952 7.61902C10.0952 7.49974 10.1233 7.38214 10.177 7.27568C10.2308 7.16922 10.3088 7.07688 10.4048 7.00609C10.5008 6.9353 10.6121 6.88804 10.7297 6.86812C10.8473 6.8482 10.9679 6.85617 11.0819 6.8914C11.0838 6.88949 11.0838 6.8914 11.0838 6.8914C11.2015 6.92837 11.3085 6.99323 11.3957 7.08045C11.4829 7.16767 11.5478 7.27467 11.5847 7.39235C11.5847 7.39235 11.5866 7.39235 11.5847 7.39425C11.6076 7.46663 11.619 7.54092 11.619 7.61902Z" fill="#A700F4"/>
<path d="M11.3752 8.17715C11.2381 8.30286 11.0571 8.38096 10.8571 8.38096C10.4362 8.38096 10.0952 8.04001 10.0952 7.61905C10.0952 7.24572 10.3638 6.93525 10.72 6.87048C10.6078 6.97461 10.5296 7.11012 10.4955 7.25934C10.4615 7.40857 10.4732 7.56459 10.5291 7.70707C10.585 7.84955 10.6826 7.97188 10.809 8.0581C10.9355 8.14433 11.085 8.19046 11.2381 8.19048C11.2857 8.19048 11.3314 8.18667 11.3752 8.17715Z" fill="#550082"/>
<path d="M11.5846 7.39242C11.5846 7.39242 11.5865 7.39242 11.5846 7.39433C11.5255 7.52576 11.3922 7.61909 11.2379 7.61909C11.0284 7.61909 10.8569 7.44766 10.8569 7.23814C10.8569 7.08385 10.9503 6.95052 11.0817 6.89147C11.0836 6.88957 11.0836 6.89147 11.0836 6.89147C11.2013 6.92845 11.3083 6.99331 11.3955 7.08053C11.4827 7.16775 11.5476 7.27475 11.5846 7.39242Z" fill="#C87DEF"/>
<path d="M10.8572 8.57139C10.332 8.57139 9.90479 8.14415 9.90479 7.61901C9.90479 7.09386 10.332 6.66663 10.8572 6.66663C11.3823 6.66663 11.8095 7.09386 11.8095 7.61901C11.8095 8.14415 11.3823 8.57139 10.8572 8.57139ZM10.8572 7.04758C10.5421 7.04758 10.2857 7.30396 10.2857 7.61901C10.2857 7.93405 10.5421 8.19044 10.8572 8.19044C11.1722 8.19044 11.4286 7.93405 11.4286 7.61901C11.4286 7.30396 11.1722 7.04758 10.8572 7.04758Z" fill="black"/>
</g>
<defs>
<clipPath id="clip0_2339_2943">
<rect width="20" height="20" fill="white"/>
</clipPath>
</defs>
</svg>
