<svg width="23" height="22" viewBox="0 0 23 22" fill="none" xmlns="http://www.w3.org/2000/svg">
<path d="M9.53379 20.6765C4.508 20.6765 0.433788 16.4083 0.433788 11.1432C0.433788 5.87808 4.508 1.60986 9.53379 1.60986C14.5596 1.60986 18.6338 5.87808 18.6338 11.1432C18.6338 16.4083 14.5596 20.6765 9.53379 20.6765Z" fill="#3CCDAA"/>
<path d="M12 0.4375C17.824 0.4375 22.5625 5.176 22.5625 11C22.5625 16.824 17.824 21.5625 12 21.5625C6.176 21.5625 1.4375 16.824 1.4375 11C1.4375 5.176 6.176 0.4375 12 0.4375ZM12 19.9375C16.9281 19.9375 20.9375 15.9281 20.9375 11C20.9375 6.07192 16.9281 2.0625 12 2.0625C7.07192 2.0625 3.0625 6.07192 3.0625 11C3.0625 15.9281 7.07192 19.9375 12 19.9375Z" fill="#112D55"/>
<path d="M10.3418 6.09265C10.4173 6.01715 10.5069 5.95725 10.6055 5.91639C10.7041 5.87553 10.8098 5.85449 10.9165 5.85449C11.0233 5.85449 11.129 5.87553 11.2276 5.91639C11.3262 5.95725 11.4158 6.01715 11.4912 6.09265L15.4411 10.0425C15.6946 10.2967 15.8369 10.6411 15.8369 11.0002C15.8369 11.3592 15.6946 11.7036 15.4411 11.9578L11.4912 15.9077C11.4159 15.9833 11.3265 16.0432 11.2279 16.0842C11.1294 16.1251 11.0238 16.1462 10.9171 16.1462C10.8104 16.1462 10.7047 16.1251 10.6062 16.0842C10.5077 16.0432 10.4182 15.9833 10.3429 15.9077C10.2674 15.8322 10.2075 15.7426 10.1666 15.644C10.1258 15.5454 10.1047 15.4397 10.1047 15.3329C10.1047 15.2262 10.1258 15.1205 10.1666 15.0219C10.2075 14.9233 10.2674 14.8337 10.3429 14.7582L14.1021 10.9991L10.3429 7.2399C10.2674 7.16445 10.2075 7.07485 10.1666 6.97624C10.1258 6.87763 10.1047 6.77194 10.1047 6.66519C10.1047 6.55845 10.1258 6.45275 10.1666 6.35414C10.2075 6.25553 10.2674 6.16594 10.3429 6.09049L10.3418 6.09265Z" fill="#112D55"/>
</svg>
