<svg width="39" height="39" viewBox="0 0 39 39" fill="none" xmlns="http://www.w3.org/2000/svg">
<g clip-path="url(#clip0_2416_3414)">
<path d="M38.7261 19.4217C38.7261 19.1909 38.722 18.9611 38.7139 18.7324C38.351 8.5627 29.9924 0.429688 19.7342 0.429688C9.4759 0.429688 1.11728 8.5627 0.754503 18.7324C0.746342 18.9611 0.742188 19.1909 0.742188 19.4217C0.742188 29.9106 10.498 37.7244 19.7342 37.7244C29.1377 37.7244 38.7261 29.9106 38.7261 19.4217Z" fill="#3CCDAA"/>
<path d="M19.7342 37.0352C9.47605 37.0352 1.11891 28.902 0.755986 18.7324C0.747252 18.9621 0.742652 19.1919 0.742188 19.4217C0.742188 29.9107 9.24518 38.4137 19.7342 38.4137C30.2231 38.4137 38.7261 29.9107 38.7261 19.4217C38.7261 19.1908 38.7206 18.9614 38.7124 18.7325C38.3494 28.902 29.9923 37.0352 19.7342 37.0352Z" fill="#053C5A"/>
<path d="M35.5668 18.7327C35.206 10.3 28.2554 3.57422 19.7338 3.57422C11.2123 3.57422 4.26169 10.3 3.90084 18.7327C3.89105 18.9613 3.90077 34.2617 19.7338 34.2617C35.5669 34.2617 35.5766 18.9613 35.5668 18.7327Z" fill="#E4EEF9"/>
<path d="M19.7335 33.891C11.212 33.891 4.26254 27.165 3.90154 18.7324C3.89136 18.962 3.88609 19.1918 3.88574 19.4216C3.88574 28.1741 10.981 35.2694 19.7335 35.2694C28.486 35.2694 35.5813 28.1742 35.5813 19.4217C35.5813 19.1907 35.5752 18.9611 35.5655 18.7325C35.2045 27.1651 28.255 33.891 19.7335 33.891Z" fill="#D5E0F2"/>
<path d="M25.4908 13.862C25.039 13.4165 24.3117 13.4215 23.8663 13.8731L21.1707 16.6059L21.4416 17.907L22.7007 18.3264L25.502 15.4865C25.9474 15.0348 25.9424 14.3075 25.4908 13.862ZM18.1081 16.7106L11.995 11.2628C11.5213 10.8407 10.7952 10.8825 10.3731 11.3562C9.95109 11.8298 9.99286 12.556 10.4665 12.978L16.7001 18.533L17.9991 18.0998L18.1081 16.7106Z" fill="#405B6C"/>
<path d="M27.8679 26.8281C27.7328 26.8282 27.602 26.7805 27.4987 26.6935L20.2229 20.5821C20.1073 20.4838 20.0352 20.3438 20.0225 20.1926C20.0098 20.0413 20.0575 19.8912 20.1551 19.775C20.2527 19.6588 20.3923 19.586 20.5435 19.5724C20.6946 19.5588 20.845 19.6056 20.9618 19.7025L28.2375 25.814C28.3278 25.8898 28.3925 25.9916 28.4229 26.1054C28.4533 26.2193 28.448 26.3397 28.4077 26.4504C28.3673 26.5612 28.2938 26.6568 28.1973 26.7243C28.1007 26.7919 27.9857 26.8281 27.8679 26.8281Z" fill="#6A6D6F"/>
<path d="M16.7012 18.5315L17.7739 19.4875L19.1516 19.0194L19.0769 17.5713L18.1092 16.709C17.436 17.1136 16.9264 17.7617 16.7012 18.5315ZM21.1717 16.6045L20.2596 17.5292V19.3442H21.6964L22.7017 18.325C22.4255 17.5775 21.8745 16.9637 21.1717 16.6045Z" fill="#2D4456"/>
<path d="M21.5724 18.7325C21.2933 17.9884 20.5754 17.4587 19.7338 17.4587C18.8923 17.4587 18.1744 17.9884 17.8953 18.7325C17.8148 18.9469 17.8899 20.6956 19.7338 20.6956C21.5778 20.6956 21.6529 18.9469 21.5724 18.7325Z" fill="#3CCDAA"/>
<path d="M19.7336 20.0062C18.892 20.0062 18.1744 19.4765 17.8953 18.7324C17.8126 18.9528 17.7703 19.1863 17.7705 19.4216C17.7705 20.5058 18.6494 21.3846 19.7335 21.3846C20.8177 21.3846 21.6965 20.5057 21.6965 19.4216C21.6965 19.179 21.6522 18.9469 21.5718 18.7324C21.2928 19.4764 20.5752 20.0062 19.7336 20.0062Z" fill="#3CCDAA"/>
<path d="M20.3087 7.37164V5.58914C20.3087 5.43652 20.248 5.29015 20.1401 5.18222C20.0322 5.0743 19.8858 5.01367 19.7332 5.01367C19.5806 5.01367 19.4342 5.0743 19.3263 5.18222C19.2184 5.29015 19.1577 5.43652 19.1577 5.58914V7.37164C19.1577 7.68946 19.4153 7.94712 19.7332 7.94712C20.0511 7.94712 20.3087 7.68946 20.3087 7.37164ZM19.1577 31.4717V33.2542C19.1577 33.572 19.4153 33.8297 19.7332 33.8297C20.0511 33.8297 20.3087 33.572 20.3087 33.2542V31.4717C20.3087 31.3191 20.248 31.1727 20.1401 31.0648C20.0322 30.9569 19.8858 30.8962 19.7332 30.8962C19.5806 30.8962 19.4342 30.9569 19.3263 31.0648C19.2184 31.1727 19.1577 31.3191 19.1577 31.4717ZM33.5657 19.9972C33.7184 19.9972 33.8647 19.9365 33.9727 19.8286C34.0806 19.7207 34.1412 19.5743 34.1412 19.4217C34.1412 19.2691 34.0806 19.1227 33.9727 19.0148C33.8647 18.9068 33.7184 18.8462 33.5657 18.8462H31.7832C31.6306 18.8462 31.4842 18.9068 31.3763 19.0148C31.2684 19.1227 31.2078 19.2691 31.2078 19.4217C31.2078 19.5743 31.2684 19.7207 31.3763 19.8286C31.4842 19.9365 31.6306 19.9972 31.7832 19.9972H33.5657ZM5.90067 18.8462C5.58277 18.8462 5.3252 19.1039 5.3252 19.4217C5.3252 19.7395 5.58277 19.9972 5.90067 19.9972H7.68317C7.83579 19.9972 7.98217 19.9365 8.09009 19.8286C8.19801 19.7207 8.25864 19.5743 8.25864 19.4217C8.25864 19.2691 8.19801 19.1227 8.09009 19.0148C7.98217 18.9068 7.83579 18.8462 7.68317 18.8462H5.90067Z" fill="#405B6C"/>
</g>
<defs>
<clipPath id="clip0_2416_3414">
<rect width="37.9839" height="37.9839" fill="white" transform="translate(0.742188 0.429688)"/>
</clipPath>
</defs>
</svg>
