<svg width="20" height="20" viewBox="0 0 20 20" fill="none" xmlns="http://www.w3.org/2000/svg">
<g clip-path="url(#clip0_2416_10865)">
<path d="M16.4733 10.7577H16.4156V8.81809C16.4156 6.99602 15.5783 5.28535 14.1166 4.11434V2.61297H13.0207V2.0402H14.1167V0H11.0596V0.291484H8.90594V0H5.84875V2.0402H6.94473V2.61297H5.84875V4.11422C4.38719 5.28527 3.54984 6.9959 3.54984 8.81809V10.7577H3.52742C3.41945 10.7577 3.33203 10.8451 3.33203 10.9531C3.33203 11.0611 3.41945 11.1485 3.52742 11.1485H3.54984V14.2755C3.54984 15.6413 4.0302 16.6674 4.97852 17.3295V19.6092C4.97852 19.825 5.15359 20 5.36945 20H14.596C14.8118 20 14.9868 19.825 14.9868 19.6092V17.3294C15.9352 16.6674 16.4156 15.6413 16.4156 14.2755V11.1485H16.4733C16.5812 11.1485 16.6687 11.0611 16.6687 10.9531C16.6687 10.9274 16.6636 10.902 16.6538 10.8783C16.644 10.8546 16.6296 10.833 16.6115 10.8149C16.5934 10.7967 16.5718 10.7823 16.5481 10.7725C16.5244 10.7627 16.499 10.7577 16.4733 10.7577Z" fill="#630344"/>
<path d="M13.3347 1.25793H12.2387V3.39418H13.3347V4.38672H11.8535V0.78125H13.3347V1.25793Z" fill="#F1AD00"/>
<path d="M11.4633 1.07422V4.3882H10.7503V3.55938H10.9057V2.48828H10.6723V1.80809H9.29387V2.48828H9.06059V3.55938H9.2159V4.3882H8.50293V1.07422H11.4633Z" fill="#990468"/>
<path d="M9.45141 2.8777H10.5148V3.16703H9.45141V2.8777ZM9.68469 2.19746H10.2814V2.4868H9.68469V2.19746ZM9.6068 3.55789H10.3594V4.38676H9.6068V3.55789ZM7.72684 3.39418V1.25793H6.63086V0.78125H8.11203V4.38672H6.63086V3.39418H7.72684Z" fill="#F1AD00"/>
<path d="M4.33203 8.8173C4.33203 7.26188 5.03707 5.7973 6.27129 4.77734H13.6948C14.9292 5.79719 15.6344 7.26188 15.6344 8.8173V10.7569H4.33203V8.8173Z" fill="#F1D900"/>
<path d="M5.76074 19.2181V17.3047C6.96449 17.8299 8.55148 17.9079 9.98301 17.9079C11.4146 17.9079 13.0017 17.8299 14.2056 17.3047V19.2181H5.76074Z" fill="#F1AD00"/>
<path d="M15.6344 14.2754C15.6344 15.4616 15.3295 16.1991 14.4946 16.7166C13.3392 17.422 11.5656 17.5171 9.98305 17.5171C8.40063 17.5171 6.62711 17.422 5.47172 16.7166C4.63754 16.1992 4.33203 15.4612 4.33203 14.2754V11.1484H15.6344V14.2754Z" fill="#F1AD00"/>
<path d="M6.9984 18.7722C7.17658 18.7722 7.32102 18.6277 7.32102 18.4496C7.32102 18.2714 7.17658 18.127 6.9984 18.127C6.82022 18.127 6.67578 18.2714 6.67578 18.4496C6.67578 18.6277 6.82022 18.7722 6.9984 18.7722Z" fill="#630344"/>
<path d="M12.9661 18.7722C13.1443 18.7722 13.2887 18.6277 13.2887 18.4496C13.2887 18.2714 13.1443 18.127 12.9661 18.127C12.788 18.127 12.6436 18.2714 12.6436 18.4496C12.6436 18.6277 12.788 18.7722 12.9661 18.7722Z" fill="#630344"/>
</g>
<defs>
<clipPath id="clip0_2416_10865">
<rect width="20" height="20" fill="white"/>
</clipPath>
</defs>
</svg>
