<svg width="20" height="20" viewBox="0 0 20 20" fill="none" xmlns="http://www.w3.org/2000/svg">
<g clip-path="url(#clip0_2416_10805)">
<path d="M3.52156 11.0098L5.21879 12.7071L1.99414 15.9316L0.296875 14.2344L3.52156 11.0098Z" fill="#5C5E70"/>
<path d="M3.52152 11.0098L4.20648 11.6949L0.981836 14.9194L0.296875 14.2344L3.52152 11.0098Z" fill="#3B3D4C"/>
<path d="M3.58379 9.77539L6.4532 12.6447L5.06844 14.0294L2.19922 11.16L3.58379 9.77539Z" fill="#E6E6E6"/>
<path d="M3.58379 9.77539L4.5382 10.7298L3.15363 12.1144L2.19922 11.16L3.58379 9.77539Z" fill="#CCCCCC"/>
<path d="M14.3301 6.97488L10.3571 3.00195L4.27699 6.1677C3.74598 6.44418 3.63645 7.15676 4.05973 7.5802L4.91953 8.44004L3.1123 10.2473L7.08477 14.2198C7.86648 15.0015 9.1334 15.0015 9.91512 14.2198L14.3301 9.80492C15.1113 9.02352 15.1113 7.75613 14.3301 6.97488ZM13.186 8.66129L10.7661 11.0816C10.6164 11.2312 10.373 11.2312 10.2234 11.0816L8.25223 9.11051L11.2148 6.14785L13.186 8.11855C13.3357 8.26824 13.3357 8.5116 13.186 8.66129Z" fill="#F4514A"/>
<path d="M10.7722 13.361C9.99051 14.1427 8.72355 14.1427 7.94184 13.361L3.96938 9.38848L3.1123 10.2456L7.08477 14.2181C7.86648 14.9998 9.1334 14.9998 9.91512 14.2181L14.3301 9.80324L10.7722 13.361ZM5.77664 7.58125L4.9168 6.72141C4.70594 6.51035 4.62734 6.22766 4.66719 5.96289L4.27699 6.16602C3.74598 6.44246 3.63645 7.15508 4.05973 7.57852L4.91953 8.43832L5.77664 7.58125Z" fill="#D13030"/>
<path d="M19.7033 2.4769L19.6964 2.48377L17.702 4.4787L17.0945 3.87127C16.1013 2.87807 14.4845 2.87807 13.4911 3.87127L12.3593 5.00315L10.3574 3.00135L11.4893 1.86991C13.5866 -0.227397 16.999 -0.227397 19.0963 1.86948L19.7033 2.4769Z" fill="#CCCCCC"/>
<path d="M19.6963 2.48383L17.7018 4.47875L17.0944 3.87133C16.1011 2.87813 14.4843 2.87813 13.491 3.87133L12.3591 5.00321L11.1875 3.83165L12.3194 2.69973C14.3415 0.677349 17.5864 0.605318 19.6963 2.48383Z" fill="#E6E6E6"/>
<path d="M16.2979 8.68696C16.2979 8.72477 16.2984 8.76247 16.2995 8.79985C16.3554 10.672 19.1786 10.672 19.2342 8.79985C19.2355 8.76235 19.2361 8.72477 19.2361 8.68696C19.2361 7.4777 18.6596 6.40348 17.7669 5.72278C16.8743 6.40348 16.2979 7.4777 16.2979 8.68696Z" fill="#FBD25F"/>
<path d="M17.7667 10.2039C17.0469 10.2039 16.3272 9.73602 16.2995 8.79988C16.2984 8.76221 16.2978 8.72452 16.2979 8.68684C16.2979 7.47785 16.874 6.40379 17.7672 5.72266C17.4136 6.40383 17.1858 7.47789 17.1858 8.68684C17.1858 8.7248 17.1858 8.76234 17.1861 8.79988C17.1972 9.73602 17.482 10.2039 17.7667 10.2039Z" fill="#F99041"/>
<path d="M13.5952 8.38857C13.5952 8.20666 13.5246 8.03592 13.3961 7.90744L11.4251 5.93646C11.3695 5.88085 11.294 5.84961 11.2154 5.84961C11.1367 5.84961 11.0613 5.88085 11.0057 5.93646L8.04288 8.89928C7.98728 8.95491 7.95605 9.03035 7.95605 9.109C7.95605 9.18766 7.98728 9.26309 8.04288 9.31873L10.014 11.2897C10.1423 11.418 10.3131 11.4888 10.4949 11.4888C10.6768 11.4888 10.8476 11.418 10.9759 11.2897L13.3961 8.86951C13.4595 8.80652 13.5097 8.73157 13.5439 8.64901C13.5781 8.56645 13.5955 8.47793 13.5952 8.38857ZM12.9766 8.45006L10.5564 10.8703C10.5484 10.8783 10.5388 10.8847 10.5282 10.8891C10.5177 10.8934 10.5064 10.8956 10.4949 10.8956C10.4835 10.8956 10.4722 10.8934 10.4616 10.8891C10.451 10.8847 10.4414 10.8783 10.4333 10.8703L8.67213 9.10908L9.56217 8.21904C9.81424 8.92947 10.493 9.4399 11.2889 9.4399C11.3278 9.43991 11.3664 9.43225 11.4024 9.41734C11.4384 9.40244 11.4711 9.38059 11.4986 9.35304C11.5262 9.32549 11.548 9.29279 11.5629 9.25679C11.5778 9.2208 11.5855 9.18222 11.5855 9.14326C11.5855 9.1043 11.5778 9.06572 11.5629 9.02973C11.548 8.99373 11.5262 8.96103 11.4986 8.93348C11.4711 8.90593 11.4384 8.88408 11.4024 8.86918C11.3664 8.85427 11.3278 8.84661 11.2889 8.84662C10.6454 8.84662 10.1151 8.35346 10.056 7.72525L11.2155 6.56576L12.9766 8.32709C12.9988 8.34904 13.002 8.37498 13.002 8.38857C13.002 8.40213 12.9988 8.42806 12.9766 8.45006Z" fill="black"/>
<path d="M19.9132 2.26682L19.3058 1.65968C18.6081 0.961902 17.7376 0.456824 16.7885 0.199128C16.6305 0.156081 16.4674 0.24948 16.4244 0.407566C16.4038 0.483484 16.4142 0.564468 16.4533 0.632711C16.4925 0.700954 16.5571 0.750866 16.633 0.771472C17.4824 1.00218 18.2617 1.45428 18.8864 2.07917L19.2839 2.47663L17.7017 4.05882L17.3042 3.66132C16.7677 3.12483 16.0533 2.82944 15.2928 2.82944C14.5323 2.82944 13.8179 3.12483 13.2814 3.66132L12.3593 4.58358L10.777 3.00124L11.6992 2.07917C12.7095 1.0687 14.1107 0.529167 15.5429 0.599206C15.7058 0.606824 15.8455 0.480925 15.8536 0.31737C15.8574 0.238803 15.8298 0.161938 15.777 0.103679C15.7241 0.0454211 15.6503 0.0105397 15.5717 0.00670639C13.9735 -0.0711061 12.4081 0.53116 11.2796 1.65968L10.1801 2.75925L4.14034 5.90378C3.80253 6.07956 3.57561 6.39635 3.51764 6.77276C3.45964 7.14921 3.58092 7.51964 3.85026 7.78885L4.5003 8.43901L1.98975 10.9496C1.93414 11.0052 1.9029 11.0806 1.9029 11.1593C1.9029 11.2379 1.93414 11.3134 1.98975 11.369L2.36604 11.7455L0.0868625 14.0245C0.0312344 14.0801 -1.09856e-05 14.1556 2.89736e-09 14.2343C1.09914e-05 14.3129 0.0312775 14.3884 0.0869211 14.444C0.142565 14.4997 0.218028 14.5309 0.296709 14.5309C0.37539 14.5309 0.450844 14.4996 0.506472 14.444L2.78553 12.1648L4.06327 13.4427L1.78425 15.7219C1.72989 15.7777 1.69972 15.8528 1.70025 15.9307C1.70079 16.0087 1.732 16.0833 1.78712 16.1384C1.84224 16.1936 1.91685 16.2248 1.99481 16.2253C2.07277 16.2259 2.14781 16.1957 2.2037 16.1414L4.48292 13.8621L4.85921 14.2384C4.88674 14.266 4.91944 14.2878 4.95544 14.3027C4.99143 14.3176 5.03001 14.3253 5.06897 14.3253C5.10792 14.3253 5.14651 14.3177 5.1825 14.3028C5.21848 14.2879 5.25117 14.266 5.27866 14.2384L5.98194 13.5351L6.8755 14.4287C7.30948 14.8627 7.88655 15.1017 8.50038 15.1017C9.11409 15.1017 9.6912 14.8627 10.1251 14.4287L10.6085 13.9453C10.6361 13.9178 10.6579 13.8851 10.6729 13.8491C10.6878 13.8131 10.6955 13.7746 10.6955 13.7356C10.6955 13.6967 10.6879 13.6581 10.673 13.6221C10.6581 13.5861 10.6362 13.5534 10.6087 13.5258C10.553 13.4702 10.4776 13.439 10.3989 13.439C10.3203 13.439 10.2448 13.4702 10.1892 13.5258L9.70561 14.0092C9.3837 14.3312 8.95569 14.5085 8.50034 14.5085C8.04487 14.5085 7.61686 14.3312 7.29491 14.0092L3.53194 10.2463L5.12952 8.64866C5.15709 8.62113 5.17896 8.58844 5.19388 8.55245C5.2088 8.51647 5.21649 8.47789 5.21649 8.43893C5.21649 8.39997 5.2088 8.3614 5.19388 8.32541C5.17896 8.28942 5.15709 8.25673 5.12952 8.22921L4.26991 7.36952C4.13561 7.23526 4.07518 7.05061 4.10405 6.86307C4.13288 6.67542 4.24608 6.51749 4.4144 6.42987L10.3017 3.36487L14.1205 7.18366C14.7852 7.84835 14.7852 8.92975 14.1205 9.5944L11.0008 12.7141C10.9465 12.7699 10.9163 12.845 10.9169 12.9229C10.9174 13.0009 10.9486 13.0755 11.0037 13.1306C11.0588 13.1858 11.1335 13.217 11.2114 13.2175C11.2894 13.2181 11.3644 13.1879 11.4203 13.1335L14.54 10.0139C15.436 9.11788 15.436 7.66007 14.54 6.76425L12.7788 5.00303L13.7011 4.08077C14.1254 3.65632 14.6907 3.42257 15.293 3.42257C15.8951 3.42257 16.4605 3.65632 16.8848 4.08077L17.4921 4.68796C17.5196 4.71551 17.5523 4.73737 17.5883 4.75229C17.6243 4.7672 17.6629 4.77488 17.7018 4.77488C17.7408 4.77488 17.7794 4.7672 17.8153 4.75229C17.8513 4.73737 17.884 4.71551 17.9116 4.68796L19.9133 2.68632C19.9689 2.63065 20.0001 2.5552 20.0001 2.47654C20.0001 2.39788 19.9688 2.32245 19.9132 2.26682H19.9132ZM5.06882 13.6093L4.69284 13.2335C4.69284 13.2333 4.69268 13.2332 4.69253 13.233L2.99526 11.5358C2.99499 11.5355 2.99483 11.5353 2.99452 11.5352L2.61885 11.1595L3.11233 10.6659L5.56229 13.1158L5.06882 13.6093Z" fill="black"/>
<path d="M17.9466 5.48654C17.895 5.44713 17.8318 5.42578 17.7668 5.42578C17.7018 5.42578 17.6386 5.44713 17.5869 5.48654C16.579 6.25509 16.001 7.4215 16.001 8.68661C16.001 8.72736 16.0016 8.7681 16.0028 8.80837C16.0359 9.91919 16.9153 10.5002 17.7667 10.5002C18.6182 10.5002 19.4975 9.91919 19.5306 8.80853C19.5318 8.7681 19.5325 8.72736 19.5325 8.68661C19.5325 7.4215 18.9543 6.25513 17.9466 5.48654H17.9466ZM18.9377 8.79083C18.9211 9.34638 18.5526 9.907 17.7668 9.907C16.9809 9.907 16.6125 9.34638 16.5959 8.79068C16.5949 8.75618 16.5944 8.72153 16.5944 8.68661C16.5944 7.68579 17.0189 6.75732 17.7668 6.10497C18.5147 6.75732 18.9393 7.68579 18.9393 8.68661C18.9393 8.72153 18.9386 8.75618 18.9377 8.79083Z" fill="black"/>
</g>
<defs>
<clipPath id="clip0_2416_10805">
<rect width="20" height="20" fill="white"/>
</clipPath>
</defs>
</svg>
