<svg width="52" height="53" viewBox="0 0 52 53" fill="none" xmlns="http://www.w3.org/2000/svg">
<g clip-path="url(#clip0_2416_3428)">
<path d="M49.4754 13.9979L1.42467 13.968L1.37481 39.7939L49.4256 39.8238L49.4754 13.9979Z" fill="#3CCDAA"/>
<mask id="mask0_2416_3428" style="mask-type:luminance" maskUnits="userSpaceOnUse" x="1" y="13" width="51" height="27">
<path d="M51.8544 13.9418L1.73926 13.6107L1.68939 39.4366L51.8046 39.7677L51.8544 13.9418Z" fill="white"/>
</mask>
<g mask="url(#mask0_2416_3428)">
<path opacity="0.5" d="M1.46574 14.0286L1.69045 39.4362L49.6055 39.3185L49.9491 14.2497L1.46574 14.0286ZM48.1706 37.5804L3.40095 37.7185L3.3364 15.6614L48.1706 15.8621L48.1706 37.5804Z" fill="black" fill-opacity="0.7"/>
</g>
<path opacity="0.5" d="M45.2605 19.8545L38.7998 19.7945C38.0653 19.8066 37.4875 19.234 37.4754 18.4996C37.4632 17.7653 38.0359 17.1876 38.7703 17.1755L45.231 17.2355C45.9655 17.2235 46.5433 17.796 46.5554 18.5304C46.5676 19.2648 45.9949 19.8424 45.2605 19.8545Z" fill="black" fill-opacity="0.7"/>
<path opacity="0.5" d="M12.6081 35.9092L6.14748 35.8492C5.413 35.8613 4.83519 35.2887 4.82303 34.5543C4.81088 33.82 5.38352 33.2423 6.118 33.2302L12.5786 33.2902C13.3131 33.2781 13.8909 33.8507 13.9031 34.5851C13.9152 35.3195 13.3426 35.8971 12.6081 35.9092Z" fill="black" fill-opacity="0.7"/>
<path opacity="0.5" d="M25.7479 18.7975C21.2696 18.7465 17.6841 22.3813 17.6335 26.8588C17.5828 31.3363 21.2185 34.9216 25.6968 34.9726C30.175 35.0237 33.7605 31.3889 33.8112 26.9114C33.7643 22.4078 30.1548 18.725 25.7479 18.7975Z" fill="black" fill-opacity="0.7"/>
<path fill-rule="evenodd" clip-rule="evenodd" d="M22.267 25.2598C22.6208 24.3867 23.2271 23.639 24.0083 23.1124C24.7895 22.5858 25.7101 22.3044 26.6522 22.304C27.6572 22.304 28.5888 22.6179 29.355 23.1529C29.48 23.244 29.5644 23.3805 29.59 23.533C29.6155 23.6856 29.5803 23.8421 29.4918 23.969C29.4033 24.0959 29.2686 24.183 29.1166 24.2117C28.9645 24.2404 28.8073 24.2083 28.6787 24.1224C28.2757 23.8419 27.8188 23.6481 27.3371 23.5533C26.8553 23.4585 26.3591 23.4647 25.8798 23.5716C25.4006 23.6785 24.9488 23.8838 24.553 24.1744C24.1572 24.465 23.826 24.8346 23.5805 25.2598H26.6522C26.809 25.2598 26.9593 25.3221 27.0702 25.433C27.1811 25.5438 27.2433 25.6942 27.2433 25.851C27.2433 26.0078 27.1811 26.1581 27.0702 26.269C26.9593 26.3799 26.809 26.4421 26.6522 26.4421H23.1543C23.088 26.8335 23.088 27.2331 23.1543 27.6245H26.6522C26.809 27.6245 26.9593 27.6867 27.0702 27.7976C27.1811 27.9085 27.2433 28.0588 27.2433 28.2156C27.2433 28.3724 27.1811 28.5228 27.0702 28.6336C26.9593 28.7445 26.809 28.8068 26.6522 28.8068H23.5805C23.826 29.232 24.1572 29.6016 24.553 29.8922C24.9488 30.1828 25.4006 30.3881 25.8798 30.495C26.3591 30.6019 26.8553 30.6081 27.3371 30.5133C27.8188 30.4185 28.2757 30.2247 28.6787 29.9442C28.8073 29.8583 28.9645 29.8262 29.1166 29.8549C29.2686 29.8836 29.4033 29.9707 29.4918 30.0976C29.5803 30.2245 29.6155 30.381 29.59 30.5336C29.5644 30.6861 29.48 30.8226 29.355 30.9137C28.5627 31.4676 27.6189 31.764 26.6522 31.7626C25.7101 31.7622 24.7895 31.4808 24.0083 30.9542C23.2271 30.4276 22.6208 29.6799 22.267 28.8068H20.7406C20.5838 28.8068 20.4334 28.7445 20.3226 28.6336C20.2117 28.5228 20.1494 28.3724 20.1494 28.2156C20.1494 28.0588 20.2117 27.9085 20.3226 27.7976C20.4334 27.6867 20.5838 27.6245 20.7406 27.6245H21.9595C21.9104 27.2319 21.9104 26.8347 21.9595 26.4421H20.7406C20.5838 26.4421 20.4334 26.3799 20.3226 26.269C20.2117 26.1581 20.1494 26.0078 20.1494 25.851C20.1494 25.6942 20.2117 25.5438 20.3226 25.433C20.4334 25.3221 20.5838 25.2598 20.7406 25.2598H22.267Z" fill="#3CCDAA"/>
<path d="M50.0592 13.9345L1.4834 13.8362L1.43353 39.6621L50.0093 39.7604L50.0592 13.9345Z" stroke="#263238" stroke-width="1.03644" stroke-miterlimit="10" stroke-linecap="round" stroke-linejoin="round"/>
</g>
<defs>
<clipPath id="clip0_2416_3428">
<rect width="51.824" height="51.8237" fill="white" transform="translate(0.130859 0.969055)"/>
</clipPath>
</defs>
</svg>
