<svg width="23" height="23" viewBox="0 0 23 23" fill="none" xmlns="http://www.w3.org/2000/svg">
<path fill-rule="evenodd" clip-rule="evenodd" d="M6.64109 9.26789C7.3033 7.63363 8.43813 6.23416 9.90031 5.24859C11.3625 4.26303 13.0855 3.73621 14.8489 3.73557C16.7298 3.73557 18.4736 4.3231 19.9076 5.32445C20.1417 5.49491 20.2996 5.75033 20.3474 6.03589C20.3953 6.32144 20.3293 6.61439 20.1637 6.85187C19.998 7.08935 19.7459 7.25243 19.4614 7.30612C19.1769 7.35981 18.8826 7.29983 18.6418 7.13905C17.8876 6.61398 17.0325 6.25122 16.1307 6.07376C15.229 5.8963 14.3002 5.908 13.4033 6.10812C12.5063 6.30823 11.6606 6.6924 10.9198 7.23631C10.179 7.78022 9.55922 8.47201 9.09966 9.26789H14.8489C15.1423 9.26789 15.4237 9.38447 15.6312 9.59197C15.8387 9.79947 15.9553 10.0809 15.9553 10.3744C15.9553 10.6678 15.8387 10.9492 15.6312 11.1567C15.4237 11.3642 15.1423 11.4808 14.8489 11.4808H8.3019C8.17788 12.2133 8.17788 12.9613 8.3019 13.6938H14.8489C15.1423 13.6938 15.4237 13.8103 15.6312 14.0178C15.8387 14.2253 15.9553 14.5068 15.9553 14.8002C15.9553 15.0937 15.8387 15.3751 15.6312 15.5826C15.4237 15.7901 15.1423 15.9067 14.8489 15.9067H9.09966C9.55922 16.7026 10.179 17.3944 10.9198 17.9383C11.6606 18.4822 12.5063 18.8663 13.4033 19.0665C14.3002 19.2666 15.229 19.2783 16.1307 19.1008C17.0325 18.9234 17.8876 18.5606 18.6418 18.0355C18.8826 17.8747 19.1769 17.8148 19.4614 17.8685C19.7459 17.9222 19.998 18.0852 20.1637 18.3227C20.3293 18.5602 20.3953 18.8531 20.3474 19.1387C20.2996 19.4242 20.1417 19.6797 19.9076 19.8501C18.4247 20.887 16.6583 21.4417 14.8489 21.439C13.0855 21.4384 11.3625 20.9116 9.90031 19.926C8.43813 18.9404 7.3033 17.5409 6.64109 15.9067H3.7842C3.49075 15.9067 3.20931 15.7901 3.00181 15.5826C2.79431 15.3751 2.67773 15.0937 2.67773 14.8002C2.67773 14.5068 2.79431 14.2253 3.00181 14.0178C3.20931 13.8103 3.49075 13.6938 3.7842 13.6938H6.06573C5.97374 12.959 5.97374 12.2156 6.06573 11.4808H3.7842C3.49075 11.4808 3.20931 11.3642 3.00181 11.1567C2.79431 10.9492 2.67773 10.6678 2.67773 10.3744C2.67773 10.0809 2.79431 9.79947 3.00181 9.59197C3.20931 9.38447 3.49075 9.26789 3.7842 9.26789H6.64109Z" fill="#212529"/>
</svg>
