<svg width="20" height="20" viewBox="0 0 20 20" fill="none" xmlns="http://www.w3.org/2000/svg">
<g clip-path="url(#clip0_2416_10822)">
<path d="M11.0463 5.97455H8.01855C7.97711 5.97455 7.93737 5.99101 7.90807 6.02031C7.87877 6.04962 7.8623 6.08936 7.8623 6.1308C7.8623 6.17224 7.87877 6.21198 7.90807 6.24128C7.93737 6.27059 7.97711 6.28705 8.01855 6.28705H9.37613V9.98408H9.68863V6.28705H11.0463C11.0877 6.28705 11.1275 6.27059 11.1568 6.24128C11.1861 6.21198 11.2025 6.17224 11.2025 6.1308C11.2025 6.08936 11.1861 6.04962 11.1568 6.02031C11.1275 5.99101 11.0877 5.97455 11.0463 5.97455Z" fill="#58595B"/>
<path d="M18.9326 18.1266H2.7998C2.36832 18.1266 2.01855 17.7768 2.01855 17.3453V14.0471C2.01855 13.6156 2.36832 13.2658 2.7998 13.2658H3.8209L5.73176 10.4917C5.83948 10.3353 5.98361 10.2074 6.15173 10.119C6.31985 10.0307 6.50692 9.98455 6.69684 9.98456H11.6868C12.0762 9.98456 12.4515 10.1299 12.7393 10.3921L15.8638 13.2395C15.878 13.2565 15.8975 13.2682 15.9193 13.2727L18.7763 13.8557C19.041 13.9097 19.2788 14.0535 19.4497 14.2628C19.6205 14.472 19.7139 14.7338 19.7139 15.0039V17.3453C19.7139 17.7768 19.3641 18.1266 18.9326 18.1266Z" fill="#76A34F"/>
<path d="M2.4873 17.0433C2.44586 17.0433 2.40612 17.0268 2.37682 16.9975C2.34752 16.9682 2.33105 16.9285 2.33105 16.887V15.7933C2.33105 15.7519 2.34752 15.7121 2.37682 15.6828C2.40612 15.6535 2.44586 15.637 2.4873 15.637C2.52874 15.637 2.56849 15.6535 2.59779 15.6828C2.62709 15.7121 2.64355 15.7519 2.64355 15.7933V16.887C2.64355 16.9285 2.62709 16.9682 2.59779 16.9975C2.56849 17.0268 2.52874 17.0433 2.4873 17.0433ZM2.4873 15.3245C2.44586 15.3245 2.40612 15.3081 2.37682 15.2788C2.34752 15.2495 2.33105 15.2097 2.33105 15.1683V15.1562C2.33105 15.1147 2.34752 15.075 2.37682 15.0457C2.40612 15.0164 2.44586 14.9999 2.4873 14.9999C2.52874 14.9999 2.56849 15.0164 2.59779 15.0457C2.62709 15.075 2.64355 15.1147 2.64355 15.1562V15.1683C2.64355 15.2097 2.62709 15.2495 2.59779 15.2788C2.56849 15.3081 2.52874 15.3245 2.4873 15.3245Z" fill="#91B56B"/>
<path d="M18.8812 13.8828C18.9141 13.991 18.9326 14.1051 18.9326 14.2231V16.5645C18.9326 16.996 18.5829 17.3457 18.1514 17.3457H2.01855C2.01855 17.7772 2.36832 18.127 2.7998 18.127H18.9326C19.3641 18.127 19.7139 17.7772 19.7139 17.3457V15.0043C19.7138 14.7528 19.6329 14.5079 19.4829 14.3059C19.333 14.1039 19.122 13.9556 18.8812 13.8828Z" fill="#648940"/>
<path d="M19.15 14.0019C19.263 14.1857 19.3229 14.3972 19.323 14.613V16.9544C19.323 17.3859 18.9733 17.7356 18.5418 17.7356H2.40898C2.29822 17.7356 2.18875 17.7119 2.08789 17.6661C2.21047 17.9373 2.48266 18.1263 2.79961 18.1263H18.9324C19.3639 18.1263 19.7137 17.7765 19.7137 17.345V15.0036C19.7137 14.8023 19.6618 14.6044 19.5631 14.4289C19.4643 14.2534 19.3221 14.1064 19.15 14.0019Z" fill="#5A7A39"/>
<path d="M5.74707 19.6228C6.79488 19.6228 7.64738 18.7704 7.64738 17.7225C7.64738 16.6746 6.79496 15.8222 5.74707 15.8222C4.69918 15.8222 3.84668 16.6746 3.84668 17.7225C3.84668 18.7704 4.69918 19.6228 5.74707 19.6228Z" fill="#414042"/>
<path d="M5.7473 18.559C6.2084 18.559 6.5834 18.1839 6.5834 17.7228C6.5834 17.2617 6.20832 16.8867 5.7473 16.8867C5.28621 16.8867 4.91113 17.2617 4.91113 17.7228C4.91113 18.1839 5.28621 18.559 5.7473 18.559Z" fill="#D1D3D4"/>
<path d="M5.74711 18.1797C5.99859 18.1797 6.2032 17.9751 6.2032 17.7236C6.2032 17.4721 5.99859 17.2675 5.74711 17.2675C5.49562 17.2675 5.29102 17.4721 5.29102 17.7236C5.29102 17.9751 5.49562 18.1797 5.74711 18.1797Z" fill="#F1F2F2"/>
<path d="M16.2939 19.6228C17.3418 19.6228 18.1943 18.7704 18.1943 17.7225C18.1943 16.6746 17.3418 15.8222 16.2939 15.8222C15.2461 15.8222 14.3936 16.6746 14.3936 17.7225C14.3936 18.7704 15.2461 19.6228 16.2939 19.6228Z" fill="#414042"/>
<path d="M16.2942 18.559C16.7553 18.559 17.1303 18.1839 17.1303 17.7228C17.1303 17.2617 16.7552 16.8867 16.2942 16.8867C15.8332 16.8867 15.458 17.2617 15.458 17.7228C15.458 18.1839 15.8331 18.559 16.2942 18.559Z" fill="#D1D3D4"/>
<path d="M16.294 18.1797C16.5455 18.1797 16.7501 17.9751 16.7501 17.7236C16.7501 17.4721 16.5455 17.2675 16.294 17.2675C16.0425 17.2675 15.8379 17.4721 15.8379 17.7236C15.8379 17.9751 16.0425 18.1797 16.294 18.1797Z" fill="#F1F2F2"/>
<path d="M10.6574 14.1757H10.0468C10.0054 14.1757 9.96561 14.1593 9.93631 14.13C9.90701 14.1007 9.89055 14.0609 9.89055 14.0195C9.89055 13.978 9.90701 13.9383 9.93631 13.909C9.96561 13.8797 10.0054 13.8632 10.0468 13.8632H10.6574C10.6989 13.8632 10.7386 13.8797 10.7679 13.909C10.7972 13.9383 10.8137 13.978 10.8137 14.0195C10.8137 14.0609 10.7972 14.1007 10.7679 14.13C10.7386 14.1593 10.6989 14.1757 10.6574 14.1757ZM6.36063 14.1757H5.75C5.70856 14.1757 5.66882 14.1593 5.63951 14.13C5.61021 14.1007 5.59375 14.0609 5.59375 14.0195C5.59375 13.978 5.61021 13.9383 5.63951 13.909C5.66882 13.8797 5.70856 13.8632 5.75 13.8632H6.36063C6.40207 13.8632 6.44181 13.8797 6.47111 13.909C6.50041 13.9383 6.51688 13.978 6.51688 14.0195C6.51688 14.0609 6.50041 14.1007 6.47111 14.13C6.44181 14.1593 6.40207 14.1757 6.36063 14.1757Z" fill="#414042"/>
<path d="M3.34887 14.0647C3.48645 13.9842 3.42934 13.7736 3.26996 13.7736H2.06871C2.03572 13.861 2.01873 13.9536 2.01855 14.0471V14.8434L3.34887 14.0647Z" fill="#D10028"/>
<path d="M3.26996 13.7736H3.03559C3.19496 13.7736 3.25207 13.9842 3.11449 14.0647L2.01855 14.7062V14.8434L3.34887 14.0647C3.48645 13.9842 3.42934 13.7736 3.26996 13.7736Z" fill="#B7022D"/>
<path d="M19.7144 16.0738V15.1093H19.0317C18.9964 15.1093 18.9614 15.1163 18.9287 15.1298C18.8961 15.1433 18.8664 15.1631 18.8415 15.1881C18.8165 15.2131 18.7967 15.2427 18.7831 15.2753C18.7696 15.308 18.7627 15.343 18.7627 15.3783V15.8049C18.7627 15.8402 18.7696 15.8752 18.7831 15.9078C18.7967 15.9404 18.8165 15.9701 18.8415 15.9951C18.8664 16.0201 18.8961 16.0399 18.9287 16.0534C18.9614 16.0669 18.9964 16.0739 19.0317 16.0738H19.7144Z" fill="#FFA91A"/>
<path d="M19.1533 15.8049V15.3783C19.1533 15.343 19.1603 15.308 19.1738 15.2754C19.1873 15.2427 19.2071 15.2131 19.2321 15.1881C19.2571 15.1631 19.2867 15.1433 19.3194 15.1298C19.352 15.1163 19.387 15.1093 19.4223 15.1093H19.0317C18.9964 15.1093 18.9614 15.1163 18.9287 15.1298C18.8961 15.1433 18.8664 15.1631 18.8415 15.1881C18.8165 15.2131 18.7967 15.2427 18.7831 15.2753C18.7696 15.308 18.7627 15.343 18.7627 15.3783V15.8049C18.7627 15.8762 18.791 15.9446 18.8415 15.9951C18.8919 16.0455 18.9603 16.0738 19.0317 16.0738H19.4223C19.351 16.0738 19.2825 16.0455 19.2321 15.9951C19.1817 15.9446 19.1533 15.8762 19.1533 15.8049Z" fill="#F79219"/>
<path d="M14.5424 12.9732L12.1626 10.827C12.0908 10.7624 11.9977 10.7265 11.901 10.7265H6.66862C6.6053 10.7265 6.54294 10.7419 6.4869 10.7713C6.43085 10.8008 6.38281 10.8434 6.3469 10.8956L4.90635 12.9869C4.89828 12.9986 4.89356 13.0123 4.89272 13.0266C4.89187 13.0408 4.89493 13.0549 4.90156 13.0676C4.90818 13.0802 4.91813 13.0907 4.93032 13.0981C4.94251 13.1054 4.95648 13.1093 4.97073 13.1093H14.4902C14.5617 13.1093 14.5956 13.0211 14.5424 12.9732Z" fill="#F1F2F2"/>
<path d="M14.5424 12.9738L14.1773 12.6445C14.1753 12.6831 14.1453 12.7192 14.0995 12.7192H5.09112L4.90635 12.9874C4.89828 12.9992 4.89356 13.0129 4.89272 13.0271C4.89187 13.0413 4.89493 13.0555 4.90156 13.0681C4.90818 13.0807 4.91813 13.0913 4.93032 13.0986C4.94251 13.106 4.95648 13.1099 4.97073 13.1099H14.4902C14.5617 13.1099 14.5956 13.0217 14.5424 12.9738Z" fill="#E6E7E8"/>
<path d="M11.9001 10.7265C11.9968 10.7265 12.09 10.7623 12.1618 10.827L14.5416 12.9731C14.5948 13.0211 14.5608 13.1093 14.4893 13.1093H4.96991C4.95567 13.1093 4.9417 13.1054 4.92951 13.0981C4.91731 13.0907 4.90737 13.0802 4.90074 13.0676C4.89411 13.0549 4.89105 13.0408 4.8919 13.0266C4.89274 13.0123 4.89746 12.9986 4.90553 12.9869L6.34608 10.8956C6.382 10.8434 6.43005 10.8008 6.48609 10.7714C6.54213 10.7419 6.60449 10.7265 6.6678 10.7265H11.9001ZM11.9001 10.414H6.6678C6.55385 10.414 6.44161 10.4417 6.34074 10.4947C6.23987 10.5477 6.15339 10.6244 6.08874 10.7182L4.64819 12.8096C4.56561 12.9295 4.55639 13.0841 4.62413 13.2129C4.69186 13.3417 4.82436 13.4218 4.96991 13.4218H14.4894C14.5684 13.4222 14.6457 13.3984 14.7109 13.3536C14.776 13.3089 14.826 13.2453 14.854 13.1713C14.8827 13.0977 14.8882 13.017 14.8698 12.9401C14.8514 12.8632 14.81 12.7938 14.751 12.7411L12.3711 10.595C12.242 10.4784 12.0741 10.4139 11.9001 10.414Z" fill="#58595B"/>
<path d="M13.7646 12.8283C13.7646 12.7537 13.7943 12.6822 13.847 12.6294C13.8998 12.5767 13.9713 12.5471 14.0459 12.5471H14.6739C14.7485 12.5471 14.82 12.5767 14.8727 12.6294C14.9255 12.6822 14.9551 12.7537 14.9551 12.8283C14.9551 12.9029 14.9255 12.9744 14.8727 13.0272C14.82 13.0799 14.7485 13.1096 14.6739 13.1096H14.0459C13.9713 13.1096 13.8998 13.0799 13.847 13.0272C13.7943 12.9744 13.7646 12.9029 13.7646 12.8283Z" fill="#414042"/>
<path d="M9.35855 10.7271H9.70582V13.1099H9.35855V10.7271ZM1.45707 16.1674H0.676758C0.375195 16.1674 0.129883 15.922 0.129883 15.6205V2.30072C0.129883 1.78377 0.55043 1.36322 1.06738 1.36322H7.6191V1.67572H1.06738C0.722773 1.67572 0.442383 1.95611 0.442383 2.30072V15.6205C0.442383 15.7497 0.547539 15.8549 0.676758 15.8549H1.45707V16.1674Z" fill="#58595B"/>
<path d="M7.62012 1.18049V1.8576C7.62012 1.95088 7.69574 2.0265 7.78902 2.0265H8.39574V1.01166H7.78902C7.74424 1.01166 7.70129 1.02944 7.66962 1.0611C7.63794 1.09276 7.62014 1.1357 7.62012 1.18049Z" fill="#808285"/>
<path d="M10.7715 1.88369H10.0488V2.35244H10.7715C10.8336 2.35244 10.8933 2.32775 10.9372 2.28379C10.9812 2.23984 11.0059 2.18022 11.0059 2.11806C11.0059 2.0559 10.9812 1.99629 10.9372 1.95234C10.8933 1.90838 10.8336 1.88369 10.7715 1.88369ZM10.7715 0.687439H10.0488V1.15619H10.7715C10.8336 1.15619 10.8933 1.1315 10.9372 1.08754C10.9812 1.04359 11.0059 0.983974 11.0059 0.921814C11.0059 0.859654 10.9812 0.80004 10.9372 0.756086C10.8933 0.712132 10.8336 0.687439 10.7715 0.687439Z" fill="#D1D3D4"/>
<path d="M10.0489 0.533142V2.50502C10.0489 2.54646 10.0324 2.5862 10.0031 2.6155C9.9738 2.64481 9.93406 2.66127 9.89262 2.66127H8.68223C8.64457 2.66127 8.60729 2.65385 8.5725 2.63944C8.53772 2.62503 8.50611 2.60391 8.47949 2.57729C8.45286 2.55066 8.43174 2.51906 8.41733 2.48427C8.40292 2.44948 8.39551 2.4122 8.39551 2.37455V0.663611C8.39551 0.625958 8.40292 0.588675 8.41733 0.553888C8.43174 0.519102 8.45286 0.487494 8.47949 0.46087C8.50611 0.434246 8.53772 0.413126 8.5725 0.398717C8.60729 0.384308 8.64457 0.376892 8.68223 0.376892H9.89262C9.93406 0.376892 9.9738 0.393354 10.0031 0.422657C10.0324 0.451959 10.0489 0.491702 10.0489 0.533142Z" fill="#58595B"/>
<path d="M2.01789 16.7382H1.61328C1.57184 16.7382 1.5321 16.7217 1.5028 16.6924C1.47349 16.6631 1.45703 16.6234 1.45703 16.5819V15.4396C1.45703 15.3981 1.47349 15.3584 1.5028 15.3291C1.5321 15.2998 1.57184 15.2833 1.61328 15.2833H2.01789V16.7382Z" fill="#808285"/>
<path d="M5.45449 8.94036C7.00585 8.94036 8.26348 7.68273 8.26348 6.13137C8.26348 4.58001 7.00585 3.32239 5.45449 3.32239C3.90313 3.32239 2.64551 4.58001 2.64551 6.13137C2.64551 7.68273 3.90313 8.94036 5.45449 8.94036Z" fill="#377DE2"/>
<path d="M7.23633 3.95892C7.64912 4.46066 7.87438 5.09045 7.87344 5.74017C7.87344 7.2915 6.61578 8.54916 5.06445 8.54916C4.41473 8.5501 3.78494 8.32484 3.2832 7.91205C3.79836 8.53947 4.57992 8.93978 5.45508 8.93978C7.00641 8.93978 8.26406 7.68213 8.26406 6.1308C8.26406 5.25572 7.86375 4.47408 7.23633 3.95892Z" fill="#2266D3"/>
<path d="M13.6098 8.94036C15.1611 8.94036 16.4188 7.68273 16.4188 6.13137C16.4188 4.58001 15.1611 3.32239 13.6098 3.32239C12.0584 3.32239 10.8008 4.58001 10.8008 6.13137C10.8008 7.68273 12.0584 8.94036 13.6098 8.94036Z" fill="#FFC91D"/>
<path d="M15.3906 3.95892C15.8034 4.46066 16.0287 5.09045 16.0277 5.74017C16.0277 7.2915 14.7701 8.54916 13.2188 8.54916C12.569 8.5501 11.9392 8.32484 11.4375 7.91205C11.9527 8.53947 12.7342 8.93978 13.6094 8.93978C15.1608 8.93978 16.4184 7.68213 16.4184 6.1308C16.4184 5.25572 16.018 4.47416 15.3906 3.95892Z" fill="#FFA91A"/>
<path d="M6.09627 4.06635H5.38455C5.33439 4.06635 5.28892 4.09588 5.26845 4.14166L4.29424 6.3247C4.2856 6.34406 4.28194 6.36527 4.28359 6.3864C4.28524 6.40753 4.29215 6.42791 4.30369 6.44569C4.31522 6.46347 4.33102 6.47809 4.34965 6.4882C4.36827 6.49832 4.38913 6.50361 4.41033 6.50361H5.45924L4.88549 8.12752C4.86627 8.18189 4.93814 8.22119 4.97353 8.17564L6.5997 6.08588C6.6647 6.00236 6.60517 5.88072 6.49939 5.88072H5.45744L6.21174 4.24674C6.22066 4.22736 6.22456 4.20605 6.2231 4.18478C6.22163 4.1635 6.21483 4.14293 6.20333 4.12496C6.19183 4.107 6.176 4.09222 6.15729 4.08197C6.13858 4.07173 6.1176 4.06635 6.09627 4.06635Z" fill="#FFC91D"/>
<path d="M5.82067 4.24674L5.11755 5.76986C5.11205 5.78176 5.10964 5.79486 5.11054 5.80794C5.11144 5.82102 5.11561 5.83366 5.12268 5.8447C5.12974 5.85575 5.13947 5.86483 5.15097 5.87113C5.16247 5.87742 5.17537 5.88072 5.18848 5.88072H5.457L6.2113 4.24674C6.22024 4.22737 6.22416 4.20606 6.22271 4.18478C6.22125 4.1635 6.21446 4.14293 6.20297 4.12496C6.19148 4.10699 6.17564 4.0922 6.15693 4.08196C6.13822 4.07172 6.11724 4.06635 6.09591 4.06635H5.70528C5.72661 4.06635 5.7476 4.07172 5.76631 4.08196C5.78502 4.0922 5.80085 4.10699 5.81234 4.12496C5.82384 4.14293 5.83063 4.1635 5.83208 4.18478C5.83354 4.20606 5.82961 4.22737 5.82067 4.24674ZM6.49903 5.88072H6.10841C6.21419 5.88072 6.27372 6.00244 6.20872 6.08588L5.10551 7.50361L4.88505 8.12752C4.86583 8.18189 4.9377 8.22119 4.97309 8.17572L6.59927 6.08595C6.66427 6.00244 6.60481 5.88072 6.49903 5.88072Z" fill="#FFA91A"/>
<path d="M12.7885 4.47603L12.5593 4.23447C12.5296 4.20322 12.4883 4.18549 12.4452 4.18549H12.1418C12.1335 4.18549 12.1255 4.1888 12.1196 4.19471C12.1137 4.20061 12.1104 4.20862 12.1104 4.21697V4.43564C12.1104 4.45299 12.1244 4.46713 12.1418 4.46713H12.3468C12.3554 4.46713 12.3637 4.47064 12.3696 4.47689L12.4892 4.60283L12.7885 4.47603Z" fill="#D1D3D4"/>
<path d="M13.2001 4.63535L12.8716 4.47113C12.8614 4.46605 12.8503 4.46323 12.8389 4.46287C12.8275 4.46251 12.8162 4.4646 12.8057 4.46902L12.4786 4.60753C12.4644 4.61357 12.4523 4.62366 12.4438 4.63653C12.4352 4.64941 12.4307 4.66451 12.4307 4.67996V4.92761L13.2001 4.63535Z" fill="#939598"/>
<path d="M14.4664 4.9865V5.11635H14.8438V4.93978C14.8438 4.88659 14.8333 4.83391 14.8129 4.78477C14.7925 4.73563 14.7627 4.69099 14.725 4.6534C14.6874 4.61582 14.6427 4.58602 14.5935 4.56572C14.5444 4.54542 14.4917 4.53501 14.4385 4.5351L13.4678 4.53666V4.85158H14.3314C14.406 4.85158 14.4664 4.91197 14.4664 4.9865Z" fill="#58595B"/>
<path d="M14.8891 5.11502H13.6248C13.5831 5.11502 13.5431 5.09845 13.5136 5.06896C13.4841 5.03946 13.4675 4.99946 13.4675 4.95775V4.53314L12.3125 4.97189C12.287 4.98162 12.265 4.99888 12.2494 5.0214C12.2339 5.04392 12.2256 5.07063 12.2256 5.09799V7.59713C12.2256 7.70073 12.2667 7.80008 12.34 7.87334C12.4133 7.9466 12.5126 7.98775 12.6162 7.98775H14.6334C14.737 7.98775 14.8364 7.9466 14.9096 7.87334C14.9829 7.80008 15.024 7.70073 15.024 7.59713V5.24994C15.024 5.17541 14.9636 5.11502 14.8891 5.11502Z" fill="#5E9CF7"/>
<path d="M14.8891 5.11517H14.6334V7.20666C14.6334 7.31026 14.5922 7.40961 14.519 7.48287C14.4457 7.55613 14.3464 7.59728 14.2428 7.59728H12.2256C12.2256 7.70088 12.2667 7.80024 12.34 7.8735C12.4133 7.94675 12.5126 7.98791 12.6162 7.98791H14.6334C14.737 7.98791 14.8364 7.94675 14.9096 7.8735C14.9829 7.80024 15.024 7.70088 15.024 7.59728V5.2501C15.024 5.17556 14.9636 5.11517 14.8891 5.11517Z" fill="#478CF7"/>
<path d="M12.7481 7.60156C12.7173 7.60157 12.6872 7.59249 12.6615 7.57545C12.6359 7.55841 12.6158 7.53416 12.6039 7.50577C12.592 7.47738 12.5888 7.4461 12.5946 7.41587C12.6004 7.38564 12.6151 7.3578 12.6366 7.33585L14.3902 5.55062C14.4506 5.48898 14.5496 5.4882 14.6112 5.54867C14.6727 5.60913 14.6737 5.70812 14.6131 5.7696L12.8595 7.55484C12.8289 7.58601 12.7884 7.60156 12.7481 7.60156Z" fill="#2266D3"/>
<path d="M14.5023 7.60125C14.4619 7.60125 14.4215 7.58563 14.3909 7.55446L12.6373 5.7693C12.6225 5.75474 12.6108 5.7374 12.6029 5.71828C12.5949 5.69916 12.5908 5.67865 12.5908 5.65793C12.5908 5.63721 12.595 5.61671 12.603 5.59761C12.611 5.57851 12.6228 5.5612 12.6376 5.54668C12.6523 5.53217 12.6699 5.52073 12.6891 5.51304C12.7083 5.50536 12.7289 5.50157 12.7496 5.50191C12.7703 5.50225 12.7908 5.5067 12.8097 5.51501C12.8287 5.52332 12.8459 5.53532 12.8602 5.55032L14.6137 7.33555C14.6353 7.35751 14.6499 7.38535 14.6557 7.41557C14.6615 7.44579 14.6582 7.47705 14.6463 7.50542C14.6344 7.5338 14.6144 7.55803 14.5888 7.57508C14.5632 7.59213 14.5331 7.60123 14.5023 7.60125Z" fill="#2266D3"/>
</g>
<defs>
<clipPath id="clip0_2416_10822">
<rect width="20" height="20" fill="white"/>
</clipPath>
</defs>
</svg>
