<svg width="20" height="20" viewBox="0 0 20 20" fill="none" xmlns="http://www.w3.org/2000/svg">
<path d="M3.75 0.625H16.25V19.375H3.75V0.625Z" fill="#F06423"/>
<path d="M3.75 0.625H10V19.375H3.75V0.625Z" fill="#FAA019"/>
<path d="M16.25 1.875H3.75C3.4048 1.875 3.125 1.5952 3.125 1.25C3.125 0.904805 3.4048 0.625 3.75 0.625H16.25C16.5952 0.625 16.875 0.904805 16.875 1.25C16.875 1.5952 16.5952 1.875 16.25 1.875ZM16.25 19.375H3.75C3.4048 19.375 3.125 19.0952 3.125 18.75C3.125 18.4048 3.4048 18.125 3.75 18.125H16.25C16.5952 18.125 16.875 18.4048 16.875 18.75C16.875 19.0952 16.5952 19.375 16.25 19.375ZM16.25 13.75H3.75C3.4048 13.75 3.125 13.4702 3.125 13.125C3.125 12.7798 3.4048 12.5 3.75 12.5H16.25C16.5952 12.5 16.875 12.7798 16.875 13.125C16.875 13.4702 16.5952 13.75 16.25 13.75ZM16.25 7.5H3.75C3.4048 7.5 3.125 7.2202 3.125 6.875C3.125 6.5298 3.4048 6.25 3.75 6.25H16.25C16.5952 6.25 16.875 6.5298 16.875 6.875C16.875 7.2202 16.5952 7.5 16.25 7.5Z" fill="#F06423"/>
<path d="M16.875 1.25H3.125C3.125 0.904805 3.4048 0.625 3.75 0.625H16.25C16.5952 0.625 16.875 0.904805 16.875 1.25ZM16.875 6.875H3.125C3.125 6.5298 3.4048 6.25 3.75 6.25H16.25C16.5952 6.25 16.875 6.5298 16.875 6.875ZM16.875 13.125H3.125C3.125 12.7798 3.4048 12.5 3.75 12.5H16.25C16.5952 12.5 16.875 12.7798 16.875 13.125ZM16.875 18.75H3.125C3.125 18.4048 3.4048 18.125 3.75 18.125H16.25C16.5952 18.125 16.875 18.4048 16.875 18.75Z" fill="#FAA019"/>
<path d="M5 1.875H6.25V6.25H5V1.875ZM5 13.75H6.25V18.125H5V13.75ZM5 7.5H6.25V12.5H5V7.5Z" fill="#FFD205"/>
<path d="M10 14.375C12.4162 14.375 14.375 12.4162 14.375 10C14.375 7.58375 12.4162 5.625 10 5.625C7.58375 5.625 5.625 7.58375 5.625 10C5.625 12.4162 7.58375 14.375 10 14.375Z" fill="#D7E6F0"/>
<path d="M5.9375 10.3125C5.85462 10.3125 5.77513 10.2796 5.71653 10.221C5.65792 10.1624 5.625 10.0829 5.625 10C5.625 7.58762 7.58762 5.625 10 5.625C10.0829 5.625 10.1624 5.65792 10.221 5.71653C10.2796 5.77513 10.3125 5.85462 10.3125 5.9375C10.3125 6.02038 10.2796 6.09987 10.221 6.15847C10.1624 6.21708 10.0829 6.25 10 6.25C7.93223 6.25 6.25 7.93223 6.25 10C6.25 10.0829 6.21708 10.1624 6.15847 10.221C6.09987 10.2796 6.02038 10.3125 5.9375 10.3125Z" fill="white"/>
<path d="M10 6.5625C9.79922 6.5625 9.60937 6.65305 9.48332 6.80934C8.94004 7.48297 7.5 9.38543 7.5 10.625C7.5 12.0057 8.6193 13.125 10 13.125C11.3807 13.125 12.5 12.0057 12.5 10.625C12.5 9.38543 11.06 7.48297 10.5167 6.80934C10.4545 6.73222 10.3758 6.67002 10.2863 6.6273C10.1969 6.58459 10.0991 6.56244 10 6.5625Z" fill="#463C4B"/>
<path d="M10 6.5625C9.79922 6.5625 9.60937 6.65301 9.48332 6.8093C8.94004 7.48297 7.5 9.38543 7.5 10.625H8.75C9.44035 10.625 10 10.0654 10 9.375V6.5625Z" fill="#555A6E"/>
</svg>
