<svg width="47" height="46" viewBox="0 0 47 46" fill="none" xmlns="http://www.w3.org/2000/svg">
<path d="M23.5 15.094C23.8812 15.094 24.2469 15.2454 24.5165 15.515C24.786 15.7846 24.9375 16.1502 24.9375 16.5315V21.5627H29.9687C30.35 21.5627 30.7156 21.7142 30.9852 21.9838C31.2548 22.2534 31.4062 22.619 31.4062 23.0002C31.4062 23.3815 31.2548 23.7471 30.9852 24.0167C30.7156 24.2863 30.35 24.4377 29.9687 24.4377H24.9375V29.469C24.9375 29.8502 24.786 30.2159 24.5165 30.4855C24.2469 30.755 23.8812 30.9065 23.5 30.9065C23.1188 30.9065 22.7531 30.755 22.4835 30.4855C22.214 30.2159 22.0625 29.8502 22.0625 29.469V24.4377H17.0312C16.65 24.4377 16.2844 24.2863 16.0148 24.0167C15.7452 23.7471 15.5938 23.3815 15.5938 23.0002C15.5938 22.619 15.7452 22.2534 16.0148 21.9838C16.2844 21.7142 16.65 21.5627 17.0312 21.5627H22.0625V16.5315C22.0625 16.1502 22.214 15.7846 22.4835 15.515C22.7531 15.2454 23.1188 15.094 23.5 15.094Z" fill="#053C5A"/>
<path fill-rule="evenodd" clip-rule="evenodd" d="M23.5 1.43726C11.591 1.43726 1.9375 11.0908 1.9375 22.9998C1.9375 34.9087 11.591 44.5623 23.5 44.5623C35.409 44.5623 45.0625 34.9087 45.0625 22.9998C45.0625 19.2119 44.085 15.6484 42.3665 12.552C42.2421 12.3278 42.0599 12.1409 41.8389 12.0108L24.2295 1.63635C24.0085 1.50607 23.7566 1.43732 23.5 1.43726ZM4.8125 22.9998C4.8125 13.1126 12.4909 5.01807 22.2106 4.35538C22.6943 7.86288 24.0757 11.0836 26.9414 13.1629C29.9903 15.3753 34.3934 16.0566 40.3382 14.8829C41.5597 17.4141 42.1919 20.1892 42.1875 22.9998C42.1875 33.321 33.8212 41.6873 23.5 41.6873C13.1787 41.6873 4.8125 33.321 4.8125 22.9998Z" fill="#053C5A"/>
</svg>
