<svg width="17" height="12" viewBox="0 0 17 12" fill="none" xmlns="http://www.w3.org/2000/svg">
<path d="M16.6247 4.64995L15.0872 11.4437C15.0567 11.5858 14.9776 11.7129 14.8635 11.803C14.7495 11.8931 14.6075 11.9407 14.4622 11.9374H2.4872C2.34186 11.9407 2.19994 11.8931 2.08586 11.803C1.97179 11.7129 1.8927 11.5858 1.8622 11.4437L0.374703 4.64995C0.34967 4.53515 0.3575 4.41563 0.397297 4.30508C0.437094 4.19454 0.507245 4.09745 0.599703 4.02495C0.692416 3.95219 0.80381 3.90713 0.921032 3.89497C1.03825 3.8828 1.15653 3.90403 1.2622 3.9562L4.9122 5.72495L7.9372 0.374948C7.99172 0.278762 8.07077 0.198757 8.16629 0.143095C8.26181 0.0874327 8.3704 0.0581055 8.48095 0.0581055C8.59151 0.0581055 8.70009 0.0874327 8.79562 0.143095C8.89114 0.198757 8.97019 0.278762 9.0247 0.374948L12.0497 5.7312L15.7247 3.94995C15.8311 3.89353 15.9516 3.86907 16.0716 3.87951C16.1916 3.88996 16.3061 3.93486 16.4011 4.00881C16.4962 4.08277 16.5679 4.18263 16.6076 4.29637C16.6472 4.41012 16.6532 4.5329 16.6247 4.64995Z" fill="#212529"/>
</svg>
