<svg width="254" height="243" viewBox="0 0 254 243" fill="none" xmlns="http://www.w3.org/2000/svg">
<path d="M242.801 142.959L242.725 142.996C233.819 149.807 230.046 161.397 233.216 172.122L233.254 172.198C238.31 189.244 225.782 206.441 207.97 206.893H207.895C196.65 207.194 186.763 214.344 183.027 224.918V224.955C177.065 241.739 156.764 248.324 142.084 238.201C132.969 231.994 120.92 231.67 111.33 238.201H111.292C96.6132 248.286 76.3112 241.738 70.3866 224.918C68.5579 219.756 65.2017 215.27 60.7615 212.052C56.3213 208.833 51.0063 207.034 45.519 206.893H45.4434C27.6325 206.441 15.1038 189.244 20.1607 172.197L20.1982 172.122C23.3673 161.396 19.5938 149.806 10.6889 142.995L10.6133 142.958C-3.53776 132.12 -3.53776 110.897 10.6133 100.059L10.6889 100.022C19.5938 93.2107 23.3673 81.6201 20.1607 70.8953V70.8199C15.0658 53.7736 27.632 36.576 45.4434 36.1246H45.519C56.7263 35.8235 66.6507 28.6735 70.3866 18.0995V18.0621C76.3107 1.27891 96.6132 -5.30633 111.292 4.81671H111.33C120.574 11.1763 132.801 11.1763 142.084 4.81671C156.911 -5.39388 177.1 1.37961 183.027 18.0621V18.0995C186.763 28.636 196.649 35.824 207.895 36.1246H207.97C225.782 36.576 238.31 53.7736 233.254 70.8199L233.216 70.8953C230.046 81.6201 233.819 93.2107 242.725 100.022L242.801 100.059C256.952 110.897 256.952 132.12 242.801 142.959Z" fill="#D8F5EE"/>
<path d="M140.115 24.6143C151.901 16.4755 167.933 21.8173 172.736 35.0615V35.0859L172.794 35.2471C176.052 44.4602 184.671 50.7449 194.476 51.0078H194.54L195.203 51.0342C209.037 51.7973 218.653 65.2926 214.741 78.6982L214.713 78.7578L214.688 78.8418C211.924 88.2185 215.214 98.3522 222.979 104.308L223.057 104.366L223.112 104.395C234.312 113.067 234.313 129.944 223.114 138.618L223.056 138.647L222.979 138.707C215.214 144.663 211.924 154.796 214.688 164.173L214.713 164.257L214.742 164.316C218.716 177.935 208.728 191.646 194.54 192.007H194.476C184.673 192.27 176.051 198.52 172.793 207.768L172.736 207.93V207.953C167.906 221.274 151.784 226.47 140.115 218.4L140.11 218.397L139.736 218.146C131.924 213.021 121.746 212.784 113.562 218.223H113.522L113.267 218.399C101.55 226.471 85.3477 221.23 80.6191 207.769L80.6182 207.767L80.4648 207.346C78.8399 203.01 75.9762 199.244 72.2256 196.518C68.3542 193.704 63.72 192.131 58.9355 192.007L58.9219 192.006H58.8486C44.6734 191.631 34.6966 177.927 38.6699 164.314L38.6992 164.256L38.7246 164.172C41.4875 154.795 38.1974 144.661 30.4326 138.706L30.3555 138.647L30.2988 138.619C19.099 129.946 19.0989 113.068 30.2988 104.395L30.3555 104.366L30.4326 104.308C38.1581 98.3823 41.4543 88.3201 38.7334 78.9814V78.915L38.6924 78.7754C34.6902 65.3475 44.3443 51.7991 58.208 51.0342L58.8721 51.0078H58.9365C68.7064 50.7445 77.3598 44.4939 80.6182 35.2461L80.6748 35.085V35.0605C85.4726 21.7421 101.595 16.5436 113.265 24.6133L113.521 24.791H113.559C121.589 30.1745 132.108 30.1147 140.113 24.6152L140.115 24.6143Z" fill="white" stroke="#053C5A" stroke-width="2"/>
<path d="M141.583 13.625C154.717 4.52698 172.588 10.5032 177.931 25.3213V25.3477L177.987 25.5088C181.584 35.7132 191.103 42.6756 201.934 42.9668L201.947 42.9678H202.028C217.822 43.3855 228.942 58.7072 224.506 73.9287L224.475 73.9932L224.45 74.0771C221.399 84.4622 225.03 95.6868 233.606 102.284L233.684 102.344L233.747 102.375C246.238 112.069 246.236 130.949 233.744 140.643L233.684 140.673L233.606 140.732C225.03 147.33 221.399 158.554 224.45 168.939L224.475 169.023L224.507 169.088C228.945 184.317 217.811 199.645 202.005 200.049H201.934C191.105 200.34 181.584 207.266 177.986 217.509L177.931 217.669V217.694C172.558 232.599 154.586 238.412 141.583 229.392L141.578 229.389L141.165 229.111C132.527 223.427 121.271 223.169 112.227 229.214H112.186L111.929 229.391C98.8786 238.41 80.8275 232.556 75.5586 217.509V217.507L75.3887 217.04C73.5944 212.238 70.432 208.066 66.29 205.046C62.0144 201.928 56.896 200.185 51.6113 200.048H51.541C35.735 199.644 24.5995 184.316 29.0391 169.086L29.0713 169.022L29.0957 168.938C32.1462 158.553 28.5145 147.329 19.9395 140.731L19.8623 140.672L19.7979 140.64C7.30888 130.945 7.30887 112.067 19.7988 102.374L19.8623 102.343L19.9395 102.284C28.4745 95.7176 32.1121 84.5659 29.1016 74.2197V74.1426L29.0596 74.0039C24.5304 58.7608 35.6948 43.3859 51.5176 42.9678H51.5986L51.6123 42.9668C62.4043 42.6751 71.9609 35.7505 75.5586 25.5078L75.6152 25.3467V25.3174C80.9537 10.4178 98.9237 4.60394 111.927 13.624L112.185 13.8027H112.225C121.097 19.7853 132.73 19.7251 141.581 13.626L141.583 13.625Z" fill="white" stroke="url(#paint0_linear_2416_10427)" stroke-width="2"/>
<path d="M139.608 44.8105C148.812 38.4408 161.331 42.6088 165.102 52.9678V52.9834L165.158 53.1455C167.765 60.534 174.664 65.5753 182.512 65.7861H182.562L183.081 65.8066C193.889 66.4044 201.409 76.9684 198.361 87.4727L198.34 87.5176L198.314 87.6016C196.103 95.1207 198.735 103.247 204.95 108.024L205.027 108.084L205.069 108.104C213.808 114.901 213.808 128.108 205.069 134.905L205.027 134.927L204.95 134.986C198.735 139.763 196.103 147.89 198.314 155.409L198.34 155.493L198.36 155.536C201.459 166.209 193.648 176.943 182.562 177.226H182.512C174.666 177.437 167.765 182.451 165.158 189.867L165.102 190.028V190.044C161.31 200.462 148.721 204.515 139.609 198.2L139.604 198.197L139.003 197.802C132.811 193.892 124.849 193.768 118.414 198.022H118.376L118.119 198.199C108.96 204.523 96.2927 200.419 92.5947 189.868L92.5938 189.866L92.3418 189.193C91.022 185.857 88.7826 182.96 85.8779 180.844C82.7795 178.587 79.0699 177.325 75.2402 177.226L75.2275 177.225H75.166C64.0948 176.927 56.2959 166.203 59.3896 155.539L59.4131 155.493L59.4375 155.409C61.6482 147.89 59.0168 139.763 52.8027 134.986L52.7256 134.927L52.6807 134.904C43.9444 128.107 43.9441 114.902 52.6807 108.105L52.7256 108.084L52.8027 108.024C58.976 103.279 61.6126 95.2264 59.4531 87.7471V87.6885L59.4121 87.5488C56.2817 77.0225 63.8333 66.4059 74.6709 65.8066L75.1895 65.7861H75.2412C83.0613 65.5749 89.9864 60.5604 92.5938 53.1436L92.6504 52.9834V52.9648C96.4173 42.5504 109.006 38.4948 118.118 44.8105L118.375 44.9883H118.41C124.831 49.2692 133.218 49.2107 139.606 44.8125L139.608 44.8105Z" fill="#053C5A" stroke="#053C5A" stroke-width="2"/>
<path d="M126.697 64C158.563 64 184.395 89.8319 184.396 121.697C184.396 153.563 158.563 179.396 126.697 179.396C94.8319 179.395 69 153.563 69 121.697C69.0003 89.8321 94.8321 64.0003 126.697 64Z" fill="#3CCDAA" stroke="url(#paint1_radial_2416_10427)" stroke-width="2"/>
<path d="M112.742 144.479L99.7623 130.669C96.3629 127.052 96.5383 121.365 100.154 117.965C103.77 114.562 109.46 114.744 112.856 118.359L119.053 124.948L145.39 94.8455C148.655 91.1097 154.333 90.7308 158.072 94.0001C161.808 97.2694 162.185 102.946 158.918 106.682L126.053 144.242C122.552 148.239 116.373 148.344 112.742 144.479Z" fill="white"/>
<defs>
<linearGradient id="paint0_linear_2416_10427" x1="203.045" y1="234.684" x2="153.428" y2="2.61645" gradientUnits="userSpaceOnUse">
<stop stop-color="#053C5A"/>
<stop offset="1" stop-color="#3CCDAA"/>
</linearGradient>
<radialGradient id="paint1_radial_2416_10427" cx="0" cy="0" r="1" gradientUnits="userSpaceOnUse" gradientTransform="translate(126.698 63.1978) rotate(90) scale(117)">
<stop stop-color="white"/>
<stop offset="0.504808" stop-color="#053C5A"/>
<stop offset="1" stop-color="white"/>
</radialGradient>
</defs>
</svg>
