<svg width="43" height="44" viewBox="0 0 43 44" fill="none" xmlns="http://www.w3.org/2000/svg">
<circle cx="19.4699" cy="25.7173" r="17.2527" fill="#053C5A" stroke="#3CCDAA" stroke-width="0.848491"/>
<path d="M18.7619 25.5763C20.7145 25.5763 22.2973 23.9935 22.2973 22.0409C22.2973 20.0884 20.7145 18.5056 18.7619 18.5056C16.8094 18.5056 15.2266 20.0884 15.2266 22.0409C15.2266 23.9935 16.8094 25.5763 18.7619 25.5763Z" fill="white"/>
<path d="M18.7623 27.3441C15.2198 27.3441 12.335 29.7198 12.335 32.6471C12.335 32.8451 12.4905 33.0007 12.6885 33.0007H24.8361C25.034 33.0007 25.1896 32.8451 25.1896 32.6471C25.1896 29.7198 22.3047 27.3441 18.7623 27.3441Z" fill="white"/>
<g clip-path="url(#clip0_2416_3399)">
<path d="M27.1729 3.54642C26.6304 4.00871 25.9559 4.28808 25.2455 4.34478C23.5875 4.47708 22.271 5.79362 22.1387 7.45156C22.082 8.16202 21.8026 8.8365 21.3403 9.37896C20.2616 10.6449 20.2616 12.5067 21.3403 13.7726C21.8026 14.3151 22.082 14.9895 22.1387 15.7C22.271 17.3579 23.5875 18.6745 25.2455 18.8068C25.9559 18.8635 26.6304 19.1429 27.1729 19.6051C28.4388 20.6839 30.3006 20.6839 31.5665 19.6051C32.109 19.1429 32.7835 18.8635 33.4939 18.8068C35.1519 18.6745 36.4684 17.3579 36.6007 15.7C36.6574 14.9895 36.9368 14.3151 37.3991 13.7726C38.4778 12.5067 38.4778 10.6449 37.3991 9.37896C36.9368 8.8365 36.6574 8.16202 36.6007 7.45156C36.4684 5.79362 35.1519 4.47708 33.4939 4.34478C32.7835 4.28808 32.109 4.00871 31.5665 3.54642C30.3006 2.46764 28.4388 2.46764 27.1729 3.54642Z" fill="#1DC053"/>
<path d="M26.7182 11.5758L28.4859 13.3435L32.4632 9.36617M25.2455 4.34478C25.9559 4.28808 26.6304 4.00871 27.1729 3.54642C28.4388 2.46764 30.3006 2.46764 31.5665 3.54642C32.109 4.00871 32.7835 4.28808 33.4939 4.34478C35.1519 4.47708 36.4684 5.79362 36.6007 7.45156C36.6574 8.16202 36.9368 8.8365 37.3991 9.37896C38.4778 10.6449 38.4778 12.5067 37.3991 13.7726C36.9368 14.3151 36.6574 14.9895 36.6007 15.7C36.4684 17.3579 35.1519 18.6745 33.4939 18.8068C32.7835 18.8635 32.109 19.1429 31.5665 19.6051C30.3006 20.6839 28.4388 20.6839 27.1729 19.6051C26.6304 19.1429 25.9559 18.8635 25.2455 18.8068C23.5875 18.6745 22.271 17.3579 22.1387 15.7C22.082 14.9895 21.8026 14.3151 21.3403 13.7726C20.2616 12.5067 20.2616 10.6449 21.3403 9.37896C21.8026 8.8365 22.082 8.16202 22.1387 7.45156C22.271 5.79362 23.5875 4.47708 25.2455 4.34478Z" stroke="#1DC053" stroke-width="2.18183" stroke-linecap="round" stroke-linejoin="round"/>
<path d="M26.7168 11.5759L28.4845 13.3435L32.4618 9.36624" stroke="white" stroke-width="2.18183" stroke-linecap="round" stroke-linejoin="round"/>
</g>
<defs>
<clipPath id="clip0_2416_3399">
<rect width="21.2123" height="21.2123" fill="white" transform="translate(18.7637 0.969757)"/>
</clipPath>
</defs>
</svg>
