<svg width="762" height="653" viewBox="0 0 762 653" fill="none" xmlns="http://www.w3.org/2000/svg">
<mask id="mask0_2416_3224" style="mask-type:alpha" maskUnits="userSpaceOnUse" x="0" y="0" width="762" height="653">
<path d="M10 0.5H752C757.247 0.5 761.5 4.75329 761.5 10V643C761.5 648.247 757.247 652.5 752 652.5H10C4.7533 652.5 0.5 648.247 0.5 643V10C0.5 4.7533 4.75329 0.5 10 0.5Z" fill="#3CCDAA" stroke="#BEE9DD"/>
</mask>
<g mask="url(#mask0_2416_3224)">
<path d="M0 20C0 8.95429 8.95431 0 20 0H742C753.046 0 762 8.9543 762 20V633C762 644.046 753.046 653 742 653H20C8.95431 653 0 644.046 0 633V20Z" fill="url(#paint0_linear_2416_3224)" fill-opacity="0.3"/>
<path opacity="0.7" d="M569.657 268.229C580.448 268.23 589.181 276.964 589.182 287.754V332.33C589.765 332.255 590.361 332.216 590.968 332.216H625.188C632.859 332.216 639.091 338.429 639.091 346.118V510.103C639.091 517.776 632.861 524.005 625.188 524.005H231.636V524.007H197.416C189.731 524.007 183.5 517.779 183.5 510.104V346.118C183.5 338.427 189.733 332.216 197.416 332.216H231.636C233.681 332.216 235.627 332.661 237.379 333.456V287.754C237.379 276.965 246.114 268.23 256.89 268.229H569.657ZM197.416 337.216C192.487 337.216 188.5 341.197 188.5 346.118V510.104C188.5 515.014 192.489 519.007 197.416 519.007H222.005V457.354C222.005 457.348 222.004 457.341 222.004 457.335V417.505C222.004 409.876 228.19 403.689 235.82 403.688H237.379V339.312C235.823 338.004 233.816 337.216 231.636 337.216H197.416ZM590.968 337.216C590.352 337.216 589.756 337.278 589.182 337.396V403.687H590.738L591.095 403.691C598.56 403.882 604.555 409.995 604.555 417.505V456.126C604.753 456.484 604.868 456.896 604.868 457.335V519.005H625.188C630.099 519.005 634.091 515.014 634.091 510.103V346.118C634.091 341.194 630.101 337.216 625.188 337.216H590.968ZM227.005 519.005H599.868V459.835H227.005V519.005ZM235.82 408.688C230.952 408.689 227.004 412.637 227.004 417.505V454.835H411.641V408.688H235.82ZM416.641 454.833H599.555V417.505C599.555 412.79 595.849 408.936 591.19 408.698L590.737 408.687H416.641V454.833ZM256.89 273.229C248.877 273.23 242.379 279.724 242.379 287.754V403.688H411.57V273.229H256.89ZM416.57 403.687H584.182V287.754C584.181 279.725 577.686 273.23 569.657 273.229H416.57V403.687ZM472.268 -108.893H644.864C645.088 -114.756 645.312 -120.616 645.531 -126.474L650.527 -126.286C645.809 0.0255127 639.821 127.393 635.285 253.026C635.373 253.038 635.463 253.052 635.556 253.064C637.109 253.277 639.282 253.56 641.755 253.843C646.727 254.412 652.814 254.969 657.523 254.969H707.084C712.268 254.969 717.88 254.393 722.231 253.807C724.378 253.518 726.201 253.227 727.492 253.01C725.277 127.45 723.764 -0.0565186 719.87 -126.303L724.868 -126.457C728.785 0.547958 730.294 128.846 732.528 255.055C732.548 256.193 731.799 257.191 730.723 257.501L730.503 257.554H730.499C730.497 257.554 730.494 257.555 730.491 257.556C730.484 257.557 730.474 257.559 730.461 257.562C730.435 257.566 730.398 257.573 730.35 257.582C730.253 257.6 730.111 257.627 729.929 257.66C729.563 257.727 729.032 257.822 728.363 257.935C727.025 258.16 725.131 258.461 722.898 258.762C718.45 259.361 712.589 259.969 707.084 259.969H657.523C652.515 259.969 646.193 259.384 641.187 258.811C638.67 258.523 636.46 258.235 634.879 258.019C634.088 257.911 633.453 257.82 633.016 257.757C632.797 257.725 632.627 257.701 632.512 257.684C632.454 257.675 632.41 257.669 632.38 257.664C632.365 257.662 632.353 257.659 632.345 257.658C632.341 257.658 632.338 257.658 632.336 257.657H632.333C632.333 257.657 632.332 257.656 632.706 255.185L632.332 257.656C631.076 257.466 630.162 256.364 630.208 255.095C630.209 255.061 630.211 255.026 630.212 254.992H485.502L485.445 257.607C485.417 258.881 484.44 259.917 483.198 260.041L482.946 260.054H482.698C482.535 260.054 482.292 260.055 481.979 260.056C481.354 260.058 480.446 260.062 479.319 260.071C477.066 260.089 473.941 260.126 470.454 260.198C463.454 260.344 455.081 260.635 449.354 261.208C437.532 262.391 419.297 262.388 406.511 262.388C399.785 262.388 394.548 261.164 390.957 259.915C389.163 259.291 387.781 258.661 386.83 258.176C386.355 257.933 385.987 257.726 385.729 257.574C385.601 257.498 385.499 257.436 385.425 257.39C385.388 257.366 385.357 257.347 385.334 257.332C385.323 257.325 385.313 257.318 385.305 257.312C385.301 257.31 385.297 257.308 385.294 257.306C385.293 257.305 385.291 257.304 385.29 257.303L385.288 257.302C385.287 257.301 385.294 257.287 386.673 255.22L385.286 257.3C384.562 256.817 384.14 255.991 384.175 255.121L385.008 234.044C387.597 114.602 390.393 -6.48184 392.215 -126.418L394.714 -126.38L397.214 -126.342C395.847 -36.3741 393.933 54.2394 391.969 144.309L390.007 234.152C390.007 234.167 390.006 234.182 390.006 234.196L389.231 253.784C389.995 254.168 391.122 254.678 392.6 255.192C395.718 256.277 400.4 257.388 406.511 257.388C419.398 257.388 437.34 257.385 448.856 256.233C454.799 255.639 463.347 255.346 470.35 255.2C473.863 255.127 477.011 255.09 479.279 255.071C479.72 255.068 480.128 255.066 480.499 255.063L480.955 234.171C475.796 114.7 471.485 -6.39323 466.555 -126.277L469.053 -126.38L471.55 -126.482C471.791 -120.622 472.029 -114.758 472.268 -108.893ZM475.153 -36.418C475.211 -34.9457 475.268 -33.4734 475.325 -32.001H549.463L549.719 -31.9883C550.979 -31.8602 551.963 -30.7952 551.963 -29.501V92.2725C551.963 93.6531 550.844 94.7724 549.463 94.7725H480.262C480.575 102.741 480.889 110.707 481.205 118.67H549.463L549.718 118.683C550.979 118.81 551.963 119.875 551.963 121.17V243.582C551.962 244.962 550.843 246.082 549.463 246.082H485.696L485.611 249.992H556.507V-36.418H475.153ZM561.507 249.992H630.394C630.427 249.067 630.46 248.142 630.494 247.217H568.573C567.193 247.217 566.073 246.097 566.073 244.717V120.138L566.086 119.882C566.214 118.621 567.279 117.638 568.573 117.638H635.584C635.899 110.019 636.218 102.397 636.535 94.7734H568.573C567.193 94.7734 566.073 93.6539 566.073 92.2734V-30.5312L566.086 -30.7871C566.214 -32.0476 567.279 -33.0312 568.573 -33.0312H641.854C641.901 -34.1602 641.946 -35.2891 641.992 -36.418H561.507V249.992ZM571.073 242.217H630.676C632.133 202.518 633.73 162.621 635.378 122.638H571.073V242.217ZM481.403 123.67C482.869 160.549 484.372 197.36 485.955 234.025C485.957 234.079 485.957 234.133 485.956 234.188L485.806 241.082H546.963V123.67H481.403ZM416.277 214.318L416.216 228.439L411.216 228.418L411.277 214.297L416.277 214.318ZM705.865 228.418L700.865 228.439L700.804 214.318L705.804 214.297L705.865 228.418ZM456.978 219.794L454.478 219.805L451.978 219.816L451.243 57.543L456.243 57.5195L456.978 219.794ZM665.838 57.543L665.102 219.816L662.602 219.805L660.102 219.794L660.838 57.5195L665.838 57.543ZM417.485 -60.8271L416.333 201.779L413.833 201.769L411.333 201.757L412.485 -60.8486L417.485 -60.8271ZM705.75 201.757L703.25 201.769L700.75 201.779L699.598 -60.8271L704.598 -60.8486L705.75 201.757ZM435.173 8.91309L437.672 8.95117L435.029 183.782L432.529 183.744L430.029 183.707L432.673 8.875L435.173 8.91309ZM687.052 183.707L684.553 183.744L682.053 183.782L679.409 8.95117L684.409 8.875L687.052 183.707ZM571.073 89.7734H636.743C638.38 50.5227 640.041 11.219 641.65 -28.0312H571.073V89.7734ZM475.52 -27.001C477.04 11.9156 478.541 50.8695 480.066 89.7725H546.963V-27.001H475.52ZM456.183 44.2002L453.683 44.2109L451.183 44.2227L450.721 -57.6865L455.721 -57.71L456.183 44.2002ZM666.36 -57.6865L665.898 44.2227L663.398 44.2109L660.898 44.2002L661.36 -57.71L666.36 -57.6865ZM437.233 -127.469L439.732 -127.431L437.837 -1.98633L435.337 -2.02441L432.837 -2.06152L434.733 -127.507L437.233 -127.469ZM684.245 -2.06152L681.746 -2.02441L679.246 -1.98633L677.35 -127.431L682.35 -127.507L684.245 -2.06152ZM472.837 -94.7979H506.072L506.328 -94.7852C507.589 -94.657 508.572 -93.5922 508.572 -92.2979V-51.6777C508.572 -50.2974 507.453 -49.1778 506.072 -49.1777H474.651C474.753 -46.5914 474.856 -44.0048 474.957 -41.418H556.507V-103.893H472.471C472.593 -100.862 472.715 -97.83 472.837 -94.7979ZM561.507 -41.418H642.195C642.301 -44.0049 642.406 -46.5914 642.511 -49.1777H611.479C610.099 -49.1777 608.98 -50.2974 608.979 -51.6777V-92.2979L608.992 -92.5537C609.12 -93.8142 610.185 -94.7978 611.479 -94.7979H644.321C644.439 -97.8302 644.558 -100.862 644.675 -103.893H561.507V-41.418ZM548.791 -94.6846C550.051 -94.5564 551.035 -93.4915 551.035 -92.1973V-51.4551C551.035 -50.0744 549.916 -48.9552 548.535 -48.9551H512.145C510.764 -48.9551 509.645 -50.0744 509.645 -51.4551V-92.1973L509.657 -92.4531C509.785 -93.7136 510.85 -94.6973 512.145 -94.6973H548.535L548.791 -94.6846ZM605.408 -94.6982C606.789 -94.6982 607.908 -93.5789 607.908 -92.1982V-51.4561L607.896 -51.2002C607.767 -49.9398 606.702 -48.9561 605.408 -48.9561H569.018L568.762 -48.9688C567.501 -49.0969 566.518 -50.1619 566.518 -51.4561V-92.1982C566.518 -93.5789 567.637 -94.6982 569.018 -94.6982H605.408ZM514.645 -53.9551H546.035V-89.6973H514.645V-53.9551ZM571.518 -53.9561H602.908V-89.6982H571.518V-53.9561ZM473.038 -89.7979C473.514 -77.9316 473.987 -66.0574 474.455 -54.1777H503.572V-89.7979H473.038ZM613.979 -54.1777H642.715C643.194 -66.0591 643.663 -77.9335 644.126 -89.7979H613.979V-54.1777ZM740.215 -136.991C743.956 -136.802 746.931 -133.707 746.931 -129.92L746.921 -129.556C746.731 -125.815 743.638 -122.841 739.851 -122.841L739.561 -122.847C736.575 -122.968 734.093 -124.95 733.175 -127.656H704.304L704.563 -68.6855L702.063 -68.6738L699.563 -68.6631L699.304 -127.656H417.778L417.519 -68.6631L415.019 -68.6738L412.519 -68.6855L412.778 -127.656H387.233C386.285 -124.864 383.671 -122.841 380.557 -122.841L380.192 -122.85C376.572 -123.033 373.67 -125.936 373.486 -129.556L373.478 -129.92C373.478 -133.83 376.647 -137 380.557 -137L380.848 -136.994C383.737 -136.877 386.154 -135.015 387.14 -132.442L387.233 -132.184H733.175C734.123 -134.977 736.737 -137 739.851 -137L740.215 -136.991ZM455.664 -70.252L450.664 -70.2285L450.411 -125.89L455.411 -125.913L455.664 -70.252ZM666.669 -125.89L666.417 -70.2285L661.417 -70.252L661.669 -125.913L666.669 -125.89ZM380.557 -132C379.408 -132 378.478 -131.069 378.478 -129.92C378.478 -128.771 379.408 -127.841 380.557 -127.841C381.425 -127.841 382.205 -128.399 382.499 -129.264L382.721 -129.919L382.498 -130.576C382.204 -131.442 381.424 -132 380.557 -132ZM739.851 -132C738.983 -132 738.203 -131.442 737.909 -130.576L737.686 -129.92L737.909 -129.263C738.203 -128.399 738.982 -127.841 739.851 -127.841C740.999 -127.841 741.93 -128.771 741.931 -129.92C741.931 -131.068 740.999 -132 739.851 -132Z" fill="url(#paint1_linear_2416_3224)"/>
</g>
<g filter="url(#filter0_d_2416_3224)">
<rect x="50" y="152" width="296" height="315" rx="12.5606" fill="white"/>
</g>
<g filter="url(#filter1_d_2416_3224)">
<rect x="40" y="32" width="316" height="425" rx="12.5606" fill="white"/>
</g>
<circle cx="368" cy="69" r="51.3036" fill="white" stroke="#070707" stroke-width="1.39286"/>
<path d="M362.912 43.4873L343.426 53.3722C341.969 53.9999 341.023 55.4466 341.023 57.0483V66.2668C341.023 74.5023 343.296 82.6637 347.972 89.8686C351.482 95.2772 356.137 102.19 363.882 106.143H367.379C376.001 103.483 382.437 96.3943 386.371 90.3315C391.047 83.1265 393.32 74.9656 393.32 66.7296V57.0483C393.32 55.4466 392.375 53.9999 390.918 53.3722L368.72 43.807C367.731 43.381 363.901 43.0612 362.912 43.4873Z" fill="#33CFA9"/>
<path opacity="0.3" d="M362.912 43.4873L343.426 53.3722C341.969 53.9999 341.023 55.4466 341.023 57.0483V66.2668C341.023 74.5023 343.296 82.6637 347.972 89.8686C351.482 95.2772 356.137 102.19 363.882 106.143H367.379C376.001 103.483 382.437 96.3943 386.371 90.3315C391.047 83.1265 393.32 74.9656 393.32 66.7296V57.0483C393.32 55.4466 392.375 53.9999 390.918 53.3722L368.72 43.807C367.731 43.381 363.901 43.0612 362.912 43.4873Z" fill="black"/>
<path d="M362.207 43.6067L340.01 53.2026C338.553 53.8323 337.607 55.2837 337.607 56.8905V66.1386C337.607 74.4006 339.88 82.5882 344.556 89.8163C348.491 95.899 354.583 102.162 363.963 106.143C372.585 103.475 379.021 96.3629 382.955 90.2806C387.631 83.0526 389.904 74.8654 389.904 66.603V56.8905C389.904 55.2837 388.959 53.8323 387.502 53.2026L365.304 43.6067C364.315 43.1793 363.196 43.1793 362.207 43.6067Z" fill="#3CCDAA"/>
<path d="M389.798 63.8579C389.803 63.8579 389.807 63.894 389.812 63.9649C389.817 64.0503 389.823 64.1539 389.83 64.2797C389.84 64.578 389.855 64.9824 389.872 65.4924C389.89 66.0192 389.916 66.6638 389.879 67.4126C389.867 67.7879 389.855 68.1881 389.842 68.6117C389.835 68.8242 389.827 69.0424 389.82 69.2666C389.8 69.4899 389.78 69.7193 389.759 69.9539C389.67 70.8922 389.607 71.9247 389.418 73.0178C389.332 73.5648 389.264 74.1353 389.153 74.7152C389.033 75.2932 388.909 75.8875 388.781 76.4974C388.216 78.9205 387.434 81.5547 386.295 84.1857C385.152 86.8147 383.802 89.1886 382.436 91.2448C381.719 92.2487 381.059 93.2189 380.35 94.0535C380.002 94.4753 379.685 94.9008 379.345 95.2766C379.005 95.6514 378.677 96.0112 378.365 96.3551C377.755 97.0579 377.13 97.6171 376.608 98.1364C376.343 98.3907 376.103 98.6361 375.868 98.8448C375.631 99.0484 375.413 99.2356 375.215 99.405C374.833 99.7282 374.531 99.9844 374.308 100.173C374.212 100.251 374.133 100.316 374.068 100.369C374.013 100.411 373.984 100.432 373.982 100.429C373.979 100.425 374.003 100.399 374.053 100.349C374.115 100.291 374.188 100.221 374.278 100.136C374.494 99.9384 374.786 99.671 375.156 99.3337C375.349 99.1596 375.561 98.9677 375.793 98.7585C376.023 98.545 376.258 98.295 376.518 98.037C377.029 97.5101 377.645 96.9444 378.243 96.2364C378.551 95.8907 378.874 95.5285 379.209 95.1518C379.544 94.7741 379.856 94.3477 380.199 93.925C380.898 93.089 381.549 92.1188 382.257 91.1167C383.607 89.0638 384.942 86.7007 386.079 84.0867C387.212 81.4708 387.995 78.8539 388.57 76.4458C388.699 75.8402 388.826 75.2491 388.949 74.6748C389.063 74.0987 389.134 73.5315 389.225 72.9878C389.421 71.9013 389.493 70.8739 389.592 69.9398C389.616 69.7062 389.639 69.4782 389.661 69.2558C389.671 69.033 389.681 68.8153 389.691 68.6037C389.71 68.182 389.729 67.7832 389.746 67.4093C389.797 66.6634 389.783 66.0202 389.78 65.4943C389.781 64.9848 389.782 64.5804 389.782 64.2825C389.785 64.1563 389.787 64.0526 389.788 63.9667C389.791 63.895 389.794 63.8584 389.798 63.8579Z" fill="#263238"/>
<path d="M392.178 40.4285C385.156 41.2637 384.483 41.9411 383.651 48.9999C382.821 41.9415 382.147 41.2641 375.125 40.4285C382.147 39.5933 382.821 38.916 383.651 31.8572C384.483 38.916 385.156 39.5929 392.178 40.4285Z" fill="#3CCDAA"/>
<path d="M381.944 55.8552C381.919 55.8864 374.393 65.1926 369.721 73.7302C364.845 82.6406 362.225 90.1076 362.214 90.1404C356.56 79.8923 346.701 76.0378 346.701 76.0378C354.97 75.7288 360.969 80.1804 360.969 80.1804C366.558 69.7636 375.509 59.4061 381.944 55.8552Z" fill="white"/>
<path d="M381.944 55.8552C381.919 55.8864 374.393 65.1926 369.721 73.7302C364.845 82.6406 362.225 90.1076 362.214 90.1404C356.56 79.8923 346.701 76.0378 346.701 76.0378C354.97 75.7288 360.969 80.1804 360.969 80.1804C366.558 69.7636 375.509 59.4061 381.944 55.8552Z" stroke="black"/>
<path d="M97.9963 333H260.771C273.734 333 283.719 325.8 282.959 317C282.199 308.2 270.969 301 258.006 301H95.2294C82.2656 301 72.2807 308.2 73.0407 317C73.8007 325.8 85.0306 333 97.9963 333Z" fill="url(#paint2_linear_2416_3224)"/>
<path d="M306 302C314.284 302 321 308.716 321 317C321 325.284 314.284 332 306 332C297.716 332 291 325.284 291 317C291 308.716 297.716 302 306 302Z" fill="#053C5A"/>
<path opacity="0.2" d="M96.4238 315H261.031C263.885 315 266.082 313.874 265.914 312.5C265.746 311.124 263.274 310 260.422 310H95.8148C92.9604 310 90.7641 311.126 90.9319 312.5C91.097 313.874 93.5694 315 96.4238 315Z" fill="#053C5A"/>
<path opacity="0.2" d="M127.431 324H262.024C264.883 324 267.082 322.874 266.914 321.5C266.746 320.124 264.27 319 261.415 319H126.821C123.963 319 121.764 320.126 121.932 321.5C122.1 322.876 124.573 324 127.431 324Z" fill="#053C5A"/>
<path d="M97.9963 381H260.771C273.734 381 283.719 373.8 282.959 365C282.199 356.2 270.969 349 258.006 349H95.2294C82.2656 349 72.2807 356.2 73.0407 365C73.8007 373.8 85.0306 381 97.9963 381Z" fill="url(#paint3_linear_2416_3224)"/>
<path d="M97.9963 437H260.771C273.734 437 283.719 429.8 282.959 421C282.199 412.2 270.969 405 258.006 405H95.2294C82.2656 405 72.2807 412.2 73.0407 421C73.8007 429.8 85.0306 437 97.9963 437Z" fill="url(#paint4_linear_2416_3224)"/>
<path d="M304.431 353.094L302.48 360.418C302.256 361.257 301.507 361.826 300.626 361.826H292.925C290.951 361.826 290.278 364.352 291.942 365.511L298.439 370.037C299.183 370.557 299.537 371.475 299.313 372.314L297.361 379.638C296.862 381.516 299.102 383.076 300.63 381.916L306.595 377.389C307.279 376.869 308.246 376.869 308.99 377.389L315.486 381.916C317.151 383.076 319.208 381.516 318.487 379.638L315.678 372.314C315.357 371.475 315.602 370.555 316.284 370.037L322.249 365.511C323.777 364.35 322.808 361.826 320.834 361.826H313.133C312.25 361.826 311.434 361.257 311.112 360.418L308.303 353.094C307.587 351.216 304.933 351.216 304.431 353.094Z" fill="#053C5A"/>
<path d="M295.4 413.084L296.361 429.452C296.443 430.859 297.65 432 299.058 432H313.385C314.793 432 315.867 430.859 315.785 429.452L314.589 409.063C314.506 407.656 313.299 406.515 311.891 406.515H301.586L295.4 413.084Z" fill="#053C5A"/>
<path d="M301.584 406.515L295.4 413.085H299.422C300.83 413.085 301.905 411.945 301.822 410.537L301.584 406.515ZM303.226 402L303.485 406.405L303.721 410.427C303.792 411.636 303.38 412.78 302.563 413.647C301.746 414.513 300.631 414.988 299.422 414.988H295.4H290.999L294.015 411.785L300.199 405.214L303.226 402Z" fill="white"/>
<path opacity="0.2" d="M96.4238 363H261.031C263.885 363 266.082 361.874 265.914 360.5C265.746 359.124 263.274 358 260.422 358H95.8148C92.9604 358 90.7641 359.126 90.9319 360.5C91.097 361.874 93.5694 363 96.4238 363Z" fill="#053C5A"/>
<path opacity="0.2" d="M96.4238 419H261.031C263.885 419 266.082 417.874 265.914 416.5C265.746 415.124 263.274 414 260.422 414H95.8148C92.9604 414 90.7641 415.126 90.9319 416.5C91.097 417.874 93.5694 419 96.4238 419Z" fill="#053C5A"/>
<path opacity="0.2" d="M127.431 372H262.024C264.883 372 267.082 370.874 266.914 369.5C266.746 368.124 264.27 367 261.415 367H126.821C123.963 367 121.764 368.126 121.932 369.5C122.1 370.876 124.573 372 127.431 372Z" fill="#053C5A"/>
<path opacity="0.2" d="M127.431 428H262.024C264.883 428 267.082 426.874 266.914 425.5C266.746 424.124 264.27 423 261.415 423H126.821C123.963 423 121.764 424.126 121.932 425.5C122.1 426.876 124.573 428 127.431 428Z" fill="#053C5A"/>
<path opacity="0.1" d="M152.28 252.663C124.511 225.695 122.616 182.604 148.048 156.416C173.48 130.229 216.608 130.862 244.377 157.83C272.146 184.798 274.041 227.889 248.609 254.076C223.177 280.263 180.049 279.631 152.28 252.663Z" fill="#053C5A"/>
<path d="M246 250.34C257.434 238.217 263.177 222.111 262.173 204.991L260.879 205.067C261.861 221.828 256.244 237.59 245.058 249.451L246 250.34Z" fill="#053C5A"/>
<path d="M134.504 205.522L135.798 205.446C135.458 199.654 135.905 193.925 137.129 188.418L135.864 188.136C134.616 193.762 134.158 199.612 134.504 205.522Z" fill="#053C5A"/>
<path d="M140.861 177.146C143.515 171.229 147.135 165.818 151.62 161.062C157.829 154.479 165.264 149.556 173.719 146.431L173.269 145.215C164.625 148.41 157.024 153.442 150.677 160.173C146.092 165.033 142.391 170.567 139.677 176.616L140.861 177.146Z" fill="#053C5A"/>
<path d="M158.206 246.561C134.009 223.063 132.359 185.516 154.519 162.697C176.679 139.879 214.258 140.43 238.454 163.928C262.651 187.426 264.301 224.973 242.141 247.792C219.981 270.61 182.402 270.059 158.206 246.561Z" fill="#053C5A"/>
<path d="M204.936 213.296C204.924 213.293 204.91 213.288 204.899 213.285C202.049 212.659 200.717 210.216 200.11 207.439C200.049 207.153 199.992 206.865 199.945 206.572C199.931 206.488 199.918 206.404 199.905 206.318C199.733 205.145 199.661 203.949 199.643 202.828C205.047 202.238 209.58 198.029 209.834 191.762C210.026 187.022 208.946 180.853 206.372 175.907C206.89 175.979 207.499 176.173 208.122 176.633C208.225 176.71 208.35 176.734 208.466 176.715C208.577 176.695 208.679 176.636 208.752 176.538C208.898 176.339 208.857 176.058 208.657 175.91C207.627 175.149 206.613 174.97 205.857 174.977C205.674 174.66 205.492 174.344 205.295 174.042C206.116 174.06 206.92 174.061 207.698 174.043C206.842 168.055 195.324 163.023 187.466 167.618C183.972 168.318 178.195 173.312 178.195 173.312C178.195 173.312 177.969 177.643 178.465 182.872V182.873H178.466C178.98 188.282 180.267 194.653 183.384 198.198C182.567 196.362 182.367 194.421 182.561 192.441C183.385 193.244 184.332 193.74 185.254 193.972C185.628 194.794 186.048 195.547 186.526 196.259C187.746 201.817 188.609 209.232 186.753 213.484C185.086 213.589 183.459 213.74 181.923 213.918C181.795 213.933 181.672 213.963 181.545 213.983C180.536 213.386 179.554 212.727 178.61 211.992C166.952 202.911 179.333 192.274 176.411 182.513C173.488 172.751 175.959 169.048 183.934 168.725C180.619 163.459 201.626 155.026 210.85 171.403C219.209 186.244 221.91 193.648 218.902 205.257C217.949 208.931 215.332 211.983 211.757 214.193C211.175 214.034 210.583 213.902 209.967 213.826C208.323 213.618 206.613 213.437 204.936 213.296Z" fill="#053C5A"/>
<path d="M223.069 236.116C223.635 235.151 224.088 234.256 224.414 233.538C225.294 236.151 226.163 238.768 227.025 241.35C227.817 243.686 228.59 246.018 229.39 248.244L230.589 251.395L231.114 252.639C231.293 252.989 231.114 252.791 231.134 252.884C231.367 253.227 232.169 253.977 232.963 254.66C233.117 254.791 233.287 254.925 233.447 255.058C229.898 257.446 226.053 259.45 221.95 260.981C221.862 255.058 221.128 248.901 220.361 247.252C224.938 244.005 224.231 240.473 223.069 236.116Z" fill="#FFC3BD"/>
<path d="M218.524 218.637C218.636 218.778 218.746 218.935 218.857 219.086C218.747 218.937 218.633 218.791 218.518 218.648L218.524 218.637Z" fill="#053C5A"/>
<path d="M221.524 227.318C221.529 224.368 220.622 221.598 219.043 219.335C222.331 223.909 225.134 231.769 225.134 231.769C225.134 231.769 224.903 232.464 224.414 233.537C224.088 234.255 223.635 235.149 223.069 236.115C222.376 233.515 221.517 230.621 221.524 227.318Z" fill="#053C5A"/>
<path d="M176.336 246.121C177.71 244.156 179.136 241.661 180.42 239.027C180.816 239.238 181.211 239.447 181.626 239.626C185.511 235.518 188.833 232.203 188.833 232.203C193.683 222.094 190.684 216.331 181.496 213.993C180.093 214.251 178.742 214.84 177.474 215.61C178.652 214.787 180.03 214.216 181.548 213.981C181.675 213.962 181.797 213.932 181.927 213.916C183.463 213.74 185.089 213.587 186.756 213.482C186.404 214.428 194.721 226.382 199.937 228.353C202.082 222.965 208.081 222.594 208.081 222.594C208.081 222.594 213.677 221.448 215.417 224.97C214.272 217.691 207.261 213.854 204.935 213.295C206.612 213.437 208.322 213.618 209.968 213.824C210.584 213.902 211.178 214.034 211.758 214.191C214.491 214.933 216.82 216.52 218.517 218.646C218.632 218.791 218.746 218.935 218.856 219.084C218.917 219.167 218.982 219.249 219.042 219.333C220.622 221.595 221.529 224.365 221.522 227.316C221.516 230.619 222.373 233.513 223.067 236.115C224.23 240.471 224.935 244.005 220.36 247.25C221.127 248.899 221.861 255.056 221.949 260.979C215.74 263.296 208.964 264.561 201.817 264.561C192.822 264.561 184.185 262.549 176.338 258.966C176.516 254.817 176.576 249.983 176.226 244.487L176.227 244.483C176.264 245.029 176.309 245.591 176.336 246.121Z" fill="#053C5A"/>
<path d="M208.079 222.597C208.079 222.597 202.079 222.967 199.935 228.356C194.719 226.384 186.402 214.431 186.754 213.485C186.754 213.485 198.556 219.22 208.079 222.597Z" fill="white"/>
<path d="M204.898 213.285C204.909 213.287 204.923 213.293 204.935 213.296C207.26 213.854 214.271 217.691 215.417 224.97C213.676 221.449 208.079 222.597 208.079 222.597C209.875 215.784 204.898 213.285 204.898 213.285Z" fill="white"/>
<path d="M199.946 206.574C199.932 206.489 199.919 206.405 199.906 206.32C199.919 206.404 199.932 206.488 199.946 206.574Z" fill="#FFC3BD"/>
<path d="M186.527 196.26C187.551 197.782 188.863 199.103 190.723 200.412C191.442 200.918 192.181 201.315 192.925 201.664C194.6 204.563 197.586 206.64 200.153 207.663C200.136 207.59 200.125 207.513 200.11 207.44C200.717 210.216 202.049 212.659 204.899 213.285C204.899 213.285 209.875 215.784 208.08 222.596C198.557 219.219 186.755 213.484 186.755 213.484C188.611 209.232 187.748 201.817 186.527 196.26Z" fill="#FFC3BD"/>
<path d="M200.109 207.439C200.047 207.153 199.993 206.864 199.945 206.572C199.993 206.865 200.048 207.153 200.109 207.439Z" fill="#053C5A"/>
<path opacity="0.2" d="M200.109 207.439C200.047 207.153 199.993 206.864 199.945 206.572C199.993 206.865 200.048 207.153 200.109 207.439Z" fill="black"/>
<path d="M199.644 202.828C199.663 203.949 199.733 205.146 199.906 206.318C199.73 205.143 199.659 203.946 199.641 202.828H199.644Z" fill="#053C5A"/>
<path opacity="0.2" d="M199.644 202.828C199.663 203.949 199.733 205.146 199.906 206.318C199.73 205.143 199.659 203.946 199.641 202.828H199.644Z" fill="black"/>
<path d="M192.925 201.664C195.161 202.71 197.467 203.066 199.641 202.829C199.658 203.946 199.729 205.144 199.907 206.32C199.92 206.405 199.933 206.488 199.947 206.574C199.995 206.865 200.049 207.154 200.112 207.441C200.128 207.515 200.137 207.591 200.154 207.664C197.588 206.639 194.601 204.563 192.925 201.664Z" fill="#FFC3BD"/>
<path opacity="0.2" d="M192.925 201.664C195.161 202.71 197.467 203.066 199.641 202.829C199.658 203.946 199.729 205.144 199.907 206.32C199.92 206.405 199.933 206.488 199.947 206.574C199.995 206.865 200.049 207.154 200.112 207.441C200.128 207.515 200.137 207.591 200.154 207.664C197.588 206.639 194.601 204.563 192.925 201.664Z" fill="black"/>
<path d="M192.925 201.664C192.18 201.315 191.441 200.919 190.723 200.412C188.863 199.103 187.551 197.782 186.527 196.26C186.049 195.548 185.629 194.795 185.255 193.974C185.499 194.035 185.744 194.107 185.98 194.129C188.141 194.335 188.756 191.896 187.767 189.71C187.465 189.044 187.012 188.321 186.471 187.686C187.078 185.802 186.851 183.771 186.081 182.088C188.058 178.042 190.143 174.338 190.334 171.594C195.608 173.228 200.767 173.942 205.297 174.045C205.494 174.347 205.677 174.663 205.859 174.979C205.148 174.986 204.663 175.156 204.623 175.17C204.39 175.257 204.272 175.516 204.358 175.748C204.445 175.98 204.703 176.098 204.935 176.012C204.982 175.994 205.567 175.799 206.373 175.909C208.947 180.855 210.027 187.022 209.835 191.764C209.581 198.031 205.048 202.239 199.644 202.829L199.64 202.83C197.467 203.066 195.161 202.71 192.925 201.664ZM195.817 176.204C195.731 176.216 193.677 176.51 192.603 178.754C192.496 178.978 192.592 179.246 192.816 179.354C192.924 179.406 193.042 179.41 193.148 179.376C193.261 179.34 193.359 179.258 193.415 179.143C194.281 177.335 195.916 177.099 195.936 177.096C196.178 177.061 196.355 176.838 196.322 176.591C196.288 176.346 196.063 176.172 195.817 176.204ZM196.269 182.609C196.278 182.615 196.287 182.615 196.298 182.622C195.928 182.836 195.726 183.41 195.849 184.058C195.993 184.81 196.509 185.342 197 185.248C197.491 185.153 197.773 184.467 197.629 183.716C197.546 183.283 197.334 182.942 197.082 182.732C197.643 182.519 197.973 181.742 197.973 181.742L196.269 182.609ZM206.898 182.073C206.816 181.642 206.605 181.301 206.352 181.091C206.913 180.878 207.244 180.101 207.244 180.101L205.539 180.968C205.55 180.974 205.557 180.974 205.568 180.981C205.198 181.195 204.996 181.769 205.119 182.416C205.263 183.167 205.779 183.7 206.27 183.605C206.76 183.511 207.042 182.825 206.898 182.073ZM203.893 188.361C203.893 188.361 205.662 188.461 206.476 187.344C204.773 186.051 202.876 183.061 202.876 183.061L203.893 188.361ZM201.386 191.835C201.508 191.812 201.587 191.694 201.564 191.57C201.541 191.45 201.427 191.37 201.301 191.393C198.005 192.028 196.02 190.018 195.999 189.997C195.914 189.908 195.771 189.905 195.682 189.992C195.592 190.077 195.59 190.22 195.677 190.309C195.753 190.388 197.35 192.007 200.106 191.968C200.509 191.962 200.935 191.92 201.386 191.835Z" fill="#FFC3BD"/>
<path d="M178.466 182.874V182.872L178.467 182.874H178.466Z" fill="#053C5A"/>
<path d="M184.284 186.059C184.826 184.714 185.445 183.382 186.079 182.086C186.849 183.771 187.077 185.801 186.469 187.684C185.834 186.939 185.074 186.32 184.284 186.059Z" fill="#053C5A"/>
<path d="M197.08 182.732C197.333 182.941 197.543 183.282 197.627 183.715C197.771 184.467 197.49 185.153 196.999 185.247C196.507 185.342 195.992 184.809 195.848 184.058C195.723 183.411 195.927 182.835 196.296 182.621C196.593 182.814 196.855 182.818 197.08 182.732Z" fill="#053C5A"/>
<path d="M205.117 182.415C204.993 181.767 205.195 181.194 205.566 180.98C205.863 181.174 206.125 181.177 206.35 181.091C206.603 181.301 206.814 181.642 206.896 182.073C207.04 182.825 206.76 183.511 206.268 183.605C205.777 183.699 205.261 183.167 205.117 182.415Z" fill="#053C5A"/>
<path d="M205.566 180.979C205.556 180.973 205.548 180.973 205.538 180.966L207.242 180.099C207.242 180.099 206.912 180.877 206.35 181.089C206.125 181.176 205.863 181.172 205.566 180.979Z" fill="#053C5A"/>
<path d="M206.479 187.343C205.665 188.461 203.895 188.361 203.895 188.361L202.878 183.061C202.878 183.061 204.774 186.051 206.479 187.343Z" fill="#ED847E"/>
<path d="M195.682 189.992C195.772 189.906 195.914 189.907 196 189.997C196.021 190.017 198.005 192.027 201.301 191.393C201.427 191.369 201.541 191.45 201.564 191.57C201.588 191.693 201.509 191.811 201.387 191.835C200.936 191.92 200.508 191.962 200.105 191.968C197.35 192.007 195.752 190.388 195.676 190.309C195.591 190.22 195.594 190.078 195.682 189.992Z" fill="#053C5A"/>
<path d="M184.285 186.059C185.075 186.319 185.834 186.94 186.471 187.686C187.013 188.321 187.466 189.044 187.767 189.71C188.756 191.896 188.139 194.334 185.98 194.129C185.745 194.107 185.499 194.034 185.255 193.973C184.332 193.741 183.386 193.245 182.561 192.443C182.77 190.331 183.43 188.177 184.285 186.059Z" fill="#FFC3BD"/>
<path d="M190.063 169.648C189.983 167.777 188.921 167.328 187.467 167.619C195.326 163.024 206.844 168.056 207.699 174.044C206.922 174.063 206.118 174.061 205.296 174.043C200.766 173.941 195.607 173.227 190.333 171.592C190.381 170.875 190.308 170.222 190.063 169.648Z" fill="#053C5A"/>
<path d="M190.064 169.648C190.309 170.222 190.383 170.876 190.333 171.592C190.142 174.336 188.057 178.041 186.08 182.086C185.446 183.382 184.828 184.712 184.285 186.059C183.429 188.178 182.769 190.333 182.561 192.443C182.366 194.422 182.567 196.364 183.384 198.199C180.266 194.654 178.979 188.283 178.466 182.874L178.465 182.873C177.968 177.644 178.195 173.314 178.195 173.314C178.195 173.314 183.972 168.319 187.465 167.62C188.922 167.328 189.984 167.778 190.064 169.648Z" fill="#053C5A"/>
<path d="M195.935 177.096C195.916 177.098 194.28 177.334 193.414 179.143C193.358 179.258 193.26 179.34 193.147 179.376C193.041 179.41 192.923 179.406 192.815 179.354C192.591 179.246 192.496 178.978 192.603 178.754C193.677 176.51 195.73 176.216 195.816 176.204C196.062 176.172 196.288 176.344 196.321 176.59C196.354 176.838 196.177 177.062 195.935 177.096Z" fill="#053C5A"/>
<path d="M204.936 176.012C204.704 176.098 204.446 175.98 204.359 175.748C204.273 175.516 204.391 175.257 204.624 175.17C204.664 175.154 205.149 174.984 205.86 174.979C206.616 174.973 207.63 175.152 208.66 175.912C208.86 176.059 208.903 176.341 208.755 176.541C208.683 176.638 208.58 176.698 208.47 176.717C208.353 176.738 208.229 176.712 208.125 176.636C207.503 176.176 206.893 175.981 206.375 175.91C205.566 175.798 204.982 175.994 204.936 176.012Z" fill="#053C5A"/>
<path d="M197.081 182.731C196.854 182.817 196.594 182.813 196.297 182.621C196.286 182.615 196.277 182.616 196.268 182.608L197.973 181.741C197.973 181.741 197.642 182.519 197.081 182.731Z" fill="#053C5A"/>
<path d="M176.336 246.121C176.308 245.59 176.263 245.027 176.228 244.483C176.954 243.324 177.702 242.163 178.464 241C178.955 240.263 179.459 239.523 179.96 238.784C180.11 238.869 180.267 238.944 180.42 239.026C179.135 241.661 177.71 244.156 176.336 246.121Z" fill="#053C5A"/>
<path opacity="0.2" d="M176.336 246.121C176.308 245.59 176.263 245.027 176.228 244.483C176.954 243.324 177.702 242.163 178.464 241C178.955 240.263 179.459 239.523 179.96 238.784C180.11 238.869 180.267 238.944 180.42 239.026C179.135 241.661 177.71 244.156 176.336 246.121Z" fill="black"/>
<path d="M172.483 256.862L172.525 257.069C167.353 254.274 162.59 250.776 158.37 246.705C159.104 244.518 159.949 242.518 160.857 240.575C162.137 237.787 163.559 235.193 165.051 232.661C166.337 230.434 167.72 228.303 169.134 226.202C170.457 228.909 174.111 235.434 179.961 238.785C179.459 239.524 178.956 240.264 178.465 241.001C177.704 242.163 176.955 243.324 176.229 244.484L176.228 244.488C175.59 245.508 174.969 246.524 174.39 247.536C173.402 249.288 172.464 251.044 171.751 252.659L171.884 253.545C172.057 254.623 172.262 255.734 172.483 256.862Z" fill="#FFC3BD"/>
<path d="M188.831 232.204C188.831 232.204 185.508 235.52 181.624 239.628C181.21 239.449 180.814 239.239 180.418 239.029C180.265 238.947 180.109 238.872 179.958 238.786C174.109 235.434 170.455 228.911 169.131 226.203C168.759 225.443 168.562 224.969 168.562 224.969C168.562 224.969 172.313 218.746 177.472 215.613C178.74 214.843 180.09 214.254 181.494 213.996C190.681 216.333 193.681 222.095 188.831 232.204Z" fill="#053C5A"/>
<path d="M65.525 97L57.875 79.5H61.4L68.225 95.325H66.2L73.1 79.5H76.35L68.725 97H65.525ZM83.1707 97.175C81.6874 97.175 80.3874 96.8833 79.2707 96.3C78.1707 95.7 77.3124 94.8833 76.6957 93.85C76.0957 92.8167 75.7957 91.6417 75.7957 90.325C75.7957 88.9917 76.0874 87.8167 76.6707 86.8C77.2707 85.7667 78.0874 84.9583 79.1207 84.375C80.1707 83.7917 81.3624 83.5 82.6957 83.5C83.9957 83.5 85.154 83.7833 86.1707 84.35C87.1874 84.9167 87.9874 85.7167 88.5707 86.75C89.154 87.7833 89.4457 89 89.4457 90.4C89.4457 90.5333 89.4374 90.6833 89.4207 90.85C89.4207 91.0167 89.4124 91.175 89.3957 91.325H78.2707V89.25H87.7457L86.5207 89.9C86.5374 89.1333 86.379 88.4583 86.0457 87.875C85.7124 87.2917 85.254 86.8333 84.6707 86.5C84.104 86.1667 83.4457 86 82.6957 86C81.929 86 81.254 86.1667 80.6707 86.5C80.104 86.8333 79.654 87.3 79.3207 87.9C79.004 88.4833 78.8457 89.175 78.8457 89.975V90.475C78.8457 91.275 79.029 91.9833 79.3957 92.6C79.7624 93.2167 80.279 93.6917 80.9457 94.025C81.6124 94.3583 82.379 94.525 83.2457 94.525C83.9957 94.525 84.6707 94.4083 85.2707 94.175C85.8707 93.9417 86.404 93.575 86.8707 93.075L88.5457 95C87.9457 95.7 87.1874 96.2417 86.2707 96.625C85.3707 96.9917 84.3374 97.175 83.1707 97.175ZM92.4475 97V83.65H95.4225V87.325L95.0725 86.25C95.4725 85.35 96.0975 84.6667 96.9475 84.2C97.8141 83.7333 98.8891 83.5 100.172 83.5V86.475C100.039 86.4417 99.9141 86.425 99.7975 86.425C99.6808 86.4083 99.5641 86.4 99.4475 86.4C98.2641 86.4 97.3225 86.75 96.6225 87.45C95.9225 88.1333 95.5725 89.1583 95.5725 90.525V97H92.4475ZM102.823 97V83.65H105.948V97H102.823ZM104.398 81.45C103.815 81.45 103.332 81.2667 102.948 80.9C102.582 80.5333 102.398 80.0917 102.398 79.575C102.398 79.0417 102.582 78.6 102.948 78.25C103.332 77.8833 103.815 77.7 104.398 77.7C104.982 77.7 105.457 77.875 105.823 78.225C106.207 78.5583 106.398 78.9833 106.398 79.5C106.398 80.05 106.215 80.5167 105.848 80.9C105.482 81.2667 104.998 81.45 104.398 81.45ZM110.475 97V82.9C110.475 81.5 110.883 80.3833 111.7 79.55C112.533 78.7 113.717 78.275 115.25 78.275C115.8 78.275 116.317 78.3333 116.8 78.45C117.3 78.5667 117.717 78.75 118.05 79L117.2 81.35C116.967 81.1667 116.7 81.0333 116.4 80.95C116.1 80.85 115.792 80.8 115.475 80.8C114.825 80.8 114.333 80.9833 114 81.35C113.667 81.7 113.5 82.2333 113.5 82.95V84.45L113.6 85.85V97H110.475ZM108.275 86.25V83.75H117.175V86.25H108.275ZM119.375 97V83.65H122.5V97H119.375ZM120.95 81.45C120.367 81.45 119.883 81.2667 119.5 80.9C119.133 80.5333 118.95 80.0917 118.95 79.575C118.95 79.0417 119.133 78.6 119.5 78.25C119.883 77.8833 120.367 77.7 120.95 77.7C121.533 77.7 122.008 77.875 122.375 78.225C122.758 78.5583 122.95 78.9833 122.95 79.5C122.95 80.05 122.767 80.5167 122.4 80.9C122.033 81.2667 121.55 81.45 120.95 81.45ZM132.728 97.175C131.328 97.175 130.078 96.8833 128.978 96.3C127.894 95.7 127.044 94.8833 126.428 93.85C125.811 92.8167 125.503 91.6417 125.503 90.325C125.503 88.9917 125.811 87.8167 126.428 86.8C127.044 85.7667 127.894 84.9583 128.978 84.375C130.078 83.7917 131.328 83.5 132.728 83.5C134.028 83.5 135.169 83.7667 136.153 84.3C137.153 84.8167 137.911 85.5833 138.428 86.6L136.028 88C135.628 87.3667 135.136 86.9 134.553 86.6C133.986 86.3 133.369 86.15 132.703 86.15C131.936 86.15 131.244 86.3167 130.628 86.65C130.011 86.9833 129.528 87.4667 129.178 88.1C128.828 88.7167 128.653 89.4583 128.653 90.325C128.653 91.1917 128.828 91.9417 129.178 92.575C129.528 93.1917 130.011 93.6667 130.628 94C131.244 94.3333 131.936 94.5 132.703 94.5C133.369 94.5 133.986 94.35 134.553 94.05C135.136 93.75 135.628 93.2833 136.028 92.65L138.428 94.05C137.911 95.05 137.153 95.825 136.153 96.375C135.169 96.9083 134.028 97.175 132.728 97.175ZM149.354 97V94.3L149.179 93.725V89C149.179 88.0833 148.904 87.375 148.354 86.875C147.804 86.3583 146.971 86.1 145.854 86.1C145.104 86.1 144.362 86.2167 143.629 86.45C142.912 86.6833 142.304 87.0083 141.804 87.425L140.579 85.15C141.296 84.6 142.146 84.1917 143.129 83.925C144.129 83.6417 145.162 83.5 146.229 83.5C148.162 83.5 149.654 83.9667 150.704 84.9C151.771 85.8167 152.304 87.2417 152.304 89.175V97H149.354ZM145.154 97.175C144.154 97.175 143.279 97.0083 142.529 96.675C141.779 96.325 141.196 95.85 140.779 95.25C140.379 94.6333 140.179 93.9417 140.179 93.175C140.179 92.425 140.354 91.75 140.704 91.15C141.071 90.55 141.662 90.075 142.479 89.725C143.296 89.375 144.379 89.2 145.729 89.2H149.604V91.275H145.954C144.887 91.275 144.171 91.45 143.804 91.8C143.437 92.1333 143.254 92.55 143.254 93.05C143.254 93.6167 143.479 94.0667 143.929 94.4C144.379 94.7333 145.004 94.9 145.804 94.9C146.571 94.9 147.254 94.725 147.854 94.375C148.471 94.025 148.912 93.5083 149.179 92.825L149.704 94.7C149.404 95.4833 148.862 96.0917 148.079 96.525C147.312 96.9583 146.337 97.175 145.154 97.175ZM161.34 97.175C159.873 97.175 158.74 96.8 157.94 96.05C157.14 95.2833 156.74 94.1583 156.74 92.675V80.7H159.865V92.6C159.865 93.2333 160.023 93.725 160.34 94.075C160.673 94.425 161.131 94.6 161.715 94.6C162.415 94.6 162.998 94.4167 163.465 94.05L164.34 96.275C163.973 96.575 163.523 96.8 162.99 96.95C162.456 97.1 161.906 97.175 161.34 97.175ZM154.54 86.25V83.75H163.44V86.25H154.54ZM166.91 97V83.65H170.035V97H166.91ZM168.485 81.45C167.902 81.45 167.419 81.2667 167.035 80.9C166.669 80.5333 166.485 80.0917 166.485 79.575C166.485 79.0417 166.669 78.6 167.035 78.25C167.419 77.8833 167.902 77.7 168.485 77.7C169.069 77.7 169.544 77.875 169.91 78.225C170.294 78.5583 170.485 78.9833 170.485 79.5C170.485 80.05 170.302 80.5167 169.935 80.9C169.569 81.2667 169.085 81.45 168.485 81.45ZM180.137 97.175C178.77 97.175 177.554 96.8833 176.487 96.3C175.42 95.7 174.579 94.8833 173.962 93.85C173.345 92.8167 173.037 91.6417 173.037 90.325C173.037 88.9917 173.345 87.8167 173.962 86.8C174.579 85.7667 175.42 84.9583 176.487 84.375C177.554 83.7917 178.77 83.5 180.137 83.5C181.52 83.5 182.745 83.7917 183.812 84.375C184.895 84.9583 185.737 85.7583 186.337 86.775C186.954 87.7917 187.262 88.975 187.262 90.325C187.262 91.6417 186.954 92.8167 186.337 93.85C185.737 94.8833 184.895 95.7 183.812 96.3C182.745 96.8833 181.52 97.175 180.137 97.175ZM180.137 94.5C180.904 94.5 181.587 94.3333 182.187 94C182.787 93.6667 183.254 93.1833 183.587 92.55C183.937 91.9167 184.112 91.175 184.112 90.325C184.112 89.4583 183.937 88.7167 183.587 88.1C183.254 87.4667 182.787 86.9833 182.187 86.65C181.587 86.3167 180.912 86.15 180.162 86.15C179.395 86.15 178.712 86.3167 178.112 86.65C177.529 86.9833 177.062 87.4667 176.712 88.1C176.362 88.7167 176.187 89.4583 176.187 90.325C176.187 91.175 176.362 91.9167 176.712 92.55C177.062 93.1833 177.529 93.6667 178.112 94C178.712 94.3333 179.387 94.5 180.137 94.5ZM197.825 83.5C198.892 83.5 199.842 83.7083 200.675 84.125C201.525 84.5417 202.192 85.1833 202.675 86.05C203.159 86.9 203.4 88 203.4 89.35V97H200.275V89.75C200.275 88.5667 199.992 87.6833 199.425 87.1C198.875 86.5167 198.1 86.225 197.1 86.225C196.367 86.225 195.717 86.375 195.15 86.675C194.584 86.975 194.142 87.425 193.825 88.025C193.525 88.6083 193.375 89.35 193.375 90.25V97H190.25V83.65H193.225V87.25L192.7 86.15C193.167 85.3 193.842 84.65 194.725 84.2C195.625 83.7333 196.659 83.5 197.825 83.5Z" fill="black"/>
<defs>
<filter id="filter0_d_2416_3224" x="19.8547" y="126.879" width="356.291" height="375.291" filterUnits="userSpaceOnUse" color-interpolation-filters="sRGB">
<feFlood flood-opacity="0" result="BackgroundImageFix"/>
<feColorMatrix in="SourceAlpha" type="matrix" values="0 0 0 0 0 0 0 0 0 0 0 0 0 0 0 0 0 0 127 0" result="hardAlpha"/>
<feOffset dy="5.02422"/>
<feGaussianBlur stdDeviation="15.0727"/>
<feComposite in2="hardAlpha" operator="out"/>
<feColorMatrix type="matrix" values="0 0 0 0 0 0 0 0 0 0 0 0 0 0 0 0 0 0 0.06 0"/>
<feBlend mode="normal" in2="BackgroundImageFix" result="effect1_dropShadow_2416_3224"/>
<feBlend mode="normal" in="SourceGraphic" in2="effect1_dropShadow_2416_3224" result="shape"/>
</filter>
<filter id="filter1_d_2416_3224" x="9.85467" y="6.87889" width="376.291" height="485.291" filterUnits="userSpaceOnUse" color-interpolation-filters="sRGB">
<feFlood flood-opacity="0" result="BackgroundImageFix"/>
<feColorMatrix in="SourceAlpha" type="matrix" values="0 0 0 0 0 0 0 0 0 0 0 0 0 0 0 0 0 0 127 0" result="hardAlpha"/>
<feOffset dy="5.02422"/>
<feGaussianBlur stdDeviation="15.0727"/>
<feComposite in2="hardAlpha" operator="out"/>
<feColorMatrix type="matrix" values="0 0 0 0 0 0 0 0 0 0 0 0 0 0 0 0 0 0 0.06 0"/>
<feBlend mode="normal" in2="BackgroundImageFix" result="effect1_dropShadow_2416_3224"/>
<feBlend mode="normal" in="SourceGraphic" in2="effect1_dropShadow_2416_3224" result="shape"/>
</filter>
<linearGradient id="paint0_linear_2416_3224" x1="0" y1="0" x2="746.654" y2="-6.85224e-06" gradientUnits="userSpaceOnUse">
<stop stop-color="#3CCDAA" stop-opacity="0.2"/>
<stop offset="1" stop-color="#053C5A" stop-opacity="0.2"/>
</linearGradient>
<linearGradient id="paint1_linear_2416_3224" x1="399.5" y1="87.5" x2="685" y2="292" gradientUnits="userSpaceOnUse">
<stop stop-color="#409E84" stop-opacity="0.5"/>
<stop offset="1" stop-color="#409E84" stop-opacity="0"/>
</linearGradient>
<linearGradient id="paint2_linear_2416_3224" x1="283" y1="317" x2="73" y2="317" gradientUnits="userSpaceOnUse">
<stop stop-color="#E1EFEC"/>
<stop offset="1" stop-color="#E1EFEC" stop-opacity="0"/>
</linearGradient>
<linearGradient id="paint3_linear_2416_3224" x1="283" y1="365" x2="73" y2="365" gradientUnits="userSpaceOnUse">
<stop stop-color="#E1EFEC"/>
<stop offset="1" stop-color="#E1EFEC" stop-opacity="0"/>
</linearGradient>
<linearGradient id="paint4_linear_2416_3224" x1="283" y1="421" x2="73" y2="421" gradientUnits="userSpaceOnUse">
<stop stop-color="#E1EFEC"/>
<stop offset="1" stop-color="#E1EFEC" stop-opacity="0"/>
</linearGradient>
</defs>
</svg>
