<svg width="762" height="653" viewBox="0 0 762 653" fill="none" xmlns="http://www.w3.org/2000/svg">
<mask id="mask0_2416_2874" style="mask-type:alpha" maskUnits="userSpaceOnUse" x="0" y="0" width="762" height="653">
<path d="M10 0.5H752C757.247 0.5 761.5 4.75329 761.5 10V643C761.5 648.247 757.247 652.5 752 652.5H10C4.7533 652.5 0.5 648.247 0.5 643V10C0.5 4.7533 4.75329 0.5 10 0.5Z" fill="#3CCDAA" stroke="#BEE9DD"/>
</mask>
<g mask="url(#mask0_2416_2874)">
<path d="M0 20C0 8.95429 8.95431 0 20 0H742C753.046 0 762 8.9543 762 20V633C762 644.046 753.046 653 742 653H20C8.95431 653 0 644.046 0 633V20Z" fill="url(#paint0_linear_2416_2874)" fill-opacity="0.3"/>
<rect x="428" y="315" width="64" height="25" rx="12.5" fill="#3CCDAA"/>
<path d="M451.084 332V328.568L451.528 329.744L447.832 323.6H449.896L452.728 328.316H451.54L454.384 323.6H456.292L452.596 329.744L453.028 328.568V332H451.084ZM459.331 332.096C458.643 332.096 458.031 331.952 457.495 331.664C456.967 331.376 456.547 330.984 456.235 330.488C455.931 329.984 455.779 329.412 455.779 328.772C455.779 328.124 455.931 327.552 456.235 327.056C456.547 326.552 456.967 326.16 457.495 325.88C458.031 325.592 458.643 325.448 459.331 325.448C460.011 325.448 460.619 325.592 461.155 325.88C461.691 326.16 462.111 326.548 462.415 327.044C462.719 327.54 462.871 328.116 462.871 328.772C462.871 329.412 462.719 329.984 462.415 330.488C462.111 330.984 461.691 331.376 461.155 331.664C460.619 331.952 460.011 332.096 459.331 332.096ZM459.331 330.56C459.643 330.56 459.923 330.488 460.171 330.344C460.419 330.2 460.615 329.996 460.759 329.732C460.903 329.46 460.975 329.14 460.975 328.772C460.975 328.396 460.903 328.076 460.759 327.812C460.615 327.548 460.419 327.344 460.171 327.2C459.923 327.056 459.643 326.984 459.331 326.984C459.019 326.984 458.739 327.056 458.491 327.2C458.243 327.344 458.043 327.548 457.891 327.812C457.747 328.076 457.675 328.396 457.675 328.772C457.675 329.14 457.747 329.46 457.891 329.732C458.043 329.996 458.243 330.2 458.491 330.344C458.739 330.488 459.019 330.56 459.331 330.56ZM466.846 332.096C466.31 332.096 465.83 331.992 465.406 331.784C464.99 331.576 464.666 331.26 464.434 330.836C464.202 330.404 464.086 329.856 464.086 329.192V325.544H465.958V328.916C465.958 329.452 466.07 329.848 466.294 330.104C466.526 330.352 466.85 330.476 467.266 330.476C467.554 330.476 467.81 330.416 468.034 330.296C468.258 330.168 468.434 329.976 468.562 329.72C468.69 329.456 468.754 329.128 468.754 328.736V325.544H470.626V332H468.85V330.224L469.174 330.74C468.958 331.188 468.638 331.528 468.214 331.76C467.798 331.984 467.342 332.096 466.846 332.096Z" fill="#212529"/>
<g clip-path="url(#clip0_2416_2874)">
<path d="M430.664 266.257C430.277 265.311 430.339 264.288 430.753 263.399C431.166 262.509 431.921 261.75 432.933 261.336C434.947 260.512 437.21 261.372 437.983 263.263L444.442 279.053C445.741 282.227 446.144 285.701 445.602 289.139C445.071 292.581 445.482 296.051 446.781 299.226L448.079 302.4L425.316 311.712C423.139 306.391 418.792 302.217 413.225 300.107L398.197 294.418C396.969 293.951 396.079 293.067 395.639 291.989C395.195 290.904 395.206 289.642 395.745 288.471C396.842 286.083 399.727 284.922 402.146 285.862L414 290.479L400.029 256.325C399.598 255.272 399.664 254.142 400.133 253.153C400.621 252.07 401.611 251.157 402.909 250.741C405.123 250.027 407.442 251.19 408.263 253.197L413.787 266.7C413.4 265.755 413.461 264.731 413.875 263.842C414.272 262.959 415.047 262.201 416.042 261.794C418.065 260.966 420.316 261.822 421.086 263.705L422.136 266.271C421.749 265.325 421.81 264.302 422.224 263.412C422.638 262.523 423.392 261.763 424.404 261.349C426.419 260.525 428.681 261.385 429.455 263.277L430.672 266.254L430.664 266.257Z" fill="#053C5A"/>
<path d="M422.491 267.143C422.014 267.338 421.461 267.113 421.262 266.628L420.213 264.062C419.641 262.664 417.923 262.032 416.393 262.658C415.637 262.967 415.032 263.531 414.726 264.213C414.406 264.911 414.377 265.661 414.65 266.328C414.845 266.805 414.62 267.357 414.135 267.556C413.658 267.751 413.105 267.526 412.907 267.041C412.436 265.889 412.468 264.609 413.007 263.438C413.505 262.332 414.48 261.405 415.672 260.918C418.164 259.898 420.979 260.983 421.944 263.344L422.994 265.91C423.204 266.4 422.967 266.948 422.491 267.143Z" fill="white"/>
<path d="M427.419 279.191C426.942 279.386 426.389 279.161 426.19 278.676L423.688 272.557C423.493 272.08 423.718 271.527 424.203 271.329C424.68 271.134 425.233 271.359 425.431 271.844L427.934 277.962C428.132 278.448 427.896 278.996 427.419 279.191Z" fill="white"/>
<path d="M424.917 273.072C424.44 273.267 423.887 273.042 423.688 272.557L421.263 266.628C420.792 265.476 420.825 264.196 421.364 263.025C421.892 261.877 422.837 260.972 424.038 260.481C426.53 259.462 429.348 260.555 430.317 262.924L431.535 265.901C431.73 266.378 431.505 266.931 431.02 267.129C430.543 267.324 429.99 267.099 429.792 266.614L428.574 263.637C427.999 262.231 426.281 261.599 424.751 262.225C423.995 262.534 423.399 263.095 423.069 263.815C422.75 264.512 422.726 265.252 422.998 265.918L425.424 271.847C425.63 272.329 425.394 272.877 424.917 273.072Z" fill="white"/>
<path d="M435.686 278.536C435.209 278.731 434.656 278.506 434.457 278.02L432.557 273.374C432.362 272.897 432.587 272.344 433.072 272.146C433.549 271.95 434.102 272.176 434.3 272.661L436.201 277.307C436.396 277.784 436.171 278.337 435.686 278.536Z" fill="white"/>
<path d="M448.438 303.28L425.674 312.592C425.197 312.787 424.645 312.562 424.446 312.077C422.354 306.962 418.248 303.025 412.894 300.991L397.866 295.302C396.429 294.747 395.329 293.7 394.774 292.343C394.216 290.978 394.258 289.463 394.901 288.077C396.202 285.25 399.61 283.865 402.498 284.988L412.296 288.804L399.156 256.682C398.638 255.415 398.68 254.016 399.277 252.754C399.894 251.398 401.11 250.334 402.617 249.842C405.236 248.992 408.097 250.308 409.13 252.832L419.814 278.951C420.009 279.428 419.784 279.981 419.299 280.179C418.822 280.375 418.269 280.15 418.071 279.664L407.386 253.546C406.724 251.925 404.882 251.085 403.192 251.623C402.183 251.949 401.382 252.642 400.988 253.533C400.613 254.329 400.583 255.196 400.899 255.969L414.87 290.122C415.011 290.468 414.934 290.864 414.67 291.135C414.407 291.406 414.01 291.492 413.657 291.358L401.815 286.746C399.841 285.979 397.494 286.929 396.606 288.867C396.191 289.776 396.153 290.761 396.513 291.641C396.869 292.513 397.587 293.189 398.532 293.551L413.56 299.24C419.107 301.349 423.425 305.333 425.812 310.51L446.856 301.902L445.914 299.599C444.552 296.268 444.119 292.605 444.674 289.009C445.183 285.748 444.796 282.431 443.568 279.43L437.109 263.64C436.534 262.234 434.816 261.602 433.286 262.227C432.53 262.537 431.934 263.098 431.604 263.818C431.285 264.515 431.261 265.255 431.533 265.921L434.298 272.681C434.494 273.158 434.268 273.71 433.783 273.909C433.306 274.104 432.753 273.879 432.555 273.394L429.79 266.634C429.319 265.482 429.352 264.202 429.89 263.031C430.419 261.884 431.364 260.979 432.565 260.487C435.057 259.468 437.875 260.562 438.844 262.93L445.303 278.72C446.662 282.042 447.087 285.708 446.524 289.308C446.023 292.566 446.41 295.883 447.645 298.901L448.943 302.075C449.148 302.529 448.915 303.085 448.438 303.28Z" fill="white"/>
</g>
<mask id="mask1_2416_2874" style="mask-type:luminance" maskUnits="userSpaceOnUse" x="-109" y="-15" width="1036" height="584">
<path d="M927 -15H-109V569H927V-15Z" fill="white"/>
</mask>
<g mask="url(#mask1_2416_2874)">
<path d="M373.247 -60.4127L357.771 -44.9272L444.745 42.0976L460.221 26.6121L373.247 -60.4127Z" fill="url(#paint1_linear_2416_2874)"/>
<path d="M-71.2172 98.15L-55.7407 113.635L-40.2642 98.15L15.7579 42.0955L31.2344 26.61L15.7579 11.1245L-40.2642 -44.93L-55.7407 -60.4155L-71.2172 -44.93L-127.239 11.1245L-142.716 26.61L-127.239 42.0955L-71.2172 98.15ZM-55.7407 -29.4445L0.281357 26.61L-55.7407 82.6645L-111.763 26.61L-55.7407 -29.4445Z" fill="url(#paint2_linear_2416_2874)"/>
<path d="M71.7803 98.15L87.2568 113.635L158.755 42.0955L214.777 98.15L143.279 169.69L158.755 185.175L230.254 113.635L301.753 185.175L317.229 169.69L245.731 98.15L230.254 82.6645L174.232 26.61L245.731 -44.93L230.254 -60.4155L158.755 11.1245L87.2568 -60.4155L71.7803 -44.93L143.279 26.61L71.7803 98.15Z" fill="url(#paint3_linear_2416_2874)"/>
<path d="M301.749 11.1271L286.272 26.6125L373.247 113.637L388.723 98.1519L301.749 11.1271Z" fill="url(#paint4_linear_2416_2874)"/>
<path d="M802.229 82.6612L715.255 169.686L730.731 185.172L817.706 98.1467L802.229 82.6612Z" fill="url(#paint5_linear_2416_2874)"/>
<path d="M945.24 185.175L960.717 169.69L945.24 154.204L873.741 82.6645L817.719 26.61L889.218 -44.93L873.741 -60.4155L802.243 11.1245L730.744 82.6645L659.246 154.204L587.747 82.6645L572.271 98.15L659.246 185.175L730.744 256.715L802.243 185.175L858.265 241.23L786.766 312.77L802.243 328.255L858.265 384.31L802.243 440.364L786.766 455.85L730.744 511.904L674.722 455.85L746.221 384.31L730.744 368.824L659.246 440.364L643.769 455.85L659.246 471.336L715.268 527.39L643.769 598.93L659.246 614.415L730.744 542.875L802.243 614.415L817.719 598.93L746.221 527.39L802.243 471.336L858.265 527.39L873.741 542.875L889.218 527.39L945.24 471.336L960.717 455.85L945.24 440.364L889.218 384.31L873.741 368.824L817.719 312.77L873.741 256.715L945.24 328.255L960.717 312.77L889.218 241.23L945.24 185.175ZM929.763 455.85L873.741 511.904L817.719 455.85L873.741 399.795L929.763 455.85ZM730.744 113.635L802.243 42.0955L858.265 98.15L802.243 154.204L730.744 225.744L674.722 169.69L730.744 113.635ZM873.741 225.744L817.719 169.69L873.741 113.635L929.763 169.69L873.741 225.744Z" fill="url(#paint6_linear_2416_2874)"/>
<path d="M-142.716 241.23L-127.239 256.715L-55.7407 328.255L-40.2642 312.77L-111.763 241.23L-55.7407 185.175L-40.2642 169.69L15.7579 113.635L71.78 169.69L87.2565 185.175L143.279 241.23L71.78 312.77L87.2565 328.255L158.755 256.715L174.232 241.23L230.254 185.175L286.276 241.23L214.777 312.77L143.279 384.31L158.755 399.795L230.254 328.255L301.752 399.795L317.229 384.31L245.73 312.77L301.752 256.715L317.229 241.23L373.251 185.175L388.727 169.69L444.749 113.635L500.772 169.69L444.749 225.744L429.273 241.23L444.749 256.715L500.772 312.77L444.749 368.824L357.774 455.85L373.251 471.335L444.749 399.795L460.226 384.31L516.248 328.255L531.725 312.77L587.747 256.715L603.223 241.23L587.747 225.744L516.248 154.204L460.226 98.1499L516.248 42.0954L587.747 -29.4445L659.245 42.0954L746.22 -44.93L730.744 -60.4155L659.245 11.1245L587.747 -60.4155L516.248 11.1245L444.749 -60.4155L429.273 -44.93L500.772 26.61L444.749 82.6645L388.727 26.61L317.229 -44.93L301.752 -60.4155L286.276 -44.93L230.254 11.1245L214.777 26.61L230.254 42.0954L286.276 98.1499L301.752 113.635L357.774 169.69L301.752 225.744L245.73 169.69L230.254 154.204L214.777 169.69L158.755 225.744L102.733 169.69L174.232 98.1499L158.755 82.6645L87.2565 154.204L31.2344 98.1499L87.2565 42.0954L102.733 26.61L87.2565 11.1245L15.7579 -60.4155L0.281372 -44.93L71.78 26.61L15.7579 82.6645L0.281372 98.1499L-55.7407 154.204L-127.239 82.6645L-142.716 98.1499L-71.2172 169.69L-127.239 225.744L-142.716 241.23ZM516.248 297.284L460.226 241.23L516.248 185.175L572.27 241.23L516.248 297.284ZM317.229 98.1499L301.752 82.6645L245.73 26.61L301.752 -29.4445L357.774 26.61L373.251 42.0954L429.273 98.1499L373.251 154.204L317.229 98.1499Z" fill="url(#paint7_linear_2416_2874)"/>
<path d="M174.231 527.39L158.755 511.904L87.2564 583.444L31.2343 527.39L102.733 455.85L87.2564 440.364L0.28125 527.39L71.7798 598.93L87.2564 614.415L102.733 598.93L174.231 527.39Z" fill="url(#paint8_linear_2416_2874)"/>
<path d="M317.229 527.39L230.254 440.365L214.777 455.85L286.276 527.39L214.777 598.93L230.254 614.415L301.752 542.875L373.251 614.415L388.728 598.93L317.229 527.39Z" fill="url(#paint9_linear_2416_2874)"/>
<path d="M603.224 527.39L587.747 511.904L531.725 455.85L587.747 399.795L603.224 384.31L674.722 312.77L659.246 297.284L587.747 368.824L572.271 384.31L516.249 440.364L500.772 455.85L429.273 527.39L444.75 542.875L516.249 471.335L572.271 527.39L500.772 598.93L516.249 614.415L587.747 542.875L603.224 527.39Z" fill="url(#paint10_linear_2416_2874)"/>
<path d="M674.722 527.39L659.245 511.904L603.223 455.85L659.245 399.795L674.722 384.31L730.744 328.255L786.766 384.31L715.267 455.85L730.744 471.336L802.242 399.795L817.719 384.31L802.242 368.824L746.22 312.77L817.719 241.23L802.242 225.744L730.744 297.284L659.245 225.744L587.747 154.204L531.725 98.15L587.747 42.0955L659.245 113.635L730.744 42.0955L817.719 -44.93L802.242 -60.4155L730.744 11.1245L659.245 82.6645L587.747 11.1245L516.248 82.6645L500.772 98.15L516.248 113.635L587.747 185.175L643.769 241.23L572.27 312.77L516.248 368.824L500.772 384.31L444.749 440.364L373.251 511.904L317.229 455.85L388.727 384.31L444.749 328.255L460.226 312.77L388.727 241.23L460.226 169.69L444.749 154.204L373.251 225.744L357.774 241.23L286.276 312.77L357.774 384.31L301.752 440.364L245.73 384.31L230.254 368.824L214.777 384.31L158.755 440.364L102.733 384.31L174.232 312.77L245.73 241.23L230.254 225.744L143.279 312.77L87.2565 368.824L31.2344 312.77L87.2565 256.715L102.733 241.23L87.2565 225.744L31.2344 169.69L15.7579 154.204L0.281372 169.69L-55.7407 225.744L-71.2172 241.23L-55.7407 256.715L0.281372 312.77L-55.7407 368.824L-127.239 297.284L-142.716 312.77L-71.2172 384.31L-142.716 455.85L-127.239 471.336L-55.7407 399.795L0.281372 455.85L-71.2172 527.39L-142.716 598.93L-127.239 614.415L-55.7407 542.875L15.7579 614.415L31.2344 598.93L-40.2642 527.39L31.2344 455.85L87.2565 399.795L143.279 455.85L71.78 527.39L87.2565 542.875L158.755 471.336L214.777 527.39L143.279 598.93L158.755 614.415L245.73 527.39L174.232 455.85L230.254 399.795L286.276 455.85L357.774 527.39L444.749 614.415L460.226 598.93L531.725 527.39L516.248 511.904L444.749 583.445L388.727 527.39L444.749 471.336L460.226 455.85L516.248 399.795L531.725 384.31L587.747 328.255L603.223 312.77L659.245 256.715L715.267 312.77L659.245 368.824L643.769 384.31L587.747 440.364L572.27 455.85L587.747 471.336L643.769 527.39L572.27 598.93L587.747 614.415L659.245 542.875L674.722 527.39ZM317.229 312.77L373.251 256.715L429.273 312.77L373.251 368.824L317.229 312.77ZM-40.2642 241.23L15.7579 185.175L71.78 241.23L15.7579 297.284L-40.2642 241.23ZM15.7579 440.364L-40.2642 384.31L15.7579 328.255L71.78 384.31L15.7579 440.364Z" fill="url(#paint11_linear_2416_2874)"/>
</g>
<circle cx="164.113" cy="425.586" r="54.1574" transform="rotate(90 164.113 425.586)" fill="white" stroke="url(#paint12_linear_2416_2874)" stroke-width="4.51312"/>
<path d="M108.828 427.278H39.4389L39.4389 374.248H-3.99988L-3.99988 302.603V276" stroke="url(#paint13_linear_2416_2874)" stroke-width="4.51312"/>
<path d="M160.681 406.708C159.807 418.711 151.761 425.781 135.407 427.144C150.252 427.851 158.995 434.356 160.68 447.58C161.555 435.577 169.601 428.507 185.955 427.144C171.11 426.437 162.367 419.931 160.681 406.708ZM181.423 447.58C185.782 447.836 188.35 450.2 188.845 455.003C189.102 450.643 191.465 448.075 196.269 447.58C191.909 447.323 189.34 444.96 188.845 440.156C188.588 444.516 186.226 447.084 181.423 447.58ZM180.245 396.167C179.987 400.527 177.625 403.096 172.822 403.59C177.181 403.848 179.75 406.21 180.245 411.014C180.502 406.654 182.865 404.086 187.668 403.59C183.308 403.333 180.74 400.971 180.245 396.167ZM146.803 403.59C142.443 403.334 139.875 400.971 139.38 396.167C139.123 400.527 136.76 403.096 131.957 403.591C136.316 403.848 138.885 406.211 139.38 411.014C139.637 406.654 141.999 404.086 146.803 403.591L146.803 403.59Z" fill="url(#paint14_linear_2416_2874)"/>
</g>
<g filter="url(#filter0_d_2416_2874)">
<rect x="50" y="45" width="662" height="209" rx="10" fill="white"/>
</g>
<g filter="url(#filter1_d_2416_2874)">
<rect x="40" y="40" width="682" height="209" rx="10" fill="white"/>
</g>
<rect x="582.683" y="56.6833" width="121.967" height="52.9667" rx="12.9833" fill="#3CCDAA" fill-opacity="0.1"/>
<rect x="582.683" y="56.6833" width="121.967" height="52.9667" rx="12.9833" stroke="#3CCDAA" stroke-width="1.36667"/>
<path d="M597.722 90.6667V75.3601H604.02C605.376 75.3601 606.535 75.5787 607.497 76.0161C608.474 76.4534 609.224 77.0803 609.749 77.8966C610.274 78.713 610.536 79.6824 610.536 80.8049C610.536 81.9274 610.274 82.8968 609.749 83.7131C609.224 84.5295 608.474 85.1563 607.497 85.5937C606.535 86.031 605.376 86.2497 604.02 86.2497H599.297L600.565 84.9158V90.6667H597.722ZM600.565 85.2219L599.297 83.8443H603.889C605.143 83.8443 606.083 83.5819 606.71 83.0571C607.351 82.5178 607.672 81.767 607.672 80.8049C607.672 79.8282 607.351 79.0774 606.71 78.5526C606.083 78.0278 605.143 77.7654 603.889 77.7654H599.297L600.565 76.3659V85.2219ZM613.006 90.6667V78.9899H615.608V82.2043L615.302 81.2641C615.652 80.4769 616.198 79.8792 616.942 79.471C617.7 79.0628 618.64 78.8587 619.763 78.8587V81.4609C619.646 81.4317 619.537 81.4171 619.435 81.4171C619.333 81.4026 619.231 81.3953 619.129 81.3953C618.094 81.3953 617.27 81.7014 616.658 82.3137C616.045 82.9114 615.739 83.8079 615.739 85.0033V90.6667H613.006ZM627.223 90.8198C626.027 90.8198 624.963 90.5647 624.03 90.0545C623.097 89.5297 622.361 88.8154 621.822 87.9115C621.282 87.0077 621.013 85.98 621.013 84.8283C621.013 83.6621 621.282 82.6344 621.822 81.7451C622.361 80.8413 623.097 80.1343 624.03 79.6241C624.963 79.1139 626.027 78.8587 627.223 78.8587C628.433 78.8587 629.504 79.1139 630.437 79.6241C631.385 80.1343 632.121 80.834 632.646 81.7233C633.185 82.6125 633.455 83.6475 633.455 84.8283C633.455 85.98 633.185 87.0077 632.646 87.9115C632.121 88.8154 631.385 89.5297 630.437 90.0545C629.504 90.5647 628.433 90.8198 627.223 90.8198ZM627.223 88.4801C627.893 88.4801 628.491 88.3343 629.016 88.0427C629.541 87.7512 629.949 87.3284 630.24 86.7745C630.546 86.2205 630.699 85.5718 630.699 84.8283C630.699 84.0703 630.546 83.4216 630.24 82.8822C629.949 82.3283 629.541 81.9055 629.016 81.6139C628.491 81.3224 627.901 81.1766 627.245 81.1766C626.574 81.1766 625.976 81.3224 625.451 81.6139C624.941 81.9055 624.533 82.3283 624.227 82.8822C623.921 83.4216 623.768 84.0703 623.768 84.8283C623.768 85.5718 623.921 86.2205 624.227 86.7745C624.533 87.3284 624.941 87.7512 625.451 88.0427C625.976 88.3343 626.567 88.4801 627.223 88.4801ZM642.374 90.6667V75.3601H648.672C650.027 75.3601 651.186 75.5787 652.148 76.0161C653.125 76.4534 653.876 77.0803 654.401 77.8966C654.925 78.713 655.188 79.6824 655.188 80.8049C655.188 81.9274 654.925 82.8968 654.401 83.7131C653.876 84.5295 653.125 85.1563 652.148 85.5937C651.186 86.031 650.027 86.2497 648.672 86.2497H643.948L645.217 84.9158V90.6667H642.374ZM645.217 85.2219L643.948 83.8443H648.54C649.794 83.8443 650.734 83.5819 651.361 83.0571C652.003 82.5178 652.323 81.767 652.323 80.8049C652.323 79.8282 652.003 79.0774 651.361 78.5526C650.734 78.0278 649.794 77.7654 648.54 77.7654H643.948L645.217 76.3659V85.2219ZM657.978 90.6667V74.4417H660.711V90.6667H657.978ZM671.493 90.6667V88.3051L671.34 87.8022V83.6694C671.34 82.8676 671.099 82.2481 670.618 81.8107C670.137 81.3588 669.408 81.1329 668.431 81.1329C667.775 81.1329 667.127 81.2349 666.485 81.439C665.858 81.6431 665.326 81.9274 664.889 82.2918L663.818 80.3019C664.444 79.8209 665.188 79.4637 666.048 79.2305C666.923 78.9827 667.826 78.8587 668.759 78.8587C670.45 78.8587 671.755 79.2669 672.674 80.0833C673.607 80.8851 674.073 82.1315 674.073 83.8225V90.6667H671.493ZM667.819 90.8198C666.944 90.8198 666.179 90.674 665.523 90.3825C664.867 90.0763 664.357 89.6609 663.992 89.1361C663.643 88.5967 663.468 87.9917 663.468 87.3211C663.468 86.6651 663.621 86.0747 663.927 85.5499C664.248 85.0251 664.765 84.6097 665.479 84.3035C666.194 83.9974 667.141 83.8443 668.322 83.8443H671.711V85.6593H668.519C667.586 85.6593 666.959 85.8123 666.638 86.1185C666.318 86.41 666.157 86.7745 666.157 87.2118C666.157 87.7075 666.354 88.1011 666.748 88.3926C667.141 88.6842 667.688 88.8299 668.388 88.8299C669.058 88.8299 669.656 88.6769 670.181 88.3707C670.72 88.0646 671.106 87.6127 671.34 87.015L671.799 88.655C671.536 89.3402 671.063 89.8723 670.378 90.2513C669.707 90.6303 668.854 90.8198 667.819 90.8198ZM684.206 78.8587C685.139 78.8587 685.97 79.041 686.699 79.4054C687.443 79.7699 688.026 80.3311 688.449 81.0891C688.871 81.8326 689.083 82.7947 689.083 83.9755V90.6667H686.349V84.3254C686.349 83.2904 686.102 82.5178 685.606 82.0075C685.125 81.4973 684.447 81.2422 683.572 81.2422C682.931 81.2422 682.362 81.3734 681.867 81.6358C681.371 81.8982 680.985 82.2918 680.708 82.8166C680.445 83.3268 680.314 83.9755 680.314 84.7627V90.6667H677.581V78.9899H680.183V82.1387L679.724 81.1766C680.132 80.4331 680.722 79.8646 681.495 79.471C682.282 79.0628 683.186 78.8587 684.206 78.8587Z" fill="#212529"/>
<ellipse cx="97.5777" cy="97.5777" rx="42.5777" ry="42.5777" fill="#BDE8DE"/>
<path d="M97.5781 53C122.198 53.0002 142.155 72.9587 142.155 97.5781C142.155 122.197 122.197 142.155 97.5781 142.155C72.9587 142.155 53.0002 122.198 53 97.5781C53 72.9585 72.9585 53 97.5781 53Z" stroke="#A5EAD7" stroke-opacity="0.3" stroke-width="4"/>
<g clip-path="url(#clip1_2416_2874)">
<path d="M97.3711 78.3708C97.4343 78.2243 97.6447 78.2241 97.708 78.3708L102.126 88.6111L102.292 88.9968L102.711 89.0359L113.833 90.0652C113.994 90.0804 114.055 90.2779 113.937 90.3816L105.545 97.74L105.229 98.0173L105.321 98.4285L107.777 109.304C107.812 109.457 107.646 109.583 107.505 109.5L97.9004 103.807L97.54 103.594L97.1787 103.807L87.5742 109.5C87.4333 109.583 87.2675 109.456 87.3018 109.304L89.7578 98.4285L89.8506 98.0173L89.5342 97.74L81.1426 90.3816C81.0243 90.2779 81.0849 90.0804 81.2461 90.0652L92.3682 89.0359L92.7871 88.9968L92.9531 88.6111L97.3711 78.3708Z" fill="white" stroke="#053C5A" stroke-width="1.41667"/>
<path d="M86.1691 77.7377C86.7361 78.5238 88.3364 81.8997 89.2513 83.8671C89.3952 84.1764 89.0064 84.4558 88.7582 84.2215C87.1792 82.7314 84.4794 80.1455 83.9125 79.3593C83.4638 78.7373 83.6053 77.8701 84.2285 77.4223C84.8516 76.9744 85.7204 77.1157 86.1691 77.7377ZM108.909 77.7377C108.342 78.5238 106.741 81.8997 105.826 83.8671C105.682 84.1764 106.071 84.4558 106.319 84.2215C107.898 82.7314 110.598 80.1454 111.165 79.3593C111.614 78.7373 111.472 77.8701 110.849 77.4223C110.226 76.9744 109.357 77.1157 108.909 77.7377ZM117.868 100.789C116.946 100.489 113.237 99.993 111.081 99.7207C110.742 99.6779 110.594 100.133 110.893 100.297C112.795 101.346 116.083 103.128 117.006 103.428C117.736 103.666 118.521 103.268 118.759 102.539C118.997 101.81 118.598 101.027 117.868 100.789ZM77.2095 100.789C78.1321 100.489 81.8406 99.993 83.9964 99.7207C84.3352 99.6779 84.4838 100.133 84.1848 100.297C82.2827 101.346 78.9943 103.128 78.0717 103.428C77.3418 103.666 76.557 103.268 76.3189 102.539C76.0808 101.81 76.4796 101.027 77.2095 100.789ZM96.1911 116.451C96.1911 115.483 96.8685 111.81 97.2776 109.68C97.3419 109.345 97.821 109.345 97.8853 109.68C98.2944 111.81 98.9717 115.483 98.9717 116.451C98.9717 117.218 98.3493 117.839 97.5815 117.839C96.8136 117.839 96.1911 117.218 96.1911 116.451Z" fill="#053C5A"/>
</g>
<path d="M165.426 87.1163C164.216 87.1163 163.059 86.9348 161.955 86.5718C160.851 86.1937 159.981 85.7097 159.346 85.1198L160.186 83.3502C160.791 83.8796 161.562 84.3182 162.5 84.6661C163.437 85.0139 164.413 85.1879 165.426 85.1879C166.349 85.1879 167.098 85.082 167.672 84.8703C168.247 84.6585 168.671 84.3711 168.943 84.0081C169.215 83.63 169.351 83.2065 169.351 82.7376C169.351 82.1932 169.17 81.7545 168.807 81.4218C168.459 81.089 167.998 80.8243 167.423 80.6277C166.863 80.416 166.243 80.2345 165.563 80.0832C164.882 79.932 164.194 79.758 163.498 79.5614C162.817 79.3497 162.19 79.085 161.615 78.7674C161.055 78.4497 160.602 78.0262 160.254 77.4969C159.906 76.9524 159.732 76.2566 159.732 75.4096C159.732 74.5929 159.944 73.8442 160.367 73.1636C160.806 72.4678 161.471 71.9158 162.364 71.5074C163.271 71.0839 164.421 70.8722 165.812 70.8722C166.735 70.8722 167.65 70.9931 168.557 71.2351C169.465 71.4771 170.251 71.825 170.917 72.2788L170.168 74.0938C169.487 73.64 168.769 73.3148 168.013 73.1182C167.257 72.9065 166.523 72.8006 165.812 72.8006C164.92 72.8006 164.186 72.914 163.611 73.1409C163.037 73.3678 162.613 73.6703 162.341 74.0484C162.084 74.4265 161.955 74.85 161.955 75.3189C161.955 75.8785 162.129 76.3247 162.477 76.6574C162.84 76.9902 163.301 77.2549 163.861 77.4515C164.436 77.6481 165.063 77.8296 165.744 77.996C166.425 78.1472 167.105 78.3212 167.786 78.5178C168.482 78.7144 169.109 78.9715 169.669 79.2892C170.244 79.6068 170.705 80.0303 171.053 80.5597C171.401 81.089 171.575 81.7697 171.575 82.6015C171.575 83.4031 171.355 84.1518 170.917 84.8476C170.478 85.5282 169.798 86.0803 168.875 86.5038C167.967 86.9121 166.818 87.1163 165.426 87.1163ZM179.631 87.0709C178.602 87.0709 177.695 86.8819 176.908 86.5038C176.137 86.1256 175.532 85.5509 175.093 84.7795C174.67 83.993 174.458 83.0099 174.458 81.8302V74.9105H176.636V81.5806C176.636 82.7603 176.916 83.6451 177.476 84.235C178.05 84.8249 178.852 85.1198 179.88 85.1198C180.637 85.1198 181.295 84.9686 181.854 84.6661C182.414 84.3485 182.845 83.8947 183.147 83.3048C183.45 82.6998 183.601 81.9738 183.601 81.1268V74.9105H185.779V86.9348H183.715V83.6905L184.055 84.5526C183.662 85.3543 183.072 85.9744 182.285 86.413C181.499 86.8516 180.614 87.0709 179.631 87.0709ZM196.301 87.0709C195.272 87.0709 194.342 86.8441 193.51 86.3903C192.693 85.9214 192.043 85.2333 191.559 84.3258C191.09 83.4183 190.856 82.2839 190.856 80.9227C190.856 79.5614 191.098 78.427 191.582 77.5196C192.081 76.6121 192.739 75.9314 193.555 75.4777C194.387 75.0239 195.302 74.7971 196.301 74.7971C197.48 74.7971 198.524 75.0542 199.431 75.5684C200.339 76.0827 201.057 76.8011 201.587 77.7237C202.116 78.6312 202.381 79.6975 202.381 80.9227C202.381 82.1478 202.116 83.2216 201.587 84.1443C201.057 85.0669 200.339 85.7853 199.431 86.2996C198.524 86.8138 197.48 87.0709 196.301 87.0709ZM189.925 86.9348V70.1008H192.103V78.1094L191.877 80.9L192.013 83.6905V86.9348H189.925ZM196.119 85.1652C196.89 85.1652 197.579 84.9913 198.184 84.6434C198.804 84.2955 199.288 83.804 199.636 83.1687C199.999 82.5183 200.18 81.7697 200.18 80.9227C200.18 80.0605 199.999 79.3194 199.636 78.6993C199.288 78.064 198.804 77.5725 198.184 77.2246C197.579 76.8767 196.89 76.7028 196.119 76.7028C195.363 76.7028 194.675 76.8767 194.055 77.2246C193.45 77.5725 192.966 78.064 192.603 78.6993C192.255 79.3194 192.081 80.0605 192.081 80.9227C192.081 81.7697 192.255 82.5183 192.603 83.1687C192.966 83.804 193.45 84.2955 194.055 84.6434C194.675 84.9913 195.363 85.1652 196.119 85.1652ZM208.839 87.0709C207.84 87.0709 206.887 86.9348 205.98 86.6626C205.088 86.3903 204.384 86.0576 203.87 85.6643L204.777 83.9401C205.292 84.288 205.927 84.5829 206.683 84.8249C207.439 85.0669 208.211 85.1879 208.997 85.1879C210.011 85.1879 210.737 85.0442 211.175 84.7568C211.629 84.4695 211.856 84.0686 211.856 83.5544C211.856 83.1763 211.72 82.8813 211.448 82.6696C211.175 82.4578 210.812 82.299 210.359 82.1932C209.92 82.0873 209.428 81.9965 208.884 81.9209C208.339 81.8302 207.795 81.7243 207.25 81.6033C206.706 81.4672 206.207 81.2857 205.753 81.0588C205.299 80.8168 204.936 80.4916 204.664 80.0832C204.392 79.6597 204.256 79.1001 204.256 78.4044C204.256 77.6784 204.46 77.0431 204.868 76.4986C205.277 75.9541 205.851 75.5382 206.592 75.2508C207.349 74.9483 208.241 74.7971 209.27 74.7971C210.056 74.7971 210.85 74.8954 211.652 75.092C212.469 75.2735 213.134 75.5382 213.648 75.8861L212.718 77.6103C212.174 77.2473 211.606 76.9977 211.017 76.8616C210.427 76.7255 209.837 76.6574 209.247 76.6574C208.294 76.6574 207.583 76.8162 207.114 77.1339C206.645 77.4364 206.411 77.8296 206.411 78.3136C206.411 78.722 206.547 79.0396 206.819 79.2665C207.107 79.4782 207.47 79.6446 207.908 79.7656C208.362 79.8866 208.861 79.9925 209.406 80.0832C209.95 80.1589 210.495 80.2647 211.039 80.4008C211.584 80.5218 212.075 80.6958 212.514 80.9227C212.968 81.1495 213.331 81.4672 213.603 81.8755C213.89 82.2839 214.034 82.8284 214.034 83.509C214.034 84.235 213.822 84.8627 213.399 85.3921C212.975 85.9214 212.378 86.3374 211.606 86.6399C210.835 86.9273 209.912 87.0709 208.839 87.0709ZM221.997 87.0709C220.772 87.0709 219.675 86.8063 218.707 86.2769C217.754 85.7475 217.005 85.0215 216.461 84.0989C215.916 83.1763 215.644 82.1175 215.644 80.9227C215.644 79.7278 215.916 78.669 216.461 77.7464C217.005 76.8238 217.754 76.1054 218.707 75.5911C219.675 75.0618 220.772 74.7971 221.997 74.7971C223.086 74.7971 224.054 75.0164 224.901 75.455C225.763 75.8785 226.428 76.5137 226.897 77.3607L225.241 78.427C224.848 77.8372 224.364 77.4061 223.789 77.1339C223.229 76.8465 222.624 76.7028 221.974 76.7028C221.187 76.7028 220.484 76.8767 219.864 77.2246C219.244 77.5725 218.752 78.064 218.389 78.6993C218.026 79.3194 217.845 80.0605 217.845 80.9227C217.845 81.7848 218.026 82.5335 218.389 83.1687C218.752 83.804 219.244 84.2955 219.864 84.6434C220.484 84.9913 221.187 85.1652 221.974 85.1652C222.624 85.1652 223.229 85.0291 223.789 84.7568C224.364 84.4695 224.848 84.0308 225.241 83.441L226.897 84.4846C226.428 85.3164 225.763 85.9593 224.901 86.413C224.054 86.8516 223.086 87.0709 221.997 87.0709ZM229.717 86.9348V74.9105H231.804V78.1775L231.6 77.3607C231.933 76.5289 232.492 75.8936 233.279 75.455C234.065 75.0164 235.033 74.7971 236.183 74.7971V76.907C236.092 76.8919 236.001 76.8843 235.911 76.8843C235.835 76.8843 235.759 76.8843 235.684 76.8843C234.519 76.8843 233.596 77.2322 232.916 77.9279C232.235 78.6237 231.895 79.6295 231.895 80.9453V86.9348H229.717ZM238.867 86.9348V74.9105H241.045V86.9348H238.867ZM239.956 72.5964C239.533 72.5964 239.177 72.4603 238.89 72.188C238.618 71.9158 238.482 71.583 238.482 71.1898C238.482 70.7814 238.618 70.4411 238.89 70.1688C239.177 69.8966 239.533 69.7605 239.956 69.7605C240.38 69.7605 240.728 69.8966 241 70.1688C241.287 70.426 241.431 70.7512 241.431 71.1444C241.431 71.5528 241.295 71.9006 241.023 72.188C240.75 72.4603 240.395 72.5964 239.956 72.5964ZM251.579 87.0709C250.581 87.0709 249.666 86.8441 248.834 86.3903C248.017 85.9214 247.359 85.2333 246.86 84.3258C246.376 83.4183 246.134 82.2839 246.134 80.9227C246.134 79.5614 246.368 78.427 246.837 77.5196C247.321 76.6121 247.972 75.9314 248.788 75.4777C249.62 75.0239 250.55 74.7971 251.579 74.7971C252.759 74.7971 253.802 75.0542 254.71 75.5684C255.617 76.0827 256.336 76.8011 256.865 77.7237C257.394 78.6312 257.659 79.6975 257.659 80.9227C257.659 82.1478 257.394 83.2216 256.865 84.1443C256.336 85.0669 255.617 85.7853 254.71 86.2996C253.802 86.8138 252.759 87.0709 251.579 87.0709ZM245.204 91.3362V74.9105H247.291V78.1548L247.155 80.9453L247.382 83.7359V91.3362H245.204ZM251.397 85.1652C252.169 85.1652 252.857 84.9913 253.462 84.6434C254.082 84.2955 254.566 83.804 254.914 83.1687C255.277 82.5183 255.458 81.7697 255.458 80.9227C255.458 80.0605 255.277 79.3194 254.914 78.6993C254.566 78.064 254.082 77.5725 253.462 77.2246C252.857 76.8767 252.169 76.7028 251.397 76.7028C250.641 76.7028 249.953 76.8767 249.333 77.2246C248.728 77.5725 248.244 78.064 247.881 78.6993C247.533 79.3194 247.359 80.0605 247.359 80.9227C247.359 81.7697 247.533 82.5183 247.881 83.1687C248.244 83.804 248.728 84.2955 249.333 84.6434C249.953 84.9913 250.641 85.1652 251.397 85.1652ZM264.797 87.0709C263.587 87.0709 262.65 86.7458 261.984 86.0954C261.319 85.445 260.986 84.5148 260.986 83.3048V72.2788H263.164V83.2141C263.164 83.8645 263.323 84.3636 263.64 84.7115C263.973 85.0593 264.442 85.2333 265.047 85.2333C265.728 85.2333 266.295 85.0442 266.749 84.6661L267.429 86.2315C267.096 86.5189 266.696 86.7306 266.227 86.8668C265.773 87.0029 265.297 87.0709 264.797 87.0709ZM258.944 76.7028V74.9105H266.612V76.7028H258.944ZM270.062 86.9348V74.9105H272.24V86.9348H270.062ZM271.151 72.5964C270.728 72.5964 270.372 72.4603 270.085 72.188C269.813 71.9158 269.677 71.583 269.677 71.1898C269.677 70.7814 269.813 70.4411 270.085 70.1688C270.372 69.8966 270.728 69.7605 271.151 69.7605C271.575 69.7605 271.923 69.8966 272.195 70.1688C272.482 70.426 272.626 70.7512 272.626 71.1444C272.626 71.5528 272.49 71.9006 272.218 72.188C271.945 72.4603 271.59 72.5964 271.151 72.5964ZM281.549 87.0709C280.339 87.0709 279.265 86.8063 278.327 86.2769C277.39 85.7475 276.648 85.0215 276.104 84.0989C275.559 83.1611 275.287 82.1024 275.287 80.9227C275.287 79.7278 275.559 78.669 276.104 77.7464C276.648 76.8238 277.39 76.1054 278.327 75.5911C279.265 75.0618 280.339 74.7971 281.549 74.7971C282.744 74.7971 283.81 75.0618 284.748 75.5911C285.701 76.1054 286.442 76.8238 286.971 77.7464C287.516 78.6539 287.788 79.7127 287.788 80.9227C287.788 82.1175 287.516 83.1763 286.971 84.0989C286.442 85.0215 285.701 85.7475 284.748 86.2769C283.81 86.8063 282.744 87.0709 281.549 87.0709ZM281.549 85.1652C282.32 85.1652 283.008 84.9913 283.613 84.6434C284.234 84.2955 284.718 83.804 285.065 83.1687C285.413 82.5183 285.587 81.7697 285.587 80.9227C285.587 80.0605 285.413 79.3194 285.065 78.6993C284.718 78.064 284.234 77.5725 283.613 77.2246C283.008 76.8767 282.32 76.7028 281.549 76.7028C280.778 76.7028 280.089 76.8767 279.484 77.2246C278.879 77.5725 278.395 78.064 278.032 78.6993C277.669 79.3194 277.488 80.0605 277.488 80.9227C277.488 81.7697 277.669 82.5183 278.032 83.1687C278.395 83.804 278.879 84.2955 279.484 84.6434C280.089 84.9913 280.778 85.1652 281.549 85.1652ZM297.221 74.7971C298.204 74.7971 299.066 74.9861 299.807 75.3643C300.563 75.7424 301.153 76.3171 301.577 77.0885C302 77.8599 302.212 78.8354 302.212 80.0152V86.9348H300.034V80.2647C300.034 79.1001 299.746 78.2229 299.172 77.633C298.612 77.0431 297.818 76.7482 296.79 76.7482C296.018 76.7482 295.345 76.8994 294.77 77.2019C294.196 77.5044 293.749 77.9506 293.432 78.5405C293.129 79.1304 292.978 79.8639 292.978 80.7412V86.9348H290.8V74.9105H292.887V78.1548L292.547 77.2927C292.94 76.5062 293.545 75.8936 294.362 75.455C295.179 75.0164 296.132 74.7971 297.221 74.7971Z" fill="black"/>
<path fill-rule="evenodd" clip-rule="evenodd" d="M164.211 116.574C164.986 114.66 166.316 113.02 168.029 111.866C169.742 110.711 171.761 110.094 173.826 110.093C176.03 110.093 178.073 110.781 179.753 111.954C180.027 112.154 180.212 112.453 180.268 112.788C180.324 113.122 180.247 113.466 180.053 113.744C179.859 114.022 179.564 114.213 179.23 114.276C178.897 114.339 178.552 114.269 178.27 114.08C177.386 113.465 176.385 113.04 175.328 112.832C174.272 112.624 173.184 112.638 172.133 112.873C171.082 113.107 170.091 113.557 169.223 114.194C168.355 114.832 167.629 115.642 167.091 116.574H173.826C174.17 116.574 174.5 116.711 174.743 116.954C174.986 117.197 175.123 117.527 175.123 117.871C175.123 118.214 174.986 118.544 174.743 118.787C174.5 119.03 174.17 119.167 173.826 119.167H166.156C166.011 120.025 166.011 120.901 166.156 121.76H173.826C174.17 121.76 174.5 121.896 174.743 122.139C174.986 122.382 175.123 122.712 175.123 123.056C175.123 123.4 174.986 123.729 174.743 123.972C174.5 124.215 174.17 124.352 173.826 124.352H167.091C167.629 125.284 168.355 126.095 169.223 126.732C170.091 127.369 171.082 127.819 172.133 128.054C173.184 128.288 174.272 128.302 175.328 128.094C176.385 127.886 177.386 127.461 178.27 126.846C178.552 126.658 178.897 126.587 179.23 126.65C179.564 126.713 179.859 126.904 180.053 127.183C180.247 127.461 180.324 127.804 180.268 128.139C180.212 128.473 180.027 128.772 179.753 128.972C178.016 130.187 175.946 130.837 173.826 130.833C171.761 130.833 169.742 130.216 168.029 129.061C166.316 127.906 164.986 126.267 164.211 124.352H160.864C160.52 124.352 160.19 124.215 159.947 123.972C159.704 123.729 159.567 123.4 159.567 123.056C159.567 122.712 159.704 122.382 159.947 122.139C160.19 121.896 160.52 121.76 160.864 121.76H163.537C163.429 120.899 163.429 120.028 163.537 119.167H160.864C160.52 119.167 160.19 119.03 159.947 118.787C159.704 118.544 159.567 118.214 159.567 117.871C159.567 117.527 159.704 117.197 159.947 116.954C160.19 116.711 160.52 116.574 160.864 116.574H164.211Z" fill="#3CCDAA"/>
<path d="M190.951 129.255V111.759L192.485 113.347H186.967V110.413H194.45V129.255H190.951ZM197.946 129.255V126.913L205.428 119.807C206.056 119.215 206.523 118.695 206.828 118.246C207.133 117.797 207.33 117.385 207.42 117.008C207.528 116.613 207.582 116.245 207.582 115.904C207.582 115.043 207.286 114.379 206.693 113.912C206.101 113.428 205.231 113.186 204.083 113.186C203.167 113.186 202.333 113.347 201.579 113.67C200.844 113.993 200.207 114.487 199.668 115.151L197.219 113.266C197.954 112.279 198.941 111.517 200.18 110.978C201.436 110.422 202.835 110.144 204.379 110.144C205.742 110.144 206.927 110.368 207.932 110.817C208.954 111.248 209.735 111.867 210.273 112.674C210.83 113.482 211.108 114.442 211.108 115.554C211.108 116.164 211.027 116.775 210.866 117.385C210.704 117.977 210.399 118.605 209.95 119.269C209.502 119.933 208.847 120.677 207.985 121.503L201.552 127.613L200.826 126.294H211.835V129.255H197.946ZM220.099 129.524C218.771 129.524 217.47 129.336 216.196 128.959C214.94 128.564 213.881 128.026 213.02 127.344L214.5 124.625C215.182 125.181 216.007 125.63 216.976 125.971C217.963 126.312 218.986 126.482 220.045 126.482C221.283 126.482 222.252 126.222 222.952 125.702C223.67 125.181 224.029 124.482 224.029 123.602C224.029 123.01 223.876 122.49 223.571 122.041C223.284 121.593 222.764 121.252 222.01 121.018C221.274 120.785 220.26 120.668 218.968 120.668H214.419L215.388 110.413H226.451V113.347H216.68L218.511 111.678L217.784 119.35L215.954 117.708H219.749C221.615 117.708 223.113 117.959 224.244 118.461C225.392 118.946 226.227 119.628 226.747 120.507C227.286 121.368 227.555 122.355 227.555 123.468C227.555 124.562 227.286 125.567 226.747 126.482C226.209 127.398 225.383 128.133 224.271 128.69C223.176 129.246 221.786 129.524 220.099 129.524ZM237.433 129.524C235.943 129.524 234.597 129.147 233.395 128.394C232.211 127.64 231.278 126.545 230.596 125.11C229.914 123.656 229.573 121.898 229.573 119.834C229.573 117.77 229.914 116.021 230.596 114.585C231.278 113.132 232.211 112.028 233.395 111.275C234.597 110.521 235.943 110.144 237.433 110.144C238.94 110.144 240.286 110.521 241.47 111.275C242.655 112.028 243.588 113.132 244.27 114.585C244.969 116.021 245.319 117.77 245.319 119.834C245.319 121.898 244.969 123.656 244.27 125.11C243.588 126.545 242.655 127.64 241.47 128.394C240.286 129.147 238.94 129.524 237.433 129.524ZM237.433 126.482C238.312 126.482 239.075 126.249 239.721 125.783C240.367 125.298 240.869 124.562 241.228 123.575C241.605 122.589 241.793 121.341 241.793 119.834C241.793 118.309 241.605 117.062 241.228 116.093C240.869 115.106 240.367 114.379 239.721 113.912C239.075 113.428 238.312 113.186 237.433 113.186C236.589 113.186 235.836 113.428 235.172 113.912C234.526 114.379 234.014 115.106 233.637 116.093C233.279 117.062 233.099 118.309 233.099 119.834C233.099 121.341 233.279 122.589 233.637 123.575C234.014 124.562 234.526 125.298 235.172 125.783C235.836 126.249 236.589 126.482 237.433 126.482Z" fill="#3CCDAA"/>
<path d="M254.273 127.633L259.888 111.605H261.368L255.753 127.633H254.273ZM262.518 125.932V114.021H267.163C268.207 114.021 269.097 114.185 269.834 114.514C270.572 114.843 271.139 115.32 271.536 115.944C271.933 116.568 272.131 117.311 272.131 118.173C272.131 119.035 271.933 119.778 271.536 120.402C271.139 121.014 270.572 121.491 269.834 121.831C269.097 122.16 268.207 122.325 267.163 122.325H263.454L264.219 121.525V125.932H262.518ZM264.219 121.695L263.454 120.844H267.112C268.201 120.844 269.023 120.612 269.579 120.147C270.146 119.682 270.43 119.024 270.43 118.173C270.43 117.322 270.146 116.664 269.579 116.199C269.023 115.734 268.201 115.501 267.112 115.501H263.454L264.219 114.651V121.695ZM278.375 126.034C277.411 126.034 276.561 125.835 275.823 125.438C275.097 125.041 274.53 124.497 274.122 123.805C273.725 123.113 273.526 122.319 273.526 121.423C273.526 120.527 273.719 119.733 274.105 119.041C274.502 118.349 275.04 117.81 275.721 117.424C276.413 117.027 277.19 116.829 278.052 116.829C278.926 116.829 279.697 117.021 280.366 117.407C281.036 117.793 281.557 118.337 281.932 119.041C282.317 119.733 282.51 120.544 282.51 121.474C282.51 121.542 282.505 121.621 282.493 121.712C282.493 121.803 282.488 121.888 282.476 121.967H274.802V120.793H281.625L280.962 121.202C280.973 120.623 280.854 120.107 280.605 119.653C280.355 119.199 280.009 118.848 279.567 118.598C279.136 118.337 278.631 118.207 278.052 118.207C277.485 118.207 276.98 118.337 276.538 118.598C276.095 118.848 275.749 119.205 275.5 119.67C275.25 120.124 275.126 120.646 275.126 121.236V121.508C275.126 122.109 275.262 122.648 275.534 123.124C275.817 123.589 276.209 123.952 276.708 124.213C277.207 124.474 277.78 124.605 278.427 124.605C278.96 124.605 279.442 124.514 279.873 124.332C280.315 124.151 280.701 123.879 281.03 123.516L281.932 124.571C281.523 125.047 281.013 125.41 280.4 125.66C279.799 125.909 279.124 126.034 278.375 126.034ZM284.779 125.932V116.914H286.344V119.364L286.191 118.751C286.44 118.127 286.86 117.651 287.45 117.322C288.04 116.993 288.766 116.829 289.628 116.829V118.411C289.56 118.4 289.492 118.394 289.424 118.394C289.367 118.394 289.31 118.394 289.254 118.394C288.38 118.394 287.688 118.655 287.178 119.177C286.667 119.699 286.412 120.453 286.412 121.44V125.932H284.779ZM307.608 116.829C308.334 116.829 308.975 116.97 309.531 117.254C310.087 117.538 310.518 117.969 310.824 118.547C311.142 119.126 311.301 119.857 311.301 120.742V125.932H309.667V120.929C309.667 120.056 309.463 119.398 309.055 118.956C308.646 118.513 308.074 118.292 307.336 118.292C306.792 118.292 306.315 118.405 305.907 118.632C305.499 118.859 305.181 119.194 304.954 119.636C304.738 120.079 304.631 120.629 304.631 121.287V125.932H302.997V120.929C302.997 120.056 302.793 119.398 302.385 118.956C301.988 118.513 301.415 118.292 300.666 118.292C300.133 118.292 299.662 118.405 299.254 118.632C298.845 118.859 298.528 119.194 298.301 119.636C298.074 120.079 297.961 120.629 297.961 121.287V125.932H296.327V116.914H297.893V119.313L297.637 118.7C297.921 118.11 298.358 117.651 298.948 117.322C299.537 116.993 300.224 116.829 301.006 116.829C301.869 116.829 302.612 117.044 303.235 117.475C303.859 117.895 304.268 118.536 304.461 119.398L303.797 119.126C304.069 118.434 304.546 117.878 305.226 117.458C305.907 117.038 306.701 116.829 307.608 116.829ZM318.169 126.034C317.261 126.034 316.456 125.835 315.753 125.438C315.049 125.041 314.494 124.497 314.085 123.805C313.677 123.102 313.473 122.308 313.473 121.423C313.473 120.527 313.677 119.733 314.085 119.041C314.494 118.349 315.049 117.81 315.753 117.424C316.456 117.027 317.261 116.829 318.169 116.829C319.065 116.829 319.865 117.027 320.568 117.424C321.283 117.81 321.839 118.349 322.236 119.041C322.644 119.721 322.848 120.515 322.848 121.423C322.848 122.319 322.644 123.113 322.236 123.805C321.839 124.497 321.283 125.041 320.568 125.438C319.865 125.835 319.065 126.034 318.169 126.034ZM318.169 124.605C318.748 124.605 319.264 124.474 319.717 124.213C320.182 123.952 320.545 123.584 320.806 123.107C321.067 122.62 321.198 122.058 321.198 121.423C321.198 120.776 321.067 120.22 320.806 119.755C320.545 119.279 320.182 118.91 319.717 118.649C319.264 118.388 318.748 118.258 318.169 118.258C317.59 118.258 317.074 118.388 316.621 118.649C316.167 118.91 315.804 119.279 315.532 119.755C315.259 120.22 315.123 120.776 315.123 121.423C315.123 122.058 315.259 122.62 315.532 123.107C315.804 123.584 316.167 123.952 316.621 124.213C317.074 124.474 317.59 124.605 318.169 124.605ZM329.923 116.829C330.66 116.829 331.307 116.97 331.862 117.254C332.43 117.538 332.872 117.969 333.19 118.547C333.507 119.126 333.666 119.857 333.666 120.742V125.932H332.033V120.929C332.033 120.056 331.817 119.398 331.386 118.956C330.966 118.513 330.371 118.292 329.599 118.292C329.021 118.292 328.516 118.405 328.085 118.632C327.654 118.859 327.319 119.194 327.081 119.636C326.854 120.079 326.741 120.629 326.741 121.287V125.932H325.107V116.914H326.673V119.347L326.418 118.7C326.712 118.11 327.166 117.651 327.779 117.322C328.391 116.993 329.106 116.829 329.923 116.829ZM339.786 126.034C338.879 126.034 338.175 125.79 337.676 125.302C337.177 124.815 336.927 124.117 336.927 123.209V114.94H338.561V123.141C338.561 123.629 338.68 124.003 338.918 124.264C339.168 124.525 339.519 124.656 339.973 124.656C340.484 124.656 340.909 124.514 341.249 124.23L341.76 125.404C341.51 125.62 341.21 125.779 340.858 125.881C340.518 125.983 340.16 126.034 339.786 126.034ZM335.396 118.258V116.914H341.147V118.258H335.396ZM348.55 116.829C349.287 116.829 349.934 116.97 350.49 117.254C351.057 117.538 351.499 117.969 351.817 118.547C352.135 119.126 352.293 119.857 352.293 120.742V125.932H350.66V120.929C350.66 120.056 350.444 119.398 350.013 118.956C349.594 118.513 348.998 118.292 348.227 118.292C347.648 118.292 347.143 118.405 346.712 118.632C346.281 118.859 345.947 119.194 345.708 119.636C345.482 120.079 345.368 120.629 345.368 121.287V125.932H343.735V113.306H345.368V119.347L345.045 118.7C345.34 118.11 345.794 117.651 346.406 117.322C347.019 116.993 347.733 116.829 348.55 116.829Z" fill="#6A6D6F"/>
<rect x="326.778" y="173.778" width="185.111" height="54.4444" rx="27.2222" fill="#053C5A" stroke="#CBCBCB" stroke-width="1.55556"/>
<path d="M365.946 209.444V192.022H373.761C375.769 192.022 377.312 192.429 378.391 193.242C379.469 194.038 380.009 195.133 380.009 196.527C380.009 197.473 379.793 198.269 379.361 198.916C378.947 199.563 378.382 200.061 377.669 200.41C376.956 200.758 376.184 200.932 375.354 200.932L375.802 200.186C376.798 200.186 377.677 200.36 378.441 200.708C379.204 201.057 379.809 201.571 380.257 202.251C380.705 202.915 380.929 203.745 380.929 204.74C380.929 206.234 380.365 207.395 379.237 208.225C378.125 209.038 376.466 209.444 374.259 209.444H365.946ZM368.435 207.428H374.16C375.537 207.428 376.59 207.196 377.321 206.731C378.051 206.267 378.416 205.537 378.416 204.541C378.416 203.529 378.051 202.791 377.321 202.326C376.59 201.862 375.537 201.629 374.16 201.629H368.211V199.613H373.537C374.798 199.613 375.777 199.381 376.474 198.916C377.171 198.452 377.52 197.755 377.52 196.826C377.52 195.896 377.171 195.2 376.474 194.735C375.777 194.27 374.798 194.038 373.537 194.038H368.435V207.428ZM389.985 209.594C388.857 209.594 387.861 209.386 386.998 208.971C386.152 208.557 385.488 207.926 385.007 207.08C384.543 206.217 384.31 205.139 384.31 203.844V196.253H386.7V203.571C386.7 204.865 387.007 205.835 387.62 206.483C388.251 207.13 389.13 207.453 390.259 207.453C391.088 207.453 391.81 207.287 392.424 206.955C393.038 206.607 393.511 206.109 393.843 205.462C394.175 204.798 394.34 204.002 394.34 203.073V196.253H396.73V209.444H394.465V205.885L394.838 206.831C394.407 207.71 393.76 208.391 392.897 208.872C392.034 209.353 391.063 209.594 389.985 209.594ZM401.851 214.422C401.22 214.422 400.606 214.314 400.009 214.099C399.412 213.899 398.897 213.601 398.466 213.203L399.486 211.411C399.818 211.726 400.183 211.966 400.582 212.132C400.98 212.298 401.403 212.381 401.851 212.381C402.432 212.381 402.913 212.232 403.294 211.933C403.676 211.635 404.033 211.104 404.365 210.34L405.186 208.523L405.435 208.225L410.612 196.253H412.951L406.555 210.763C406.173 211.693 405.742 212.423 405.261 212.954C404.796 213.485 404.282 213.858 403.718 214.074C403.153 214.306 402.531 214.422 401.851 214.422ZM404.987 209.867L398.964 196.253H401.453L406.58 208.001L404.987 209.867ZM422.214 209.444V192.022H429.008C430.535 192.022 431.837 192.263 432.916 192.744C433.994 193.225 434.824 193.922 435.405 194.835C435.986 195.747 436.276 196.834 436.276 198.095C436.276 199.356 435.986 200.443 435.405 201.355C434.824 202.251 433.994 202.948 432.916 203.446C431.837 203.927 430.535 204.168 429.008 204.168H423.583L424.703 202.998V209.444H422.214ZM424.703 203.247L423.583 202.003H428.934C430.527 202.003 431.73 201.662 432.543 200.982C433.372 200.302 433.787 199.339 433.787 198.095C433.787 196.851 433.372 195.888 432.543 195.208C431.73 194.528 430.527 194.187 428.934 194.187H423.583L424.703 192.943V203.247ZM439.827 209.444V190.977H442.216V209.444H439.827ZM454.967 209.444V206.657L454.842 206.134V201.38C454.842 200.368 454.544 199.588 453.946 199.041C453.366 198.477 452.486 198.195 451.308 198.195C450.528 198.195 449.765 198.327 449.018 198.593C448.272 198.842 447.641 199.182 447.127 199.613L446.131 197.821C446.812 197.274 447.625 196.859 448.57 196.577C449.533 196.278 450.537 196.129 451.582 196.129C453.391 196.129 454.784 196.568 455.763 197.448C456.742 198.327 457.232 199.671 457.232 201.48V209.444H454.967ZM450.636 209.594C449.657 209.594 448.794 209.428 448.048 209.096C447.318 208.764 446.754 208.308 446.355 207.727C445.957 207.13 445.758 206.458 445.758 205.711C445.758 204.998 445.924 204.35 446.256 203.77C446.604 203.189 447.16 202.724 447.923 202.376C448.703 202.027 449.749 201.853 451.059 201.853H455.241V203.571H451.159C449.964 203.571 449.159 203.77 448.745 204.168C448.33 204.566 448.122 205.047 448.122 205.611C448.122 206.259 448.38 206.781 448.894 207.179C449.408 207.561 450.122 207.752 451.034 207.752C451.93 207.752 452.71 207.553 453.374 207.155C454.054 206.756 454.544 206.176 454.842 205.412L455.315 207.055C455 207.835 454.444 208.457 453.648 208.922C452.851 209.37 451.847 209.594 450.636 209.594ZM468.697 196.129C469.776 196.129 470.721 196.336 471.534 196.751C472.364 197.166 473.011 197.796 473.476 198.643C473.94 199.489 474.173 200.559 474.173 201.853V209.444H471.783V202.127C471.783 200.849 471.468 199.887 470.837 199.24C470.224 198.593 469.352 198.269 468.224 198.269C467.378 198.269 466.64 198.435 466.009 198.767C465.378 199.099 464.889 199.588 464.541 200.235C464.209 200.883 464.043 201.687 464.043 202.65V209.444H461.653V196.253H463.943V199.812L463.57 198.867C464.001 198.004 464.665 197.332 465.561 196.851C466.457 196.369 467.502 196.129 468.697 196.129Z" fill="white"/>
<defs>
<filter id="filter0_d_2416_2874" x="26" y="25" width="710" height="257" filterUnits="userSpaceOnUse" color-interpolation-filters="sRGB">
<feFlood flood-opacity="0" result="BackgroundImageFix"/>
<feColorMatrix in="SourceAlpha" type="matrix" values="0 0 0 0 0 0 0 0 0 0 0 0 0 0 0 0 0 0 127 0" result="hardAlpha"/>
<feOffset dy="4"/>
<feGaussianBlur stdDeviation="12"/>
<feComposite in2="hardAlpha" operator="out"/>
<feColorMatrix type="matrix" values="0 0 0 0 0 0 0 0 0 0 0 0 0 0 0 0 0 0 0.06 0"/>
<feBlend mode="normal" in2="BackgroundImageFix" result="effect1_dropShadow_2416_2874"/>
<feBlend mode="normal" in="SourceGraphic" in2="effect1_dropShadow_2416_2874" result="shape"/>
</filter>
<filter id="filter1_d_2416_2874" x="16" y="20" width="730" height="257" filterUnits="userSpaceOnUse" color-interpolation-filters="sRGB">
<feFlood flood-opacity="0" result="BackgroundImageFix"/>
<feColorMatrix in="SourceAlpha" type="matrix" values="0 0 0 0 0 0 0 0 0 0 0 0 0 0 0 0 0 0 127 0" result="hardAlpha"/>
<feOffset dy="4"/>
<feGaussianBlur stdDeviation="12"/>
<feComposite in2="hardAlpha" operator="out"/>
<feColorMatrix type="matrix" values="0 0 0 0 0 0 0 0 0 0 0 0 0 0 0 0 0 0 0.06 0"/>
<feBlend mode="normal" in2="BackgroundImageFix" result="effect1_dropShadow_2416_2874"/>
<feBlend mode="normal" in="SourceGraphic" in2="effect1_dropShadow_2416_2874" result="shape"/>
</filter>
<linearGradient id="paint0_linear_2416_2874" x1="0" y1="0" x2="746.654" y2="-6.85224e-06" gradientUnits="userSpaceOnUse">
<stop stop-color="#3CCDAA" stop-opacity="0.2"/>
<stop offset="1" stop-color="#053C5A" stop-opacity="0.2"/>
</linearGradient>
<linearGradient id="paint1_linear_2416_2874" x1="365.509" y1="-52.67" x2="452.534" y2="34.3045" gradientUnits="userSpaceOnUse">
<stop stop-color="#3CCDAA" stop-opacity="0.1"/>
<stop offset="1" stop-color="#3CCDAA" stop-opacity="0"/>
</linearGradient>
<linearGradient id="paint2_linear_2416_2874" x1="-55.7407" y1="-60.4155" x2="-55.7407" y2="113.635" gradientUnits="userSpaceOnUse">
<stop stop-color="#3CCDAA" stop-opacity="0.1"/>
<stop offset="1" stop-color="#3CCDAA" stop-opacity="0"/>
</linearGradient>
<linearGradient id="paint3_linear_2416_2874" x1="194.505" y1="-60.4155" x2="194.505" y2="185.175" gradientUnits="userSpaceOnUse">
<stop stop-color="#3CCDAA" stop-opacity="0.1"/>
<stop offset="1" stop-color="#3CCDAA" stop-opacity="0"/>
</linearGradient>
<linearGradient id="paint4_linear_2416_2874" x1="294.011" y1="18.8698" x2="381.036" y2="105.844" gradientUnits="userSpaceOnUse">
<stop stop-color="#3CCDAA" stop-opacity="0.1"/>
<stop offset="1" stop-color="#3CCDAA" stop-opacity="0"/>
</linearGradient>
<linearGradient id="paint5_linear_2416_2874" x1="758.742" y1="126.174" x2="774.228" y2="141.65" gradientUnits="userSpaceOnUse">
<stop stop-color="#3CCDAA" stop-opacity="0.1"/>
<stop offset="1" stop-color="#3CCDAA" stop-opacity="0"/>
</linearGradient>
<linearGradient id="paint6_linear_2416_2874" x1="766.494" y1="-60.4155" x2="766.494" y2="614.415" gradientUnits="userSpaceOnUse">
<stop stop-color="#3CCDAA" stop-opacity="0.1"/>
<stop offset="1" stop-color="#3CCDAA" stop-opacity="0"/>
</linearGradient>
<linearGradient id="paint7_linear_2416_2874" x1="301.752" y1="-60.4155" x2="301.752" y2="471.335" gradientUnits="userSpaceOnUse">
<stop stop-color="#3CCDAA" stop-opacity="0.1"/>
<stop offset="1" stop-color="#3CCDAA" stop-opacity="0"/>
</linearGradient>
<linearGradient id="paint8_linear_2416_2874" x1="87.2564" y1="440.364" x2="87.2564" y2="614.415" gradientUnits="userSpaceOnUse">
<stop stop-color="#3CCDAA" stop-opacity="0.1"/>
<stop offset="1" stop-color="#3CCDAA" stop-opacity="0"/>
</linearGradient>
<linearGradient id="paint9_linear_2416_2874" x1="301.752" y1="440.365" x2="301.752" y2="614.415" gradientUnits="userSpaceOnUse">
<stop stop-color="#3CCDAA" stop-opacity="0.1"/>
<stop offset="1" stop-color="#3CCDAA" stop-opacity="0"/>
</linearGradient>
<linearGradient id="paint10_linear_2416_2874" x1="551.998" y1="297.284" x2="551.998" y2="614.415" gradientUnits="userSpaceOnUse">
<stop stop-color="#3CCDAA" stop-opacity="0.1"/>
<stop offset="1" stop-color="#3CCDAA" stop-opacity="0"/>
</linearGradient>
<linearGradient id="paint11_linear_2416_2874" x1="337.502" y1="-60.4155" x2="337.502" y2="614.415" gradientUnits="userSpaceOnUse">
<stop stop-color="#3CCDAA" stop-opacity="0.1"/>
<stop offset="1" stop-color="#3CCDAA" stop-opacity="0"/>
</linearGradient>
<linearGradient id="paint12_linear_2416_2874" x1="107.699" y1="369.172" x2="218.255" y2="369.172" gradientUnits="userSpaceOnUse">
<stop stop-color="#3CCDAA" stop-opacity="0.2"/>
<stop offset="1" stop-color="#053C5A" stop-opacity="0.2"/>
</linearGradient>
<linearGradient id="paint13_linear_2416_2874" x1="108.828" y1="276" x2="108.828" y2="424.231" gradientUnits="userSpaceOnUse">
<stop stop-color="#3CCDAA" stop-opacity="0.2"/>
<stop offset="1" stop-color="#053C5A" stop-opacity="0.2"/>
</linearGradient>
<linearGradient id="paint14_linear_2416_2874" x1="196.269" y1="396.167" x2="196.269" y2="453.818" gradientUnits="userSpaceOnUse">
<stop stop-color="#3CCDAA"/>
<stop offset="1" stop-color="#053C5A"/>
</linearGradient>
<clipPath id="clip0_2416_2874">
<rect width="51.9432" height="66.826" fill="white" transform="translate(381 258.666) rotate(-22.2475)"/>
</clipPath>
<clipPath id="clip1_2416_2874">
<rect width="42.5777" height="42.5777" fill="white" transform="translate(76.25 76.2888)"/>
</clipPath>
</defs>
</svg>
