<svg width="216" height="200" viewBox="0 0 216 200" fill="none" xmlns="http://www.w3.org/2000/svg">
<ellipse cx="71.6635" cy="69" rx="62.5794" ry="62" fill="url(#paint0_linear_2254_6913)"/>
<g clip-path="url(#clip0_2254_6913)">
<path d="M196.774 65.5879H118.768V153.801H196.774V65.5879Z" fill="white"/>
<path d="M196.786 154.067H118.78C118.634 154.067 118.513 153.946 118.513 153.801V65.5882C118.513 65.4431 118.634 65.3223 118.78 65.3223H196.786C196.932 65.3223 197.054 65.4431 197.054 65.5882V153.801C197.054 153.946 196.932 154.067 196.786 154.067ZM119.047 153.535H196.519V65.854H119.047V153.535Z" fill="#053C5A"/>
<path d="M191.525 47.4961H84.1391L72.426 67.8483L200.128 68.1746L191.525 47.4961Z" fill="#053C5A"/>
<path d="M133.324 38.9766H49.5952V153.802H133.324V38.9766Z" fill="white"/>
<path d="M133.324 154.068H112.085C111.939 154.068 111.818 153.947 111.818 153.802C111.818 153.657 111.939 153.536 112.085 153.536H133.057V39.2427H49.8625V85.3493C49.8625 85.4943 49.741 85.6152 49.5952 85.6152C49.4494 85.6152 49.3279 85.4943 49.3279 85.3493V38.9768C49.3279 38.8318 49.4494 38.7109 49.5952 38.7109H133.324C133.47 38.7109 133.592 38.8318 133.592 38.9768V153.802C133.592 153.947 133.47 154.068 133.324 154.068Z" fill="#053C5A"/>
<path d="M49.4615 140.701C49.3157 140.701 49.1942 140.459 49.1942 140.169L49.34 81.6746C49.34 81.3845 49.4615 81.1428 49.6073 81.1428C49.7531 81.1428 49.8746 81.3845 49.8746 81.6746L49.7288 140.169C49.7288 140.471 49.6073 140.701 49.4615 140.701Z" fill="#053C5A"/>
<path d="M133.045 44.0892H49.8746L91.4536 6.01953L133.045 44.0892Z" fill="white"/>
<path d="M91.4537 6.01863L131.866 43.0127H138.44L91.4537 0L44.4799 43.0127H51.0533L91.4537 6.01863Z" fill="#053C5A"/>
<path d="M93.9446 28.365H88.9629C77.8938 28.365 68.9146 37.2963 68.9146 48.3063V52.3428H113.993V48.3063C113.993 37.2963 105.026 28.365 93.9446 28.365Z" fill="white"/>
<path d="M113.993 52.6207H68.9145C68.7687 52.6207 68.6472 52.4999 68.6472 52.3548V48.3182C68.6472 37.1753 77.7601 28.1111 88.9628 28.1111H93.9445C105.147 28.1111 114.26 37.1753 114.26 48.3182V52.3548C114.26 52.4999 114.151 52.6207 113.993 52.6207ZM69.194 52.0889H113.726V48.3182C113.726 37.4653 104.856 28.6429 93.9445 28.6429H88.9628C78.0517 28.6429 69.1818 37.4653 69.1818 48.3182V52.0889H69.194Z" fill="#053C5A"/>
<path d="M64.3389 98H57V143.345H64.3389V98Z" fill="white"/>
<path d="M120.936 98H113.597V143.345H120.936V98Z" fill="white"/>
<path d="M113.956 56.041H68.9023V74.4837H113.956V56.041Z" fill="white"/>
<path d="M113.956 74.7498H68.9023C68.7565 74.7498 68.635 74.6289 68.635 74.4839V56.0413C68.635 55.8962 68.7565 55.7754 68.9023 55.7754H113.956C114.102 55.7754 114.224 55.8962 114.224 56.0413V74.4839C114.236 74.6289 114.114 74.7498 113.956 74.7498ZM69.1696 74.218H113.689V56.3072H69.1696V74.218Z" fill="#053C5A"/>
<path d="M138.44 143.891H44.4799V156.919H138.44V143.891Z" fill="white"/>
<path d="M138.355 157.198H110.821C110.627 157.198 110.469 157.077 110.469 156.932C110.469 156.787 110.627 156.666 110.821 156.666H138.014V144.169L72.025 144.085C71.8306 144.085 71.6726 143.964 71.6726 143.819C71.6726 143.674 71.8306 143.553 72.025 143.553L138.367 143.638C138.561 143.638 138.719 143.758 138.719 143.903V156.932C138.707 157.077 138.549 157.198 138.355 157.198Z" fill="#053C5A"/>
<path d="M121.55 143.868C121.405 143.868 121.283 143.735 121.283 143.578V98.8731H57.6888V143.191C57.6888 143.348 57.5673 143.481 57.4215 143.481C57.2757 143.481 57.1542 143.348 57.1542 143.191V98.583C57.1542 98.4259 57.2757 98.293 57.4215 98.293H121.55C121.696 98.293 121.818 98.4259 121.818 98.583V143.578C121.818 143.735 121.708 143.868 121.55 143.868Z" fill="#053C5A"/>
<path d="M121.733 81.4453H57.4202V103.03H121.733V81.4453Z" fill="white"/>
<path d="M121.733 103.296H57.4201C57.2743 103.296 57.1528 103.176 57.1528 103.03V81.4456C57.1528 81.3005 57.2743 81.1797 57.4201 81.1797H121.733C121.878 81.1797 122 81.3005 122 81.4456V103.03C122 103.176 121.878 103.296 121.733 103.296ZM57.6875 102.765H121.453V81.7114H57.6875V102.765Z" fill="#053C5A"/>
<path d="M186.179 74.9297H153.154V102.666H186.179V74.9297Z" fill="#3CCDAA"/>
<path d="M186.179 102.92H153.154C153.008 102.92 152.887 102.799 152.887 102.654V74.9299C152.887 74.7849 153.008 74.6641 153.154 74.6641H186.179C186.325 74.6641 186.446 74.7849 186.446 74.9299V102.666C186.446 102.811 186.325 102.92 186.179 102.92ZM153.421 102.388H185.912V75.1958H153.421V102.388Z" fill="#053C5A"/>
<path d="M169.666 99.5849C169.521 99.5849 169.399 99.4641 169.399 99.3191V77.6858C169.399 77.5408 169.521 77.4199 169.666 77.4199C169.812 77.4199 169.934 77.5408 169.934 77.6858V99.3191C169.934 99.4641 169.824 99.5849 169.666 99.5849Z" fill="#053C5A"/>
<path d="M186.179 115.84H153.154V143.576H186.179V115.84Z" fill="#3CCDAA"/>
<path d="M186.179 143.842H153.154C153.008 143.842 152.887 143.722 152.887 143.577V115.84C152.887 115.695 153.008 115.574 153.154 115.574H186.179C186.325 115.574 186.446 115.695 186.446 115.84V143.577C186.446 143.722 186.325 143.842 186.179 143.842ZM153.421 143.311H185.912V116.106H153.421V143.311Z" fill="#053C5A"/>
<path d="M169.666 140.495C169.521 140.495 169.399 140.374 169.399 140.229V118.596C169.399 118.451 169.521 118.33 169.666 118.33C169.812 118.33 169.934 118.451 169.934 118.596V140.229C169.934 140.374 169.824 140.495 169.666 140.495Z" fill="#053C5A"/>
<path d="M39.4738 155.119C39.4738 156.775 39.8019 158.406 40.4459 159.941L41.1506 161.609C42.1348 163.953 44.091 165.766 46.509 166.576L56.9219 170.141H191.707L200.371 167.495C202.703 166.781 204.368 164.739 204.587 162.322L204.951 158.177C205 157.536 204.878 156.883 204.599 156.303C204.247 155.59 204.125 154.78 204.247 153.983L203.25 147.287C203.408 146.248 202.861 145.233 201.902 144.786L201.695 144.737C190.82 139.577 179.192 136.845 167.236 135.395L162.218 134.791L156.495 131.733C124.697 112.312 78.9751 110.305 45.0752 123.177L40.1299 133.824L41.1506 142.719L39.8262 149.523C39.5832 150.744 39.4617 151.989 39.4617 153.233V155.119H39.4738Z" fill="white"/>
<path d="M152.947 138.018L80.2995 135.468C73.884 135.251 67.3714 134.767 60.9195 134.054C60.1175 133.97 59.51 133.269 59.51 132.435V124.906C59.51 123.479 60.4334 122.247 61.7579 121.908C77.2133 117.956 93.3856 117.038 108.537 119.262C125.414 121.739 140.408 127.891 153.105 137.547C153.202 137.62 153.239 137.74 153.19 137.849C153.166 137.946 153.057 138.018 152.947 138.018ZM91.7817 118.609C81.9398 118.609 71.8792 119.854 61.9037 122.416C60.8223 122.694 60.0568 123.709 60.0568 124.893V132.423C60.0568 132.991 60.4577 133.462 60.9802 133.523C67.4078 134.236 73.9205 134.707 80.3116 134.937L152.109 137.463C135.511 125.099 114.199 118.609 91.7817 118.609Z" fill="#053C5A"/>
<path d="M40.446 132.688C44.4435 131.866 48.3681 133.051 50.5917 135.818C52.232 137.873 52.4628 140.193 52.4871 141.269C52.4871 141.269 52.0254 143.746 40.9442 142.804L39.8871 133.631C40.2273 133.425 40.4096 133.075 40.446 132.688Z" fill="white"/>
<path d="M45.4884 143.3C44.2126 143.3 42.7059 143.239 40.932 143.082C40.8105 143.07 40.7011 142.973 40.689 142.853L39.6319 133.68C39.6197 133.583 39.6683 133.486 39.7412 133.426C39.9842 133.257 40.13 132.979 40.1786 132.652C40.1908 132.544 40.2758 132.447 40.3852 132.423C44.5285 131.577 48.5139 132.809 50.7982 135.65C52.3413 137.583 52.7179 139.771 52.7544 141.269C52.7544 141.294 52.7544 141.306 52.7544 141.33C52.7179 141.559 52.1712 143.3 45.4884 143.3ZM41.1993 142.575C51.0655 143.384 52.1469 141.451 52.2319 141.245C52.1833 139.831 51.831 137.789 50.385 135.988C48.2587 133.341 44.5528 132.181 40.6768 132.918C40.6039 133.257 40.4216 133.559 40.1786 133.764L41.1993 142.575Z" fill="#053C5A"/>
<path d="M51.3449 142.224C50.2878 142.599 48.3195 143.384 40.9563 142.816L40.6039 139.698C40.6039 139.698 39.9599 135.601 43.5808 137.148C47.5783 138.852 51.3449 142.224 51.3449 142.224Z" fill="white"/>
<path d="M187.916 144.471C187.758 144.362 187.819 144.121 188.014 144.096C189.01 143.963 190.018 143.734 192.57 143.951C195.194 144.181 199.131 145.474 200.784 146.344C201.221 146.574 201.233 147.069 201.233 147.565C201.233 147.782 201.185 148.242 201.124 148.459C200.978 149.027 200.371 149.354 199.787 149.354H196.252C194.32 149.354 191.185 148.749 189.63 147.613L187.916 144.471Z" fill="white"/>
<path d="M199.8 149.631H195C193.007 149.631 191.1 149.015 189.484 147.843C189.447 147.819 189.423 147.794 189.411 147.758L187.71 144.664C187.588 144.543 187.54 144.374 187.576 144.205C187.625 144.012 187.783 143.879 187.989 143.842C188.123 143.83 188.257 143.806 188.39 143.782C189.314 143.649 190.371 143.504 192.606 143.697C195.328 143.927 199.265 145.257 200.893 146.103L200.93 146.115C201.525 146.429 201.598 146.936 201.525 147.601L201.416 148.508C201.355 149.233 200.541 149.631 199.8 149.631ZM189.848 147.444C191.355 148.532 193.141 149.1 195 149.1H199.8C200.298 149.1 200.844 148.858 200.869 148.459L200.978 147.541C201.051 146.912 200.942 146.731 200.674 146.586L200.638 146.574C199.058 145.752 195.219 144.459 192.558 144.229C190.383 144.036 189.362 144.181 188.463 144.314C188.354 144.326 188.257 144.338 188.159 144.362L189.848 147.444Z" fill="#053C5A"/>
<path d="M120.663 140.798L110.846 140.557C110.323 140.545 109.777 140.496 109.218 140.4C109.084 140.375 108.987 140.267 108.987 140.134V138.708C108.987 138.635 109.011 138.563 109.072 138.514C109.12 138.466 109.193 138.442 109.266 138.442L120.676 138.708C120.821 138.708 120.943 138.828 120.943 138.973V140.508C120.943 140.581 120.919 140.653 120.858 140.702C120.797 140.774 120.736 140.798 120.663 140.798ZM109.521 139.916C109.971 139.977 110.421 140.013 110.858 140.025L120.396 140.254V139.251L109.521 138.998V139.916Z" fill="#053C5A"/>
<path d="M198.864 162.915C198.414 162.915 198.001 162.649 197.819 162.226C197.382 161.186 196.628 159.144 196.434 157.077C196.41 156.763 196.519 156.437 196.738 156.207C196.968 155.965 197.284 155.844 197.612 155.857C199.058 155.929 200.954 156.074 201.792 156.425C202.533 156.727 202.995 157.5 202.91 158.286C202.509 161.996 200.055 162.757 199.01 162.902C198.973 162.902 198.925 162.915 198.864 162.915ZM196.981 157.029C197.163 159.023 197.892 161.017 198.317 162.02C198.427 162.274 198.682 162.419 198.949 162.383C200.091 162.214 202.047 161.452 202.388 158.237C202.448 157.681 202.12 157.15 201.598 156.932C201.002 156.69 199.581 156.497 197.6 156.4C197.418 156.388 197.26 156.461 197.139 156.582C197.017 156.69 196.956 156.86 196.981 157.029Z" fill="#053C5A"/>
<path d="M153.154 162.733C153.154 152.666 161.356 144.508 171.477 144.508C181.598 144.508 189.8 152.666 189.8 162.733C189.8 165.356 189.241 167.857 188.232 170.117L187.941 170.202H154.758C153.725 167.918 153.154 165.392 153.154 162.733Z" fill="white"/>
<path d="M187.941 170.468H154.758C154.648 170.468 154.551 170.408 154.515 170.311C153.433 167.918 152.887 165.368 152.887 162.733C152.887 152.533 161.234 144.242 171.477 144.242C181.732 144.242 190.067 152.545 190.067 162.733C190.067 165.344 189.532 167.858 188.475 170.226C188.439 170.299 188.378 170.347 188.305 170.372L188.014 170.456C188.002 170.468 187.977 170.468 187.941 170.468ZM154.928 169.936H187.904L188.05 169.888C189.046 167.628 189.545 165.211 189.545 162.721C189.545 152.811 181.44 144.762 171.489 144.762C161.526 144.762 153.433 152.823 153.433 162.721C153.421 165.235 153.932 167.664 154.928 169.936Z" fill="#053C5A"/>
<path d="M53.617 167.131H48.6231C48.2708 165.717 48.0885 164.242 48.0885 162.732C48.0885 152.664 56.3022 144.494 66.4236 144.494C76.545 144.494 84.7587 152.664 84.7587 162.732C84.7587 165.39 84.1876 167.928 83.1548 170.2H53.6291V167.131H53.617Z" fill="white"/>
<path d="M83.1427 170.467H53.617C53.4712 170.467 53.3497 170.346 53.3497 170.201V167.397H48.611C48.4895 167.397 48.3802 167.313 48.3559 167.192C47.9913 165.742 47.8091 164.231 47.8091 162.72C47.8091 152.52 56.1565 144.217 66.4115 144.217C76.6665 144.217 85.0139 152.52 85.0139 162.72C85.0139 165.355 84.4671 167.917 83.3857 170.298C83.3493 170.407 83.2521 170.467 83.1427 170.467ZM53.8843 169.935H82.9604C83.9689 167.663 84.4671 165.234 84.4671 162.732C84.4671 152.822 76.3627 144.761 66.3993 144.761C56.4359 144.761 48.3316 152.822 48.3316 162.732C48.3316 164.122 48.4895 165.524 48.8176 166.865H53.6049C53.7507 166.865 53.8722 166.986 53.8722 167.131V169.935H53.8843Z" fill="#053C5A"/>
<path d="M151.076 135.829L148.282 132.482C147.893 132.01 147.309 131.744 146.69 131.744H144.211C143.154 131.744 142.267 132.53 142.158 133.569L141.975 135.237C141.927 135.684 142.024 136.144 142.267 136.53C142.632 137.135 143.288 137.509 144.005 137.509C146.665 137.545 153.057 137.606 152.923 137.4C152.789 137.195 151.817 136.434 151.404 136.119C151.271 136.047 151.173 135.95 151.076 135.829Z" fill="white"/>
<path d="M141.963 135.249L142.146 133.581C142.267 132.542 143.142 131.756 144.199 131.756H146.678C147.297 131.756 147.881 132.034 148.269 132.493L151.064 135.841C151.076 135.829 145.851 135.176 141.963 135.249Z" fill="white"/>
<path d="M151.076 135.829L148.282 132.482C147.893 132.01 147.309 131.744 146.69 131.744H144.211C143.154 131.744 142.267 132.53 142.158 133.569L141.975 135.237C141.927 135.684 142.024 136.144 142.267 136.53C142.632 137.135 143.288 137.509 144.005 137.509C146.665 137.545 153.057 137.606 152.923 137.4C152.789 137.195 151.817 136.434 151.404 136.119C151.271 136.047 151.173 135.95 151.076 135.829Z" fill="white"/>
<path d="M149.12 137.836C147.856 137.836 146.192 137.824 143.992 137.787C143.19 137.775 142.449 137.364 142.036 136.676C141.769 136.24 141.647 135.721 141.708 135.213L141.89 133.545C142.024 132.361 143.02 131.479 144.211 131.479H146.69C147.382 131.479 148.039 131.781 148.488 132.313L151.283 135.66C151.368 135.757 151.465 135.854 151.562 135.926C152.486 136.639 153.02 137.099 153.13 137.268C153.19 137.352 153.19 137.473 153.142 137.558C153.069 137.715 152.996 137.836 149.12 137.836ZM144.211 132.011C143.288 132.011 142.522 132.699 142.425 133.606L142.243 135.274C142.194 135.66 142.291 136.071 142.498 136.398C142.826 136.929 143.385 137.244 144.005 137.256C148.84 137.316 151.38 137.292 152.352 137.244C152.109 137.038 151.744 136.736 151.234 136.349C151.1 136.24 150.979 136.132 150.87 135.999L148.075 132.651C147.735 132.24 147.224 132.011 146.69 132.011H144.211Z" fill="#053C5A"/>
<path d="M189.241 170.468H53.3497C52.6693 170.468 52.3412 170.443 52.2683 170.165C52.1954 169.912 52.4384 169.767 52.6815 169.622C52.803 169.549 53.0824 169.38 53.1189 169.295C53.1189 169.295 53.0217 169.174 52.5478 169.017L46.2052 166.89C43.7144 166.056 41.6974 164.183 40.6889 161.766L39.9842 160.098C39.3281 158.527 39 156.871 39 155.179V153.294C39 152.037 39.1215 150.768 39.3645 149.523L40.6768 142.767L39.7047 134.344C39.5954 133.425 43.9452 123.237 44.9294 122.85C45.0388 122.814 54.3339 119.817 57.5173 119.164C96.2531 111.139 124.892 114.729 156.362 131.564L162.036 134.597L167.005 135.202C179.35 136.7 189.144 138.634 199.775 143.686L202.375 144.737C203.396 145.221 204.064 151.977 204.247 154.031C204.247 154.055 204.247 154.067 204.247 154.092C204.137 154.829 204.247 155.578 204.575 156.255C204.878 156.883 205.012 157.572 204.951 158.273L204.587 162.419C204.368 164.957 202.643 167.084 200.188 167.821L193.664 169.815C192.254 170.238 190.76 170.468 189.241 170.468ZM53.1918 169.936C53.2404 169.936 53.289 169.936 53.3497 169.936H189.241C190.699 169.936 192.145 169.718 193.542 169.295L200.067 167.301C202.303 166.612 203.882 164.679 204.089 162.358L204.453 158.213C204.502 157.621 204.38 157.016 204.125 156.472C203.749 155.711 203.615 154.865 203.736 154.031C203.384 150.019 202.691 145.523 202.181 145.209L199.581 144.157C188.998 139.142 179.253 137.208 166.957 135.721L161.939 135.117C161.902 135.117 161.878 135.105 161.841 135.093L156.119 132.035C124.782 115.248 96.241 111.671 57.6389 119.672C54.5526 120.312 45.622 123.177 45.136 123.334C44.4191 123.829 40.1786 133.28 40.2393 134.271L41.2114 142.731C41.2114 142.755 41.2114 142.779 41.2114 142.816L39.887 149.62C39.6561 150.828 39.5346 152.061 39.5346 153.282V155.167C39.5346 156.799 39.8505 158.382 40.4824 159.881L41.1871 161.548C42.1348 163.821 44.0303 165.585 46.3875 166.371L52.7301 168.498C53.1432 168.631 53.617 168.848 53.6656 169.235C53.6899 169.549 53.4469 169.767 53.1918 169.936Z" fill="#053C5A"/>
<path d="M66.4116 179C75.4439 179 82.7661 171.716 82.7661 162.732C82.7661 153.748 75.4439 146.465 66.4116 146.465C57.3792 146.465 50.057 153.748 50.057 162.732C50.057 171.716 57.3792 179 66.4116 179Z" fill="#053C5A"/>
<path d="M66.4116 173.67C72.4846 173.67 77.4078 168.773 77.4078 162.733C77.4078 156.692 72.4846 151.795 66.4116 151.795C60.3386 151.795 55.4154 156.692 55.4154 162.733C55.4154 168.773 60.3386 173.67 66.4116 173.67Z" fill="white"/>
<path d="M66.4116 173.936C60.2027 173.936 55.1481 168.909 55.1481 162.733C55.1481 156.557 60.2027 151.53 66.4116 151.53C72.6205 151.53 77.6751 156.557 77.6751 162.733C77.6872 168.909 72.6326 173.936 66.4116 173.936ZM66.4116 152.049C60.4943 152.049 55.6827 156.835 55.6827 162.721C55.6827 168.607 60.4943 173.392 66.4116 173.392C72.3289 173.392 77.1405 168.607 77.1405 162.721C77.1405 156.835 72.3289 152.049 66.4116 152.049Z" fill="#053C5A"/>
<path d="M66.4115 171.518C71.2901 171.518 75.2449 167.584 75.2449 162.732C75.2449 157.879 71.2901 153.946 66.4115 153.946C61.533 153.946 57.5781 157.879 57.5781 162.732C57.5781 167.584 61.533 171.518 66.4115 171.518Z" fill="white"/>
<path d="M66.4115 171.772C61.3934 171.772 57.3108 167.712 57.3108 162.72C57.3108 157.729 61.3934 153.668 66.4115 153.668C71.4297 153.668 75.5122 157.729 75.5122 162.72C75.5122 167.712 71.4297 171.772 66.4115 171.772ZM66.4115 154.212C61.6971 154.212 57.8576 158.031 57.8576 162.72C57.8576 167.41 61.6971 171.229 66.4115 171.229C71.1259 171.229 74.9655 167.41 74.9655 162.72C74.9655 158.031 71.1381 154.212 66.4115 154.212Z" fill="#053C5A"/>
<path d="M171.477 179C180.509 179 187.831 171.716 187.831 162.732C187.831 153.748 180.509 146.465 171.477 146.465C162.445 146.465 155.122 153.748 155.122 162.732C155.122 171.716 162.445 179 171.477 179Z" fill="#053C5A"/>
<path d="M171.477 173.67C177.55 173.67 182.473 168.773 182.473 162.733C182.473 156.692 177.55 151.795 171.477 151.795C165.404 151.795 160.481 156.692 160.481 162.733C160.481 168.773 165.404 173.67 171.477 173.67Z" fill="white"/>
<path d="M171.477 173.936C165.268 173.936 160.213 168.909 160.213 162.733C160.213 156.557 165.268 151.53 171.477 151.53C177.686 151.53 182.74 156.557 182.74 162.733C182.753 168.909 177.698 173.936 171.477 173.936ZM171.477 152.049C165.56 152.049 160.748 156.835 160.748 162.721C160.748 168.607 165.56 173.392 171.477 173.392C177.394 173.392 182.206 168.607 182.206 162.721C182.206 156.835 177.394 152.049 171.477 152.049Z" fill="#053C5A"/>
<path d="M171.477 171.518C176.356 171.518 180.31 167.584 180.31 162.732C180.31 157.879 176.356 153.946 171.477 153.946C166.598 153.946 162.644 157.879 162.644 162.732C162.644 167.584 166.598 171.518 171.477 171.518Z" fill="white"/>
<path d="M171.477 171.772C166.459 171.772 162.376 167.712 162.376 162.72C162.376 157.729 166.459 153.668 171.477 153.668C176.495 153.668 180.578 157.729 180.578 162.72C180.578 167.712 176.495 171.772 171.477 171.772ZM171.477 154.212C166.763 154.212 162.923 158.031 162.923 162.72C162.923 167.41 166.763 171.229 171.477 171.229C176.191 171.229 180.031 167.41 180.031 162.72C180.031 158.031 176.203 154.212 171.477 154.212Z" fill="#053C5A"/>
<path d="M70.0931 97.6161C69.1332 96.9031 68.6229 95.9 68.5378 94.5826H72.3531C72.3895 95.0298 72.5232 95.3561 72.7541 95.5616C72.9849 95.767 73.2887 95.8637 73.6532 95.8637C73.9813 95.8637 74.2486 95.7791 74.4673 95.622C74.6738 95.4528 74.7832 95.2353 74.7832 94.9452C74.7832 94.5705 74.6009 94.2805 74.2607 94.075C73.9084 93.8696 73.3373 93.64 72.5475 93.3862C71.7091 93.1082 71.0287 92.8423 70.5184 92.5764C69.9959 92.3226 69.5463 91.9359 69.1697 91.4283C68.793 90.9328 68.5986 90.2681 68.5986 89.4583C68.5986 88.6365 68.8052 87.9356 69.2183 87.3434C69.6314 86.7632 70.2025 86.3161 70.9315 86.0139C71.6605 85.7118 72.4868 85.5547 73.4102 85.5547C74.9047 85.5547 76.0954 85.9052 76.9946 86.594C77.8937 87.295 78.3676 88.2619 78.4283 89.5188H74.5523C74.5402 89.132 74.4187 88.842 74.2 88.6486C73.9691 88.4552 73.6897 88.3585 73.3373 88.3585C73.07 88.3585 72.8513 88.4431 72.6812 88.5882C72.5111 88.7453 72.426 88.9749 72.426 89.265C72.426 89.5067 72.5232 89.7121 72.7055 89.8934C72.8877 90.0747 73.1307 90.2197 73.4102 90.3527C73.6897 90.4856 74.1028 90.6427 74.6495 90.8361C75.4636 91.1141 76.1319 91.392 76.6665 91.6579C77.2011 91.9238 77.6507 92.3105 78.0274 92.794C78.404 93.2895 78.5984 93.9058 78.5984 94.6552C78.5984 95.4165 78.404 96.1054 78.0274 96.7097C77.6507 97.314 77.0918 97.7974 76.3749 98.1479C75.6459 98.4984 74.7953 98.6676 73.8112 98.6676C72.2802 98.6797 71.053 98.3292 70.0931 97.6161Z" fill="#053C5A"/>
<path d="M88.3553 96.4676H83.7989L83.1063 98.5463H79.3518L84.0297 85.7598H88.1488L92.8267 98.5463H89.06L88.3553 96.4676ZM87.4683 93.7484L86.0832 89.6151L84.7223 93.7484H87.4683Z" fill="#053C5A"/>
<path d="M97.5653 95.8267H101.563V98.546H94.0052V85.7715H97.5653V95.8267Z" fill="#053C5A"/>
<path d="M106.508 88.6116V90.6903H110.615V93.3975H106.508V95.7059H111.15V98.546H102.924V85.7715H111.15V88.6116H106.508Z" fill="#053C5A"/>
</g>
<ellipse cx="119" cy="190" rx="36" ry="2" fill="#053C5A"/>
<defs>
<linearGradient id="paint0_linear_2254_6913" x1="9.08411" y1="7" x2="131.722" y2="7" gradientUnits="userSpaceOnUse">
<stop stop-color="#3CCDAA" stop-opacity="0.2"/>
<stop offset="1" stop-color="#053C5A" stop-opacity="0.2"/>
</linearGradient>
<clipPath id="clip0_2254_6913">
<rect width="166" height="179" fill="white" transform="translate(39)"/>
</clipPath>
</defs>
</svg>
