<svg width="216" height="200" viewBox="0 0 216 200" fill="none" xmlns="http://www.w3.org/2000/svg">
<g clip-path="url(#clip0_2254_7125)">
<g clip-path="url(#clip1_2254_7125)">
<circle cx="68.9945" cy="74.1678" r="60.9412" fill="url(#paint0_linear_2254_7125)"/>
<path d="M147.171 3.23633H122.514V95.8858H147.171V3.23633Z" fill="white"/>
<path d="M147.171 96.1106H122.514C122.391 96.1106 122.288 96.0075 122.288 95.8839V3.23444C122.288 3.11083 122.391 3.00781 122.514 3.00781H147.171C147.294 3.00781 147.397 3.11083 147.397 3.23444V95.8839C147.397 96.0075 147.294 96.1106 147.171 96.1106ZM122.741 95.6573H146.944V3.46107H122.741V95.6573Z" fill="#053C5A"/>
<path d="M142.447 7.9375H127.701V14.2831H142.447V7.9375Z" fill="#053C5A"/>
<path d="M122.535 95.88H111.545V10.3383L122.535 3.23047V95.88Z" fill="white"/>
<path d="M122.535 96.1084H111.545C111.421 96.1084 111.318 96.0054 111.318 95.8818V10.3401C111.318 10.2577 111.36 10.1959 111.421 10.1444L122.412 3.03653C122.484 2.99533 122.566 2.98503 122.648 3.02623C122.72 3.06744 122.772 3.13954 122.772 3.22195V95.8715C122.761 96.0054 122.659 96.1084 122.535 96.1084ZM111.771 95.6551H122.309V3.65461L111.771 10.4637V95.6551Z" fill="#053C5A"/>
<path d="M157.862 18.6582H118.419V166.873H157.862V18.6582Z" fill="white"/>
<path d="M157.852 167.097H118.419C118.295 167.097 118.192 166.994 118.192 166.871V18.6563C118.192 18.5327 118.295 18.4297 118.419 18.4297H157.862C157.986 18.4297 158.089 18.5327 158.089 18.6563V166.871C158.079 166.994 157.986 167.097 157.852 167.097ZM118.645 166.644H157.636V18.8829H118.645V166.644Z" fill="#053C5A"/>
<path d="M118.439 166.869H100.853V30.0269L118.439 18.6543V166.869Z" fill="white"/>
<path d="M118.439 167.099H100.853C100.729 167.099 100.626 166.996 100.626 166.872V30.0301C100.626 29.9477 100.668 29.8859 100.729 29.8344L118.326 18.4721C118.398 18.4309 118.48 18.4206 118.563 18.4618C118.635 18.503 118.686 18.5751 118.686 18.6575V166.872C118.676 166.996 118.573 167.099 118.439 167.099ZM101.079 166.645H118.213V19.0799L101.079 30.1537V166.645Z" fill="#053C5A"/>
<path d="M151.729 39.5371H123.595V45.9857H151.729V39.5371Z" fill="#3CCDAA"/>
<path d="M151.729 66.332H123.595V72.7806H151.729V66.332Z" fill="#053C5A"/>
<path d="M151.729 93.123H123.595V99.5716H151.729V93.123Z" fill="#3CCDAA"/>
<path d="M151.729 119.928H123.595V126.376H151.729V119.928Z" fill="#053C5A"/>
<path d="M151.729 146.721H123.595V153.169H151.729V146.721Z" fill="#3CCDAA"/>
<path d="M109.939 61.1895H70.4957V166.88H109.939V61.1895Z" fill="white"/>
<path d="M109.939 167.095H70.4957C70.3722 167.095 70.2693 166.992 70.2693 166.869V61.1778C70.2693 61.0542 70.3722 60.9512 70.4957 60.9512H109.939C110.063 60.9512 110.166 61.0542 110.166 61.1778V166.869C110.166 166.992 110.063 167.095 109.939 167.095ZM70.7221 166.642H109.713V61.4147H70.7221V166.642Z" fill="#053C5A"/>
<path d="M70.5266 166.868H52.94V72.5498L70.5266 61.1875V166.868Z" fill="white"/>
<path d="M70.5266 167.096H52.94C52.8165 167.096 52.7136 166.993 52.7136 166.87V72.5516C52.7136 72.4692 52.7548 72.4074 52.8165 72.3559L70.4031 60.9936C70.4751 60.9524 70.5575 60.9421 70.6398 60.9833C70.7118 61.0245 70.7633 61.0966 70.7633 61.179V166.87C70.753 166.993 70.6501 167.096 70.5266 167.096ZM53.1664 166.643H70.3002V61.6013L53.1664 72.6752V166.643Z" fill="#053C5A"/>
<path d="M158.593 55.6155C157.451 55.5537 156.113 55.8525 153.448 56.4602C151.04 57.0062 150.371 57.3771 150.073 58.0054C149.589 59.0356 150.309 60.3129 150.525 60.6941C151.76 62.8573 154.014 63.1458 155.506 64.1244C160.322 67.3178 157.863 72.7568 161.855 76.1459C165.652 79.3805 169.203 75.5794 176.036 78.6697C181.418 81.1008 180.913 84.2221 185.297 85.6025C190.659 87.2816 199.056 85.0256 202.452 78.2783C205.693 71.8606 203.45 63.29 199.076 61.1061C195.104 59.118 192.037 63.5063 186.717 61.446C181.479 59.4167 181.078 53.7922 176.993 53.854C176.015 53.8746 176.221 54.194 169.789 56.522C166.805 57.6037 166.455 57.6449 166.126 57.6655C162.936 57.8818 162.267 55.8216 158.593 55.6155Z" fill="#053C5A"/>
<path d="M159.385 169.812V176.601L162.648 176.405L163.296 169.812H159.385Z" fill="white"/>
<path d="M159.386 176.826C159.324 176.826 159.272 176.805 159.231 176.764C159.19 176.723 159.159 176.661 159.159 176.599V169.811C159.159 169.687 159.262 169.584 159.386 169.584H163.286C163.347 169.584 163.409 169.615 163.45 169.656C163.491 169.708 163.512 169.769 163.512 169.831L162.874 176.414C162.864 176.527 162.771 176.609 162.658 176.62L159.396 176.815C159.396 176.826 159.396 176.826 159.386 176.826ZM159.612 170.037V176.352L162.442 176.177L163.039 170.037H159.612Z" fill="#053C5A"/>
<path d="M163.142 185.061C161.814 185.205 159.643 185.298 157.111 184.855C156.278 184.71 155.753 183.886 155.979 183.072C156.617 180.806 157.873 176.593 158.871 174.574L159.468 175.676L160.044 174.564C160.126 174.43 160.27 174.1 160.6 174.131L161.577 174.152C161.835 174.131 162.051 174.368 162.195 174.646L162.792 175.748L163.502 174.45L164.387 183.505C164.469 184.288 163.913 184.978 163.142 185.061Z" fill="white"/>
<path d="M160.867 185.411C159.756 185.411 158.459 185.328 157.06 185.092C156.597 185.009 156.195 184.741 155.948 184.35C155.701 183.958 155.629 183.474 155.753 183.031C156.278 181.177 157.595 176.634 158.655 174.502C158.696 174.43 158.768 174.378 158.85 174.378C158.943 174.378 159.015 174.419 159.056 174.492L159.458 175.223L159.869 174.43C159.962 174.265 160.178 173.884 160.62 173.925L161.567 173.946C161.794 173.925 162.113 174.028 162.39 174.553L162.781 175.285L163.286 174.358C163.337 174.265 163.43 174.224 163.533 174.244C163.625 174.265 163.708 174.347 163.718 174.44L164.603 183.495C164.695 184.391 164.037 185.195 163.152 185.298C162.545 185.359 161.773 185.411 160.867 185.411ZM158.881 175.089C157.873 177.314 156.679 181.414 156.195 183.145C156.103 183.474 156.154 183.814 156.329 184.103C156.514 184.391 156.803 184.587 157.142 184.638C159.622 185.071 161.763 184.989 163.111 184.834C163.759 184.762 164.222 184.185 164.16 183.536L163.347 175.223L162.998 175.872C162.956 175.944 162.884 175.996 162.802 175.996C162.72 175.996 162.637 175.954 162.606 175.872L162.01 174.77C161.948 174.656 161.783 174.378 161.608 174.399C161.598 174.399 161.588 174.399 161.577 174.399L160.6 174.378C160.456 174.368 160.373 174.461 160.271 174.646L160.24 174.698L159.663 175.8C159.622 175.872 159.55 175.923 159.468 175.923C159.375 175.923 159.303 175.882 159.262 175.81L158.881 175.089Z" fill="#053C5A"/>
<path d="M159.982 183.876C159.005 183.876 157.904 183.783 156.823 183.495C156.7 183.464 156.628 183.34 156.658 183.217C156.689 183.093 156.813 183.021 156.936 183.052C160.003 183.856 163.286 183.062 163.316 183.052C163.44 183.021 163.563 183.093 163.594 183.217C163.625 183.34 163.553 183.464 163.43 183.495C163.337 183.516 161.886 183.876 159.982 183.876Z" fill="#053C5A"/>
<path d="M161.845 180.352H158.871C158.747 180.352 158.645 180.249 158.645 180.125C158.645 180.001 158.747 179.898 158.871 179.898H161.845C161.968 179.898 162.071 180.001 162.071 180.125C162.071 180.249 161.968 180.352 161.845 180.352Z" fill="#053C5A"/>
<path d="M183.383 166.227L184.34 174.406L187.396 174.303V166.227H183.383Z" fill="white"/>
<path d="M184.34 174.634C184.227 174.634 184.124 174.551 184.114 174.438L183.146 166.259C183.136 166.197 183.157 166.125 183.198 166.084C183.239 166.032 183.301 166.012 183.373 166.012H187.396C187.52 166.012 187.623 166.115 187.623 166.238V174.315C187.623 174.438 187.53 174.541 187.407 174.541L184.34 174.634C184.35 174.634 184.35 174.634 184.34 174.634ZM183.63 166.455L184.536 174.17L187.16 174.078V166.455H183.63Z" fill="#053C5A"/>
<path d="M183.62 172.463C183.62 172.463 183.229 176.099 183.352 177.562C183.435 178.613 184.875 181.765 185.678 183.475C186.007 184.175 186.645 184.629 187.345 184.66C188.199 184.701 189.393 184.742 190.36 184.742C191.688 184.742 192.593 183.238 192.12 181.837C191.688 180.539 190.988 178.922 189.907 177.191C189.084 175.893 187.89 172.35 187.89 172.35H185.4L184.906 174.42L183.62 172.463Z" fill="white"/>
<path d="M190.36 184.967C189.382 184.967 188.178 184.926 187.335 184.885C186.553 184.854 185.832 184.349 185.472 183.566C184.628 181.784 183.208 178.642 183.126 177.571C183.002 176.108 183.383 172.585 183.393 172.431C183.404 172.338 183.476 172.256 183.568 172.235C183.661 172.214 183.754 172.256 183.815 172.328L184.813 173.842L185.184 172.286C185.205 172.183 185.297 172.111 185.4 172.111H187.89C187.983 172.111 188.076 172.173 188.106 172.266C188.117 172.297 189.3 175.789 190.103 177.056C191.039 178.55 191.801 180.126 192.346 181.753C192.614 182.546 192.49 183.422 192.017 184.081C191.595 184.648 190.998 184.967 190.36 184.967ZM183.774 173.121C183.671 174.223 183.476 176.479 183.568 177.54C183.63 178.271 184.474 180.404 185.873 183.381C186.172 184.009 186.738 184.411 187.345 184.442C188.178 184.483 189.382 184.524 190.35 184.524C190.844 184.524 191.307 184.277 191.626 183.834C192.017 183.288 192.12 182.577 191.893 181.918C191.358 180.332 190.617 178.776 189.701 177.313C188.961 176.149 187.952 173.286 187.715 172.575H185.565L185.122 174.47C185.102 174.563 185.03 174.625 184.937 174.645C184.844 174.656 184.762 174.625 184.711 174.542L183.774 173.121Z" fill="#053C5A"/>
<path d="M188.456 183.4C187.201 183.4 186.614 182.535 186.234 181.772C185.647 180.598 184.834 179.063 184.824 179.043C184.762 178.929 184.803 178.795 184.916 178.734C185.03 178.672 185.163 178.713 185.225 178.826C185.235 178.837 186.059 180.382 186.635 181.566C187.108 182.535 187.654 182.936 188.446 182.936H190.586C190.71 182.936 190.813 183.039 190.813 183.163C190.813 183.287 190.71 183.39 190.586 183.39L188.456 183.4Z" fill="#053C5A"/>
<path d="M189.979 180.443H187.252C187.129 180.443 187.026 180.34 187.026 180.217C187.026 180.093 187.129 179.99 187.252 179.99H189.979C190.103 179.99 190.206 180.093 190.206 180.217C190.206 180.34 190.113 180.443 189.979 180.443Z" fill="#053C5A"/>
<path d="M154.148 101.981C154.148 101.981 154.477 126.951 155.516 143.206C156.566 159.462 158.634 171.885 158.634 171.885C158.634 171.885 162.195 173.162 164.531 172.493C164.531 172.493 166.465 158.236 166.908 153.415C167.35 148.594 166.177 146.204 166.085 142.259C165.982 138.313 167.783 120.894 167.783 120.894C167.783 120.894 181.191 160.265 182.724 168.959C182.724 168.959 185.976 169.516 188.261 168.259C188.261 168.259 188.333 152.776 188.004 150.386C187.407 145.957 183.949 141.589 183.321 136.881C182.704 132.174 182.344 120.358 180.625 113.271C178.917 106.184 175.562 98.2207 175.562 98.2207L154.148 101.981Z" fill="#053C5A"/>
<path d="M176.025 110.769C175.984 110.769 175.953 110.759 175.912 110.738C172.146 108.688 171.024 104.98 170.983 104.825C170.952 104.701 171.014 104.578 171.137 104.547C171.261 104.516 171.384 104.578 171.415 104.701C171.425 104.743 172.527 108.389 176.128 110.347C176.241 110.408 176.283 110.542 176.221 110.656C176.18 110.728 176.108 110.769 176.025 110.769Z" fill="white"/>
<path d="M181.047 122.862C180.934 122.862 180.841 122.78 180.821 122.667C179.637 113.581 176.633 106.823 175.398 104.341C175.346 104.227 175.387 104.093 175.501 104.032C175.614 103.98 175.748 104.021 175.809 104.135C177.054 106.638 180.09 113.457 181.274 122.605C181.294 122.728 181.202 122.842 181.078 122.862C181.068 122.862 181.057 122.862 181.047 122.862Z" fill="white"/>
<path d="M114.313 82.8213C114.488 82.2135 115.29 82.7389 115.815 82.8316C116.134 82.8934 116.566 81.2761 114.91 80.246C113.86 79.5867 112.738 78.6493 113.181 77.7118C113.356 77.341 113.86 77.3204 114.56 77.4337C116.062 77.6603 118.285 78.2578 119.582 82.1208C119.952 83.223 121.701 84.418 121.743 84.624C121.907 85.5202 121.115 85.8704 120.477 86.4576C120.415 86.5194 119.119 85.4378 116.783 84.8712C115.558 84.5828 114.158 83.3878 114.313 82.8213Z" fill="white"/>
<path d="M120.477 86.694C120.374 86.694 120.261 86.6218 120.076 86.5085C119.582 86.2098 118.439 85.5093 116.721 85.0973C115.671 84.8397 114.58 84.0053 114.22 83.3872C114.086 83.1503 114.045 82.9443 114.097 82.7589C114.148 82.5735 114.251 82.4498 114.395 82.3777C114.694 82.2232 115.064 82.3571 115.435 82.4807C115.568 82.5219 115.692 82.5734 115.795 82.5941C115.836 82.5219 115.908 82.3262 115.887 82.0275C115.856 81.6669 115.681 80.9871 114.797 80.4411C113.181 79.4316 112.574 78.4839 112.975 77.6185C113.232 77.0829 113.901 77.1035 114.601 77.2065C116.361 77.4743 118.542 78.2675 119.798 82.0481C120.024 82.7383 120.899 83.5109 121.424 83.9744C121.825 84.3247 121.938 84.438 121.969 84.5719C122.123 85.4166 121.578 85.8492 121.043 86.2716C120.909 86.3849 120.765 86.4879 120.631 86.6115C120.58 86.6733 120.528 86.694 120.477 86.694ZM114.529 82.8928C114.519 82.9134 114.508 82.9958 114.611 83.1606C114.92 83.686 115.928 84.438 116.824 84.6543C118.614 85.087 119.798 85.808 120.302 86.1171C120.343 86.1377 120.384 86.1686 120.415 86.1892C120.518 86.0965 120.631 86.0141 120.734 85.9317C121.28 85.499 121.588 85.2312 121.496 84.7058C121.444 84.6337 121.259 84.4792 121.094 84.3247C120.508 83.7993 119.612 83.0061 119.345 82.2026C118.172 78.6796 116.237 77.9276 114.508 77.6598C113.809 77.5567 113.469 77.5979 113.366 77.8143C113.006 78.5972 114.056 79.4625 115.013 80.0599C116.33 80.884 116.464 82.0893 116.227 82.6971C116.073 83.0885 115.826 83.0782 115.754 83.0679C115.599 83.037 115.424 82.9752 115.26 82.9237C115.023 82.8413 114.704 82.728 114.58 82.7898C114.591 82.7898 114.56 82.8001 114.529 82.8928Z" fill="#053C5A"/>
<path d="M151.709 74.3811C151.709 74.3811 154.93 72.8153 159.859 72.4033C162.092 72.2179 164.85 72.3312 167.453 72.5166C167.453 72.5166 177.466 98.8054 177.466 100.546C177.466 102.287 173.247 104.512 167.587 103.091C162.781 101.885 156.874 101.597 152.727 102.122L151.709 74.3811Z" fill="white"/>
<path d="M171.148 103.783C170.046 103.783 168.842 103.649 167.536 103.319C163.059 102.196 157.122 101.805 152.758 102.351C152.635 102.361 152.522 102.279 152.501 102.155C152.48 102.032 152.573 101.918 152.697 101.898C157.173 101.341 163.039 101.723 167.638 102.876C171.528 103.855 174.832 103.072 176.375 101.867C176.931 101.434 177.229 100.971 177.229 100.548C177.229 99.2091 170.757 81.8515 167.278 72.7349C164.078 72.5082 161.721 72.4773 159.869 72.6318C155.033 73.0336 151.822 74.5685 151.791 74.5891C151.678 74.6406 151.544 74.5994 151.493 74.4861C151.441 74.3728 151.482 74.2388 151.596 74.1873C151.626 74.1667 154.909 72.6009 159.828 72.1889C161.732 72.0344 164.15 72.0653 167.453 72.3022C167.546 72.3125 167.618 72.364 167.649 72.4464C168.06 73.5177 177.682 98.797 177.682 100.559C177.682 101.115 177.312 101.712 176.653 102.238C175.603 103.051 173.679 103.783 171.148 103.783Z" fill="#053C5A"/>
<path d="M152.728 102.132C151.987 102.225 151.297 102.338 150.69 102.483C144.629 103.904 151.709 74.3809 151.709 74.3809L152.728 102.132Z" fill="white"/>
<path d="M150.289 102.763C149.856 102.763 149.486 102.609 149.167 102.289C145.678 98.7765 151.256 75.3308 151.493 74.3419C151.523 74.2183 151.647 74.1462 151.77 74.1771C151.894 74.208 151.966 74.3316 151.935 74.4552C151.873 74.6921 146.183 98.6425 149.496 101.98C149.805 102.289 150.186 102.392 150.649 102.279C151.266 102.135 151.956 102.011 152.707 101.918C152.83 101.898 152.944 101.99 152.964 102.114C152.985 102.238 152.892 102.351 152.769 102.372C152.028 102.464 151.349 102.578 150.752 102.722C150.587 102.742 150.433 102.763 150.289 102.763Z" fill="white"/>
<path d="M152.728 102.136C152.583 90.9486 152.367 73.7249 152.367 73.7249C152.367 73.7249 149.064 73.7764 147.593 75.8778C146.121 77.9793 140.554 86.6426 134.143 86.7456C127.742 86.8487 121.722 82.8827 121.722 82.8827L119.273 87.065C119.273 87.065 122.288 94.3789 130.757 97.1293C137.847 99.4368 144.608 94.348 146.625 92.6277L152.728 102.136Z" fill="white"/>
<path d="M152.728 102.363C152.604 102.363 152.501 102.26 152.501 102.137C152.367 91.712 152.172 76.0644 152.141 73.9629C151.39 74.0247 148.951 74.3338 147.778 76.0026C147.685 76.1262 147.582 76.2807 147.469 76.4455C145.689 79.0208 140.286 86.8704 134.143 86.9631C134.06 86.9631 133.978 86.9631 133.896 86.9631C128.246 86.9631 122.895 83.8624 121.804 83.1928L119.53 87.0661C119.932 87.952 123.101 94.3903 130.829 96.9038C137.827 99.1804 144.577 94.0607 146.471 92.4434C146.563 92.361 146.708 92.3713 146.79 92.464C146.872 92.5567 146.862 92.7009 146.769 92.7833C144.824 94.4418 137.909 99.6749 130.685 97.3262C122.216 94.5757 119.098 87.2103 119.067 87.1279C119.036 87.0661 119.047 86.9837 119.077 86.9219L121.527 82.7396C121.557 82.6881 121.609 82.6469 121.671 82.6366C121.732 82.6263 121.794 82.6366 121.846 82.6675C121.907 82.7087 127.876 86.5923 134.132 86.4893C140.039 86.3965 145.349 78.6912 147.088 76.1674C147.201 75.9923 147.304 75.8481 147.397 75.7244C148.92 73.5612 152.213 73.4788 152.357 73.4788C152.419 73.4788 152.481 73.4994 152.522 73.5406C152.563 73.5818 152.594 73.6436 152.594 73.7054C152.594 73.7054 152.81 90.9291 152.954 102.116C152.964 102.26 152.861 102.363 152.728 102.363Z" fill="#053C5A"/>
<path d="M146.985 92.2537C147.376 91.9241 147.222 92.0683 147.222 92.0683L146.491 108.787C146.491 108.787 152.851 111.713 152.851 111.507C152.851 111.435 152.8 107.901 152.738 102.565L146.985 92.2537Z" fill="white"/>
<path d="M152.861 111.735C152.594 111.735 151.585 111.395 146.399 108.995C146.317 108.954 146.265 108.871 146.265 108.779L146.975 92.482C146.913 92.482 146.852 92.4511 146.81 92.3996C146.728 92.3069 146.738 92.1627 146.831 92.0803C147.14 91.8124 147.263 91.7197 147.418 91.8845C147.438 91.9051 147.521 92.0185 147.448 92.1524L146.728 108.645C148.725 109.561 151.74 110.921 152.614 111.22C152.614 111.045 152.604 110.798 152.604 110.489C152.583 109.067 152.542 106.244 152.501 102.557C152.501 102.433 152.604 102.33 152.728 102.33C152.861 102.33 152.954 102.433 152.954 102.557C153.005 106.234 153.036 109.067 153.057 110.489C153.067 111.127 153.067 111.488 153.067 111.508C153.067 111.591 153.026 111.663 152.954 111.704C152.944 111.725 152.923 111.735 152.861 111.735Z" fill="white"/>
<path d="M155.918 89.641C155.444 90.1149 156.319 90.7124 156.659 91.2274C156.864 91.5365 156.587 91.7734 156.206 91.6395C155.115 91.2583 151.513 89.9089 150.669 90.8463C150.371 91.1759 150.546 91.8352 151.091 92.443C152.234 93.71 155.815 95.1934 157.852 95.554C159.056 95.7703 160.991 96.718 161.207 96.6665C162.113 96.4193 162.041 95.4098 162.267 94.462C162.288 94.3693 160.672 93.504 159.005 91.2893C158.14 90.1355 156.35 89.2084 155.918 89.641Z" fill="white"/>
<path d="M161.176 96.892C161.022 96.892 160.775 96.7993 160.096 96.5315C159.416 96.2636 158.47 95.8928 157.801 95.7795C155.619 95.388 152.069 93.884 150.916 92.5964C150.289 91.8959 150.124 91.113 150.505 90.6907C151.307 89.8047 153.921 90.5773 156.113 91.3602L156.288 91.422C156.422 91.4735 156.504 91.4426 156.515 91.422C156.515 91.422 156.515 91.3911 156.484 91.3499C156.401 91.2263 156.278 91.0924 156.154 90.9585C155.784 90.5464 155.269 89.9799 155.774 89.4854C155.907 89.3515 156.103 89.2897 156.36 89.3103C157.183 89.3721 158.521 90.2271 159.211 91.1542C160.435 92.7921 161.639 93.678 162.154 94.0489C162.452 94.2652 162.545 94.3373 162.504 94.5124C162.452 94.7081 162.421 94.9142 162.39 95.1099C162.267 95.8722 162.133 96.6551 161.279 96.8817C161.238 96.892 161.207 96.892 161.176 96.892ZM151.709 90.7422C151.287 90.7422 150.999 90.8246 150.844 90.9997C150.659 91.2057 150.772 91.7414 151.266 92.2976C152.326 93.4926 155.804 94.9657 157.893 95.3365C158.603 95.4601 159.571 95.8413 160.271 96.1194C160.631 96.2636 161.042 96.4284 161.166 96.4388C161.691 96.2842 161.794 95.8001 161.917 95.0378C161.948 94.873 161.969 94.7081 162.01 94.533C161.969 94.5021 161.907 94.4609 161.855 94.4197C161.32 94.0283 160.085 93.1114 158.82 91.422C158.161 90.5361 156.926 89.8047 156.298 89.7635C156.185 89.7532 156.103 89.7738 156.072 89.8047C155.907 89.9696 156.051 90.1859 156.473 90.6494C156.607 90.7937 156.741 90.9482 156.844 91.1027C156.988 91.3087 156.988 91.5353 156.864 91.7105C156.71 91.9062 156.432 91.9577 156.134 91.8547L155.959 91.7929C153.993 91.0924 152.573 90.7422 151.709 90.7422Z" fill="#053C5A"/>
<path d="M172.619 85.3968C171.858 82.0798 170.458 78.6186 170.047 76.7644C169.203 72.9632 171.199 73.0765 171.199 73.0765C171.199 73.0765 175.48 75.2398 178.577 80.9158C181.16 85.6544 182.817 95.3066 177.085 99.695L172.619 85.3968Z" fill="white"/>
<path d="M177.085 99.9194C177.013 99.9194 176.952 99.8885 176.9 99.8267C176.828 99.7236 176.838 99.5794 176.941 99.5073C180.09 97.0968 180.739 93.2442 180.718 90.4319C180.697 86.6204 179.493 83.0665 178.372 81.0166C175.521 75.7835 171.611 73.5482 171.137 73.2906C171.024 73.3009 170.705 73.3421 170.448 73.6615C170.139 74.0323 169.851 74.8667 170.263 76.7106C170.438 77.5038 170.808 78.6061 171.22 79.8834C171.775 81.5625 172.403 83.458 172.835 85.3431C172.866 85.4667 172.784 85.5903 172.66 85.6109C172.537 85.6418 172.413 85.5594 172.393 85.4358C171.961 83.5713 171.343 81.6861 170.788 80.0173C170.366 78.7297 169.995 77.6172 169.81 76.8034C169.45 75.1758 169.542 74.0117 170.098 73.3524C170.561 72.8065 171.168 72.8271 171.199 72.8374C171.23 72.8374 171.261 72.8477 171.292 72.858C171.333 72.8786 175.676 75.1139 178.773 80.7899C181.551 85.8788 182.972 95.4486 177.219 99.8576C177.178 99.8988 177.137 99.9194 177.085 99.9194Z" fill="white"/>
<path d="M177.085 99.6949C175.953 100.56 174.554 101.219 172.856 101.601C166.085 103.105 160.446 96.6663 160.446 96.6663L161.958 93.4008C161.958 93.4008 168.122 94.6473 170.973 93.4008C173.525 92.278 173.432 88.9095 172.63 85.3967L177.085 99.6949Z" fill="white"/>
<path d="M170.788 102.052C164.922 102.052 160.322 96.8809 160.271 96.8191C160.209 96.7469 160.199 96.6542 160.24 96.5718L161.752 93.3063C161.794 93.2136 161.897 93.1621 161.999 93.1827C162.061 93.193 168.122 94.4086 170.87 93.193C172.887 92.3071 173.391 89.773 172.393 85.4465C172.362 85.3229 172.444 85.1992 172.568 85.1786C172.691 85.1477 172.815 85.2301 172.835 85.3538C173.885 89.9275 173.309 92.6264 171.055 93.6257C168.41 94.7897 163.131 93.8729 162.082 93.6772L160.703 96.6439C161.485 97.4783 166.712 102.742 172.794 101.393C174.389 101.043 175.789 100.414 176.941 99.5283C177.044 99.4562 177.188 99.4665 177.26 99.5695C177.332 99.6725 177.322 99.8167 177.219 99.8888C176.015 100.806 174.564 101.465 172.897 101.836C172.187 101.98 171.477 102.052 170.788 102.052Z" fill="#053C5A"/>
<path d="M177.25 99.7864C177.178 99.7864 177.116 99.7555 177.065 99.6937C176.993 99.5907 177.013 99.4465 177.106 99.3744C181.613 95.9647 180.934 90.2475 180.934 90.196C180.913 90.0723 181.006 89.959 181.129 89.9384C181.253 89.9178 181.366 90.0105 181.387 90.1341C181.397 90.1959 182.107 96.1604 177.384 99.7349C177.343 99.7761 177.301 99.7864 177.25 99.7864Z" fill="#053C5A"/>
<path d="M158.717 63.3998C158.573 63.5028 158.367 63.4616 158.284 63.2968C157.904 62.5345 157.276 61.0408 156.206 60.876C154.837 60.6699 152.625 60.433 152.522 61.5044C152.429 62.4521 152.738 64.0488 151.843 65.2952C151.76 65.4188 151.853 65.5836 151.976 65.6661L152.635 66.1399C152.769 66.2326 152.913 66.552 152.933 66.7168C153.016 67.2215 153.17 68.2929 153.355 68.4165C153.715 68.6637 155.413 68.4268 155.413 68.4268L157.379 73.4744C157.441 73.6495 157.348 73.8453 157.173 73.8968L155.588 74.5766C155.588 74.5766 156.782 75.854 160.837 75.2771C162.534 75.0299 163.852 73.7525 164.562 72.8975C164.819 72.5885 164.623 72.1249 164.232 72.0837C162.72 71.9086 159.777 71.0021 158.943 66.6447C158.922 66.5108 158.964 66.3768 159.067 66.2944C159.447 65.9648 160.466 64.9862 160.209 64.09C159.941 63.1526 159.211 63.0598 158.717 63.3998Z" fill="white"/>
<path d="M158.871 75.6694C156.319 75.6694 155.465 74.7938 155.424 74.7423C155.372 74.6908 155.352 74.6084 155.372 74.5362C155.383 74.4641 155.434 74.4023 155.506 74.3714L157.091 73.6915C157.142 73.6709 157.163 73.6503 157.163 73.6297C157.173 73.6194 157.183 73.5885 157.163 73.5473L155.259 68.6645C154.714 68.7263 153.582 68.8293 153.222 68.5924C153.016 68.4585 152.913 68.0155 152.748 67.006C152.728 66.903 152.717 66.8206 152.707 66.7382C152.676 66.594 152.563 66.357 152.501 66.3158L151.832 65.8317C151.709 65.7493 151.606 65.605 151.585 65.4608C151.565 65.3475 151.585 65.2342 151.657 65.1415C152.285 64.2762 152.275 63.1843 152.265 62.3087C152.265 61.9996 152.265 61.7112 152.285 61.4639C152.316 61.2064 152.429 60.9901 152.645 60.8253C153.366 60.269 155.033 60.4441 156.237 60.6295C157.327 60.7944 157.965 62.0923 158.377 62.9576L158.48 63.174C158.49 63.1946 158.501 63.1946 158.521 63.2049C158.542 63.2152 158.562 63.2049 158.583 63.1946C158.912 62.9679 159.283 62.9061 159.622 63.0297C159.89 63.1224 160.24 63.3697 160.425 64.0084C160.703 64.9664 159.787 65.945 159.211 66.4498C159.169 66.4807 159.149 66.5425 159.159 66.5837C159.952 70.7351 162.689 71.6622 164.243 71.8373C164.51 71.8682 164.737 72.0433 164.84 72.2906C164.942 72.5378 164.901 72.8159 164.726 73.022C164.057 73.8255 162.668 75.2264 160.857 75.484C160.116 75.6282 159.447 75.6694 158.871 75.6694ZM156.051 74.6393C156.607 74.9483 157.996 75.4634 160.806 75.0616C162.462 74.8247 163.759 73.5164 164.387 72.7644C164.479 72.6511 164.449 72.5378 164.428 72.4863C164.387 72.3936 164.304 72.3318 164.202 72.3112C162.514 72.1154 159.571 71.1265 158.717 66.6867C158.676 66.4807 158.748 66.2643 158.912 66.1201C159.303 65.7699 160.199 64.8943 159.993 64.1526C159.89 63.792 159.705 63.5551 159.468 63.4727C159.272 63.4006 159.036 63.4418 158.84 63.586C158.717 63.6787 158.552 63.6993 158.408 63.6684C158.264 63.6272 158.14 63.5345 158.079 63.4006C158.048 63.3285 158.007 63.2564 157.976 63.1843C157.595 62.4117 157.029 61.2373 156.175 61.1034C154.456 60.8356 153.366 60.8768 152.933 61.2064C152.82 61.2991 152.758 61.4021 152.748 61.5361C152.728 61.7627 152.728 62.0408 152.728 62.3293C152.738 63.2667 152.748 64.4204 152.038 65.4093C152.048 65.4299 152.069 65.4608 152.1 65.4711L152.769 65.9553C152.975 66.0892 153.129 66.491 153.16 66.6764C153.17 66.7588 153.191 66.8515 153.201 66.9442C153.252 67.2842 153.386 68.0774 153.489 68.2319C153.695 68.3349 154.611 68.304 155.372 68.201C155.475 68.1907 155.578 68.2422 155.619 68.3452L157.585 73.3928C157.636 73.537 157.636 73.6915 157.564 73.8358C157.502 73.9697 157.389 74.0727 157.245 74.1242L156.051 74.6393Z" fill="#053C5A"/>
<path d="M79.7159 167.902L81.7431 175.607C82.1445 177.142 82.2577 178.749 82.0621 180.325L81.6608 183.58L91.9102 181.901L90.5827 180.922C88.2879 179.223 86.662 176.771 86.0034 173.99L84.2437 166.562L79.7159 167.902Z" fill="white"/>
<path d="M81.6505 183.806C81.5888 183.806 81.5374 183.785 81.4962 183.744C81.4447 183.693 81.4242 183.62 81.4242 183.548L81.8255 180.293C82.021 178.738 81.9181 177.172 81.5168 175.658L79.4895 167.952C79.4587 167.829 79.5307 167.715 79.6439 167.674L84.1614 166.335C84.2232 166.314 84.2849 166.325 84.3364 166.356C84.3878 166.386 84.429 166.438 84.4393 166.5L86.199 173.927C86.8473 176.657 88.4423 179.067 90.696 180.726L92.0234 181.704C92.0955 181.756 92.1263 181.849 92.1058 181.941C92.0852 182.034 92.0131 182.096 91.9205 182.116L81.6711 183.796C81.6814 183.806 81.6711 183.806 81.6505 183.806ZM79.9938 168.066L81.9696 175.555C82.3812 177.131 82.4944 178.748 82.2886 180.365L81.9181 183.322L91.334 181.787L90.449 181.128C88.113 179.407 86.4562 176.894 85.7771 174.061L84.0688 166.86L79.9938 168.066Z" fill="#053C5A"/>
<path d="M80.6626 185.173C80.5906 183.813 80.57 181.104 81.455 179.404C81.6093 179.105 81.9798 178.971 82.2885 179.095L84.6347 180.032C84.9949 180.177 85.3962 179.909 85.3962 179.517V179.353C85.3962 179.126 85.5712 178.941 85.7976 178.93L87.8145 178.827C88.5657 178.786 89.3169 178.93 90.0064 179.239C92.0954 180.177 96.5306 182.391 97.5906 184.709C97.8272 185.235 97.4362 185.832 96.8599 185.863C95.0282 185.945 90.3975 186.09 81.5373 186.017C81.0742 186.007 80.6832 185.636 80.6626 185.173Z" fill="white"/>
<path d="M86.3018 186.266C84.8714 186.266 83.2867 186.256 81.5476 186.245C80.961 186.245 80.4671 185.771 80.4362 185.184C80.3539 183.732 80.3539 181.033 81.2492 179.302C81.4653 178.9 81.9489 178.715 82.3708 178.89L84.7171 179.828C84.82 179.869 84.9332 179.858 85.0258 179.797C85.1184 179.735 85.1699 179.632 85.1699 179.529V179.364C85.1699 179.014 85.4374 178.725 85.7873 178.715L87.8042 178.612C88.5863 178.571 89.3787 178.725 90.099 179.045C92.5173 180.126 96.7364 182.3 97.7964 184.628C97.9404 184.937 97.9199 185.298 97.7346 185.586C97.5494 185.895 97.2304 186.08 96.8702 186.101C95.2958 186.163 92.0131 186.266 86.3018 186.266ZM80.889 185.153C80.9096 185.504 81.1977 185.782 81.5476 185.782C90.2637 185.854 94.8841 185.72 96.8599 185.627C97.0657 185.617 97.251 185.504 97.3539 185.328C97.4568 185.164 97.4671 184.968 97.3848 184.793C96.3454 182.516 91.8176 180.291 89.9138 179.436C89.2552 179.137 88.5349 179.003 87.8248 179.045L85.8079 179.148C85.705 179.158 85.6226 179.24 85.6226 179.343V179.508C85.6226 179.766 85.4992 180.013 85.2831 180.157C85.067 180.301 84.7994 180.332 84.5524 180.24L82.2062 179.302C82.0004 179.22 81.7534 179.302 81.6505 179.498C80.7964 181.146 80.8067 183.752 80.889 185.153Z" fill="#053C5A"/>
<path d="M88.895 184.702C87.053 184.702 84.7994 184.661 82.1135 184.537C81.9901 184.527 81.8871 184.424 81.8974 184.301C81.9077 184.177 82.0106 184.074 82.1341 184.084C90.984 184.486 95.1105 184.022 95.1517 184.022C95.2752 184.002 95.3884 184.095 95.3987 184.218C95.4089 184.342 95.3266 184.455 95.2031 184.465C95.1723 184.476 93.145 184.702 88.895 184.702Z" fill="#053C5A"/>
<path d="M91.2002 182.526C91.159 182.526 91.1178 182.516 91.0767 182.485L87.5882 180.198C87.4853 180.126 87.4544 179.992 87.5264 179.878C87.5985 179.775 87.7323 179.745 87.8454 179.817L91.3339 182.104C91.4369 182.176 91.4677 182.31 91.3957 182.423C91.3442 182.485 91.2722 182.526 91.2002 182.526Z" fill="#053C5A"/>
<path d="M58.9495 169.213L57.7147 177.917H54.576L54.8745 169.357L58.9495 169.213Z" fill="white"/>
<path d="M57.7147 178.142H54.5761C54.5143 178.142 54.4526 178.122 54.4114 178.07C54.3703 178.029 54.3497 177.967 54.3497 177.905L54.6584 169.345C54.6584 169.221 54.7613 169.129 54.8745 169.129L58.9496 168.984C59.0113 168.984 59.0833 169.005 59.1245 169.056C59.1657 169.108 59.1862 169.17 59.1759 169.242L57.9411 177.946C57.9205 178.06 57.8279 178.142 57.7147 178.142ZM54.8127 177.689H57.5089L58.682 169.448L55.0906 169.572L54.8127 177.689Z" fill="#053C5A"/>
<path d="M79.2014 111.904C79.2014 111.904 83.3176 138.491 83.4822 144.847C83.6469 151.193 86.2813 170.415 86.2813 170.415C86.2813 170.415 82.8957 171.672 79.0161 170.796C79.0161 170.796 66.8733 136.771 65.9677 126.336C65.0621 115.901 68.0978 111.131 68.0978 111.131L79.2014 111.904Z" fill="#053C5A"/>
<path d="M75.1778 110.254C75.1778 110.254 61.234 152.86 61.0077 170.187C61.0077 170.187 57.9308 170.908 53.5161 170.187C53.5161 170.187 50.6862 122.636 58.8466 109.307L75.1778 110.254Z" fill="#053C5A"/>
<path d="M57.5912 186.024C56.3049 186.158 54.504 186.488 51.7564 186.055C50.9538 185.931 50.4495 185.118 50.6656 184.335C51.2419 182.264 52.4665 178.453 53.9998 176.444C54.113 176.3 54.3394 176.341 54.4011 176.516L54.4526 176.877C54.4834 177.093 54.7819 177.134 54.8745 176.938L55.2141 176.217C55.2964 176.083 55.4302 176.001 55.5845 175.98L56.7782 175.939C57.0355 175.919 57.2619 176.094 57.303 176.341L57.3442 176.907C57.3648 177.124 57.6529 177.196 57.7558 177L58.2704 176.475C58.3733 176.331 58.5997 176.413 58.5894 176.588L58.5276 178.854C58.4865 180.492 58.5997 182.12 58.8775 183.737L59.0216 184.551C59.1039 185.272 58.3321 185.942 57.5912 186.024Z" fill="white"/>
<path d="M54.4629 186.497C53.6705 186.497 52.7649 186.436 51.7256 186.271C51.2831 186.199 50.892 185.941 50.6451 185.56C50.3981 185.179 50.3261 184.705 50.4495 184.262C51.0361 182.161 52.2607 178.329 53.8248 176.299C53.9277 176.165 54.0924 176.103 54.257 176.124C54.4217 176.155 54.5658 176.268 54.6172 176.433C54.6172 176.443 54.6275 176.464 54.6275 176.474L54.679 176.835L55.0083 176.114C55.1317 175.897 55.3376 175.774 55.5639 175.753L56.7679 175.702C57.1281 175.671 57.4574 175.928 57.5294 176.289C57.5294 176.299 57.5294 176.299 57.5294 176.31L57.5706 176.876C57.5809 176.855 57.5809 176.835 57.5912 176.825L58.0954 176.31C58.1983 176.176 58.3836 176.124 58.5379 176.176C58.7026 176.237 58.8158 176.392 58.8158 176.567L58.754 178.833C58.7129 180.451 58.8261 182.078 59.1039 183.675L59.248 184.489C59.3406 185.395 58.4556 186.158 57.6118 186.25C57.4471 186.271 57.2825 186.291 57.0972 186.312C56.3872 186.394 55.5228 186.497 54.4629 186.497ZM54.185 176.588C52.6723 178.555 51.4683 182.315 50.8817 184.386C50.7891 184.705 50.8406 185.045 51.0155 185.313C51.1905 185.591 51.4683 185.766 51.7873 185.818C54.1541 186.199 55.8212 185.993 57.0355 185.848C57.2207 185.828 57.3854 185.807 57.55 185.787C58.1675 185.725 58.8466 185.158 58.7849 184.54L58.6511 183.747C58.3733 182.13 58.2498 180.471 58.2909 178.823L58.3527 176.691L57.9308 177.123C57.8279 177.278 57.6426 177.36 57.4574 177.319C57.2619 177.278 57.1178 177.113 57.1075 176.917L57.0664 176.361C57.0355 176.237 56.9223 176.145 56.7885 176.155L55.5845 176.206C55.5125 176.217 55.4405 176.258 55.3993 176.33L55.07 177.031C54.9877 177.206 54.8024 177.309 54.5966 177.278C54.4011 177.247 54.2468 177.103 54.2159 176.897L54.185 176.588Z" fill="#053C5A"/>
<path d="M54.9156 184.88C54.1336 184.88 53.1971 184.787 52.1475 184.509C52.024 184.478 51.952 184.354 51.9828 184.231C52.0137 184.107 52.1372 184.035 52.2607 184.066C55.2038 184.838 57.2722 184.076 57.2928 184.076C57.406 184.035 57.5397 184.086 57.5809 184.21C57.6221 184.323 57.5706 184.457 57.4471 184.498C57.3957 184.529 56.4489 184.88 54.9156 184.88Z" fill="#053C5A"/>
<path d="M56.3357 181.695H53.4647C53.3412 181.695 53.2383 181.592 53.2383 181.469C53.2383 181.345 53.3412 181.242 53.4647 181.242H56.3357C56.4592 181.242 56.5621 181.345 56.5621 181.469C56.5621 181.592 56.4592 181.695 56.3357 181.695Z" fill="#053C5A"/>
<path d="M71.2159 73.7649C70.3412 78.8125 65.2165 84.231 60.0713 83.5202C59.2274 83.4069 56.9635 82.9227 54.5761 80.162C51.2934 82.5107 47.1052 81.8926 44.8515 79.1628C42.0834 75.8149 42.4641 69.6444 46.4877 66.4716C43.2976 66.451 42.4435 65.2252 42.1863 64.741C40.6941 61.8979 44.6354 55.233 48.3091 55.2227C49.6675 55.2227 51.4684 56.8915 55.0083 60.2497C58.6717 63.7109 58.8261 64.3908 59.9272 64.5041C63.179 64.8543 64.1566 59.302 68.4787 58.6839C71.432 58.2615 74.7353 60.3321 74.9926 62.2893C75.2087 63.9684 73.0477 64.5556 71.8334 67.9035C70.9175 70.4067 71.6173 71.4471 71.2159 73.7649Z" fill="#053C5A"/>
<path d="M66.935 56.817C67.182 57.5896 66.935 59.7735 65.7722 60.1546C64.6094 60.5358 62.9834 58.9597 62.7262 58.1871C62.4792 57.4145 63.2098 56.4771 64.3727 56.1062C65.5355 55.7251 66.6778 56.0444 66.935 56.817Z" fill="#053C5A"/>
<path d="M80.9303 112.232C80.9303 112.232 82.2269 120.865 80.6422 122.523C80.6422 122.523 75.4763 116.858 75.2396 112.778L80.9303 112.232Z" fill="white"/>
<path d="M80.6422 122.75C80.5804 122.75 80.5187 122.719 80.4775 122.678C80.2614 122.441 75.2602 116.91 75.0132 112.789C75.0029 112.665 75.0956 112.562 75.219 112.552L80.9097 112.016C81.0332 112.006 81.1361 112.089 81.1567 112.212C81.2081 112.573 82.443 120.979 80.8068 122.689C80.7657 122.73 80.7039 122.75 80.6422 122.75ZM75.4763 112.975C75.8365 116.487 79.7366 121.143 80.6319 122.163C81.6301 120.567 81.0847 114.891 80.7348 112.48L75.4763 112.975Z" fill="#053C5A"/>
<path d="M73.768 112.321C73.768 112.321 72.1627 119.284 70.2486 121.025C68.3449 122.766 63.1276 114.999 60.2256 114.834C57.3237 114.669 54.1336 121.674 54.1336 121.674C54.1336 121.674 54.9466 112.928 57.334 111.074L73.768 112.321Z" fill="white"/>
<path d="M54.1439 121.892C54.1233 121.892 54.1027 121.892 54.0821 121.881C53.9792 121.85 53.9072 121.747 53.9175 121.644C53.9484 121.284 54.7613 112.775 57.2002 110.88C57.2413 110.849 57.3031 110.828 57.3545 110.828L73.7886 112.085C73.8503 112.085 73.912 112.126 73.9532 112.178C73.9944 112.229 74.0047 112.301 73.9944 112.363C73.9326 112.651 72.3479 119.419 70.4133 121.181C69.2298 122.263 67.1717 120.367 64.9901 118.358C63.2613 116.762 61.4708 115.113 60.2256 115.041C57.5089 114.877 54.3806 121.675 54.3497 121.747C54.3085 121.84 54.2262 121.892 54.1439 121.892ZM60.133 114.598C60.1741 114.598 60.205 114.598 60.2462 114.598C61.656 114.681 63.5083 116.381 65.2886 118.029C67.2232 119.811 69.2195 121.644 70.0942 120.851C71.7202 119.368 73.1711 113.795 73.4798 112.528L57.406 111.302C55.708 112.734 54.8333 117.957 54.5143 120.398C55.5743 118.41 57.8793 114.598 60.133 114.598Z" fill="#053C5A"/>
<path d="M99.5767 70.7149L102.232 67.9439C102.684 67.4701 103.446 68.0057 103.158 68.5929L102.345 70.2823C102.345 70.2823 102.901 70.5398 103.178 70.5604C103.786 70.6016 104.372 70.3441 104.784 69.9011C105.267 69.3964 106.049 68.5826 106.317 68.3869C106.708 68.0881 107.223 67.6349 107.778 67.5937H107.799C108.385 67.5525 108.766 68.2014 108.447 68.6959L107.336 70.4162C106.533 71.6627 105.35 72.6207 103.961 73.146L100.39 74.4955L100.122 84.735L95.4605 81.1707L97.5495 74.4028C97.9714 73.043 98.6609 71.7863 99.5767 70.7149Z" fill="white"/>
<path d="M100.122 84.9613C100.071 84.9613 100.03 84.9407 99.9884 84.9098L95.3267 81.3456C95.2547 81.2838 95.2238 81.1911 95.2444 81.0984L97.3334 74.3304C97.7656 72.9398 98.4551 71.6727 99.4018 70.5705L99.4121 70.5602L102.067 67.7891C102.345 67.5007 102.767 67.4595 103.096 67.6861C103.425 67.9128 103.539 68.3248 103.364 68.6957L102.654 70.1687C102.849 70.2511 103.076 70.3232 103.199 70.3335C103.724 70.3645 104.238 70.1481 104.629 69.7464C105.195 69.1592 105.926 68.4072 106.194 68.2115C106.245 68.1703 106.307 68.1291 106.358 68.0776C106.739 67.7788 107.223 67.408 107.768 67.3668C108.149 67.3359 108.478 67.511 108.663 67.82C108.849 68.1291 108.838 68.5102 108.643 68.809L107.531 70.5293C106.698 71.8272 105.494 72.7956 104.053 73.3518L100.606 74.6601L100.349 84.745C100.349 84.8274 100.297 84.9098 100.215 84.9407C100.184 84.951 100.153 84.9613 100.122 84.9613ZM95.7281 81.0881L99.906 84.2815L100.163 74.485C100.163 74.3922 100.225 74.3098 100.307 74.2789L103.899 72.9192C105.247 72.4041 106.379 71.4976 107.161 70.282L108.272 68.5617C108.375 68.4072 108.375 68.2115 108.283 68.0467C108.19 67.8819 108.015 67.7994 107.83 67.8097C107.398 67.8406 106.976 68.1703 106.636 68.4278C106.574 68.4793 106.523 68.5205 106.461 68.5617C106.276 68.706 105.73 69.2416 104.959 70.0451C104.475 70.5499 103.816 70.8177 103.168 70.7765C102.859 70.7559 102.314 70.5087 102.252 70.4778C102.201 70.4572 102.149 70.4057 102.129 70.3439C102.108 70.282 102.108 70.2202 102.139 70.1687L102.952 68.4793C103.045 68.2836 102.952 68.1291 102.839 68.0467C102.726 67.9643 102.54 67.9334 102.396 68.0879L99.7517 70.8486C98.8461 71.9096 98.1875 73.1149 97.7759 74.4438L95.7281 81.0881Z" fill="#053C5A"/>
<path d="M94.5138 79.0117L106.132 88.2313L100.956 93.6086L91.0973 85.3882L94.5138 79.0117Z" fill="white"/>
<path d="M100.956 93.8326C100.904 93.8326 100.853 93.812 100.812 93.7811L90.9533 85.5607C90.871 85.4886 90.8504 85.3753 90.9018 85.2826L94.3183 78.9061C94.3492 78.8443 94.4109 78.8031 94.4727 78.7928C94.5344 78.7825 94.6064 78.7928 94.6579 78.834L106.276 88.0536C106.327 88.0948 106.358 88.1566 106.358 88.2184C106.358 88.2802 106.338 88.342 106.297 88.3936L101.12 93.7605C101.069 93.812 101.017 93.8326 100.956 93.8326ZM91.3855 85.3238L100.935 93.2866L105.792 88.239L94.5756 79.349L91.3855 85.3238Z" fill="#053C5A"/>
<path d="M55.5022 99.9629L59.2068 105.732L60.8636 104.609C61.8824 103.919 63.1173 103.661 64.3315 103.877C64.3315 103.877 66.1118 104.114 66.8733 104.732C68.705 106.216 67.0791 107.143 66.7292 107.328C66.1633 107.627 65.3812 107.905 64.5374 107.792C64.0434 107.72 62.7571 107.885 61.5943 108.523C60.7093 108.997 59.6802 109.976 58.291 109.605C57.0973 109.286 56.5725 108.575 56.5725 108.575L51.7874 102.6L55.5022 99.9629Z" fill="white"/>
<path d="M58.9187 109.892C58.7026 109.892 58.4659 109.861 58.2292 109.799C56.9738 109.459 56.4078 108.718 56.3872 108.687L51.6021 102.722C51.5609 102.671 51.5507 102.609 51.5507 102.547C51.5609 102.486 51.5918 102.434 51.6433 102.393L55.3582 99.7763C55.4096 99.7454 55.4714 99.7248 55.5331 99.7351C55.5949 99.7454 55.6463 99.7866 55.6772 99.8381L59.248 105.411L60.7093 104.412C61.7795 103.691 63.0658 103.413 64.3418 103.639C64.4036 103.65 66.1838 103.887 66.9865 104.535C67.6554 105.081 67.9744 105.627 67.9229 106.163C67.8715 106.678 67.4804 107.152 66.8013 107.502C66.2456 107.791 65.3915 108.12 64.4756 107.986C64.064 107.925 62.8085 108.069 61.6766 108.687C61.5016 108.78 61.3267 108.893 61.1312 109.017C60.5446 109.429 59.8037 109.892 58.9187 109.892ZM52.1166 102.63L56.7474 108.409C56.7577 108.419 57.2516 109.068 58.3527 109.356C59.3715 109.635 60.1947 109.109 60.9254 108.646C61.1209 108.522 61.3061 108.398 61.4913 108.306C62.6953 107.657 64.0125 107.471 64.5682 107.554C65.3709 107.667 66.1221 107.379 66.616 107.121C66.9248 106.956 67.4496 106.616 67.4907 106.132C67.5216 105.761 67.2643 105.349 66.7189 104.906C66.0192 104.34 64.3007 104.103 64.2904 104.103C63.1275 103.897 61.9544 104.144 60.9871 104.803L59.3303 105.926C59.2789 105.957 59.2171 105.978 59.1554 105.957C59.0936 105.947 59.0422 105.906 59.0113 105.854L55.4405 100.281L52.1166 102.63Z" fill="#053C5A"/>
<path d="M53.9587 93.5312L56.9738 99.6502L47.7535 107.026C47.7535 107.026 44.5119 100.258 44.1929 98.0123L53.9587 93.5312Z" fill="white"/>
<path d="M47.7432 107.24C47.7226 107.24 47.7123 107.24 47.6917 107.23C47.6197 107.22 47.5682 107.168 47.5374 107.107C47.4036 106.828 44.2753 100.277 43.9563 98.0209C43.946 97.9178 43.9974 97.8251 44.09 97.7839L53.8661 93.3132C53.9793 93.2617 54.113 93.3132 54.1645 93.4162L57.1796 99.5351C57.2311 99.6278 57.2002 99.7515 57.1179 99.8133L47.8975 107.189C47.8461 107.23 47.7946 107.24 47.7432 107.24ZM44.4399 98.1342C44.8207 100.205 47.2595 105.438 47.8358 106.653L56.6857 99.5763L53.8558 93.8282L44.4399 98.1342Z" fill="#053C5A"/>
<path d="M104.918 92.3498L91.5707 82.0485C91.5707 82.0485 90.1095 84.2736 87.7221 84.5105C85.6845 84.7166 80.8788 80.0707 79.4793 78.68C78.7281 77.7838 77.6785 77.1554 76.5053 76.9082C74.6325 76.5271 71.7717 75.5072 67.7069 75.8575C67.7069 75.8575 67.6863 75.8575 67.6452 75.8678C66.9145 75.9296 66.1427 76.0429 65.3401 76.2077C59.7214 77.1451 45.8498 80.2664 43.2257 88.3323C41.3013 94.2555 43.1536 99.9624 43.1536 99.9624L55.6258 93.9362L55.4406 93.4829C54.8746 92.1026 55.4406 90.5162 56.7475 89.8157L58.6615 88.7959C59.104 91.2063 59.4642 93.7405 59.0525 95.8934C57.5398 103.846 55.8007 106.442 54.9363 112.963C54.9363 112.963 57.9412 112.252 60.1228 112.396L80.673 113.179C82.0417 113.23 83.2354 112.221 83.3897 110.851C83.6058 108.945 83.6058 105.556 82.8237 99.6225C82.7208 98.8499 82.6591 97.624 82.5768 96.1303C86.7753 98.6439 94.4418 100.611 104.918 92.3498Z" fill="white"/>
<path d="M80.7656 113.395C80.7244 113.395 80.6935 113.395 80.6524 113.395L60.1021 112.612C57.972 112.478 55.0083 113.169 54.9774 113.169C54.9054 113.189 54.8333 113.169 54.7716 113.117C54.7201 113.066 54.6893 112.993 54.6996 112.921C55.1626 109.46 55.8521 107.142 56.6548 104.464C57.3339 102.177 58.116 99.5709 58.8261 95.8418C59.2068 93.8434 58.8981 91.4535 58.4865 89.1357L56.8503 90.0113C55.636 90.6603 55.1112 92.1128 55.6463 93.3901L55.8315 93.8434C55.8727 93.9567 55.8315 94.0803 55.7183 94.1318L43.2462 100.148C43.1844 100.179 43.1227 100.179 43.0609 100.148C42.9992 100.117 42.958 100.076 42.9374 100.014C42.9169 99.952 41.0851 94.173 43.0095 88.2498C45.6644 80.0912 59.4847 76.939 65.2988 75.9707C66.0706 75.8162 66.863 75.7029 67.6245 75.6308L67.676 75.6205C67.6863 75.6205 67.6965 75.6205 67.7068 75.6205C71.0204 75.3423 73.5313 75.9604 75.363 76.4033C75.7849 76.5064 76.1863 76.6094 76.5464 76.6815C77.7504 76.9287 78.8515 77.5777 79.6542 78.5254C82.5355 81.3995 86.1681 84.4383 87.7014 84.2838C89.9653 84.0572 91.3751 81.9454 91.3854 81.9248C91.4163 81.8733 91.478 81.8321 91.5398 81.8218C91.6015 81.8115 91.6633 81.8321 91.7147 81.863L105.062 92.1746C105.113 92.2158 105.154 92.2879 105.154 92.3497C105.154 92.4218 105.123 92.4836 105.072 92.5248C100.369 96.2333 95.7795 98.242 91.4163 98.4995C88.36 98.685 85.4683 98.0154 82.834 96.5217C82.906 97.8712 82.9677 98.9013 83.0501 99.5709C83.7087 104.546 83.9042 108.337 83.616 110.861C83.4514 112.303 82.2062 113.395 80.7656 113.395ZM59.495 112.128C59.7111 112.128 59.9272 112.138 60.133 112.149L80.6832 112.932C81.9387 112.983 83.0295 112.046 83.1633 110.81C83.3588 109.11 83.4102 105.783 82.5973 99.6327C82.4944 98.8704 82.4326 97.696 82.3503 96.12C82.3503 96.0375 82.3915 95.9551 82.4635 95.9139C82.5355 95.8727 82.6282 95.8727 82.7002 95.9139C87.1457 98.5923 94.5343 100.137 104.557 92.3497L91.6324 82.3678C91.2002 82.9343 89.8213 84.531 87.7529 84.7371C87.7014 84.7371 87.6499 84.7474 87.5985 84.7474C85.4683 84.7474 81.1257 80.6372 79.3249 78.8344C78.5737 77.9588 77.5652 77.3511 76.4641 77.1244C76.1039 77.0523 75.6923 76.9493 75.2601 76.8463C73.449 76.4033 70.9689 75.7956 67.7274 76.0737C67.7171 76.0737 67.7171 76.0737 67.7068 76.0737H67.676C66.9248 76.1355 66.153 76.2488 65.3812 76.4033C59.639 77.382 46.0143 80.4723 43.4417 88.394C41.7849 93.4828 42.9786 98.4686 43.2976 99.6327L55.3376 93.8125L55.2347 93.5549C54.6172 92.0613 55.2244 90.3615 56.6445 89.5993L58.5585 88.5794C58.6203 88.5485 58.7026 88.5485 58.7643 88.5794C58.8261 88.6103 58.8775 88.6721 58.8878 88.7443C59.3303 91.1959 59.6905 93.761 59.2789 95.9242C58.5585 99.6842 57.7867 102.29 57.0973 104.598C56.3255 107.173 55.6566 109.409 55.2038 112.664C55.9447 112.489 57.8279 112.128 59.495 112.128Z" fill="#053C5A"/>
<path d="M83.0604 98.2079C82.9472 98.2079 82.8546 98.1254 82.834 98.0121L82.4944 95.5295C82.2063 93.4281 81.9902 91.1 81.877 88.9779L81.7638 86.9486C81.7535 86.825 81.8564 86.7116 81.9799 86.7116C82.1034 86.7013 82.2166 86.8044 82.2166 86.928L82.3298 88.9573C82.4429 91.0691 82.6591 93.3766 82.9472 95.4677L83.2868 97.9503C83.3074 98.0739 83.2147 98.1873 83.0913 98.2079C83.081 98.1976 83.0707 98.2079 83.0604 98.2079Z" fill="#053C5A"/>
<path d="M73.6652 70.3483L72.8625 76.9926L76.989 78.27C76.989 78.27 71.0925 82.3596 63.8994 78.2391L67.779 76.5806L69.7856 68.8752L73.6652 70.3483Z" fill="white"/>
<path d="M70.4956 80.2775C68.5096 80.2775 66.2148 79.814 63.7862 78.4233C63.7142 78.3821 63.6627 78.2997 63.673 78.2173C63.673 78.1349 63.7347 78.0525 63.8068 78.0216L67.5834 76.4043L69.5592 68.8019C69.5798 68.7401 69.621 68.6886 69.6724 68.6577C69.7341 68.6268 69.7959 68.6268 69.8576 68.6474L73.7372 70.1308C73.8298 70.172 73.8915 70.2647 73.8812 70.3677L73.1095 76.8163L77.061 78.0319C77.1434 78.0525 77.2051 78.1246 77.2154 78.2173C77.2257 78.2997 77.1948 78.3924 77.1228 78.4439C77.0816 78.4748 74.4061 80.2775 70.4956 80.2775ZM64.4139 78.2482C70.1458 81.3077 75.0029 79.1135 76.4333 78.3203L72.7904 77.1975C72.6875 77.1666 72.6155 77.0635 72.6361 76.9502L73.4182 70.481L69.94 69.1522L68.0053 76.6206C67.9847 76.6927 67.9436 76.7442 67.8716 76.7751L64.4139 78.2482Z" fill="#053C5A"/>
<path d="M69.693 70.7158C69.693 70.7158 68.2111 71.272 67.8201 69.9844C67.429 68.6967 68.7051 68.7791 68.7051 68.7791C68.7051 68.7791 67.3467 65.9566 69.4563 65.6785C71.5659 65.4003 73.1197 64.6174 73.1197 64.6174C73.1197 64.6174 74.653 67.3164 75.147 69.5723C75.4454 70.9321 75.3631 72.1373 74.334 72.4979C71.535 73.4765 69.693 70.7158 69.693 70.7158Z" fill="white"/>
<path d="M73.1506 72.9316C71.2674 72.9316 69.9708 71.4483 69.6106 70.9744C69.3328 71.0465 68.7771 71.1495 68.2934 70.9126C67.9641 70.7478 67.7274 70.4593 67.6039 70.0473C67.4599 69.5837 67.501 69.2026 67.7171 68.9348C67.9024 68.7081 68.1699 68.6154 68.3757 68.5742C68.1699 68.0489 67.8303 66.9363 68.242 66.1843C68.4683 65.7723 68.8697 65.525 69.4254 65.4529C71.4732 65.1851 72.9962 64.4228 73.0065 64.4228C73.1197 64.3713 73.2432 64.4125 73.3049 64.5155C73.3667 64.6288 74.8691 67.266 75.363 69.5322C75.7438 71.2937 75.4248 72.3651 74.406 72.7153C73.9738 72.8698 73.5519 72.9316 73.1506 72.9316ZM69.6929 70.4902C69.765 70.4902 69.837 70.5315 69.8782 70.5933C69.9502 70.6963 71.6481 73.1995 74.2619 72.2827C75.0337 72.0148 75.2498 71.1186 74.9308 69.6249C74.5192 67.7604 73.3769 65.5559 73.0271 64.9173C72.5434 65.1336 71.2056 65.6796 69.4974 65.9062C69.0755 65.9577 68.7976 66.1225 68.6536 66.4007C68.2214 67.2041 68.9108 68.6669 68.9211 68.6772C68.952 68.7493 68.952 68.8317 68.9006 68.9039C68.8594 68.9657 68.7771 69.0069 68.6947 69.0069C68.5713 68.9966 68.2214 69.0275 68.067 69.2232C67.9538 69.3674 67.9435 69.6043 68.0361 69.9134C68.1185 70.2018 68.2728 70.3872 68.4889 70.5006C68.9623 70.7375 69.6003 70.5006 69.6106 70.5006C69.6415 70.4902 69.6723 70.4902 69.6929 70.4902Z" fill="#053C5A"/>
<path d="M169.82 46.9031C169.697 46.9031 169.594 46.8 169.594 46.6764V45.2755C169.594 45.1518 169.697 45.0488 169.82 45.0488C169.944 45.0488 170.047 45.1518 170.047 45.2755V46.6764C170.047 46.8 169.944 46.9031 169.82 46.9031Z" fill="#053C5A"/>
<path d="M169.82 41.9988C169.697 41.9988 169.594 41.8957 169.594 41.7721V40.3712C169.594 40.2475 169.697 40.1445 169.82 40.1445C169.944 40.1445 170.047 40.2475 170.047 40.3712V41.7721C170.047 41.8957 169.944 41.9988 169.82 41.9988Z" fill="#053C5A"/>
<path d="M172.969 43.7501H171.57C171.446 43.7501 171.343 43.6471 171.343 43.5235C171.343 43.3999 171.446 43.2969 171.57 43.2969H172.969C173.093 43.2969 173.195 43.3999 173.195 43.5235C173.195 43.6471 173.093 43.7501 172.969 43.7501Z" fill="#053C5A"/>
<path d="M168.071 43.7501H166.671C166.548 43.7501 166.445 43.6471 166.445 43.5235C166.445 43.3999 166.548 43.2969 166.671 43.2969H168.071C168.194 43.2969 168.297 43.3999 168.297 43.5235C168.297 43.6471 168.194 43.7501 168.071 43.7501Z" fill="#053C5A"/>
<path d="M177.878 48.4472C178.258 45.6556 181.829 45.6556 182.21 48.4472C181.829 51.2389 178.248 51.2389 177.878 48.4472Z" fill="#053C5A"/>
<path d="M181.449 40.7112C181.696 38.8775 184.052 38.8775 184.299 40.7112C184.052 42.5551 181.696 42.5551 181.449 40.7112Z" fill="#053C5A"/>
</g>
<ellipse cx="118.009" cy="198.167" rx="33.0275" ry="1.83486" fill="#053C5A"/>
</g>
<defs>
<linearGradient id="paint0_linear_2254_7125" x1="8.05328" y1="13.2266" x2="127.481" y2="13.2266" gradientUnits="userSpaceOnUse">
<stop stop-color="#3CCDAA" stop-opacity="0.2"/>
<stop offset="1" stop-color="#053C5A" stop-opacity="0.2"/>
</linearGradient>
<clipPath id="clip0_2254_7125">
<rect width="216" height="200" fill="white"/>
</clipPath>
<clipPath id="clip1_2254_7125">
<rect width="198.165" height="183.486" fill="white" transform="translate(7.91742 3)"/>
</clipPath>
</defs>
</svg>
