<svg width="216" height="200" viewBox="0 0 216 200" fill="none" xmlns="http://www.w3.org/2000/svg">
<circle cx="60.5" cy="107" r="60.5" fill="url(#paint0_linear_2254_7008)"/>
<path d="M204.932 30.3908L193.674 24.5179C184.51 19.7463 175.968 13.7266 168.233 6.65475L167.68 3.00871C167.68 3.00871 163.858 3.05765 163.052 3.00871C162.016 2.9353 160.957 3.32682 160.151 4.1588C151.771 12.8946 142.216 20.2601 131.809 26.0351L124.442 30.1216C122.738 31.0759 122.093 32.7399 122.623 35.138L132.247 78.3522C136.437 90.4404 153.313 106.615 162.799 115.033C164.526 116.575 166.644 117.309 168.739 117.309C169.66 117.309 173.528 117.431 173.528 117.431C173.528 117.431 174.334 115.694 175.416 114.543C183.958 105.318 198.923 87.6019 201.962 73.6295L207.004 35.0156C207.372 33.1069 206.521 31.2227 204.932 30.3908Z" fill="#053C5A"/>
<path d="M209.191 30.6141L198.025 24.7902C188.931 20.043 180.458 14.0967 172.768 7.04934L169.89 4.40656C168.394 3.03624 166.16 3.10965 164.733 4.57785C156.399 13.2403 146.936 20.5568 136.598 26.2828L129.3 30.3449C127.596 31.2748 126.836 33.4281 127.481 35.3368L137.036 78.2084C141.203 90.1988 158.102 106.398 167.542 114.767C171.18 117.997 176.567 117.703 179.883 114.106C188.355 104.954 203.205 87.3602 206.221 73.5102L211.218 35.19C211.632 33.3302 210.78 31.446 209.191 30.6141Z" fill="white"/>
<path d="M202.33 35.7025L193.075 30.8818C185.546 26.9666 178.524 22.0237 172.17 16.1998L169.775 14.0219C168.532 12.8963 166.69 12.9452 165.516 14.1688C158.632 21.3385 150.781 27.3826 142.216 32.1298L136.161 35.4822C134.756 36.2653 134.112 38.0271 134.664 39.6177L142.561 75.1238C145.992 85.0587 160.013 98.4683 167.818 105.393C170.834 108.061 175.278 107.84 178.041 104.855C185.04 97.2937 197.357 82.7095 199.844 71.2331L203.988 39.4953C204.333 37.9537 203.643 36.3876 202.33 35.7025Z" fill="white"/>
<path d="M173.367 117.234C171.226 117.234 169.107 116.476 167.381 114.934C157.757 106.394 140.973 90.2681 136.805 78.2777V78.2533L127.251 35.4061C126.56 33.3751 127.389 31.0994 129.185 30.0961L136.483 26.034C146.798 20.308 156.237 13.0404 164.549 4.378C166.068 2.78744 168.44 2.71403 170.051 4.18224L172.929 6.82501C180.573 13.8479 189.046 19.7942 198.117 24.5169L209.283 30.3408C210.987 31.2217 211.885 33.2283 211.448 35.1859L209.306 51.6053C209.283 51.7521 209.145 51.8745 209.007 51.85C208.869 51.8255 208.754 51.6787 208.777 51.5319L210.918 35.088C211.286 33.3506 210.527 31.6132 209.03 30.8302L197.864 25.0063C188.746 20.2591 180.251 14.2639 172.561 7.241L169.683 4.59823C168.279 3.30131 166.206 3.37472 164.894 4.76952C156.537 13.4564 147.051 20.773 136.713 26.5234L129.415 30.5855C127.849 31.4664 127.113 33.4485 127.734 35.2348V35.2593L137.289 78.1064C141.41 89.9745 158.102 106.027 167.703 114.518C171.226 117.626 176.498 117.357 179.698 113.882C188.217 104.681 202.975 87.1849 205.968 73.4082L207.257 63.5223C207.28 63.3754 207.419 63.2531 207.557 63.2776C207.695 63.302 207.81 63.4488 207.787 63.5957L206.498 73.5061C203.482 87.4296 188.654 105.024 180.09 114.273C178.248 116.231 175.807 117.234 173.367 117.234Z" fill="#053C5A"/>
<path d="M209 51.5L207.5 63.5" stroke="#053C5A" stroke-width="0.5" stroke-linecap="round"/>
<path d="M162.17 51.9536L162.331 40.575C162.4 36.9044 165.14 33.8946 168.593 33.7233C172.392 33.5276 175.57 36.8555 175.477 40.8931L175.547 51.7578C175.524 52.9813 179.898 52.443 179.898 51.3173L179.438 41.1622C179.576 34.6532 174.672 29.3187 168.363 29.5879C163.137 29.8081 158.371 34.7021 158.233 40.6239L158.095 52.1004L162.17 51.9536Z" fill="#3CCDAA"/>
<path d="M177.089 52.7612C176.536 52.7612 176.007 52.6633 175.685 52.4675C175.362 52.2473 175.293 51.9781 175.293 51.7824L175.224 40.9176C175.27 39.0579 174.556 37.2226 173.313 35.9257C172.047 34.6043 170.389 33.9192 168.616 34.0171C165.324 34.1884 162.676 37.0758 162.584 40.5995L162.423 51.9781C162.423 52.1249 162.308 52.2473 162.17 52.2473L158.141 52.4186C158.072 52.4186 158.003 52.3941 157.957 52.3452C157.91 52.2962 157.887 52.2228 157.887 52.1494L158.026 40.6729C158.164 34.8001 162.884 29.6124 168.34 29.3677C168.363 29.3677 168.363 29.3677 168.386 29.3677C171.471 29.2209 174.349 30.3955 176.49 32.6467C178.655 34.898 179.806 37.9568 179.737 41.2358L180.197 51.3908C180.197 51.6355 180.082 51.9537 179.576 52.2473C179 52.5165 177.987 52.7612 177.089 52.7612ZM168.939 33.4543C170.735 33.4543 172.415 34.1884 173.705 35.5342C175.063 36.9535 175.823 38.9111 175.777 40.9176L175.846 51.7824C175.846 51.8313 175.846 51.9047 175.984 52.0026C176.583 52.3941 178.47 52.2228 179.345 51.709C179.553 51.5866 179.691 51.4398 179.691 51.3419L179.23 41.1868C179.299 38.0546 178.194 35.1427 176.145 32.9893C174.119 30.8604 171.402 29.7593 168.478 29.8816C168.455 29.8816 168.455 29.8816 168.432 29.8816C163.206 30.1019 158.693 35.0448 158.555 40.6485L158.417 51.8313L161.917 51.6845L162.078 40.5751C162.17 36.7577 165.025 33.6255 168.593 33.4543C168.708 33.4543 168.824 33.4543 168.939 33.4543Z" fill="#3CCDAA"/>
<path d="M181.319 51.1758L182.257 66.0049C182.543 70.6446 181.312 74.9348 179.235 78.084C177.158 81.2339 174.246 83.2299 171.172 83.3154L166.664 83.1211H166.659C158.708 83.121 152.118 76.5621 151.614 68.1699L150.785 55.5674C150.628 53.126 152.566 50.9565 154.848 50.9561L181.319 51.1758Z" fill="#3CCDAA" stroke="#053C5A" stroke-width="0.209094"/>
<path d="M170.988 82.9769C179.783 82.9769 186.736 75.0731 186.16 65.7255L185.239 51.2637H157.151C155.861 51.2637 154.848 52.4138 154.917 53.7841L155.815 67.9033C156.368 76.3945 162.999 82.9769 170.988 82.9769Z" fill="white"/>
<path d="M170.988 83.2516C162.883 83.2516 156.114 76.5223 155.562 67.9333L154.664 53.7407C154.618 53.031 154.848 52.3214 155.309 51.8075C155.769 51.2692 156.391 51 157.081 51H183.029C184.387 51 185.539 52.1256 185.631 53.5938L185.746 55.5759C185.746 55.7227 185.654 55.8696 185.492 55.8696C185.354 55.8696 185.216 55.7717 185.216 55.6004L185.101 53.6183C185.032 52.4437 184.111 51.5383 183.006 51.5383H157.058C156.529 51.5383 156.022 51.7586 155.677 52.1746C155.309 52.5906 155.124 53.1289 155.171 53.6917L156.068 67.8844C156.598 76.1797 163.137 82.6888 170.965 82.6888C178.332 82.6888 184.687 76.8649 185.746 69.1079C185.769 68.9611 185.907 68.8387 186.045 68.8632C186.183 68.8877 186.275 69.0345 186.275 69.1813C185.193 77.232 178.631 83.2516 170.988 83.2516Z" fill="#053C5A"/>
<mask id="path-12-inside-1_2254_7008" fill="white">
<path d="M169.854 57.4475C172.317 56.8297 174.784 58.4504 175.366 61.0676C175.923 63.5741 174.547 66.0833 172.266 66.8342L172.599 72.4348C172.645 73.1934 172.07 73.8293 171.356 73.8293C170.688 73.8293 170.159 73.2908 170.113 72.6057L169.774 66.9045C168.176 66.4696 166.853 65.1298 166.448 63.3049C165.867 60.6877 167.392 58.0655 169.854 57.4475Z"/>
</mask>
<path d="M169.854 57.4475C172.317 56.8297 174.784 58.4504 175.366 61.0676C175.923 63.5741 174.547 66.0833 172.266 66.8342L172.599 72.4348C172.645 73.1934 172.07 73.8293 171.356 73.8293C170.688 73.8293 170.159 73.2908 170.113 72.6057L169.774 66.9045C168.176 66.4696 166.853 65.1298 166.448 63.3049C165.867 60.6877 167.392 58.0655 169.854 57.4475Z" fill="#3CCDAA"/>
<path d="M169.854 57.4475L169.803 57.2447L169.803 57.2447L169.854 57.4475ZM175.366 61.0676L175.57 61.0223L175.57 61.0223L175.366 61.0676ZM172.266 66.8342L172.201 66.6356L172.048 66.686L172.058 66.8466L172.266 66.8342ZM172.599 72.4348L172.391 72.4472L172.391 72.4475L172.599 72.4348ZM171.356 73.8293L171.356 74.0384H171.356V73.8293ZM170.113 72.6057L169.904 72.6181L169.904 72.6197L170.113 72.6057ZM169.774 66.9045L169.983 66.8921L169.974 66.7422L169.829 66.7028L169.774 66.9045ZM166.448 63.3049L166.244 63.3503L166.244 63.3503L166.448 63.3049ZM169.854 57.4475L169.905 57.6503C172.243 57.0639 174.603 58.5996 175.162 61.113L175.366 61.0676L175.57 61.0223C174.965 58.3012 172.391 56.5956 169.803 57.2447L169.854 57.4475ZM175.366 61.0676L175.162 61.113C175.697 63.5224 174.372 65.9208 172.201 66.6356L172.266 66.8342L172.332 67.0328C174.721 66.2459 176.148 63.6257 175.57 61.0223L175.366 61.0676ZM172.266 66.8342L172.058 66.8466L172.391 72.4472L172.599 72.4348L172.808 72.4224L172.475 66.8218L172.266 66.8342ZM172.599 72.4348L172.391 72.4475C172.43 73.0959 171.939 73.6202 171.356 73.6202V73.8293V74.0384C172.2 74.0384 172.861 73.2908 172.808 72.4221L172.599 72.4348ZM171.356 73.8293L171.356 73.6202C170.81 73.6202 170.361 73.1789 170.322 72.5917L170.113 72.6057L169.904 72.6197C169.957 73.4028 170.567 74.0384 171.356 74.0384L171.356 73.8293ZM170.113 72.6057L170.322 72.5933L169.983 66.8921L169.774 66.9045L169.565 66.9169L169.904 72.6181L170.113 72.6057ZM169.774 66.9045L169.829 66.7028C168.308 66.2888 167.041 65.0108 166.652 63.2596L166.448 63.3049L166.244 63.3503C166.666 65.2488 168.044 66.6504 169.719 67.1063L169.774 66.9045ZM166.448 63.3049L166.652 63.2596C166.093 60.7428 167.562 58.2383 169.905 57.6503L169.854 57.4475L169.803 57.2447C167.221 57.8927 165.64 60.6327 166.244 63.3503L166.448 63.3049Z" fill="#053C5A" mask="url(#path-12-inside-1_2254_7008)"/>
<path d="M185.5 55.5L186 69.5L185.5 55" stroke="#053C5A" stroke-width="0.5"/>
<path d="M71.4974 163.413H67.1335L71.5538 144.105H79.0862L71.4974 163.413Z" fill="white"/>
<path d="M71.4973 163.677H67.1335C67.0545 163.677 66.9869 163.641 66.9418 163.581C66.8967 163.521 66.8741 163.437 66.8967 163.353L71.3056 144.034C71.3282 143.914 71.4297 143.83 71.5424 143.83H79.0862C79.1651 143.83 79.244 143.878 79.2891 143.95C79.3342 144.022 79.3455 144.118 79.3117 144.202L71.7228 163.521C71.689 163.617 71.5988 163.677 71.4973 163.677ZM67.4492 163.149H71.3282L78.7141 144.357H71.7454L67.4492 163.149Z" fill="#053C5A"/>
<path d="M50.5235 163.413H46.1597L50.5799 144.105H58.1237L50.5235 163.413Z" fill="white"/>
<path d="M50.5236 163.677H46.1597C46.0808 163.677 46.0131 163.641 45.968 163.581C45.9229 163.521 45.9004 163.437 45.9229 163.353L50.3432 144.034C50.3657 143.914 50.4672 143.83 50.58 143.83H58.1237C58.2026 143.83 58.2816 143.878 58.3267 143.95C58.3718 144.022 58.383 144.118 58.3492 144.202L50.7604 163.521C50.7153 163.617 50.6251 163.677 50.5236 163.677ZM46.4754 163.149H50.3544L57.7403 144.357H50.7716L46.4754 163.149Z" fill="#053C5A"/>
<path d="M171.81 163.416H176.174L171.753 144.109H164.21L171.81 163.416Z" fill="white"/>
<path d="M176.174 163.681H171.81C171.708 163.681 171.618 163.621 171.584 163.513L163.995 144.194C163.962 144.11 163.973 144.014 164.018 143.942C164.063 143.87 164.142 143.822 164.221 143.822H171.765C171.877 143.822 171.979 143.906 172.001 144.026L176.422 163.345C176.444 163.429 176.422 163.513 176.377 163.573C176.32 163.645 176.241 163.681 176.174 163.681ZM171.968 163.153H175.847L171.55 144.362H164.582L171.968 163.153Z" fill="#053C5A"/>
<path d="M192.986 163.416H197.35L192.93 144.109H185.386L192.986 163.416Z" fill="white"/>
<path d="M197.35 163.681H192.986C192.885 163.681 192.795 163.621 192.761 163.513L185.172 144.194C185.138 144.11 185.149 144.014 185.195 143.942C185.24 143.87 185.319 143.822 185.398 143.822H192.941C193.054 143.822 193.156 143.906 193.178 144.026L197.598 163.345C197.621 163.429 197.598 163.513 197.553 163.573C197.497 163.645 197.429 163.681 197.35 163.681ZM193.156 163.153H197.035L192.738 144.362H185.77L193.156 163.153Z" fill="#053C5A"/>
<path d="M177.685 145.524H52.091C47.7384 145.524 43.9271 142.408 42.8107 137.938L33.0118 98.9642C31.388 92.4805 35.7744 86.1406 42.0778 86.1406H167.886C172.238 86.1406 176.05 89.2566 177.166 93.7269L186.965 132.701C188.589 139.173 183.988 145.524 177.685 145.524Z" fill="white"/>
<path d="M177.685 145.788H52.091C47.6257 145.788 43.7128 142.588 42.574 138.01L32.7637 99.0361C31.9518 95.8002 32.572 92.4445 34.4551 89.8439C36.2819 87.3271 39.0558 85.877 42.0778 85.877H167.886C172.351 85.877 176.264 89.0768 177.403 93.655L187.202 132.629C187.991 135.793 187.371 139.101 185.488 141.701C183.616 144.302 180.763 145.788 177.685 145.788ZM42.0778 86.4043C39.2137 86.4043 36.5863 87.7705 34.8498 90.1675C33.0569 92.6363 32.4705 95.8242 33.2486 98.9043L43.0475 137.866C44.1301 142.217 47.8512 145.261 52.091 145.261H177.685C180.616 145.261 183.311 143.847 185.104 141.378C186.886 138.909 187.484 135.769 186.728 132.761L176.929 93.7868C175.847 89.4364 172.125 86.3923 167.886 86.3923H42.0778V86.4043Z" fill="#053C5A"/>
<path d="M160.252 145.754H194.137C196.944 145.754 199.391 143.753 200.113 140.864L206.428 115.625C207.465 111.454 204.511 107.367 200.451 107.367H166.567C163.759 107.367 161.312 109.369 160.59 112.257L154.276 137.497C153.227 141.667 156.181 145.754 160.252 145.754Z" fill="white"/>
<path d="M194.137 146.018H160.252C158.233 146.018 156.384 145.047 155.155 143.345C153.926 141.643 153.52 139.486 154.039 137.425L160.353 112.185C161.098 109.189 163.657 107.104 166.566 107.104H200.451C202.47 107.104 204.319 108.074 205.548 109.776C206.777 111.478 207.183 113.635 206.664 115.697L200.35 140.936C199.606 143.92 197.046 146.018 194.137 146.018ZM166.555 107.631C163.871 107.631 161.515 109.56 160.816 112.317L154.501 137.556C154.027 139.462 154.399 141.451 155.527 143.021C156.655 144.591 158.369 145.478 160.229 145.478H194.114C196.798 145.478 199.154 143.549 199.854 140.792L206.168 115.553C206.642 113.647 206.27 111.658 205.142 110.088C204.014 108.518 202.301 107.631 200.44 107.631H166.555Z" fill="#053C5A"/>
<path d="M84.555 137.906L77.8682 112.211C77.1465 109.335 74.6996 107.261 71.8919 107.261H56.3308C54.1883 107.261 52.3165 105.727 51.764 103.534L48.6066 90.9262C47.9301 88.2416 45.7538 86.3001 43.1941 86.0604H41.8635C35.2219 85.9406 31.512 91.7172 32.3577 97.7694L36.7103 115.231C36.7329 115.363 36.7667 115.495 36.8005 115.627L42.6867 139.08C43.7128 142.963 47.7384 146.187 51.0761 146.187H78.5786C82.638 146.187 85.5924 142.077 84.555 137.906Z" fill="white"/>
<path d="M78.5787 146.451H51.0761C47.5016 146.451 43.476 143.035 42.4499 139.152L36.5638 115.698C36.5299 115.566 36.4961 115.422 36.4736 115.291L32.121 97.8409C32.121 97.8289 32.121 97.8169 32.121 97.8169C31.6699 94.5691 32.4931 91.4051 34.3762 89.1161C36.1916 86.9229 38.8528 85.7484 41.8748 85.7963H43.2054C45.9004 86.048 48.1669 88.0854 48.8547 90.8539L52.0121 103.462C52.5308 105.535 54.3124 106.997 56.3308 106.997H71.8919C74.7899 106.997 77.3495 109.118 78.105 112.151L84.7918 137.846C85.3105 139.919 84.9046 142.088 83.6642 143.79C82.4351 145.48 80.5858 146.451 78.5787 146.451ZM32.6058 97.721L36.9584 115.171C36.981 115.314 37.0148 115.434 37.0486 115.566L42.9348 139.02C43.882 142.639 47.7722 145.923 51.0874 145.923H78.5899C80.4392 145.923 82.1532 145.024 83.2921 143.454C84.431 141.884 84.8144 139.883 84.3295 137.965L77.6315 112.282C76.9323 109.478 74.5756 107.524 71.8919 107.524H56.3308C54.0869 107.524 52.1023 105.907 51.5272 103.605L48.3699 90.9977C47.7271 88.433 45.6411 86.5633 43.1716 86.3237H41.8635C38.9769 86.2757 36.451 87.3903 34.737 89.4636C32.9667 91.6209 32.1773 94.629 32.6058 97.721Z" fill="#053C5A"/>
<path d="M200.564 107.451H195.399C192.592 107.451 190.145 109.525 189.423 112.413L182.905 138.623H84.7128L78.1614 112.401C77.4397 109.525 74.9928 107.439 72.1851 107.439H67.0206C62.9612 107.439 60.0068 111.502 61.0442 115.673L67.3589 140.901C68.0805 143.777 70.5275 145.778 73.3352 145.778H194.249C197.271 145.551 199.504 143.765 200.226 140.889L206.54 115.673C207.589 111.514 204.623 107.451 200.564 107.451Z" fill="white"/>
<path d="M73.3352 146.053C70.426 146.053 67.8663 143.968 67.1221 140.984L60.8075 115.756C60.2888 113.695 60.6947 111.55 61.9125 109.86C63.1416 108.17 65.0022 107.199 67.0206 107.199H72.1851C75.083 107.199 77.6427 109.32 78.3982 112.353L84.9046 138.359H182.714L189.186 112.353C189.942 109.32 192.501 107.199 195.399 107.199H200.564C202.582 107.199 204.443 108.17 205.672 109.872C206.89 111.562 207.296 113.707 206.777 115.768L200.462 140.984C199.729 143.932 197.407 145.838 194.261 146.065L73.3352 146.053ZM67.0206 107.715C65.16 107.715 63.4348 108.613 62.3072 110.171C61.1796 111.729 60.8075 113.707 61.2811 115.612L67.5957 140.84C68.2835 143.597 70.6403 145.514 73.3352 145.514H194.249C197.192 145.298 199.29 143.585 199.989 140.816L206.303 115.6C206.777 113.695 206.405 111.717 205.277 110.159C204.15 108.601 202.424 107.703 200.564 107.703H195.399C192.727 107.703 190.37 109.656 189.66 112.46L183.142 138.671C183.108 138.791 183.018 138.863 182.905 138.863H84.7129C84.6001 138.863 84.4986 138.779 84.4761 138.671L77.9246 112.46C77.2255 109.656 74.8688 107.703 72.1851 107.703H67.0206V107.715Z" fill="#053C5A"/>
<path d="M183.109 138.608H84.7919C82.5367 138.608 80.71 136.667 80.71 134.27V130.758C80.71 128.361 82.5367 126.42 84.7919 126.42H183.109C185.364 126.42 187.191 128.361 187.191 130.758V134.27C187.191 136.667 185.364 138.608 183.109 138.608Z" fill="white"/>
<path d="M183.108 138.872H84.7918C82.4013 138.872 80.4618 136.81 80.4618 134.27V130.758C80.4618 128.217 82.4013 126.156 84.7918 126.156H183.108C185.499 126.156 187.438 128.217 187.438 130.758V134.27C187.438 136.81 185.499 138.872 183.108 138.872ZM84.7918 126.683C82.6719 126.683 80.9579 128.517 80.9579 130.758V134.27C80.9579 136.511 82.6832 138.344 84.7918 138.344H183.108C185.228 138.344 186.942 136.511 186.942 134.27V130.758C186.942 128.517 185.217 126.683 183.108 126.683H84.7918Z" fill="#053C5A"/>
<path d="M125.431 100.129L149.855 98.8702C150.949 98.8103 151.919 99.6373 152.099 100.788L155.707 123.93C155.933 125.344 154.895 126.627 153.542 126.603L128.295 126.327C127.224 126.315 126.322 125.464 126.175 124.338L123.39 102.741C123.221 101.399 124.157 100.201 125.431 100.129Z" fill="white"/>
<path d="M82.9651 127.112C82.8298 127.112 82.717 126.992 82.717 126.849C82.717 126.705 82.8298 126.585 82.9651 126.585L113.388 126.453C113.523 126.453 113.636 126.573 113.636 126.717C113.636 126.861 113.523 126.98 113.388 126.98L82.9651 127.112C82.9764 127.112 82.9764 127.112 82.9651 127.112Z" fill="#053C5A"/>
<path d="M152.437 155.625C152.516 155.853 160.804 164.781 160.804 164.781L155.707 167.262L149.009 159.496L152.437 155.625Z" fill="white"/>
<path d="M155.718 167.513C155.651 167.513 155.583 167.489 155.538 167.429L148.84 159.663C148.75 159.555 148.75 159.399 148.84 159.303L152.268 155.444C152.324 155.372 152.414 155.348 152.493 155.372C152.561 155.384 152.629 155.432 152.662 155.504C152.933 155.9 157.782 161.149 160.984 164.6C161.041 164.66 161.063 164.744 161.052 164.828C161.041 164.912 160.984 164.984 160.917 165.02L155.82 167.501C155.786 167.513 155.752 167.513 155.718 167.513ZM149.347 159.483L155.775 166.937L160.387 164.696C154.658 158.524 152.956 156.631 152.448 156.019L149.347 159.483Z" fill="#053C5A"/>
<path d="M155.425 163.432C155.606 162.952 155.921 162.389 156.496 162.017C157.365 161.454 158.492 161.562 159.315 162.209C161.368 163.827 166.949 168.441 170.197 172.971C171.347 174.577 170.84 176.722 168.291 176.722C164.13 176.722 157.466 175.021 151.851 170.035C151.208 169.46 150.87 168.585 150.982 167.698C151.073 166.979 151.23 166.068 151.524 165.205C151.794 164.378 152.606 163.899 153.407 164.055L154.128 164.199C154.692 164.306 155.222 163.983 155.425 163.432Z" fill="white"/>
<path d="M168.302 176.987C163.95 176.987 157.308 175.213 151.715 170.24C150.994 169.605 150.644 168.634 150.757 167.663C150.87 166.716 151.061 165.865 151.309 165.122C151.625 164.176 152.538 163.624 153.474 163.804L154.196 163.948C154.624 164.032 155.042 163.78 155.2 163.349C155.448 162.678 155.854 162.15 156.384 161.803C157.319 161.203 158.56 161.287 159.473 162.006C161.683 163.756 167.164 168.298 170.4 172.817C171.054 173.727 171.212 174.806 170.817 175.657C170.422 176.508 169.52 176.987 168.302 176.987ZM153.113 164.295C152.516 164.295 151.975 164.691 151.772 165.302C151.535 166.009 151.366 166.824 151.253 167.735C151.151 168.526 151.445 169.317 152.031 169.832C157.534 174.722 164.04 176.46 168.302 176.46C169.329 176.46 170.062 176.088 170.377 175.417C170.682 174.758 170.546 173.883 170.005 173.14C166.803 168.682 161.368 164.164 159.169 162.438C158.413 161.839 157.387 161.767 156.632 162.258C156.192 162.546 155.865 162.977 155.662 163.54C155.414 164.212 154.76 164.595 154.106 164.475L153.384 164.331C153.283 164.307 153.192 164.295 153.113 164.295Z" fill="#053C5A"/>
<path d="M166.848 174.893C164.367 174.893 159.936 173.85 152.956 168.841C152.843 168.757 152.809 168.589 152.888 168.469C152.967 168.349 153.114 168.313 153.238 168.397C164.581 176.547 169.069 173.934 169.114 173.91C169.227 173.838 169.385 173.874 169.453 174.006C169.52 174.126 169.486 174.294 169.362 174.366C169.306 174.426 168.517 174.893 166.848 174.893Z" fill="#053C5A"/>
<path d="M162.563 170.17C162.507 170.17 162.45 170.146 162.405 170.11C162.304 170.014 162.281 169.846 162.371 169.738L164.356 167.198C164.446 167.09 164.604 167.066 164.705 167.162C164.807 167.258 164.829 167.425 164.739 167.533L162.755 170.074C162.709 170.134 162.642 170.17 162.563 170.17Z" fill="#053C5A"/>
<path d="M160.623 168.651C160.567 168.651 160.511 168.627 160.454 168.579C160.353 168.483 160.342 168.316 160.432 168.208L162.631 165.583C162.721 165.475 162.879 165.463 162.98 165.559C163.082 165.655 163.093 165.823 163.003 165.931L160.804 168.555C160.759 168.615 160.691 168.651 160.623 168.651Z" fill="#053C5A"/>
<path d="M136.414 161.587L134.587 172.912L130.482 169.952L131.757 159.094L136.414 161.587Z" fill="white"/>
<path d="M134.587 173.175C134.542 173.175 134.485 173.163 134.452 173.127L130.347 170.167C130.268 170.107 130.223 170.011 130.246 169.915L131.52 159.057C131.531 158.973 131.576 158.901 131.644 158.853C131.712 158.817 131.802 158.817 131.869 158.853L136.526 161.346C136.628 161.394 136.673 161.514 136.662 161.622L134.835 172.947C134.824 173.031 134.767 173.115 134.688 173.151C134.655 173.175 134.621 173.175 134.587 173.175ZM130.753 169.819L134.418 172.456L136.143 161.729L131.96 159.488L130.753 169.819Z" fill="#053C5A"/>
<path d="M135.839 170.799C135.771 174.298 135.557 181.333 133.336 186.439C132.738 187.805 130.144 187.865 129.107 186.103C126.953 182.436 124.112 176.144 125.194 168.282C125.273 167.671 125.634 167.131 126.153 166.844C126.762 166.508 127.72 166.065 129.096 165.717C129.784 165.538 130.471 166.017 130.595 166.76L131.046 169.48L131.351 169.013C131.813 168.306 132.67 168.018 133.426 168.318C133.832 168.486 134.283 168.666 134.7 168.821C135.455 169.121 135.861 169.936 135.839 170.799Z" fill="white"/>
<path d="M131.497 187.708C130.437 187.708 129.423 187.144 128.893 186.233C125.431 180.349 124.112 174.297 124.935 168.244C125.025 167.549 125.431 166.938 126.017 166.615C126.592 166.291 127.585 165.824 129.028 165.464C129.423 165.356 129.84 165.44 130.178 165.68C130.516 165.919 130.753 166.303 130.821 166.722L131.17 168.808C131.7 168.041 132.648 167.729 133.505 168.077L134.779 168.58C135.602 168.904 136.109 169.779 136.098 170.821C136.042 173.65 135.906 181.188 133.572 186.569C133.279 187.228 132.591 187.66 131.712 187.72C131.633 187.708 131.565 187.708 131.497 187.708ZM129.378 165.943C129.299 165.943 129.22 165.955 129.152 165.967C127.765 166.315 126.818 166.77 126.265 167.07C125.826 167.322 125.51 167.789 125.442 168.316C124.63 174.249 125.938 180.181 129.321 185.958C129.896 186.929 130.945 187.228 131.678 187.18C132.366 187.132 132.907 186.821 133.121 186.329C135.422 181.044 135.557 173.602 135.602 170.797C135.613 169.982 135.241 169.323 134.61 169.071L133.335 168.568C132.681 168.304 131.948 168.556 131.554 169.167L131.249 169.635C131.193 169.719 131.091 169.767 130.99 169.743C130.889 169.719 130.821 169.635 130.798 169.527L130.347 166.806C130.302 166.519 130.144 166.279 129.919 166.111C129.75 166.003 129.569 165.943 129.378 165.943Z" fill="#053C5A"/>
<path d="M131.114 185.548C131.035 185.548 130.956 185.512 130.911 185.44C125.949 178.081 126.558 168.961 126.57 168.877C126.581 168.733 126.705 168.625 126.84 168.637C126.976 168.649 127.077 168.781 127.066 168.925C127.055 169.009 126.468 177.949 131.317 185.14C131.396 185.26 131.373 185.428 131.261 185.512C131.215 185.536 131.159 185.548 131.114 185.548Z" fill="#053C5A"/>
<path d="M135.286 175.878C135.264 175.878 135.252 175.878 135.23 175.866L132.118 175.099C131.982 175.063 131.903 174.919 131.926 174.788C131.96 174.644 132.095 174.56 132.219 174.584L135.331 175.351C135.467 175.387 135.546 175.531 135.523 175.663C135.5 175.806 135.399 175.878 135.286 175.878Z" fill="#053C5A"/>
<path d="M134.835 178.757C134.813 178.757 134.79 178.757 134.756 178.745L131.802 177.75C131.667 177.702 131.599 177.559 131.644 177.415C131.689 177.271 131.824 177.199 131.96 177.247L134.914 178.242C135.049 178.29 135.117 178.433 135.072 178.577C135.038 178.685 134.937 178.757 134.835 178.757Z" fill="#053C5A"/>
<path d="M107.073 112.002C107.073 112.002 121.653 109.293 135.286 116.484C138.725 118.294 140.958 121.949 141.15 126.012C141.522 134.09 141.477 148.903 137.474 162.002C137.248 162.745 136.481 163.14 135.794 162.865L129.704 160.408C129.299 160.24 128.994 159.869 128.904 159.413C128.318 156.477 126.265 145.295 127.325 137.038C128.554 127.45 99.2927 119.061 99.2927 119.061L107.073 112.002Z" fill="#053C5A"/>
<path d="M154.151 157.51L149.032 161.524C148.693 161.788 148.22 161.752 147.915 161.441C144.454 157.821 124.946 137.531 120.176 135.002C114.944 132.222 105.224 128.147 96.6202 128.699C88.0165 129.25 85.874 122.994 85.874 122.994L97.7252 113.85C97.7252 113.85 119.105 115.18 128.475 122.419C136.944 128.962 151.591 151.865 154.354 156.251C154.613 156.659 154.523 157.21 154.151 157.51Z" fill="#053C5A"/>
<path d="M141.601 137.149C141.533 137.149 141.454 137.113 141.409 137.053C137.553 131.959 131.61 125.176 128.329 122.647C124.777 119.903 119.105 117.697 111.46 116.08C111.324 116.056 111.234 115.912 111.268 115.768C111.29 115.624 111.426 115.528 111.561 115.564C119.274 117.194 125.013 119.435 128.622 122.228C131.926 124.78 137.913 131.612 141.792 136.729C141.883 136.837 141.86 137.005 141.759 137.101C141.702 137.137 141.657 137.149 141.601 137.149Z" fill="white"/>
<path d="M93.6658 97.4348C93.6658 97.4348 99.0783 114.393 105.043 116.179C111.008 117.964 115.158 112.571 115.124 107.01L113.095 106.303C113.095 106.303 111.02 112.008 106.374 110.522C101.739 109.036 97.308 93.6956 97.308 93.6956L93.6658 97.4348Z" fill="white"/>
<path d="M107.333 116.791C106.611 116.791 105.822 116.683 104.976 116.431C98.9544 114.634 93.6546 98.2146 93.429 97.5195C93.3952 97.4236 93.4178 97.3157 93.4967 97.2438L97.1389 93.5166C97.2065 93.4567 97.2855 93.4327 97.3757 93.4567C97.4546 93.4807 97.5223 93.5526 97.5561 93.6365C97.6012 93.7923 102.01 108.845 106.464 110.271C110.828 111.661 112.79 106.436 112.88 106.208C112.925 106.077 113.061 106.005 113.185 106.053L115.215 106.76C115.316 106.796 115.384 106.891 115.384 107.011C115.395 110.247 114.031 113.375 111.809 115.173C110.806 115.988 109.306 116.791 107.333 116.791ZM93.9477 97.5075C94.5116 99.2213 99.6422 114.298 105.1 115.928C108.088 116.827 110.219 115.784 111.493 114.765C113.546 113.1 114.831 110.223 114.876 107.215L113.241 106.64C112.779 107.718 110.569 112.141 106.318 110.786C101.988 109.396 97.9508 96.7165 97.1953 94.1997L93.9477 97.5075Z" fill="#053C5A"/>
<path d="M90.0351 126.692C90.0351 126.692 84.9495 130.24 82.3786 128.91C79.8076 127.579 84.6902 123.109 86.0433 123.025C87.3965 122.941 90.0351 126.692 90.0351 126.692Z" fill="#053C5A"/>
<path d="M94.7598 69.0595C96.9474 68.9037 99.2816 71.1089 98.808 74.5365C98.4133 77.3289 95.6055 77.9761 94.2186 79.3783C89.7645 83.9205 93.3729 89.4933 89.8209 94.0834C86.438 98.4578 81.984 94.9343 75.3762 99.7522C70.1779 103.551 88.479 98.5777 81.9276 102.497C76.6955 105.625 67.3475 104.618 62.4988 97.7627C57.8756 91.2431 57.3456 81.955 62.8033 77.9042C67.7084 74.2608 70.6627 79.1746 75.861 75.8069C80.9804 72.4871 79.8866 68.7959 83.0327 67.4895C87.3289 65.6798 88.558 69.5029 94.7598 69.0595Z" fill="#053C5A"/>
<path d="M66.7953 101.469C67.19 99.7672 67.7312 97.7657 68.2274 96.4474C69.7722 92.4206 70.8096 89.8079 75.2975 87.6867C75.9741 87.3631 76.6732 87.1234 77.3836 86.9316L80.056 86.2006C80.056 86.2006 91.0728 83.7437 95.0984 88.5016C95.4254 88.8851 95.8426 89.3286 96.0907 89.8199L98.6053 94.5539L98.5827 94.5658C96.0118 95.4647 94.7488 98.5687 95.9103 101.157C97.2521 104.142 99.1465 107.665 101.165 109.211C101.808 109.702 107.017 112.459 107.017 112.459C107.017 112.459 108.043 116.833 99.5299 119.865C91.0164 122.898 84.9048 123.772 82.8638 128.159C81.6572 130.759 78.3421 117.6 76.4589 105.364C76.0981 103.015 74.1699 101.301 71.9147 101.349L66.7953 101.469Z" fill="white"/>
<path d="M82.5141 128.757C82.4803 128.757 82.4578 128.757 82.4352 128.745C80.5972 128.457 77.6429 114.639 76.2221 105.399C75.8838 103.218 74.0909 101.6 72.0273 101.6C71.9935 101.6 71.971 101.6 71.9371 101.6L66.8065 101.72C66.7276 101.72 66.6599 101.684 66.6035 101.624C66.5584 101.564 66.5359 101.48 66.5584 101.396C67.0207 99.3827 67.562 97.5012 68.0018 96.3386C69.4902 92.4436 70.5727 89.6153 75.2072 87.4341C75.8612 87.1225 76.5603 86.8708 77.3271 86.667L79.9996 85.936C80.4619 85.8281 91.208 83.5031 95.2787 88.3209C95.3351 88.3808 95.3915 88.4528 95.4479 88.5247C95.7411 88.8722 96.0793 89.2557 96.3049 89.6992L98.8194 94.4211C98.8533 94.493 98.8645 94.5769 98.8307 94.6488C98.8082 94.7207 98.7518 94.7806 98.6728 94.8046L98.6503 94.8166C97.4888 95.2241 96.5417 96.1469 96.0568 97.3454C95.5832 98.5318 95.6057 99.8861 96.1244 101.049C97.3761 103.817 99.2818 107.448 101.3 109.006C101.796 109.39 105.314 111.283 107.119 112.23C107.186 112.266 107.231 112.326 107.254 112.398C107.299 112.59 108.246 117.048 99.6088 120.116C97.6918 120.799 95.8651 121.387 94.2413 121.902C88.6484 123.688 84.6115 124.982 83.0779 128.278C82.9088 128.661 82.6946 128.757 82.5141 128.757ZM72.0161 101.085C74.3277 101.085 76.3348 102.894 76.7069 105.327C78.6239 117.803 81.4429 128.062 82.5029 128.23C82.5254 128.242 82.5818 128.182 82.6382 128.05C84.2619 124.538 88.389 123.22 94.106 121.399C95.7185 120.883 97.5452 120.296 99.4509 119.625C106.859 116.988 106.859 113.333 106.792 112.65C106.002 112.23 101.616 109.905 101.018 109.438C98.9096 107.82 96.9589 104.105 95.6847 101.276C95.0983 99.97 95.0645 98.4599 95.6057 97.1296C96.1132 95.8832 97.0604 94.9005 98.2444 94.4091L95.8764 89.9508C95.6847 89.5673 95.3689 89.1958 95.087 88.8842C95.0307 88.8123 94.963 88.7524 94.9179 88.6805C91.0389 84.0903 80.2251 86.4393 80.1123 86.4633L77.4512 87.1944C76.7069 87.3981 76.0304 87.6378 75.4102 87.9374C70.9561 90.0347 69.9638 92.6354 68.4641 96.5544C68.0581 97.621 67.562 99.3348 67.1222 101.204L71.9258 101.097C71.9597 101.085 71.9935 101.085 72.0161 101.085Z" fill="#053C5A"/>
<path d="M110.287 118.639H95.1769C94.9063 118.639 94.7259 118.327 94.8612 118.064L104.908 98.7565C104.976 98.6366 105.089 98.5527 105.224 98.5527H120.323C120.593 98.5527 120.774 98.8643 120.638 99.128L110.591 118.435C110.535 118.567 110.411 118.639 110.287 118.639Z" fill="white"/>
<path d="M110.287 118.903H95.1768C94.9626 118.903 94.7596 118.783 94.6468 118.579C94.5341 118.375 94.5341 118.136 94.6356 117.932L104.683 98.6246C104.795 98.4209 104.998 98.2891 105.213 98.2891H120.311C120.526 98.2891 120.729 98.4089 120.841 98.6126C120.954 98.8164 120.954 99.0561 120.853 99.2598L110.817 118.567C110.704 118.771 110.501 118.903 110.287 118.903ZM105.224 98.8284C105.179 98.8284 105.145 98.8523 105.122 98.8883L95.0753 118.196C95.0528 118.243 95.064 118.291 95.0753 118.315C95.0866 118.339 95.1204 118.375 95.1768 118.375H110.276C110.321 118.375 110.354 118.351 110.377 118.315L120.424 99.0081C120.447 98.9602 120.435 98.9123 120.424 98.8883C120.413 98.8643 120.379 98.8284 120.323 98.8284H105.224Z" fill="#053C5A"/>
<path d="M113.456 113.032C113.456 113.032 113.151 111.366 113.456 110.252C113.76 109.137 115.609 105.841 116.139 105.146C116.681 104.463 117.132 111.846 113.456 113.032Z" fill="white"/>
<path d="M113.456 113.294C113.411 113.294 113.365 113.282 113.332 113.258C113.275 113.222 113.23 113.15 113.219 113.078C113.208 113.006 112.914 111.341 113.219 110.178C113.523 109.052 115.384 105.72 115.948 104.977C116.06 104.821 116.218 104.809 116.32 104.857C116.737 105.025 116.76 106.283 116.737 107.026C116.669 109.567 115.779 112.551 113.523 113.282C113.512 113.294 113.49 113.294 113.456 113.294ZM116.173 105.564C115.497 106.583 113.963 109.375 113.704 110.334C113.501 111.101 113.591 112.168 113.659 112.683C114.843 112.156 115.463 110.897 115.779 109.89C116.342 108.141 116.309 106.259 116.173 105.564Z" fill="#053C5A"/>
<path d="M98.2892 114.721L94.3651 113.199C93.7788 112.971 93.136 113.091 92.6512 113.498L90.8019 115.08C90.4523 115.38 90.0013 115.524 89.5502 115.488C87.5769 115.32 78.6349 112.384 77.7441 110.706C77.3043 109.879 76.7405 107.039 76.3346 104.702C75.9963 102.736 74.3613 101.334 72.4894 101.37L68.4413 101.466C68.4413 101.466 69.4674 111.832 72.7262 115.2C75.2521 117.813 81.2735 119.203 90.0351 118.783C90.0351 118.783 91.8731 118.592 93.4292 116.674C94.4328 115.452 96.8008 116.123 98.2328 115.787C98.729 115.655 98.7741 114.912 98.2892 114.721Z" fill="white"/>
<path d="M87.0582 119.118C79.9993 119.118 74.9025 117.824 72.557 115.391C69.2644 111.988 68.227 101.92 68.1932 101.489C68.1819 101.417 68.2045 101.345 68.2496 101.285C68.2947 101.225 68.3623 101.201 68.43 101.201L72.4781 101.105C72.5119 101.105 72.5345 101.105 72.5683 101.105C74.5416 101.105 76.2105 102.58 76.5713 104.653C77.1239 107.841 77.62 109.95 77.947 110.573C78.7815 112.155 87.5994 115.056 89.5502 115.223C89.9448 115.259 90.3282 115.139 90.6327 114.876L92.482 113.294C93.0345 112.826 93.7787 112.695 94.444 112.946L98.3681 114.468C98.6951 114.6 98.8981 114.912 98.8755 115.283C98.853 115.655 98.6162 115.942 98.2779 116.026C97.7479 116.158 97.139 116.146 96.485 116.146C95.3574 116.134 94.196 116.134 93.6209 116.829C92.0084 118.807 90.1365 119.023 90.0576 119.034C89.0202 119.094 88.0166 119.118 87.0582 119.118ZM68.7119 101.717C68.9036 103.407 70.0425 112.047 72.8953 114.996C75.4325 117.62 81.6794 118.903 90.0238 118.507C90.0238 118.507 91.7716 118.303 93.2488 116.494C93.9704 115.607 95.2559 115.607 96.4963 115.619C97.1165 115.619 97.7141 115.631 98.1764 115.511C98.3568 115.463 98.3794 115.295 98.3907 115.247C98.3907 115.199 98.3907 115.032 98.2103 114.96L94.2862 113.438C93.79 113.246 93.2262 113.342 92.809 113.701L90.9597 115.283C90.5538 115.631 90.0463 115.787 89.5276 115.751C87.5994 115.583 78.4996 112.671 77.5298 110.825C77.1577 110.13 76.6841 108.081 76.0978 104.737C75.7707 102.891 74.271 101.585 72.5007 101.621L68.7119 101.717Z" fill="#053C5A"/>
<path d="M81.3864 86.015C81.3864 86.015 84.5776 78.6445 84.7693 77.7337C84.7693 77.7337 84.104 77.2303 84.2957 76.0678C84.6452 73.8506 86.5847 75.2409 86.5847 75.2409L86.7877 75.3248C87.9379 75.7922 89.2008 75.9 90.4074 75.6364L92.9445 75.0731C92.9445 75.0731 93.3391 76.0918 92.516 77.8415C92.1213 78.6685 92.0537 79.6991 92.0762 80.7778C92.0762 81.0654 91.862 81.2931 91.6026 81.3051L90.9373 81.3171C90.4976 82.1081 90.1367 82.5635 89.5053 83.0189C89.3361 83.1387 89.1219 83.1987 88.9189 83.1507C88.637 83.0908 88.2198 82.971 87.7575 82.6833L86.9907 85.8952L88.6032 86.075C88.6032 86.075 88.9302 88.1963 85.6939 89.2509C83.9123 89.8262 81.5443 89.3348 79.7852 88.7715C78.8831 88.4839 78.8155 87.1536 79.6837 86.7701L81.3864 86.015Z" fill="white"/>
<path d="M83.8785 89.7892C82.4351 89.7892 80.9016 89.4177 79.7176 89.0342C79.1989 88.8664 78.8493 88.399 78.8268 87.8237C78.8042 87.2604 79.0974 86.7451 79.5936 86.5294L81.206 85.8103C82.0743 83.8089 84.1604 78.9191 84.4987 77.8165C84.2844 77.5768 83.901 77.0016 84.0589 76.0188C84.1717 75.3118 84.4536 74.8563 84.8933 74.6526C85.6376 74.317 86.5509 74.8923 86.7088 75.0121L86.8779 75.084C87.983 75.5395 89.1895 75.6473 90.351 75.3837L92.8881 74.8204C93.0009 74.7964 93.1249 74.8563 93.17 74.9762C93.1926 75.0241 93.5985 76.1267 92.7303 77.9604C92.3356 78.7993 92.3018 79.8539 92.313 80.7767C92.3243 81.2082 91.9973 81.5677 91.5914 81.5677L91.0614 81.5797C90.6103 82.3587 90.227 82.8022 89.6293 83.2336C89.4038 83.4014 89.1219 83.4613 88.8513 83.4134C88.6145 83.3654 88.2762 83.2695 87.9041 83.0778L87.2839 85.6665L88.6145 85.8223C88.7272 85.8343 88.8174 85.9301 88.8287 86.038C88.84 86.1339 89.1557 88.399 85.7503 89.5135C85.1752 89.7053 84.5325 89.7892 83.8785 89.7892ZM85.3895 75.084C85.2767 75.084 85.1752 75.108 85.0738 75.144C84.8031 75.2638 84.6227 75.5994 84.5438 76.1147C84.3859 77.0975 84.9159 77.5169 84.9159 77.5169C84.9948 77.5768 85.0399 77.6847 85.0174 77.7926C84.8257 78.7274 81.7473 85.8343 81.612 86.1339C81.5894 86.1938 81.5443 86.2417 81.4767 86.2657L79.774 87.0207C79.4131 87.1765 79.3004 87.5241 79.3117 87.7997C79.3229 88.0754 79.4695 88.411 79.8529 88.5308C81.5218 89.0701 83.8672 89.5855 85.615 89.0102C88.0507 88.2192 88.3326 86.841 88.3551 86.3256L86.9569 86.1698C86.8892 86.1578 86.8216 86.1219 86.7765 86.062C86.7313 86.002 86.7201 85.9182 86.7426 85.8462L87.5094 82.6344C87.532 82.5505 87.5771 82.4906 87.656 82.4546C87.7236 82.4186 87.8139 82.4306 87.8815 82.4666C88.31 82.7302 88.7047 82.8501 88.964 82.898C89.0993 82.922 89.2459 82.886 89.37 82.8022C89.945 82.3827 90.2833 81.9752 90.7344 81.1842C90.7795 81.1003 90.8584 81.0524 90.9373 81.0524L91.6026 81.0404C91.738 81.0404 91.8394 80.9206 91.8394 80.7767C91.8282 79.794 91.862 78.6675 92.313 77.7207C92.8543 76.5582 92.8317 75.7432 92.7754 75.3837L90.475 75.887C89.2121 76.1627 87.9153 76.0548 86.7201 75.5634L86.5171 75.4795C86.4945 75.4676 86.4833 75.4676 86.472 75.4556C86.269 75.3357 85.8067 75.084 85.3895 75.084Z" fill="#053C5A"/>
<path d="M87.7461 82.9543C87.701 82.9543 87.6559 82.9423 87.6108 82.9183L87.1936 82.6307C87.0808 82.5468 87.047 82.391 87.1147 82.2712C87.1936 82.1513 87.3402 82.1154 87.453 82.1873L87.8702 82.4749C87.9829 82.5588 88.0168 82.7146 87.9491 82.8345C87.9153 82.9183 87.8363 82.9543 87.7461 82.9543Z" fill="#053C5A"/>
<ellipse cx="119" cy="198" rx="36" ry="2" fill="#053C5A"/>
<defs>
<linearGradient id="paint0_linear_2254_7008" x1="0" y1="46.5" x2="118.563" y2="46.5" gradientUnits="userSpaceOnUse">
<stop stop-color="#3CCDAA" stop-opacity="0.2"/>
<stop offset="1" stop-color="#053C5A" stop-opacity="0.2"/>
</linearGradient>
</defs>
</svg>
